<svg width="816" height="471" viewBox="0 0 816 471" fill="none" xmlns="http://www.w3.org/2000/svg">
<path d="M119.477 68.9833C-39.8345 160.949 -39.8167 310.06 119.477 402.026C278.77 493.991 537.062 493.991 696.355 402.026C855.649 310.06 855.649 160.931 696.355 68.9655C537.062 -23.0004 278.77 -22.9826 119.477 68.9833Z" fill="#23B851"/>
<path opacity="0.7" d="M119.477 68.9833C-39.8345 160.949 -39.8167 310.06 119.477 402.026C278.77 493.991 537.062 493.991 696.355 402.026C855.649 310.06 855.649 160.931 696.355 68.9655C537.062 -23.0004 278.77 -22.9826 119.477 68.9833Z" fill="white"/>
<g opacity="0.4">
<path d="M212.208 377.672C211.762 376.156 211.057 374.729 210.125 373.453C209.526 372.699 208.858 372.002 208.131 371.37C207.669 370.979 206.957 370.302 206.351 370.48C206.155 370.48 206.155 370.907 206.262 371.032C206.689 371.62 207.348 372.011 207.74 372.634C208.038 373.199 208.271 373.797 208.434 374.414C209.03 375.93 209.506 377.489 209.858 379.079C210.151 380.542 210.347 382.022 210.446 383.511C210.446 384.241 210.553 384.953 210.642 385.701C210.728 386.383 210.895 387.053 211.14 387.695C211.14 387.926 211.603 388.336 211.852 388.051C212.967 386.508 213.445 384.596 213.187 382.71C213.101 380.993 212.772 379.297 212.208 377.672Z" fill="#23B851"/>
<path d="M217.656 355.046C214.505 358.927 214.487 364.552 214.451 369.288C214.451 372.172 214.451 375.056 214.54 377.94C214.379 381.035 214.643 384.137 215.323 387.161C215.43 387.482 216.089 388.14 216.32 387.535C217.228 385.007 216.89 381.66 216.943 378.99C216.997 376.32 216.943 373.329 216.943 370.498C216.925 367.936 217.05 365.374 217.317 362.826C217.602 360.422 218.136 358.055 218.439 355.705C218.457 355.42 217.976 354.654 217.656 355.046Z" fill="#23B851"/>
<path d="M224.99 370.356C223.37 370.658 222.195 372.528 221.43 373.916C220.792 375.165 220.308 376.486 219.988 377.851C219.632 379.39 219.4 380.956 219.293 382.532C218.871 384.225 219.113 386.015 219.97 387.535C220.112 387.695 220.486 387.909 220.7 387.731C221.91 386.716 221.608 384.704 221.715 383.262C221.827 381.677 222.047 380.101 222.373 378.545C222.688 377.215 223.123 375.916 223.673 374.664C224.363 373.511 224.913 372.28 225.311 370.997C225.364 370.765 225.293 370.302 224.99 370.356Z" fill="#23B851"/>
<path d="M588.456 376.978C588.059 375.631 587.426 374.366 586.587 373.239C586.055 372.588 585.459 371.991 584.807 371.459C584.397 371.103 583.756 370.516 583.169 370.676C582.991 370.676 583.009 371.05 583.169 371.157C583.561 371.673 584.13 372.029 584.469 372.581C584.733 373.062 584.948 373.569 585.109 374.094C585.632 375.442 586.049 376.829 586.356 378.242C586.614 379.541 586.793 380.855 586.89 382.176C586.89 382.835 586.979 383.458 587.05 384.117C587.143 384.722 587.292 385.318 587.495 385.897C587.495 386.093 587.904 386.449 588.136 386.217C589.134 384.847 589.556 383.141 589.311 381.464C589.242 379.936 588.954 378.425 588.456 376.978Z" fill="#23B851"/>
<path d="M593.281 356.897C590.486 360.333 590.468 365.336 590.432 369.59C590.432 372.136 590.432 374.7 590.521 377.263C590.375 380.012 590.609 382.767 591.216 385.452C591.305 385.737 591.892 386.324 592.088 385.79C592.665 383.306 592.851 380.748 592.64 378.207C592.64 375.696 592.64 373.169 592.64 370.658C592.634 368.381 592.753 366.105 592.996 363.84C593.227 361.704 593.726 359.603 593.975 357.485C593.993 357.218 593.565 356.541 593.281 356.897Z" fill="#23B851"/>
<path d="M599.796 370.48C598.354 370.765 597.304 372.403 596.663 373.613C596.098 374.744 595.673 375.94 595.399 377.174C595.077 378.543 594.869 379.936 594.776 381.339C594.388 382.837 594.598 384.427 595.363 385.772C595.488 385.915 595.826 386.11 596.022 385.95C597.09 385.042 596.823 383.28 596.912 381.998C597.008 380.586 597.204 379.182 597.5 377.797C597.784 376.618 598.177 375.467 598.675 374.361C599.276 373.335 599.754 372.242 600.099 371.103C600.134 370.854 600.063 370.427 599.796 370.48Z" fill="#23B851"/>
<path d="M431.192 417.941C431.603 416.574 432.241 415.286 433.079 414.131C433.617 413.458 434.213 412.832 434.859 412.262C435.287 411.888 435.928 411.283 436.533 411.443C436.711 411.443 436.693 411.835 436.533 411.942C436.141 412.476 435.554 412.832 435.198 413.401C434.937 413.891 434.722 414.403 434.557 414.932C434.028 416.31 433.606 417.727 433.293 419.169C433.019 420.485 432.835 421.817 432.741 423.157C432.741 423.833 432.652 424.474 432.581 425.151C432.488 425.759 432.333 426.355 432.118 426.931C432.118 427.145 431.709 427.501 431.477 427.251C430.465 425.861 430.037 424.129 430.284 422.427C430.373 420.896 430.679 419.386 431.192 417.941Z" fill="#23B851"/>
<path d="M426.279 397.504C429.127 401.065 429.145 406.085 429.18 410.411C429.18 413.028 429.18 415.627 429.18 418.226C429.322 421.028 429.082 423.837 428.468 426.575C428.379 426.878 427.774 427.465 427.578 426.913C426.987 424.389 426.794 421.788 427.009 419.205C427.009 416.641 427.009 414.078 427.009 411.514C427.024 409.195 426.905 406.877 426.653 404.572C426.403 402.4 425.923 400.263 425.656 398.092C425.549 397.842 425.994 397.148 426.279 397.504Z" fill="#23B851"/>
<path d="M419.639 411.336C421.098 411.621 422.167 413.294 422.825 414.523C423.397 415.654 423.833 416.849 424.125 418.083C424.448 419.476 424.656 420.893 424.748 422.32C425.148 423.842 424.931 425.461 424.143 426.824C424.018 426.984 423.68 427.18 423.484 427.02C422.398 426.094 422.665 424.278 422.576 422.979C422.473 421.542 422.271 420.115 421.971 418.706C421.693 417.485 421.299 416.293 420.796 415.146C420.17 414.107 419.674 412.995 419.318 411.835C419.3 411.71 419.354 411.283 419.639 411.336Z" fill="#23B851"/>
<path d="M50.1197 204.6C50.5092 203.322 51.111 202.118 51.8999 201.04C52.4071 200.395 52.9733 199.799 53.5911 199.259C54.0006 198.921 54.6058 198.351 55.1577 198.494C55.3357 198.494 55.3179 198.868 55.1577 198.974C54.7839 199.473 54.2498 199.793 53.9116 200.327C53.6554 200.79 53.4524 201.279 53.3063 201.787C52.7982 203.076 52.3934 204.404 52.0957 205.757C51.8499 206.997 51.6834 208.252 51.5973 209.513C51.5973 210.154 51.5973 210.759 51.4371 211.294C51.3631 211.901 51.2198 212.499 51.0098 213.074C51.0098 213.27 50.6182 213.608 50.4045 213.376C49.4499 212.062 49.0415 210.428 49.2652 208.819C49.3506 207.38 49.6383 205.959 50.1197 204.6Z" fill="#23B851"/>
<path d="M45.4911 185.338C48.1615 188.649 48.1793 193.438 48.2149 197.515C48.2149 199.954 48.2149 202.41 48.2149 204.867C48.3402 207.502 48.1127 210.143 47.5384 212.718C47.5384 213.003 46.8975 213.554 46.7017 213.038C46.1484 210.659 45.9683 208.209 46.1676 205.775C46.1676 203.354 46.1676 200.95 46.1676 198.529C46.1763 196.347 46.0694 194.167 45.8472 191.996C45.598 189.949 45.1351 187.955 44.8859 185.908C44.7969 185.658 45.2241 185 45.4911 185.338Z" fill="#23B851"/>
<path d="M39.2426 198.37C40.6133 198.637 41.6281 200.15 42.2511 201.378C42.7855 202.442 43.1919 203.565 43.4617 204.725C43.7731 206.035 43.9697 207.369 44.0492 208.713C44.4233 210.151 44.2187 211.678 43.4795 212.967C43.3727 213.092 43.0522 213.288 42.8742 213.127C41.8417 212.255 42.0909 210.564 42.0019 209.336C41.9107 207.982 41.7203 206.638 41.4322 205.312C41.1747 204.181 40.8049 203.077 40.3285 202.019C39.7497 201.03 39.2839 199.979 38.9399 198.886C38.9221 198.726 38.9756 198.316 39.2426 198.37Z" fill="#23B851"/>
<path d="M327.085 327.043C326.711 325.759 326.108 324.553 325.305 323.483C324.805 322.837 324.245 322.241 323.632 321.703C323.258 321.364 322.653 320.795 322.101 320.955C321.941 320.955 321.958 321.311 322.101 321.418C322.533 321.835 322.943 322.275 323.329 322.735C323.581 323.185 323.778 323.663 323.917 324.159C324.413 325.425 324.806 326.729 325.092 328.058C325.346 329.267 325.513 330.492 325.59 331.725C325.59 332.348 325.59 332.953 325.75 333.505C325.832 334.077 325.975 334.638 326.177 335.179C326.177 335.357 326.551 335.695 326.765 335.464C327.699 334.181 328.095 332.584 327.869 331.013C327.79 329.66 327.526 328.325 327.085 327.043Z" fill="#23B851"/>
<path d="M331.625 308.209C328.99 311.449 328.99 316.131 328.99 320.136C328.99 322.539 328.99 324.943 328.99 327.257C328.86 329.833 329.081 332.414 329.649 334.93C329.738 335.197 330.29 335.749 330.468 335.25C331.007 332.917 331.181 330.515 330.984 328.129C330.984 325.762 330.984 323.394 330.984 321.008C330.969 318.874 331.07 316.741 331.287 314.617C331.518 312.624 331.981 310.648 332.23 308.654C332.284 308.529 331.892 307.888 331.625 308.209Z" fill="#23B851"/>
<path d="M337.731 320.955C336.378 321.204 335.399 322.735 334.794 323.892C334.27 324.934 333.87 326.033 333.601 327.168C333.298 328.449 333.102 329.753 333.013 331.067C332.655 332.471 332.859 333.959 333.583 335.214C333.69 335.357 334.01 335.535 334.188 335.392C335.203 334.538 334.936 332.882 335.025 331.672C335.12 330.349 335.305 329.035 335.577 327.738C335.839 326.632 336.203 325.554 336.663 324.515C337.24 323.555 337.695 322.527 338.016 321.453C338.051 321.293 337.98 320.902 337.731 320.955Z" fill="#23B851"/>
<path d="M770.002 204.938C769.592 203.539 768.935 202.225 768.062 201.057C767.533 200.36 766.936 199.716 766.282 199.135C765.837 198.761 765.196 198.138 764.501 198.298C764.323 198.298 764.341 198.69 764.501 198.814C764.893 199.348 765.498 199.704 765.854 200.292C766.128 200.796 766.349 201.327 766.513 201.876C767.061 203.275 767.496 204.716 767.813 206.184C768.095 207.534 768.279 208.903 768.364 210.279C768.364 210.955 768.471 211.632 768.543 212.308C768.638 212.915 768.793 213.512 769.005 214.089C769.005 214.302 769.433 214.676 769.664 214.409C770.709 212.985 771.15 211.207 770.892 209.46C770.803 207.919 770.503 206.398 770.002 204.938Z" fill="#23B851"/>
<path d="M775.023 184.039C772.121 187.599 772.103 192.815 772.068 197.248C772.068 199.9 772.067 202.588 772.156 205.241C771.998 208.103 772.237 210.973 772.869 213.768C772.975 214.071 773.581 214.676 773.794 214.124C774.396 211.535 774.588 208.868 774.364 206.22C774.364 203.603 774.364 200.986 774.364 198.352C774.357 195.973 774.475 193.596 774.72 191.231C774.987 189.005 775.485 186.816 775.753 184.608C775.824 184.377 775.325 183.665 775.023 184.039Z" fill="#23B851"/>
<path d="M781.823 198.174C780.31 198.476 779.224 200.185 778.547 201.449C777.972 202.581 777.53 203.776 777.23 205.01C776.892 206.436 776.678 207.89 776.589 209.353C776.186 210.913 776.41 212.568 777.212 213.964C777.337 214.107 777.693 214.32 777.871 214.142C778.993 213.199 778.725 211.347 778.815 210.03C778.915 208.557 779.123 207.093 779.438 205.651C779.718 204.428 780.117 203.235 780.63 202.09C781.264 201.019 781.772 199.878 782.143 198.69C782.161 198.565 782.108 198.12 781.823 198.174Z" fill="#23B851"/>
</g>
</svg>
