<svg width="2262" height="965" viewBox="0 0 2262 965" fill="none" xmlns="http://www.w3.org/2000/svg">
<path d="M1456 109.337C1456 109.337 1527.6 52.8087 1590.87 50.1961C1654.2 47.5538 1653.32 72.4629 1710.02 73.8879C1766.73 75.313 1797.86 38.0533 1880.42 54.8573C1962.98 71.6612 1969.55 112.662 1974.5 128.367C1979.45 144.102 2020.71 144.993 2069.46 146.952C2118.16 148.912 2118.44 170.644 2123.94 184.776C2129.45 198.908 2154.47 194.158 2195.22 196.622C2235.97 199.116 2261.55 222.778 2260.99 239.404L2260.44 256L1901.33 174.652L1966.82 210.695C1966.82 210.695 1819.32 186.29 1762.34 178.126C1705.35 169.991 1584.82 157.759 1584.82 157.759L1651.98 143.984L1456.05 109.307L1456 109.337Z" fill="#5C8A60"/>
<path d="M0 248.004C0 248.004 27.8495 177.861 83.5484 158.482C139.247 139.103 154.837 161.785 207.205 147.834C259.574 133.882 263.367 91.9377 349.275 84.9175C435.182 77.8974 468.074 113.057 482.878 125.888C497.682 138.719 535.709 128.454 581.184 117.128C626.659 105.801 641.139 125.328 655.434 136.566C669.682 147.834 689.297 136.802 727.879 128.1C766.461 119.399 805.182 133.852 815.591 148.984L826 164.086L446.84 187.211L529.88 202.107C529.88 202.107 380.039 219.717 323.044 227.681C266.004 235.645 148.638 257 148.638 257L200.544 226.56L0.0462714 247.945L0 248.004Z" fill="#5C8A60"/>
<path d="M2261 239L2192.84 223.072C2192.84 223.072 1780 126.909 1686.68 116.526C1593.36 106.143 1089.23 46.2215 580.98 121.718C464.71 139.001 340.019 159.834 268.675 176.28C230.412 185.122 121.498 210.076 81.9861 220.459C50.8481 228.665 14.2506 236.771 0.0927734 239.819H2261V239Z" fill="#DDBD8D"/>
<path d="M2261 238.111L2192.84 223.105C2192.84 223.105 2179.06 219.89 2156.06 214.597C2131.12 214.062 2159.67 223.473 2119.65 226.387C2075.28 229.603 2059.78 227.995 2028.73 224.78C1997.69 221.564 1968.86 213.526 1944.48 216.741C1920.1 219.957 1955.58 227.962 1915.66 229.569C1875.73 231.177 1829.18 223.139 1762.65 216.741C1696.12 210.31 1671.73 199.09 1678.4 221.564C1685.06 244.039 1576.38 213.526 1516.51 207.128C1456.64 200.697 1481.02 218.382 1472.14 224.78C1463.25 231.177 1376.78 224.78 1305.8 219.957C1234.83 215.133 1208.23 227.995 1103.99 229.603C999.746 231.211 957.643 219.957 939.876 219.957C922.109 219.957 893.285 218.349 893.285 218.349L831.194 226.387C831.194 226.387 775.766 226.387 731.395 219.957C687.025 213.526 660.421 232.785 580.61 232.785C500.798 232.785 500.798 218.349 487.473 211.918C474.148 205.487 454.207 216.741 425.382 224.746C396.558 232.785 387.675 224.746 369.954 218.315C352.234 211.884 301.201 226.354 254.656 229.536C208.065 232.751 234.715 229.536 241.331 216.708C247.993 203.879 230.227 207.061 163.694 219.923C97.1615 232.751 0 239.819 0 239.819V363.5L536.5 592.5L1136.5 729L1713 592.5L2261 340C2260.58 339.397 2261.41 238.646 2260.95 238.077L2261 238.111Z" fill="#F4D6B1"/>
<path d="M2260.9 336.445L2192.75 317.231C2192.75 317.231 2178.97 313.114 2155.97 306.338C2131.03 305.652 2159.58 317.703 2119.56 321.434C2075.19 325.552 2059.69 323.493 2028.65 319.376C1997.6 315.259 1968.78 304.966 1944.4 309.083C1920.02 313.2 1955.5 323.45 1915.58 325.509C1875.65 327.567 1829.11 317.274 1762.58 309.083C1696.05 300.848 1671.66 286.481 1678.33 315.259C1684.99 344.036 1576.31 304.966 1516.44 296.774C1456.58 288.54 1480.96 311.184 1472.08 319.376C1463.19 327.567 1376.72 319.376 1305.75 313.2C1234.78 307.024 1208.18 323.493 1103.94 325.552C999.705 327.61 957.603 313.2 939.837 313.2C922.071 313.2 893.248 311.141 893.248 311.141L831.159 321.434C831.159 321.434 775.733 321.434 731.365 313.2C686.996 304.966 660.394 329.626 580.586 329.626C500.778 329.626 500.778 311.141 487.453 302.907C474.129 294.673 454.188 309.083 425.365 319.333C396.541 329.626 387.659 319.333 369.939 311.099C352.219 302.864 301.188 321.392 254.645 325.466C208.056 329.583 234.705 325.466 241.321 309.04C247.983 292.614 230.217 296.688 163.687 313.157C97.1575 329.583 0 338.632 0 338.632V496.999L536.478 790.22L1136.45 965L1712.93 790.22L2260.9 466.909C2260.49 466.137 2260.86 336.402 2260.86 336.402L2260.9 336.445Z" fill="#FFE4C2"/>
<path d="M897 95.7189C897 95.7189 947.748 40.4354 1008.67 30.7596C1069.6 21.0837 1077.18 41.8213 1133.02 36.2778C1188.86 30.7596 1206.62 -3.81156 1292.9 0.346044C1379.17 4.50365 1399.48 37.6637 1409.66 50.1113C1419.79 62.5589 1460.41 58.4013 1508.65 54.2689C1556.86 50.1113 1564.49 68.1023 1574.62 79.1389C1584.75 90.2006 1607.61 83.2965 1648.22 80.5248C1688.84 77.7531 1721.82 94.3583 1726.91 108.167L1732 122L1353.87 97.13L1430.01 119.253C1430.01 119.253 1277.72 116.482 1219.39 116.482C1161.05 116.482 1039.2 120.639 1039.2 120.639L1100.13 101.288L897.093 95.7693L897 95.7189Z" fill="#71A576"/>
<path d="M1043.61 101.651C1043.61 101.651 1001.51 47.9592 955.1 40.0545C908.694 32.1499 904.484 53.0503 862.195 49.1315C819.907 45.2126 804.084 11.2494 739.633 17.8478C675.183 24.4461 662.367 58.1079 655.658 70.8023C648.949 83.4967 618.181 80.5156 581.676 77.7691C545.217 75.0225 540.776 93.143 533.975 104.464C527.173 115.785 509.499 109.555 478.87 107.948C448.195 106.34 424.645 123.824 421.822 137.757L419 151.691L700.954 116.053L645.433 140.303C645.433 140.303 759.482 133.202 803.297 131.528C847.112 129.853 938.814 130.523 938.814 130.523L891.714 112.972L1043.66 101.651H1043.61Z" fill="#71A576"/>
</svg>
