<svg width="4448" height="1651" viewBox="0 0 4448 1651" fill="none" xmlns="http://www.w3.org/2000/svg">
<path d="M44.1126 985.479C44.1126 985.479 65.2832 861.181 123.829 773.396L178.321 821.969L156.02 729.795L183.304 713.211L262.615 852.349L214.774 655.087L234.66 642.911L275.58 752.979L264.483 624.82C264.483 624.82 285.437 602.902 384.003 560.525C392.861 556.766 401.815 553.697 410.825 551.333L489.641 530.837L500.034 668.099L535.235 530.938C535.235 530.938 716.889 547.24 804.289 668.099L44.1126 985.479Z" fill="url(#paint0_linear_187_7648)"/>
<path d="M4427.24 1019.12C4423.37 1004.41 4416.99 991.269 4408.65 980.87C4400.31 970.47 4390.28 963.129 4379.45 959.497L3693.38 713.096L670.454 702.237L26.7087 883.372C20.1063 885.221 14.1932 890.343 10.0424 897.808C5.89162 905.274 3.77831 914.588 4.08608 924.061C4.39386 933.534 7.10231 942.538 11.7198 949.438C16.3373 956.339 22.5579 960.678 29.2525 961.669C67.7955 967.533 -21.6462 1077.31 47.5 1084.47C169.412 1097.92 -34.1819 1226.26 88 1219.18C123.845 1217.66 298.136 1175.06 288.5 1249.56C287.422 1256.85 410.5 1307.72 452.5 1261C358.5 1327.96 666.754 1311.34 746.076 1333.06C819.616 1353.26 895.237 1326.11 970.165 1327.96C1130.35 1331.65 1274.11 1465.44 1431.37 1508.23C1707.57 1583.48 1982.84 1372.7 2263.9 1366.18C2445.36 1361.95 2623.89 1443.18 2805.35 1437.42C2915.66 1433.95 3024.04 1398.44 3132.2 1367.6C3435.09 1281.49 3742.6 1231.58 4051.45 1218.39C4175.25 1213.17 4309.99 1208.5 4405.35 1097.19C4421.08 1078.84 4436.34 1055.49 4427.24 1019.12Z" fill="#EAB37A"/>
<path d="M2555 560.141C2555 560.141 2614.83 436.097 2706.12 382.693L2753.51 479.467L2754.98 358.473L2790.55 360.813L2839.39 578.726L2842.55 319.203L2868.48 320.864L2882.76 475.93L2907.47 322.882C2907.47 322.882 2937.41 314.496 3060.72 342.846C3071.8 345.426 3082.79 348.87 3093.64 353.162L3188.34 390.985L3160.42 553.664L3239.94 426.893C3283.91 448.611 3324.44 482.958 3358.94 527.728C3393.43 572.498 3421.13 626.699 3440.23 686.851L2555 560.141Z" fill="url(#paint1_linear_187_7648)"/>
<path d="M1828.38 557.601C1828.38 557.601 1880.03 424.099 1967.44 355.536L2020.7 443.773L2014.51 323.179L2050.04 319.488L2112.42 527.965L2099.12 269.302L2125.01 266.568L2149.05 418.383L2163.93 261.977C2163.93 261.977 2193.18 248.57 2317.62 255.903C2328.8 256.594 2339.95 258.16 2351.01 260.593L2447.6 282.191L2430.13 448.72L2501.19 309.176C2546.3 323.337 2588.8 350.641 2625.94 389.333C2663.09 428.026 2694.06 477.251 2716.88 533.845L1828.38 557.601Z" fill="url(#paint2_linear_187_7648)"/>
<path d="M4237.92 995.768C2959.6 373.956 1379.57 417.611 88.5312 889.997L269.999 1024.68C269.999 1024.68 308.766 1289.95 1683.67 1247.49C3058.58 1205.03 4624.5 1183.85 4237.92 995.768Z" fill="#DBAC7D"/>
<path d="M3316 398.679C3316 398.679 3510.43 396.677 3658.72 456.508C3658.72 456.508 3694.68 612.916 3688.26 593.188C3681.84 573.46 3704.74 456.331 3704.74 456.331C3704.74 456.331 3822.74 498.377 3892.21 530.472V645.069L3938.88 574.108C3938.88 574.108 4030.87 601.786 4126.4 699.894V817.671L4172.53 749.302C4172.53 749.302 4362.93 900.115 4365 1045.92L3497.15 901.882L3316 509.331V398.679Z" fill="url(#paint3_linear_187_7648)"/>
<path d="M565 788.13C565 788.13 611.252 606.56 711.463 496.554L790.554 592.768L766.04 443.125L810.134 428.791L918.054 673.345L865.404 352.34L897.472 341.481L948.888 526.091L945.574 325.843C945.574 325.843 980.417 300.975 1137.67 276.215C1151.78 274.042 1165.96 272.954 1180.15 272.957L1304.41 273.609L1305.64 487.323L1375.02 291.853C1375.02 291.853 1572.28 350.711 1694.39 570.506L565 788.13Z" fill="url(#paint4_linear_187_7648)"/>
<path d="M1495 505.708C1495 505.708 1561.6 341.898 1672.81 265.165L1739.22 384.278L1732.62 229.739L1777.58 229.419L1854.97 503.137L1840.76 171.61L1873.51 170.951L1902.43 368.205L1922.55 170.602C1922.55 170.602 1959.65 157.057 2116.91 181.795C2131.01 184.06 2145.06 187.414 2158.99 191.843L2280.89 231.236L2257.15 441.408L2348.07 271.165C2348.07 271.165 2534.84 390.462 2629.04 644.299L1495 505.708Z" fill="url(#paint5_linear_187_7648)"/>
<path d="M1444 555.722C1444 555.722 1479.69 460.616 1539.93 412.224L1576.24 475.577L1572.28 389.325L1596.73 386.883L1639.29 536.487L1630.76 351.314L1648.55 349.635L1664.67 458.784L1675.08 346.887C1675.08 346.887 1695.16 337.575 1780.68 343.681C1788.35 344.171 1796 345.343 1803.57 347.192L1869.85 363.221L1857.46 482.141L1906.36 382.456C1937.31 392.918 1966.42 412.741 1991.84 440.658C2017.26 468.574 2038.43 503.969 2054 544.577L1444 555.722Z" fill="url(#paint6_linear_187_7648)"/>
<path d="M4191.05 966.99C2912.73 345.178 1449.56 392.525 158.525 864.912L310.999 1007.51C310.999 1007.51 364.268 1211.33 1739.17 1168.98C3114.08 1126.62 4577.64 1155.08 4191.05 966.99Z" fill="#F7D3A9"/>
<g opacity="0.3">
<path d="M2924.91 223.552L3068.91 340.834L3130.5 295.659L2964.61 203.896L2924.91 223.552Z" fill="white"/>
</g>
<g opacity="0.3">
<path d="M1398.99 240.927L1555.17 398.064L1443.94 203.896L1398.99 240.927Z" fill="white"/>
</g>
<g opacity="0.3">
<path d="M4047.64 768.194C4047.64 768.194 4090.09 796.701 4088.89 795.088C4087.68 793.475 4090.12 761.525 4090.12 761.525L4047.64 768.194Z" fill="white"/>
</g>
<path d="M1977.6 1481.84L1973.83 1483.25L1962.57 1486.94C1952.78 1490.2 1938.37 1495.63 1920.02 1503.56C1901.67 1511.48 1879.63 1522.67 1854.19 1536.13L1768.01 1584.02C1733.17 1603.62 1697.35 1619.59 1660.86 1631.81C1640.54 1638.51 1619.94 1643.41 1599.19 1646.47C1577.12 1649.89 1554.93 1651.38 1532.74 1650.92C1485.06 1650.27 1437.64 1640.89 1391.67 1623.01C1342.58 1603.03 1295.19 1575.5 1250.37 1540.91C1204.12 1506.81 1159.41 1471.09 1114.78 1441.66C1072.21 1412.22 1026.77 1391.87 979.955 1381.28C958.14 1377.54 936.117 1376.81 914.201 1379.11C892.848 1381.82 872.343 1387.03 852.532 1391.16C784.463 1407.72 714.422 1394.06 652.108 1352.07C630.96 1337.95 610.956 1320.65 592.443 1300.48C580.745 1287.8 569.694 1273.98 559.374 1259.11L551.665 1247.16C549.892 1244.45 549.121 1243.04 549.121 1243.04L551.973 1246.73L559.682 1258.24C570.21 1272.73 581.385 1286.26 593.137 1298.75C611.712 1318.48 631.711 1335.41 652.802 1349.24C714.878 1390.32 784.458 1403.34 851.992 1386.49C871.88 1382.26 892.462 1376.93 913.661 1374.11C935.83 1371.72 958.113 1372.41 980.186 1376.17C1027.36 1386.63 1073.14 1407.02 1116.01 1436.66C1160.88 1466.2 1205.35 1501.82 1251.84 1535.92C1296.42 1570.41 1343.54 1597.93 1392.37 1618.01C1438 1635.83 1485.08 1645.25 1532.43 1646.03C1554.47 1646.56 1576.51 1645.15 1598.42 1641.8C1619.16 1638.85 1639.76 1634.09 1660.09 1627.57C1696.42 1615.53 1732.1 1599.85 1766.85 1580.66L1853.42 1533.31C1878.93 1519.74 1901.21 1509.09 1919.56 1500.73C1938.59 1492.67 1957.98 1486.36 1977.6 1481.84Z" fill="#E0E0E0"/>
<path d="M2297.74 1445.24C2288.77 1445.09 2279.82 1444.25 2270.91 1442.74C2254.34 1441.01 2231.45 1439.48 2206.16 1440.25C2180.88 1441.01 2158.06 1444.15 2141.56 1446.98C2132.71 1449.02 2123.78 1450.4 2114.81 1451.1C2117.07 1449.79 2119.42 1448.84 2121.83 1448.28C2126.3 1446.76 2132.93 1444.91 2141.18 1442.96C2162.66 1438.12 2184.34 1435.33 2206.08 1434.6C2227.81 1433.91 2249.55 1435.32 2271.14 1438.83C2279.47 1440.14 2286.1 1441.55 2290.72 1442.74C2293.14 1443.1 2295.5 1443.94 2297.74 1445.24Z" fill="#DADADA"/>
<path d="M4193.98 1249.23L4190.05 1251.94L4178.25 1259.54C4163.22 1269.14 4147.78 1277.37 4132 1284.19C4106.77 1294.84 4081 1302.75 4054.92 1307.87C4020.46 1314.68 3985.72 1318.3 3950.93 1318.73C3912.38 1319.49 3869.91 1317.42 3824.58 1314.82C3779.26 1312.21 3730.77 1308.95 3679.82 1310.37C3569.11 1313.45 3459.28 1338.8 3353.66 1385.62C3299.08 1410.03 3245.76 1439.74 3194.1 1474.56C3143.84 1507.14 3094.58 1539.72 3044.32 1555.03C2996.87 1568.75 2948.4 1574.18 2900.01 1571.21C2854.53 1569.36 2812.37 1565.56 2773.82 1560.89C2712.9 1554.61 2652.54 1540.06 2593.6 1517.46C2572.86 1509.09 2556.98 1501.17 2546.34 1495.74L2534.32 1489C2531.62 1487.48 2530.31 1486.51 2530.31 1486.51C2530.31 1486.51 2531.77 1487.05 2534.47 1488.46L2546.65 1494.65C2557.37 1499.97 2573.25 1507.57 2594.06 1515.61C2653.01 1537.29 2713.27 1551.17 2774.05 1557.09C2812.6 1561.44 2854.76 1565.13 2900.09 1566.76C2948.28 1569.45 2996.53 1563.9 3043.78 1550.25C3093.5 1534.51 3142.45 1502.9 3192.71 1469.78C3244.5 1434.77 3297.97 1404.95 3352.74 1380.52C3458.57 1333.53 3568.64 1308.19 3679.58 1305.26C3730.69 1304.07 3779.26 1307.43 3824.58 1310.26C3869.91 1313.08 3912.15 1315.25 3950.77 1314.82C3985.45 1314.6 4020.08 1311.26 4054.45 1304.83C4080.52 1300.07 4106.29 1292.52 4131.54 1282.24C4147.42 1275.63 4163.02 1267.72 4178.25 1258.57L4190.2 1251.62C4192.59 1249.88 4193.98 1249.23 4193.98 1249.23Z" fill="#E0E0E0"/>
<path d="M3719.67 1381.28C3715.56 1381.72 3711.44 1381.72 3707.33 1381.28L3673.8 1380.74C3645.51 1380.74 3606.43 1381.6 3563.41 1386.6C3520.4 1391.59 3481.63 1399.52 3453.72 1406.25L3420.73 1414.62C3416.72 1415.88 3412.65 1416.76 3408.55 1417.22C3412.39 1415.12 3416.37 1413.52 3420.42 1412.44C3428.13 1409.73 3439.31 1406.15 3453.18 1402.35C3489.47 1392.51 3526.12 1385.48 3562.95 1381.28C3599.82 1376.97 3636.83 1375.56 3673.8 1377.04C3687.99 1377.59 3699.47 1378.45 3707.33 1379.43C3711.48 1379.49 3715.61 1380.11 3719.67 1381.28Z" fill="#DADADA"/>
<path d="M4271 853.196C4272.45 853.565 4273.85 854.223 4275.16 855.151C4277.94 856.562 4281.87 858.951 4286.88 861.992C4296.98 868.291 4311.39 877.955 4328.58 891.53C4348.7 907.579 4368.06 925.425 4386.55 944.958C4397.88 956.045 4408.23 968.986 4417.39 983.509C4422.11 991.653 4425.6 1001.08 4427.64 1011.2C4429.65 1021.59 4430.33 1032.4 4429.64 1043.13C4428.12 1063.93 4424 1084.19 4417.46 1102.96C4411.71 1120.57 4404.49 1137.16 4395.96 1152.37C4381.68 1178.48 4364.06 1200.58 4344 1217.53C4330.6 1228.92 4316.15 1237.65 4301.06 1243.48C4297.02 1245.16 4292.9 1246.46 4288.73 1247.39C4287.3 1247.94 4285.82 1248.24 4284.34 1248.26C4284.34 1247.61 4290.19 1246.09 4300.68 1241.31C4315.4 1234.77 4329.46 1225.61 4342.54 1214.06C4362 1197.12 4379.11 1175.34 4393.03 1149.77C4401.31 1134.77 4408.3 1118.44 4413.84 1101.12C4420.17 1082.92 4424.16 1063.29 4425.63 1043.13C4427.27 1023.11 4423.19 1002.99 4414.3 987.202C4405.39 973.026 4395.33 960.378 4384.32 949.519C4366.06 929.834 4346.99 911.702 4327.2 895.222C4310.24 881.322 4296.36 871.114 4286.26 864.272L4274.85 856.345C4273.48 855.522 4272.19 854.464 4271 853.196Z" fill="#E0E0E0"/>
<path d="M4391 923.478C4393.78 925.165 4396.37 927.395 4398.71 930.103C4405.37 936.991 4411.45 944.934 4416.82 953.776C4435.2 982.852 4445.98 1019.89 4447.39 1058.78C4448.79 1097.66 4440.73 1136.05 4424.53 1167.6C4419.77 1177.09 4414.26 1185.79 4408.11 1193.55C4406 1196.62 4403.56 1199.19 4400.87 1201.15C4408.63 1190 4415.77 1178.02 4422.22 1165.32C4437.31 1134.11 4444.78 1096.82 4443.48 1059.11C4442.19 1021.39 4432.21 985.288 4415.05 956.274C4407.63 944.503 4399.59 933.54 4391 923.478Z" fill="#DADADA"/>
<path d="M1096.2 1472.93C1096.2 1473.8 1084.87 1468.26 1066.6 1460.66C1019.02 1440.83 969.748 1430.16 920.135 1428.95C901.172 1428.41 889.301 1428.95 889.301 1428.19C891.985 1427.13 894.76 1426.58 897.549 1426.56C902.868 1425.8 910.577 1425.26 920.135 1425.04C970.249 1424.11 1020.12 1435.01 1067.68 1457.29C1076.77 1461.53 1084.02 1465.33 1088.88 1468.15C1091.43 1469.39 1093.88 1470.99 1096.2 1472.93Z" fill="#E0E0E0"/>
<path d="M825.935 242.122C826.937 241.47 853.995 324.002 886.371 426.732C918.747 529.463 944.262 612.537 943.26 613.189C942.258 613.841 915.124 531.417 882.748 428.578C850.372 325.739 824.856 242.773 825.935 242.122Z" fill="url(#paint7_linear_187_7648)"/>
<path d="M1921.02 1024.33C1917.76 1017.53 1915.05 1010.25 1912.93 1002.61L1895.04 950.267L1876.93 898.25C1874.05 891.408 1871.75 884.119 1870.07 876.531C1873.74 882.716 1876.87 889.497 1879.4 896.73C1884.71 909.652 1891.65 927.788 1898.67 948.312C1905.68 968.836 1911.62 987.623 1915.55 1001.41C1918.08 1008.68 1919.92 1016.39 1921.02 1024.33Z" fill="url(#paint8_linear_187_7648)"/>
<path d="M1901.21 805.076C1903.46 814.739 1905.11 824.658 1906.14 834.723C1909 854.921 1912.47 879.463 1916.32 906.503C1920.17 933.543 1924.03 958.086 1926.8 978.285C1928.65 988.106 1929.89 998.134 1930.5 1008.26C1927.68 998.886 1925.53 989.135 1924.11 979.153C1920.71 961.018 1916.4 935.715 1912.39 907.698C1908.38 879.681 1905.22 853.944 1903.37 835.374C1901.93 825.403 1901.21 815.252 1901.21 805.076Z" fill="url(#paint9_linear_187_7648)"/>
<path d="M1953.63 831.138C1953.62 839.849 1953.02 848.539 1951.85 857.093C1950.47 873.056 1948.85 895.1 1948.15 919.643C1947.46 944.185 1948.15 966.23 1948.15 982.302C1948.82 990.994 1948.95 999.75 1948.54 1008.47C1946.66 1000.1 1945.57 991.406 1945.3 982.628C1942.21 940.586 1943.36 898.141 1948.69 856.549C1949.6 847.828 1951.26 839.295 1953.63 831.138Z" fill="url(#paint10_linear_187_7648)"/>
<path d="M2743.38 912.801C2735.59 893.375 2728.57 873.364 2722.33 852.857C2714.86 833.234 2708.17 813.04 2702.29 792.37C2720 829.545 2733.83 870.1 2743.38 912.801Z" fill="url(#paint11_linear_187_7648)"/>
<path d="M2737.05 746.761C2738.36 746.761 2736.05 785.746 2739.6 833.636C2743.14 881.526 2750.7 918.666 2749.47 919.1C2746.73 911.462 2744.71 903.359 2743.45 894.992C2739.77 875.034 2737.19 854.701 2735.74 834.179C2734.25 813.687 2733.94 793.059 2734.82 772.497C2734.77 763.818 2735.52 755.166 2737.05 746.761Z" fill="url(#paint12_linear_187_7648)"/>
<path d="M2776.21 757.294C2777.37 757.294 2773.36 791.61 2772.36 833.31C2771.36 875.011 2773.51 909.978 2772.36 910.086C2770.65 902.902 2769.72 895.399 2769.58 887.825C2768.28 869.787 2767.87 851.645 2768.35 833.527C2768.81 815.326 2770.12 797.187 2772.28 779.23C2772.85 771.693 2774.17 764.308 2776.21 757.294Z" fill="url(#paint13_linear_187_7648)"/>
<path d="M3198.72 839.066C3202.73 846.766 3206.07 855.115 3208.66 863.934C3215.7 884.739 3221.6 906.267 3226.32 928.331C3231.02 950.373 3234.55 972.878 3236.88 995.659C3238.21 1005.06 3238.73 1014.65 3238.42 1024.22C3236.48 1015.09 3235.03 1005.76 3234.1 996.311C3231.71 979.153 3227.94 955.588 3222.46 929.96C3216.99 904.331 3210.82 881.744 3206.04 865.563C3203.13 857.003 3200.68 848.146 3198.72 839.066Z" fill="url(#paint14_linear_187_7648)"/>
<path d="M3251.45 812.569C3251.41 823.459 3250.92 834.338 3249.98 845.147C3247.33 897.59 3249.27 950.293 3255.76 1002.07C3257.42 1012.83 3258.68 1023.7 3259.54 1034.64C3256.5 1024.53 3254.28 1013.97 3252.91 1003.15C3248.79 977.258 3246.21 950.922 3245.2 924.421C3244.19 897.974 3244.78 871.453 3246.98 845.147C3247.57 834.082 3249.07 823.15 3251.45 812.569Z" fill="url(#paint15_linear_187_7648)"/>
<path d="M3293.77 873.49C3295 874.033 3285.44 909.761 3281.36 955.913C3277.27 1002.07 3279.89 1040.07 3278.66 1040.18C3276.91 1032.2 3276.02 1023.89 3276.04 1015.53C3274.13 975.106 3277.79 934.541 3286.83 896.078C3288.37 888.123 3290.71 880.518 3293.77 873.49Z" fill="url(#paint16_linear_187_7648)"/>
<path d="M3330.08 905.851C3323.19 919.124 3317.06 933.14 3311.73 947.769C3307.72 963.198 3304.62 979.072 3302.48 995.225C3301.34 978.256 3303.27 961.156 3308.1 945.526C3312.93 929.895 3320.49 916.245 3330.08 905.851Z" fill="url(#paint17_linear_187_7648)"/>
<path d="M3216.07 1034.75C3211.62 1002.19 3200.71 972.072 3184.62 947.877C3194.63 957.447 3202.77 970.431 3208.27 985.62C3213.77 1000.81 3216.45 1017.71 3216.07 1034.75Z" fill="url(#paint18_linear_187_7648)"/>
<path d="M3731.31 899.987C3747.24 927.044 3757.01 960.231 3759.37 995.225C3758.21 995.225 3754.51 972.963 3746.73 946.792C3738.94 920.62 3730.31 900.965 3731.31 899.987Z" fill="url(#paint19_linear_187_7648)"/>
<path d="M3758.21 889.562C3759.37 889.562 3760.68 914.213 3765.3 943.859C3769.93 973.506 3775.71 997.071 3774.63 997.614C3767.95 981.396 3763.45 963.576 3761.37 945.054C3757.95 926.976 3756.88 908.176 3758.21 889.562Z" fill="url(#paint20_linear_187_7648)"/>
<path d="M3796.83 902.702C3797.99 903.245 3792.98 925.507 3790.51 953.959C3788.05 982.411 3788.82 1005.65 3787.66 1005.76C3784.66 988.548 3784.27 970.639 3786.5 953.199C3787.48 935.553 3790.99 918.372 3796.83 902.702Z" fill="url(#paint21_linear_187_7648)"/>
<path d="M3502.59 1145.95C3553.4 1140.62 3603.38 1124.78 3650.91 1098.93C3675.27 1085.68 3700.09 1069.61 3726.07 1072.54C3758.06 1076.13 3785.96 1108.27 3818.03 1110.77C3866.75 1114.57 3907.06 1049.63 3955.86 1048.22C3993.4 1047.13 4027.4 1084.05 4064.94 1083.62C4093.92 1083.62 4120.05 1060.82 4147.34 1047.13C4174.63 1033.45 4209.47 1030.63 4228.36 1061.47C4212.94 1096.65 4179.87 1104.91 4150.81 1108.92C3934.61 1140.27 3717.69 1157.25 3500.05 1159.85" fill="#DBAC7D"/>
<path d="M1510.77 1185.05C1601.11 1202.48 1693.1 1189.65 1779.26 1147.58C1818.57 1128.36 1857.58 1102.84 1899.21 1102.52C1950.93 1102.52 1999.03 1140.85 2050.53 1147.69C2159.22 1162.24 2261.13 1034.32 2368.58 1060.82C2411.21 1071.68 2450.76 1106.32 2494 1104.25C2534.86 1102.3 2574.02 1067.11 2614.33 1077C2645.78 1084.71 2671.53 1118.7 2702.98 1126.73C2742.3 1136.61 2780.99 1104.04 2820.92 1103.17C2853.3 1102.41 2884.06 1122.39 2916.13 1127.71C2957.29 1134.44 2998.61 1116.85 3040 1119.35C3076.46 1121.74 3111.46 1139.66 3145.69 1157.47L2723.33 1177.77L1600.04 1232.07" fill="#DBAC7D"/>
<path d="M2228.9 1508.12C2217.35 1502.6 2205.17 1500.13 2192.98 1500.84H2193.52C2159.77 1498.58 2125.98 1503.59 2093.31 1515.72C2083.52 1518.28 2074.19 1523.56 2065.87 1531.25C2061.74 1535.19 2058.47 1540.64 2056.39 1547.01C2054.31 1553.39 2053.51 1560.44 2054.07 1567.41C2056.54 1586.2 2070.95 1596.19 2083.9 1602.16C2119.87 1618.61 2157.71 1625.35 2195.45 1622.03C2209.58 1621.7 2223.5 1617.03 2236.23 1608.35C2242.52 1603.83 2247.89 1597.12 2251.81 1588.85C2255.74 1580.58 2258.1 1571.03 2258.66 1561.11C2258.66 1537.22 2244.78 1516.7 2228.9 1508.12Z" fill="#EBEBEB"/>
<defs>
<linearGradient id="paint0_linear_187_7648" x1="353.897" y1="573.26" x2="457.552" y2="779.042" gradientUnits="userSpaceOnUse">
<stop stop-color="#47854D"/>
<stop offset="1" stop-color="#5CB063"/>
</linearGradient>
<linearGradient id="paint1_linear_187_7648" x1="3015.13" y1="332.652" x2="2967.85" y2="626.563" gradientUnits="userSpaceOnUse">
<stop stop-color="#47854D"/>
<stop offset="1" stop-color="#5CB063"/>
</linearGradient>
<linearGradient id="paint2_linear_187_7648" x1="2271.63" y1="253.478" x2="2274.37" y2="553.526" gradientUnits="userSpaceOnUse">
<stop stop-color="#47854D"/>
<stop offset="1" stop-color="#5CB063"/>
</linearGradient>
<linearGradient id="paint3_linear_187_7648" x1="3840.5" y1="398.671" x2="3840.5" y2="1045.92" gradientUnits="userSpaceOnUse">
<stop stop-color="#47854D"/>
<stop offset="1" stop-color="#5CB063"/>
</linearGradient>
<linearGradient id="paint4_linear_187_7648" x1="1129.69" y1="272.957" x2="1129.69" y2="788.13" gradientUnits="userSpaceOnUse">
<stop stop-color="#47854D"/>
<stop offset="1" stop-color="#5CB063"/>
</linearGradient>
<linearGradient id="paint5_linear_187_7648" x1="2109.46" y1="176.108" x2="1958.01" y2="652.807" gradientUnits="userSpaceOnUse">
<stop stop-color="#47854D"/>
<stop offset="1" stop-color="#5CB063"/>
</linearGradient>
<linearGradient id="paint6_linear_187_7648" x1="1749" y1="341.605" x2="1749" y2="555.722" gradientUnits="userSpaceOnUse">
<stop stop-color="#47854D"/>
<stop offset="1" stop-color="#5CB063"/>
</linearGradient>
<linearGradient id="paint7_linear_187_7648" x1="884.596" y1="242.118" x2="884.596" y2="613.193" gradientUnits="userSpaceOnUse">
<stop stop-color="#47854D"/>
<stop offset="1" stop-color="#5CB063"/>
</linearGradient>
<linearGradient id="paint8_linear_187_7648" x1="1895.55" y1="876.531" x2="1895.55" y2="1024.33" gradientUnits="userSpaceOnUse">
<stop stop-color="#47854D"/>
<stop offset="1" stop-color="#5CB063"/>
</linearGradient>
<linearGradient id="paint9_linear_187_7648" x1="1915.86" y1="805.076" x2="1915.86" y2="1008.26" gradientUnits="userSpaceOnUse">
<stop stop-color="#47854D"/>
<stop offset="1" stop-color="#5CB063"/>
</linearGradient>
<linearGradient id="paint10_linear_187_7648" x1="1948.62" y1="831.138" x2="1948.62" y2="1008.47" gradientUnits="userSpaceOnUse">
<stop stop-color="#47854D"/>
<stop offset="1" stop-color="#5CB063"/>
</linearGradient>
<linearGradient id="paint11_linear_187_7648" x1="2722.83" y1="792.37" x2="2722.83" y2="912.801" gradientUnits="userSpaceOnUse">
<stop stop-color="#47854D"/>
<stop offset="1" stop-color="#5CB063"/>
</linearGradient>
<linearGradient id="paint12_linear_187_7648" x1="2741.97" y1="746.761" x2="2741.97" y2="919.1" gradientUnits="userSpaceOnUse">
<stop stop-color="#47854D"/>
<stop offset="1" stop-color="#5CB063"/>
</linearGradient>
<linearGradient id="paint13_linear_187_7648" x1="2772.29" y1="757.294" x2="2772.29" y2="910.086" gradientUnits="userSpaceOnUse">
<stop stop-color="#47854D"/>
<stop offset="1" stop-color="#5CB063"/>
</linearGradient>
<linearGradient id="paint14_linear_187_7648" x1="3218.61" y1="839.066" x2="3218.61" y2="1024.22" gradientUnits="userSpaceOnUse">
<stop stop-color="#47854D"/>
<stop offset="1" stop-color="#5CB063"/>
</linearGradient>
<linearGradient id="paint15_linear_187_7648" x1="3252.13" y1="812.569" x2="3252.13" y2="1034.64" gradientUnits="userSpaceOnUse">
<stop stop-color="#47854D"/>
<stop offset="1" stop-color="#5CB063"/>
</linearGradient>
<linearGradient id="paint16_linear_187_7648" x1="3284.71" y1="873.49" x2="3284.71" y2="1040.18" gradientUnits="userSpaceOnUse">
<stop stop-color="#47854D"/>
<stop offset="1" stop-color="#5CB063"/>
</linearGradient>
<linearGradient id="paint17_linear_187_7648" x1="3316.12" y1="905.851" x2="3316.12" y2="995.225" gradientUnits="userSpaceOnUse">
<stop stop-color="#47854D"/>
<stop offset="1" stop-color="#5CB063"/>
</linearGradient>
<linearGradient id="paint18_linear_187_7648" x1="3200.36" y1="947.877" x2="3200.36" y2="1034.75" gradientUnits="userSpaceOnUse">
<stop stop-color="#47854D"/>
<stop offset="1" stop-color="#5CB063"/>
</linearGradient>
<linearGradient id="paint19_linear_187_7648" x1="3745.3" y1="899.987" x2="3745.3" y2="995.225" gradientUnits="userSpaceOnUse">
<stop stop-color="#47854D"/>
<stop offset="1" stop-color="#5CB063"/>
</linearGradient>
<linearGradient id="paint20_linear_187_7648" x1="3766.21" y1="889.562" x2="3766.21" y2="997.614" gradientUnits="userSpaceOnUse">
<stop stop-color="#47854D"/>
<stop offset="1" stop-color="#5CB063"/>
</linearGradient>
<linearGradient id="paint21_linear_187_7648" x1="3791.04" y1="902.702" x2="3791.04" y2="1005.76" gradientUnits="userSpaceOnUse">
<stop stop-color="#47854D"/>
<stop offset="1" stop-color="#5CB063"/>
</linearGradient>
</defs>
</svg>
