<svg width="2543" height="342" viewBox="0 0 2543 342" fill="none" xmlns="http://www.w3.org/2000/svg">
<path d="M551.468 23.5819C145.488 55.0204 145.534 105.994 551.468 137.432C957.402 168.871 1615.62 168.871 2021.55 137.432C2427.48 105.994 2427.48 55.0143 2021.55 23.5758C1615.62 -7.86266 957.402 -7.85658 551.468 23.5819Z" fill="#A15F14"/>
<path opacity="0.7" d="M512 23.576C106.02 55.0145 -218.434 286.062 187.5 317.5C593.434 348.939 1940.57 348.939 2346.5 317.5C2752.43 286.062 2469 23.5759 2021.55 23.5759C1615.62 -7.86261 917.934 -7.8625 512 23.576Z" fill="#B7854D"/>
<g opacity="0.4">
<path d="M787.778 129.107C786.64 128.589 784.845 128.101 782.47 127.665C780.942 127.407 779.242 127.169 777.389 126.953C776.209 126.819 774.395 126.588 772.852 126.648C772.353 126.648 772.353 126.794 772.625 126.837C773.714 127.038 775.393 127.172 776.391 127.385C777.152 127.578 777.745 127.782 778.16 127.993C779.678 128.511 780.891 129.044 781.789 129.588C782.536 130.088 783.036 130.594 783.287 131.103C783.287 131.353 783.559 131.596 783.786 131.852C784.005 132.085 784.431 132.314 785.056 132.533C785.056 132.612 786.235 132.752 786.87 132.655C789.711 132.128 790.93 131.474 790.273 130.829C790.054 130.242 789.214 129.662 787.778 129.107Z" fill="#A15F14"/>
<path d="M801.66 121.372C793.63 122.699 793.585 124.622 793.494 126.241C793.494 127.227 793.494 128.213 793.721 129.198C793.311 130.257 793.983 131.317 795.717 132.351C795.989 132.46 797.668 132.686 798.258 132.479C800.571 131.614 799.709 130.47 799.845 129.558C799.981 128.645 799.845 127.622 799.845 126.655C799.799 125.779 800.118 124.903 800.798 124.032C801.524 123.21 802.885 122.401 803.656 121.597C803.701 121.5 802.477 121.238 801.66 121.372Z" fill="#A15F14"/>
<path d="M820.351 126.606C816.223 126.709 813.229 127.348 811.278 127.823C809.653 128.25 808.42 128.701 807.603 129.168C806.697 129.694 806.105 130.23 805.834 130.769C804.756 131.347 805.373 131.959 807.558 132.479C807.921 132.533 808.873 132.606 809.418 132.546C812.503 132.199 811.732 131.511 812.004 131.018C812.289 130.476 812.85 129.937 813.682 129.405C814.485 128.951 815.593 128.507 816.994 128.079C818.752 127.685 820.153 127.264 821.168 126.825C821.304 126.746 821.122 126.588 820.351 126.606Z" fill="#A15F14"/>
<path d="M1746.59 128.87C1745.57 128.409 1743.96 127.977 1741.82 127.592C1740.47 127.369 1738.95 127.165 1737.29 126.983C1736.24 126.862 1734.61 126.661 1733.11 126.716C1732.66 126.716 1732.7 126.843 1733.11 126.88C1734.11 127.056 1735.56 127.178 1736.42 127.367C1737.1 127.531 1737.65 127.705 1738.06 127.884C1739.39 128.345 1740.45 128.819 1741.23 129.302C1741.89 129.746 1742.35 130.195 1742.59 130.647C1742.59 130.872 1742.82 131.085 1743 131.31C1743.24 131.517 1743.62 131.721 1744.14 131.919C1744.14 131.986 1745.18 132.107 1745.77 132.028C1748.31 131.56 1749.39 130.977 1748.76 130.403C1748.59 129.881 1747.85 129.364 1746.59 128.87Z" fill="#A15F14"/>
<path d="M1758.88 122.005C1751.76 123.18 1751.71 124.89 1751.62 126.344C1751.62 127.214 1751.62 128.091 1751.85 128.967C1751.48 129.907 1752.07 130.849 1753.62 131.766C1753.85 131.864 1755.34 132.065 1755.84 131.882C1757.31 131.033 1757.79 130.158 1757.25 129.29C1757.25 128.432 1757.25 127.567 1757.25 126.709C1757.23 125.931 1757.53 125.153 1758.15 124.378C1758.74 123.648 1760.01 122.93 1760.65 122.206C1760.7 122.115 1759.61 121.883 1758.88 122.005Z" fill="#A15F14"/>
<path d="M1775.49 126.649C1771.81 126.746 1769.14 127.306 1767.5 127.72C1766.06 128.106 1764.98 128.515 1764.28 128.937C1763.46 129.405 1762.93 129.881 1762.69 130.361C1761.7 130.873 1762.24 131.416 1764.19 131.876C1764.51 131.925 1765.37 131.992 1765.87 131.937C1768.59 131.627 1767.91 131.024 1768.14 130.586C1768.38 130.103 1768.88 129.623 1769.63 129.15C1770.36 128.747 1771.36 128.353 1772.63 127.975C1774.16 127.624 1775.38 127.251 1776.26 126.862C1776.35 126.776 1776.17 126.63 1775.49 126.649Z" fill="#A15F14"/>
<path d="M1345.82 142.873C1346.87 142.406 1348.5 141.965 1350.63 141.571C1352 141.34 1353.52 141.127 1355.17 140.932C1356.26 140.804 1357.89 140.597 1359.43 140.652C1359.89 140.652 1359.84 140.785 1359.43 140.822C1358.44 141.005 1356.94 141.126 1356.03 141.321C1355.37 141.488 1354.82 141.663 1354.4 141.844C1353.05 142.315 1351.97 142.8 1351.18 143.293C1350.48 143.742 1350.01 144.198 1349.77 144.656C1349.77 144.887 1349.54 145.106 1349.36 145.338C1349.13 145.545 1348.73 145.749 1348.18 145.946C1348.18 146.019 1347.14 146.141 1346.55 146.056C1343.97 145.58 1342.88 144.988 1343.51 144.406C1343.74 143.883 1344.52 143.367 1345.82 142.873Z" fill="#A15F14"/>
<path d="M1333.3 135.887C1340.56 137.104 1340.61 138.82 1340.7 140.299C1340.7 141.193 1340.7 142.082 1340.7 142.97C1341.06 143.928 1340.45 144.888 1338.88 145.824C1338.66 145.928 1337.11 146.129 1336.61 145.94C1335.11 145.077 1334.62 144.188 1335.16 143.305C1335.16 142.429 1335.16 141.552 1335.16 140.676C1335.2 139.883 1334.9 139.091 1334.26 138.303C1333.62 137.56 1332.4 136.83 1331.72 136.087C1331.44 136.002 1332.58 135.765 1333.3 135.887Z" fill="#A15F14"/>
<path d="M1316.38 140.615C1320.1 140.712 1322.82 141.285 1324.5 141.704C1325.96 142.091 1327.07 142.5 1327.82 142.922C1328.64 143.398 1329.17 143.882 1329.4 144.37C1330.42 144.89 1329.87 145.444 1327.86 145.91C1327.54 145.964 1326.68 146.031 1326.18 145.977C1323.41 145.66 1324.1 145.039 1323.87 144.595C1323.61 144.104 1323.09 143.616 1322.33 143.135C1321.62 142.717 1320.61 142.31 1319.33 141.917C1317.74 141.562 1316.47 141.182 1315.57 140.785C1315.52 140.743 1315.66 140.597 1316.38 140.615Z" fill="#A15F14"/>
<path d="M374.723 69.9424C375.715 69.5055 377.249 69.094 379.259 68.7253C380.552 68.5049 381.994 68.3012 383.569 68.1168C384.612 68.0011 386.155 67.8064 387.561 67.8551C388.015 67.8551 387.969 67.9829 387.561 68.0194C386.609 68.1898 385.248 68.2993 384.386 68.4819C383.733 68.6399 383.216 68.8073 382.843 68.9809C381.548 69.4216 380.517 69.8754 379.758 70.338C379.132 70.762 378.707 71.1909 378.488 71.6221C378.488 71.8412 378.488 72.0481 378.08 72.2306C377.891 72.4384 377.526 72.6426 376.991 72.8392C376.991 72.9061 375.993 73.0218 375.448 72.9427C373.016 72.4932 371.975 71.9349 372.545 71.3847C372.763 70.8927 373.496 70.4071 374.723 69.9424Z" fill="#A15F14"/>
<path d="M362.927 63.3578C369.732 64.4897 369.778 66.1267 369.868 67.5204C369.868 68.3541 369.868 69.1939 369.868 70.0337C370.188 70.9346 369.608 71.8372 368.145 72.7175C368.145 72.8149 366.511 73.0035 366.012 72.827C364.602 72.0139 364.143 71.1762 364.651 70.3441C364.651 69.5165 364.651 68.6949 364.651 67.8672C364.674 67.1214 364.401 66.3758 363.835 65.6338C363.2 64.934 362.02 64.2524 361.385 63.5525C361.158 63.4673 362.247 63.2421 362.927 63.3578Z" fill="#A15F14"/>
<path d="M347.004 67.8124C350.497 67.9037 353.083 68.421 354.671 68.8409C356.033 69.2046 357.068 69.5886 357.756 69.985C358.55 70.4327 359.05 70.8888 359.253 71.3482C360.206 71.8398 359.685 72.362 357.801 72.8026C357.529 72.8452 356.713 72.9122 356.259 72.8574C353.628 72.5592 354.263 71.9811 354.036 71.5612C353.804 71.0986 353.318 70.6389 352.584 70.1858C351.928 69.7989 350.986 69.4218 349.772 69.06C348.297 68.7219 347.11 68.3626 346.233 67.9889C346.188 67.9341 346.324 67.7942 347.004 67.8124Z" fill="#A15F14"/>
<path d="M1080.53 111.8C1079.57 111.361 1078.03 110.948 1075.99 110.582C1074.72 110.362 1073.29 110.158 1071.72 109.974C1070.77 109.858 1069.23 109.663 1067.82 109.718C1067.41 109.718 1067.46 109.84 1067.82 109.876C1068.92 110.019 1069.97 110.169 1070.95 110.327C1071.59 110.481 1072.1 110.644 1072.45 110.814C1073.71 111.246 1074.72 111.692 1075.44 112.146C1076.09 112.56 1076.52 112.979 1076.71 113.4C1076.71 113.613 1076.71 113.82 1077.12 114.009C1077.33 114.204 1077.7 114.396 1078.21 114.581C1078.21 114.642 1079.16 114.757 1079.71 114.678C1082.09 114.239 1083.1 113.694 1082.52 113.157C1082.32 112.694 1081.65 112.238 1080.53 111.8Z" fill="#A15F14"/>
<path d="M1092.09 105.361C1085.38 106.468 1085.38 108.069 1085.38 109.438C1085.38 110.26 1085.38 111.081 1085.38 111.873C1085.05 112.753 1085.61 113.635 1087.06 114.495C1087.28 114.587 1088.69 114.775 1089.14 114.605C1090.52 113.808 1090.96 112.986 1090.46 112.171C1090.46 111.361 1090.46 110.552 1090.46 109.736C1090.42 109.007 1090.68 108.278 1091.23 107.552C1091.82 106.87 1093 106.195 1093.63 105.513C1093.77 105.47 1092.77 105.251 1092.09 105.361Z" fill="#A15F14"/>
<path d="M1107.65 109.718C1104.21 109.803 1101.71 110.327 1100.17 110.722C1098.83 111.079 1097.81 111.454 1097.13 111.842C1096.36 112.28 1095.86 112.726 1095.63 113.175C1094.72 113.655 1095.24 114.164 1097.08 114.593C1097.36 114.642 1098.17 114.702 1098.63 114.654C1101.21 114.362 1100.53 113.796 1100.76 113.382C1101 112.93 1101.47 112.48 1102.16 112.037C1102.83 111.659 1103.76 111.29 1104.93 110.935C1106.4 110.607 1107.56 110.256 1108.38 109.889C1108.47 109.834 1108.29 109.7 1107.65 109.718Z" fill="#A15F14"/>
<path d="M2209.23 70.0581C2208.18 69.5799 2206.51 69.1305 2204.28 68.7314C2202.94 68.4929 2201.42 68.2728 2199.75 68.0741C2198.61 67.9463 2196.98 67.7334 2195.21 67.7881C2194.76 67.7881 2194.8 67.922 2195.21 67.9646C2196.21 68.1472 2197.75 68.2689 2198.66 68.4697C2199.36 68.6419 2199.92 68.8235 2200.34 69.0113C2201.73 69.4895 2202.84 69.982 2203.65 70.4841C2204.37 70.9455 2204.84 71.4133 2205.05 71.8838C2205.05 72.115 2205.33 72.3463 2205.51 72.5775C2205.75 72.7851 2206.15 72.9889 2206.69 73.1861C2206.69 73.2591 2207.78 73.3869 2208.37 73.2956C2211.03 72.8089 2212.15 72.201 2211.5 71.6038C2211.27 71.0771 2210.5 70.5571 2209.23 70.0581Z" fill="#A15F14"/>
<path d="M2222.02 62.9134C2214.63 64.1305 2214.58 65.9136 2214.49 67.4289C2214.49 68.3357 2214.49 69.2546 2214.72 70.1614C2214.31 71.1396 2214.92 72.1207 2216.53 73.0764C2216.8 73.1799 2218.35 73.3868 2218.89 73.1981C2220.42 72.3132 2220.91 71.4014 2220.34 70.4961C2220.34 69.6015 2220.34 68.7069 2220.34 67.8062C2220.32 66.9932 2220.63 66.1807 2221.25 65.372C2221.93 64.6113 2223.2 63.8627 2223.88 63.1081C2224.06 63.029 2222.79 62.7856 2222.02 62.9134Z" fill="#A15F14"/>
<path d="M2239.35 67.7454C2235.49 67.8489 2232.73 68.4331 2231 68.8652C2229.54 69.2521 2228.41 69.6605 2227.65 70.0823C2226.79 70.5701 2226.24 71.0669 2226.01 71.5672C2224.99 72.1002 2225.56 72.666 2227.6 73.1434C2227.92 73.1921 2228.83 73.2651 2229.28 73.2042C2232.14 72.8817 2231.46 72.2488 2231.68 71.7985C2231.94 71.2949 2232.47 70.7945 2233.27 70.3014C2233.99 69.8833 2235 69.4757 2236.31 69.0843C2237.93 68.7181 2239.22 68.328 2240.17 67.9219C2240.21 67.8793 2240.08 67.7272 2239.35 67.7454Z" fill="#A15F14"/>
</g>
</svg>
