<svg width="4471" height="956" viewBox="0 0 4471 956" fill="none" xmlns="http://www.w3.org/2000/svg">
<path d="M1038.7 317.623C1052.39 309.513 1049.9 294.486 1030.82 294.197C1042.51 285.016 1036.1 270.243 1017.46 272.205C1021 265.172 1017.31 256.884 1002.58 257.574C1005.97 249.099 992.232 245.757 979.763 250.581C977.919 242.506 957.068 245.336 953.289 251.815C953.054 248.609 943.617 244.094 938.155 244.946C946.923 239.356 943.038 231.553 934.772 231.725C945.089 225.323 937.468 215.675 924.353 217.85C931.972 208.72 911.885 203.631 900.59 207.853C905.846 198.112 873.807 196.099 868.632 206.358C868.838 205.946 865.747 204.883 865.244 204.71C863.933 204.268 862.503 203.931 860.984 203.705C857.855 203.276 854.479 203.248 851.069 203.62C843.938 204.367 836.992 206.428 831.31 209.484C828.309 211.076 825.872 212.987 824.194 215.064C823.398 216.069 822.845 217.109 822.552 218.151C822.127 219.619 822.977 220.835 822.524 222.269C818.465 222.32 814.299 223.298 810.917 224.993C807.535 226.688 805.206 228.966 804.427 231.34C803.122 229.408 801.318 227.643 799.066 226.093C797.133 224.799 794.517 223.905 791.496 223.504C788.257 223.083 785.407 222.398 781.693 223.124C791.633 213.336 767.412 207.614 756.35 215.888C749.566 209.389 729.744 214.139 732.48 222.553C727.348 218.758 718.554 220.465 711.816 223.991C702.439 228.882 704.7 234.582 710.915 238.495C706.349 236.416 693.576 236.884 692.37 241.719C691.474 241.253 690.386 240.917 689.171 240.731C687.957 240.546 686.641 240.515 685.304 240.64C683.967 240.766 682.637 241.044 681.395 241.46C680.153 241.876 679.025 242.419 678.08 243.057C671.593 233.987 647.839 245.682 652.737 248.719C651.226 247.889 649.364 247.288 647.271 246.955C645.179 246.621 642.902 246.562 640.588 246.782C638.274 247.001 635.974 247.495 633.838 248.23C631.701 248.965 629.774 249.926 628.182 251.05C630.716 245.437 621.701 240.44 611.992 242.089C612.102 240.086 611.314 238.197 609.702 236.601C608.09 235.006 605.706 233.756 602.778 232.971C596.739 231.604 587.891 233.255 584.041 236.994C581.992 235.4 578.819 234.427 575.145 234.265C571.47 234.103 567.56 234.764 564.179 236.118C560.797 237.472 558.189 239.423 556.866 241.587C555.542 243.751 555.598 245.973 557.023 247.817C555.989 247.032 554.612 246.428 552.994 246.049C551.376 245.67 549.558 245.526 547.676 245.629C545.794 245.731 543.896 246.077 542.122 246.641C540.349 247.204 538.746 247.971 537.433 248.883C534.185 245.826 528.84 243.402 522.142 243.313C515.444 243.224 507.548 246.025 505.451 249.954C503.775 246.521 494.329 246.109 489.683 249.255C490.236 245.015 483.969 241.779 476.815 241.812C473.139 241.939 469.402 242.642 466.001 243.847C462.601 245.051 459.664 246.712 457.504 248.653C453.214 252.579 451.334 257.02 452.226 261.123C451.193 260.509 449.907 260.051 448.448 259.778C446.989 259.505 445.389 259.423 443.747 259.537C442.106 259.651 440.459 259.958 438.909 260.44C437.36 260.921 435.942 261.567 434.744 262.336C437.295 260.556 427.754 258.393 426.069 258.344C423.371 258.476 420.645 258.983 418.123 259.822C415.601 260.66 413.357 261.805 411.582 263.159C409.723 264.58 408.425 266.181 407.803 267.821C407.181 269.46 407.254 271.087 408.015 272.557C405.722 272.476 403.334 272.677 400.999 273.146C398.665 273.616 396.434 274.344 394.447 275.286C392.459 276.228 390.757 277.363 389.447 278.621C388.137 279.879 387.247 281.232 386.832 282.596C384.605 281.75 381.954 281.265 379.098 281.182C376.241 281.1 373.26 281.421 370.402 282.119C367.544 282.818 364.891 283.874 362.661 285.2C360.431 286.527 358.689 288.085 357.578 289.747C358.567 288.265 349.326 288.427 348.138 288.653C346.314 288.995 344.575 289.569 343.061 290.327C341.548 291.086 340.303 292.009 339.426 293.022C338.975 291.872 337.988 290.867 336.559 290.102C335.13 289.337 333.307 288.838 331.266 288.654C329.225 288.47 327.035 288.606 324.905 289.05C322.775 289.493 320.778 290.23 319.106 291.188C319.224 290.122 318.854 289.109 318.03 288.252C317.207 287.395 315.96 286.722 314.413 286.301C308.497 284.713 301.157 287.439 298.462 291.171C298.425 282.343 278.106 283.954 273.7 292.198C260.602 287.745 239.351 300.659 251.827 306.902C248.047 307.36 245.57 308.888 242.597 310.292C239.854 311.605 237.649 313.262 236.218 315.087C234.554 317.256 233.382 319.492 232.738 321.733C231.264 319.715 228.345 318.267 224.605 317.698C220.865 317.129 216.601 317.485 212.725 318.689C211.851 317.464 212.306 316.042 211.449 314.777C210.83 313.883 209.985 313.066 208.935 312.348C206.692 310.893 203.786 309.828 200.444 309.236C194.087 308.086 186.838 308.27 179.818 309.759C176.453 310.47 173.253 311.557 170.421 312.949C169.038 313.628 167.78 314.391 166.678 315.22C166.253 315.539 163.619 317.508 163.943 317.835C155.855 309.675 126 321.477 134.006 329.12C121.981 328.586 104.467 339.622 114.487 345.963C101.363 347.937 97.136 359.459 108.858 362.375C100.961 364.735 99.6555 373.384 109.721 375.995C104.283 376.855 96.7012 384.074 97.4448 387.199C91.8674 382.163 71.1625 385.917 71.8989 394.155C58.5273 393.417 46.5129 400.833 52.3578 407.846C38.0214 411.754 37.1577 420.762 42.7103 426.358C24.2717 430.259 22.8393 446.273 36.7917 451.398C18.7334 457.561 21.0024 472.623 36.5311 476.111C27.256 480.216 28.2839 492.875 44.5901 493.83C44.217 494.095 43.867 494.369 43.5419 494.652C35.132 501.648 44.3378 509.569 57.9104 507.422L1028.02 353.991C1041.59 351.844 1047.91 341.519 1037.76 337.471C1037.35 337.304 1036.93 337.152 1036.48 337.016C1051.71 331.024 1048.76 318.668 1038.7 317.623Z" fill="#7CC16C"/>
<path d="M1964.49 262.478C1978.91 254.455 1977.88 235.501 1958.91 232.346C1971.44 222.704 1966.47 203.489 1947.73 203.184C1951.92 195.003 1949.05 184.21 1934.31 182.902C1938.51 172.917 1925.15 166.768 1912.26 170.906C1911.2 160.647 1890.16 161.091 1885.78 168.55C1885.85 164.55 1876.89 157.582 1871.36 157.833C1880.64 152.206 1877.52 141.984 1869.27 140.984C1880.16 134.578 1873.5 121.526 1860.23 122.294C1868.7 112.117 1849.19 102.876 1837.53 106.442C1843.71 95.1638 1811.99 87.9755 1805.84 99.9054C1806.09 99.427 1803.11 97.6583 1802.63 97.3707C1801.37 96.6321 1799.97 96.0051 1798.48 95.5032C1795.41 94.5136 1792.05 93.9828 1788.62 93.9438C1781.44 93.8218 1774.33 95.3528 1768.37 98.2989C1765.23 99.8285 1762.62 101.835 1760.74 104.158C1759.86 105.284 1759.2 106.489 1758.81 107.735C1758.25 109.488 1758.98 111.117 1758.39 112.825C1754.34 112.293 1750.1 112.891 1746.56 114.492C1743.03 116.093 1740.49 118.569 1739.49 121.392C1738.37 118.811 1736.75 116.362 1734.65 114.115C1732.85 112.231 1730.33 110.741 1727.36 109.802C1724.18 108.806 1721.41 107.54 1717.64 107.894C1728.48 97.2448 1704.91 86.614 1693.09 95.2263C1686.96 86.1923 1666.76 89.1612 1668.68 99.97C1663.93 94.5236 1655.01 95.3445 1647.96 98.7185C1638.15 103.392 1639.85 110.775 1645.66 116.527C1641.31 113.285 1628.55 111.991 1626.88 117.794C1626.03 117.087 1624.98 116.512 1623.79 116.104C1622.6 115.697 1621.29 115.465 1619.94 115.424C1618.6 115.383 1617.25 115.533 1615.97 115.865C1614.7 116.197 1613.52 116.704 1612.52 117.355C1606.93 105.184 1582.14 116.166 1586.73 120.641C1585.3 119.393 1583.51 118.376 1581.46 117.657C1579.4 116.937 1577.14 116.53 1574.82 116.463C1572.49 116.395 1570.15 116.668 1567.95 117.264C1565.75 117.86 1563.74 118.766 1562.05 119.923C1565.11 113.352 1556.62 105.848 1546.79 106.464C1547.09 104.002 1546.49 101.551 1545.04 99.3405C1543.58 97.1303 1541.33 95.2348 1538.49 93.8336C1532.61 91.2571 1523.64 92.0026 1519.44 96.0625C1517.55 93.7902 1514.49 92.1209 1510.84 91.3816C1507.2 90.6423 1503.24 90.8863 1499.74 92.0657C1496.24 93.2452 1493.46 95.2751 1491.93 97.7578C1490.4 100.24 1490.25 102.997 1491.49 105.487C1490.53 104.365 1489.22 103.415 1487.64 102.709C1486.07 102.003 1484.27 101.559 1482.39 101.41C1480.5 101.261 1478.58 101.41 1476.76 101.847C1474.94 102.284 1473.27 102.997 1471.87 103.933C1468.93 99.6748 1463.84 95.8935 1457.18 94.801C1450.52 93.7085 1442.38 96.0153 1439.92 100.567C1438.58 96.0752 1429.21 94.1806 1424.28 97.3897C1425.24 92.2268 1419.31 87.3043 1412.18 86.2966C1408.51 85.9143 1404.72 86.2358 1401.21 87.227C1397.71 88.2182 1394.63 89.8419 1392.29 91.9253C1387.64 96.1527 1385.33 101.371 1385.83 106.576C1384.86 105.666 1383.62 104.911 1382.19 104.359C1380.77 103.807 1379.18 103.471 1377.53 103.371C1375.89 103.271 1374.22 103.41 1372.63 103.778C1371.04 104.147 1369.57 104.737 1368.3 105.513C1371.01 103.686 1361.72 99.6108 1360.04 99.303C1357.34 99.0711 1354.58 99.2984 1351.99 99.9654C1349.39 100.633 1347.05 101.72 1345.15 103.135C1343.16 104.619 1341.71 106.41 1340.94 108.346C1340.16 110.283 1340.07 112.307 1340.69 114.236C1338.41 113.8 1336.02 113.698 1333.65 113.936C1331.28 114.174 1328.98 114.748 1326.91 115.622C1324.84 116.496 1323.04 117.65 1321.61 119.014C1320.19 120.377 1319.17 121.921 1318.62 123.547C1316.49 122.174 1313.89 121.186 1311.06 120.664C1308.22 120.143 1305.22 120.103 1302.31 120.548C1299.39 120.993 1296.65 121.91 1294.3 123.223C1291.95 124.537 1290.06 126.209 1288.8 128.102C1289.92 126.414 1280.7 125.259 1279.5 125.364C1277.65 125.52 1275.86 125.974 1274.28 126.691C1272.7 127.408 1271.37 128.367 1270.4 129.49C1270.06 128.002 1269.18 126.614 1267.83 125.458C1266.48 124.302 1264.71 123.418 1262.7 122.891C1260.68 122.364 1258.49 122.211 1256.32 122.448C1254.16 122.684 1252.1 123.302 1250.34 124.241C1250.56 122.94 1250.29 121.634 1249.55 120.453C1248.81 119.271 1247.64 118.256 1246.14 117.509C1240.4 114.677 1232.82 116.972 1229.78 121.194C1230.6 110.268 1210.2 109.281 1205.02 118.832C1192.4 111.403 1169.99 124.26 1181.81 133.812C1178.01 133.825 1175.39 135.351 1172.3 136.652C1169.44 137.873 1167.08 139.6 1165.48 141.647C1163.61 144.086 1162.23 146.681 1161.37 149.358C1160.1 146.646 1157.33 144.426 1153.66 143.174C1149.99 141.922 1145.71 141.736 1141.73 142.657C1140.98 141.014 1141.57 139.322 1140.84 137.631C1140.31 136.435 1139.55 135.3 1138.57 134.257C1136.48 132.13 1133.68 130.386 1130.41 129.163C1124.19 126.808 1116.96 125.973 1109.82 126.786C1106.4 127.172 1103.11 128.046 1100.15 129.353C1098.71 129.989 1097.38 130.749 1096.21 131.613C1095.75 131.946 1092.94 133.995 1093.23 134.447C1085.96 123.167 1055.09 133.386 1062.32 144.015C1050.4 141.591 1031.89 152.673 1041.26 161.986C1028 162.504 1022.67 176.136 1034.07 181.462C1025.97 183.223 1023.84 193.73 1033.61 198.435C1028.11 198.701 1019.87 206.519 1020.3 210.494C1015.24 203.446 994.252 205.053 994.19 215.351C980.943 212.478 968.262 219.888 973.406 229.421C958.751 232.152 957.021 243.169 962.011 250.905C943.27 253.025 940.298 272.624 953.7 281.01C935.12 285.984 935.926 304.949 951.056 311.541C941.422 315.258 941.224 331.067 957.373 334.64C956.976 334.913 956.601 335.201 956.25 335.503C947.198 342.924 955.603 354.071 969.328 353.407L1950.35 305.898C1964.07 305.233 1971.36 293.388 1961.64 286.892C1961.25 286.625 1960.84 286.375 1960.41 286.142C1976.16 280.963 1974.41 265.248 1964.49 262.478Z" fill="#7CC16C"/>
<path d="M2850.16 273.829C2865.36 266.856 2866.37 246.632 2847.84 241.256C2861.33 232.363 2858.46 211.442 2839.85 209.115C2844.9 200.882 2843.2 189.12 2828.69 186.157C2833.93 176.01 2821.31 168.057 2808.05 171.071C2808.1 160.071 2787.13 158.293 2781.96 165.74C2782.47 161.503 2774.3 153.15 2768.78 152.827C2778.61 147.846 2776.61 136.666 2768.51 134.723C2780.03 129.089 2774.81 114.527 2761.53 113.923C2771.04 104.029 2752.63 92.1368 2740.65 94.675C2748.01 83.3666 2717.24 72.3486 2709.85 84.3519C2710.14 83.8705 2707.37 81.6755 2706.92 81.3185C2705.74 80.3997 2704.43 79.5855 2703 78.8936C2700.05 77.5147 2696.76 76.5925 2693.35 76.1843C2686.23 75.288 2678.99 76.152 2672.75 78.642C2669.46 79.9294 2666.65 81.7793 2664.54 84.0444C2663.54 85.1448 2662.76 86.3542 2662.24 87.6339C2661.49 89.4343 2662.04 91.2406 2661.27 92.9902C2657.3 91.9926 2653.01 92.1739 2649.33 93.4954C2645.65 94.8168 2642.85 97.1734 2641.55 100.061C2640.72 97.2029 2639.37 94.4303 2637.53 91.8219C2635.94 89.6306 2633.59 87.7798 2630.74 86.4666C2627.68 85.0686 2625.06 83.4295 2621.27 83.4019C2633.2 73.2602 2610.9 59.4596 2598.23 67.336C2593.1 57.0942 2572.69 58.0857 2573.44 69.7603C2569.3 63.4735 2560.34 63.391 2552.97 66.2178C2542.71 70.1292 2543.61 78.145 2548.77 84.8707C2544.8 80.9659 2532.24 78.2276 2529.96 84.2081C2529.19 83.3668 2528.21 82.6442 2527.06 82.0844C2525.92 81.5246 2524.65 81.1394 2523.32 80.9521C2521.98 80.7648 2520.62 80.7795 2519.32 80.9952C2518.01 81.2108 2516.79 81.623 2515.72 82.2066C2511.47 68.6943 2485.65 77.6993 2489.73 82.9376C2488.44 81.4612 2486.76 80.1905 2484.8 79.2076C2482.84 78.2246 2480.63 77.5512 2478.33 77.2309C2476.02 76.9106 2473.67 76.9504 2471.42 77.3479C2469.16 77.7453 2467.07 78.4915 2465.26 79.5383C2469.01 72.8927 2461.37 64.0212 2451.53 63.6244C2452.09 61.0449 2451.76 58.3786 2450.55 55.8779C2449.34 53.3773 2447.31 51.1251 2444.63 49.3345C2439.06 45.9715 2430.06 45.8038 2425.45 49.6638C2423.82 47.0507 2420.95 44.9516 2417.4 43.7776C2413.86 42.6036 2409.9 42.4394 2406.29 43.3171C2402.68 44.1949 2399.7 46.0513 2397.91 48.5227C2396.13 50.9941 2395.67 53.9023 2396.64 56.6777C2395.81 55.3845 2394.61 54.2365 2393.12 53.3191C2391.63 52.4016 2389.89 51.7384 2388.03 51.3785C2386.17 51.0187 2384.24 50.9715 2382.39 51.2405C2380.53 51.5096 2378.79 52.0879 2377.3 52.9325C2374.84 48.099 2370.18 43.5424 2363.67 41.6709C2357.16 39.7994 2348.83 41.378 2345.88 45.9444C2345.04 41.0348 2335.92 38.0231 2330.67 40.9015C2332.18 35.5253 2326.82 29.6678 2319.83 27.8365C2316.22 27.0382 2312.42 26.9744 2308.83 27.6518C2305.24 28.3293 2302 29.7226 2299.45 31.6836C2294.37 35.6725 2291.52 40.964 2291.45 46.5409C2290.58 45.4706 2289.44 44.5372 2288.08 43.7994C2286.72 43.0616 2285.18 42.5352 2283.55 42.2532C2281.92 41.9713 2280.25 41.9399 2278.63 42.1611C2277.01 42.3823 2275.48 42.8512 2274.13 43.5384C2277.03 41.8901 2268.22 36.5721 2266.59 36.0667C2263.93 35.532 2261.16 35.4777 2258.51 35.9085C2255.86 36.3393 2253.41 37.2423 2251.37 38.5409C2249.23 39.904 2247.6 41.6491 2246.62 43.6213C2245.64 45.5935 2245.34 47.7316 2245.74 49.8455C2243.53 49.139 2241.15 48.7742 2238.77 48.7738C2236.39 48.7734 2234.05 49.1375 2231.89 49.8433C2229.74 50.5491 2227.82 51.5814 2226.26 52.876C2224.69 54.1706 2223.52 55.6996 2222.8 57.3676C2220.82 55.6821 2218.35 54.3561 2215.58 53.4994C2212.82 52.6427 2209.84 52.2797 2206.89 52.4405C2203.95 52.6013 2201.12 53.2812 2198.64 54.4241C2196.17 55.5669 2194.11 57.14 2192.65 59.0133C2193.95 57.3431 2184.91 55.1317 2183.7 55.1144C2181.84 55.0818 2180.02 55.373 2178.37 55.9647C2176.72 56.5564 2175.29 57.4319 2174.21 58.5207C2174.03 56.9056 2173.3 55.3372 2172.08 53.9665C2170.86 52.5958 2169.2 51.4688 2167.25 50.6939C2165.31 49.9191 2163.14 49.5224 2160.96 49.5421C2158.79 49.5618 2156.67 49.9972 2154.82 50.8064C2155.18 49.4493 2155.05 48.0339 2154.44 46.7015C2153.84 45.3691 2152.78 44.1662 2151.37 43.2129C2145.96 39.5939 2138.18 41.22 2134.7 45.3749C2136.69 33.868 2116.51 30.6407 2110.33 40.2218C2098.59 30.9898 2074.92 42.239 2085.65 53.6384C2081.86 53.2456 2079.1 54.5858 2075.88 55.6352C2072.9 56.6254 2070.38 58.2059 2068.56 60.2079C2066.45 62.5965 2064.79 65.2021 2063.65 67.9509C2062.68 64.9369 2060.16 62.2858 2056.65 60.5647C2053.13 58.8437 2048.9 58.1894 2044.84 58.7418C2044.27 56.9177 2045.04 55.1846 2044.49 53.3122C2044.09 51.9862 2043.46 50.7003 2042.6 49.4897C2040.75 47.0079 2038.16 44.859 2035.03 43.2116C2029.1 40.0482 2021.99 38.388 2014.81 38.4877C2011.37 38.5319 2008 39.108 2004.92 40.1792C2003.42 40.7002 2002.02 41.3643 2000.75 42.1552C2000.27 42.46 1997.25 44.3338 1997.49 44.845C1991.47 32.0975 1959.67 39.6426 1965.73 51.6952C1954.13 47.8484 1934.53 57.6309 1942.85 68.5146C1929.61 67.6467 1922.85 81.5439 1933.61 88.4142C1925.37 89.4175 1922.12 100.339 1931.34 106.377C1925.84 106.072 1916.8 113.486 1916.81 117.752C1912.52 109.731 1891.48 109.194 1890.32 120.115C1877.45 115.65 1864.05 122.159 1868.14 132.824C1853.27 134.157 1850.37 145.662 1854.5 154.405C1835.64 154.652 1830.58 175.133 1843 185.465C1823.99 188.757 1822.76 208.969 1837.1 217.581C1827.12 220.496 1825.22 237.252 1840.9 242.769C1840.47 243.016 1840.07 243.282 1839.69 243.564C1829.89 250.472 1837.05 263.2 1850.77 263.962L2831.43 318.394C2845.15 319.156 2853.67 307.364 2844.7 299.432C2844.35 299.108 2843.97 298.798 2843.56 298.505C2859.78 294.692 2859.73 277.828 2850.16 273.829Z" fill="#7CC16C"/>
<path d="M3755.32 361.921C3770.55 354.45 3771.63 332.933 3753.11 327.279C3766.64 317.771 3763.84 295.527 3745.24 293.117C3750.32 284.341 3748.66 271.836 3734.15 268.735C3739.44 257.923 3726.84 249.507 3713.57 252.761C3713.65 241.059 3692.69 239.242 3687.49 247.182C3688.01 242.673 3679.87 233.817 3674.36 233.493C3684.2 228.159 3682.24 216.273 3674.15 214.235C3685.69 208.201 3680.52 192.729 3667.24 192.133C3676.79 181.575 3658.41 168.99 3646.43 171.732C3653.82 159.676 3623.08 148.065 3615.65 160.86C3615.95 160.346 3613.18 158.021 3612.74 157.643C3611.56 156.67 3610.25 155.809 3608.82 155.078C3605.87 153.621 3602.59 152.652 3599.18 152.23C3592.06 151.301 3584.82 152.246 3578.57 154.917C3575.28 156.298 3572.46 158.276 3570.34 160.693C3569.33 161.867 3568.55 163.156 3568.02 164.519C3567.26 166.437 3567.8 168.357 3567.03 170.221C3563.06 169.173 3558.78 169.382 3555.09 170.8C3551.4 172.219 3548.6 174.736 3547.29 177.812C3546.47 174.775 3545.12 171.83 3543.29 169.062C3541.71 166.736 3539.37 164.776 3536.52 163.389C3533.46 161.913 3530.85 160.179 3527.06 160.163C3539.03 149.332 3516.77 134.73 3504.07 143.154C3498.98 132.277 3478.56 133.404 3479.26 145.82C3475.15 139.147 3466.19 139.091 3458.8 142.125C3448.53 146.322 3449.4 154.845 3454.54 161.982C3450.58 157.842 3438.03 154.973 3435.72 161.343C3434.96 160.451 3433.98 159.686 3432.84 159.094C3431.7 158.503 3430.43 158.098 3429.09 157.903C3427.76 157.709 3426.4 157.729 3425.1 157.963C3423.79 158.197 3422.56 158.64 3421.49 159.265C3417.29 144.906 3391.43 154.576 3395.49 160.134C3394.21 158.568 3392.54 157.222 3390.58 156.184C3388.62 155.145 3386.41 154.437 3384.11 154.104C3381.8 153.771 3379.45 153.822 3377.2 154.253C3374.94 154.684 3372.84 155.485 3371.03 156.605C3374.81 149.522 3367.19 140.112 3357.35 139.725C3357.93 136.979 3357.6 134.144 3356.4 131.488C3355.21 128.832 3353.18 126.443 3350.51 124.548C3344.94 120.99 3335.94 120.844 3331.32 124.966C3329.7 122.192 3326.83 119.97 3323.29 118.733C3319.75 117.497 3315.79 117.336 3312.18 118.283C3308.57 119.229 3305.57 121.215 3303.78 123.85C3301.99 126.485 3301.52 129.581 3302.48 132.529C3301.66 131.157 3300.46 129.94 3298.97 128.969C3297.48 127.998 3295.74 127.299 3293.89 126.923C3292.03 126.547 3290.1 126.503 3288.24 126.796C3286.38 127.089 3284.64 127.71 3283.15 128.614C3280.7 123.481 3276.06 118.65 3269.56 116.682C3263.05 114.715 3254.71 116.423 3251.75 121.291C3250.92 116.072 3241.82 112.9 3236.56 115.981C3238.09 110.256 3232.74 104.044 3225.76 102.121C3222.15 101.285 3218.35 101.23 3214.75 101.964C3211.16 102.697 3207.91 104.191 3205.36 106.286C3200.26 110.547 3197.39 116.186 3197.31 122.119C3196.44 120.983 3195.3 119.994 3193.94 119.214C3192.58 118.434 3191.04 117.88 3189.42 117.585C3187.79 117.291 3186.12 117.264 3184.49 117.505C3182.87 117.746 3181.34 118.25 3180 118.986C3182.9 117.222 3174.11 111.596 3172.48 111.064C3169.82 110.505 3167.05 110.457 3164.39 110.925C3161.74 111.392 3159.29 112.362 3157.24 113.75C3155.1 115.208 3153.46 117.07 3152.48 119.171C3151.49 121.273 3151.18 123.548 3151.58 125.796C3149.36 125.052 3146.99 124.672 3144.61 124.68C3142.22 124.688 3139.88 125.084 3137.72 125.842C3135.57 126.601 3133.65 127.706 3132.08 129.088C3130.51 130.471 3129.32 132.102 3128.6 133.879C3126.63 132.093 3124.16 130.691 3121.4 129.789C3118.64 128.888 3115.66 128.512 3112.71 128.694C3109.77 128.875 3106.93 129.608 3104.45 130.833C3101.97 132.057 3099.91 133.738 3098.44 135.736C3099.75 133.955 3090.71 131.634 3089.5 131.62C3087.65 131.592 3085.82 131.908 3084.17 132.543C3082.52 133.179 3081.09 134.115 3080 135.277C3079.83 133.56 3079.1 131.894 3077.89 130.44C3076.67 128.986 3075.01 127.793 3073.07 126.976C3071.12 126.159 3068.96 125.744 3066.78 125.773C3064.6 125.802 3062.49 126.272 3060.63 127.14C3061 125.695 3060.87 124.189 3060.27 122.774C3059.67 121.359 3058.61 120.083 3057.2 119.074C3051.81 115.244 3044.03 117.001 3040.53 121.433C3042.56 109.185 3022.39 105.824 3016.18 116.038C3004.46 106.258 2980.75 118.309 2991.44 130.397C2987.65 129.992 2984.88 131.428 2981.66 132.556C2978.68 133.619 2976.15 135.31 2974.33 137.446C2972.2 139.994 2970.54 142.772 2969.39 145.7C2968.42 142.497 2965.92 139.686 2962.41 137.868C2958.9 136.049 2954.66 135.368 2950.6 135.97C2950.04 134.032 2950.81 132.185 2950.28 130.196C2949.88 128.786 2949.25 127.421 2948.39 126.136C2946.55 123.503 2943.97 121.226 2940.85 119.484C2934.93 116.14 2927.82 114.399 2920.64 114.531C2917.2 114.59 2913.83 115.215 2910.74 116.365C2909.24 116.925 2907.83 117.636 2906.57 118.482C2906.08 118.808 2903.05 120.812 2903.29 121.355C2897.32 107.816 2865.49 115.955 2871.5 128.754C2859.91 124.703 2840.28 135.179 2848.56 146.727C2835.32 145.851 2828.51 160.658 2839.25 167.928C2831 169.024 2827.71 180.654 2836.91 187.044C2831.41 186.739 2822.34 194.658 2822.34 199.196C2818.08 190.679 2797.04 190.181 2795.83 201.804C2782.98 197.1 2769.55 204.07 2773.6 215.402C2758.73 216.871 2755.79 229.121 2759.89 238.407C2741.02 238.736 2735.89 260.54 2748.28 271.487C2729.25 275.057 2727.95 296.562 2742.26 305.672C2732.27 308.808 2730.31 326.639 2745.97 332.452C2745.55 332.717 2745.14 333.001 2744.76 333.303C2734.93 340.686 2742.05 354.2 2755.77 354.962L3736.43 409.394C3750.15 410.156 3758.72 397.582 3749.77 389.176C3749.41 388.832 3749.04 388.505 3748.64 388.194C3764.87 384.081 3764.88 366.142 3755.32 361.921Z" fill="#7CC16C"/>
<path d="M4442.87 497.055C4458.02 490.978 4458.9 473.078 4440.34 468.2C4453.78 460.412 4450.77 441.87 4432.15 439.691C4437.15 432.434 4435.38 422.01 4420.85 419.294C4426.03 410.343 4413.35 403.221 4400.12 405.806C4400.1 396.067 4379.13 394.359 4374.01 400.919C4374.49 397.171 4366.27 389.724 4360.75 389.403C4370.54 385.055 4368.47 375.143 4360.37 373.371C4371.85 368.456 4366.53 355.53 4353.25 354.91C4362.7 346.211 4344.22 335.564 4332.26 337.736C4339.54 327.77 4308.71 317.819 4301.4 328.399C4301.69 327.975 4298.91 326.014 4298.46 325.695C4297.28 324.874 4295.95 324.145 4294.52 323.523C4291.56 322.283 4288.27 321.446 4284.86 321.063C4277.74 320.224 4270.5 320.943 4264.28 323.108C4261.01 324.227 4258.21 325.847 4256.11 327.839C4255.11 328.807 4254.34 329.873 4253.83 331.002C4253.09 332.592 4253.65 334.195 4252.89 335.739C4248.92 334.83 4244.64 334.964 4240.96 336.11C4237.29 337.257 4234.51 339.325 4233.23 341.874C4232.38 339.338 4231.01 336.875 4229.15 334.553C4227.55 332.603 4225.2 330.949 4222.34 329.769C4219.27 328.511 4216.64 327.043 4212.85 326.995C4224.71 318.091 4202.33 305.73 4189.71 312.623C4184.52 303.523 4164.13 304.271 4164.94 314.612C4160.77 309.02 4151.81 308.89 4144.46 311.346C4134.23 314.743 4135.18 321.846 4140.38 327.834C4136.39 324.352 4123.82 321.847 4121.57 327.128C4120.8 326.378 4119.81 325.732 4118.67 325.229C4117.52 324.726 4116.25 324.377 4114.91 324.203C4113.58 324.028 4112.22 324.033 4110.92 324.215C4109.62 324.398 4108.39 324.755 4107.33 325.265C4103 313.274 4077.24 321.083 4081.35 325.747C4080.06 324.432 4078.37 323.296 4076.4 322.413C4074.43 321.53 4072.22 320.92 4069.92 320.622C4067.61 320.324 4065.26 320.344 4063.01 320.681C4060.76 321.019 4058.67 321.666 4056.87 322.582C4060.58 316.721 4052.88 308.818 4043.04 308.404C4043.59 306.124 4043.24 303.761 4042.02 301.539C4040.79 299.317 4038.74 297.31 4036.06 295.708C4030.46 292.695 4021.47 292.489 4016.88 295.878C4015.23 293.554 4012.35 291.677 4008.8 290.615C4005.25 289.553 4001.29 289.382 3997.69 290.136C3994.09 290.891 3991.12 292.515 3989.35 294.692C3987.58 296.869 3987.14 299.441 3988.13 301.904C3987.29 300.754 3986.08 299.73 3984.59 298.908C3983.09 298.086 3981.35 297.488 3979.49 297.158C3977.63 296.827 3975.7 296.773 3973.84 297C3971.99 297.226 3970.26 297.727 3968.77 298.465C3966.28 294.17 3961.59 290.106 3955.08 288.408C3948.56 286.709 3940.23 288.054 3937.32 292.078C3936.44 287.726 3927.31 285.001 3922.09 287.517C3923.56 282.766 3918.16 277.546 3911.17 275.88C3907.55 275.15 3903.75 275.069 3900.16 275.646C3896.58 276.223 3893.35 277.436 3890.81 279.156C3885.76 282.656 3882.95 287.323 3882.91 292.26C3882.04 291.307 3880.89 290.473 3879.52 289.811C3878.16 289.149 3876.61 288.674 3874.99 288.414C3873.36 288.154 3871.68 288.115 3870.07 288.301C3868.45 288.486 3866.92 288.892 3865.58 289.492C3868.46 288.051 3859.63 283.286 3857.99 282.828C3855.33 282.338 3852.56 282.272 3849.91 282.637C3847.27 283.001 3844.82 283.785 3842.79 284.922C3840.67 286.115 3839.05 287.65 3838.08 289.39C3837.11 291.13 3836.82 293.021 3837.24 294.895C3835.02 294.256 3832.65 293.918 3830.26 293.902C3827.88 293.887 3825.54 294.194 3823.4 294.805C3821.25 295.416 3819.34 296.318 3817.78 297.455C3816.23 298.591 3815.06 299.937 3814.35 301.409C3812.37 299.904 3809.89 298.715 3807.12 297.939C3804.35 297.162 3801.37 296.822 3798.42 296.946C3795.48 297.069 3792.66 297.653 3790.19 298.65C3787.72 299.646 3785.68 301.025 3784.23 302.675C3785.52 301.204 3776.46 299.189 3775.25 299.166C3773.4 299.125 3771.57 299.371 3769.93 299.885C3768.29 300.398 3766.87 301.164 3765.79 302.121C3765.6 300.69 3764.86 299.297 3763.63 298.075C3762.41 296.854 3760.74 295.846 3758.79 295.147C3756.83 294.449 3754.67 294.084 3752.49 294.087C3750.31 294.091 3748.2 294.463 3746.36 295.168C3746.71 293.968 3746.57 292.714 3745.96 291.531C3745.34 290.347 3744.27 289.275 3742.86 288.422C3737.43 285.184 3729.67 286.574 3726.21 290.231C3728.12 280.055 3707.94 277.069 3701.82 285.513C3690.02 277.264 3666.43 287.074 3677.23 297.235C3673.44 296.863 3670.69 298.032 3667.47 298.941C3664.51 299.799 3661.99 301.182 3660.19 302.943C3658.09 305.045 3656.45 307.341 3655.33 309.768C3654.34 307.093 3651.81 304.729 3648.28 303.183C3644.76 301.637 3640.52 301.031 3636.47 301.494C3635.89 299.875 3636.64 298.346 3636.08 296.685C3635.68 295.508 3635.03 294.365 3634.17 293.288C3632.3 291.079 3629.7 289.16 3626.57 287.681C3620.61 284.843 3613.5 283.328 3606.32 283.37C3602.88 283.387 3599.51 283.876 3596.44 284.805C3594.94 285.257 3593.55 285.836 3592.29 286.528C3591.8 286.795 3588.8 288.435 3589.04 288.889C3582.95 277.564 3551.21 284.042 3557.34 294.752C3545.72 291.272 3526.19 299.809 3534.58 309.498C3521.33 308.646 3514.67 320.907 3525.46 327.059C3517.24 327.894 3514.06 337.544 3523.3 342.949C3517.81 342.643 3508.82 349.151 3508.85 352.927C3504.52 345.798 3483.48 345.189 3482.39 354.851C3469.5 350.816 3456.14 356.493 3460.3 365.963C3445.44 367.048 3442.62 377.217 3446.8 384.984C3427.95 385.083 3423.02 403.184 3435.51 412.411C3416.52 415.205 3415.42 433.093 3429.81 440.809C3419.85 443.326 3418.06 458.15 3433.77 463.134C3433.35 463.351 3432.94 463.583 3432.56 463.831C3422.81 469.885 3430.05 481.2 3443.77 481.961L4424.43 536.394C4438.15 537.156 4446.6 526.77 4437.58 519.689C4437.22 519.4 4436.84 519.124 4436.43 518.862C4452.62 515.589 4452.46 500.657 4442.87 497.055Z" fill="#7CC16C"/>
<path d="M4450.19 568.765C4446.31 559.766 4439.93 551.728 4431.59 545.366C4423.25 539.003 4413.22 534.511 4402.39 532.289L3716.33 381.537L693.398 374.893L49.6521 485.715C43.0497 486.846 37.1365 489.98 32.9857 494.547C28.835 499.115 26.7217 504.813 27.0294 510.609C27.3372 516.405 30.0457 521.914 34.6632 526.135C39.2807 530.357 45.5012 533.012 52.1959 533.618C90.7389 537.206 1.29719 604.367 70.4434 608.753C192.356 616.979 -11.2385 695.498 110.943 691.166C146.788 690.236 321.079 664.175 311.443 709.753C310.366 714.212 433.443 745.339 475.443 716.753C381.443 757.72 689.697 747.555 769.019 760.843C842.559 773.201 918.18 756.591 993.108 757.72C1153.29 759.979 1297.06 841.833 1454.31 868.011C1730.51 914.054 2005.79 785.093 2286.84 781.107C2468.3 778.516 2646.83 828.213 2828.3 824.692C2938.61 822.566 3046.99 800.84 3155.14 781.971C3458.03 729.293 3765.54 698.755 4074.39 690.682C4198.19 687.493 4332.94 684.636 4428.29 616.535C4444.02 605.307 4459.28 591.022 4450.19 568.765Z" fill="#CF9C66"/>
<path d="M4260.86 554.48C2982.55 174.045 1402.51 200.754 111.477 489.768L292.944 572.166C292.944 572.166 331.711 734.466 1706.62 708.488C3081.52 682.51 4647.45 669.555 4260.86 554.48Z" fill="#DBAC7D"/>
<path d="M4214 536.874C2935.68 156.438 1472.51 185.406 181.471 474.42L333.944 561.666C333.944 561.666 387.213 686.364 1762.12 660.452C3137.03 634.541 4600.58 651.948 4214 536.874Z" fill="#F7D3A9"/>
<g opacity="0.3">
<path d="M2947.86 82.0258L3091.85 153.781L3153.44 126.142L2987.55 69.9999L2947.86 82.0258Z" fill="white"/>
</g>
<g opacity="0.3">
<path d="M4070.58 415.247C4070.58 415.247 4113.04 432.688 4111.83 431.701C4110.62 430.715 4113.07 411.167 4113.07 411.167L4070.58 415.247Z" fill="white"/>
</g>
<path d="M2000.55 851.866L1996.77 852.73L1985.51 854.989C1975.72 856.982 1961.31 860.304 1942.96 865.154C1924.62 870.004 1902.57 876.847 1877.13 885.086L1790.95 914.386C1756.11 926.377 1720.3 936.148 1683.8 943.62C1663.48 947.722 1642.88 950.718 1622.13 952.589C1600.07 954.685 1577.88 955.595 1555.68 955.313C1508 954.918 1460.58 949.178 1414.61 938.238C1365.52 926.016 1318.13 909.172 1273.32 888.009C1227.06 867.147 1182.35 845.288 1137.72 827.283C1095.16 809.273 1049.72 796.823 1002.9 790.342C981.083 788.053 959.06 787.608 937.144 789.014C915.791 790.675 895.286 793.864 875.475 796.389C807.406 806.521 737.366 798.162 675.051 772.47C653.904 763.831 633.9 753.25 615.387 740.911C603.688 733.152 592.638 724.693 582.317 715.597L574.608 708.289C572.835 706.628 572.064 705.764 572.064 705.764L574.917 708.023L582.625 715.066C593.153 723.932 604.328 732.21 616.081 739.848C634.656 751.922 654.654 762.278 675.745 770.743C737.821 795.877 807.401 803.838 874.936 793.532C894.824 790.941 915.406 787.685 936.604 785.957C958.774 784.495 981.056 784.918 1003.13 787.22C1050.3 793.618 1096.09 806.093 1138.96 824.227C1183.82 842.299 1228.3 864.091 1274.78 884.953C1319.36 906.054 1366.48 922.897 1415.31 935.182C1460.94 946.08 1508.02 951.842 1555.37 952.323C1577.41 952.647 1599.45 951.781 1621.36 949.732C1642.1 947.926 1662.7 945.02 1683.03 941.028C1719.36 933.663 1755.04 924.071 1789.79 912.326L1876.36 883.358C1901.88 875.053 1924.15 868.542 1942.5 863.426C1961.54 858.493 1980.93 854.631 2000.55 851.866Z" fill="#E0E0E0"/>
<path d="M2320.68 829.476C2311.72 829.381 2302.76 828.871 2293.86 827.948C2277.29 826.884 2254.39 825.954 2229.11 826.419C2203.82 826.884 2181 828.811 2164.51 830.539C2155.65 831.791 2146.72 832.633 2137.76 833.063C2140.01 832.258 2142.37 831.678 2144.77 831.336C2149.25 830.406 2155.87 829.276 2164.12 828.08C2185.6 825.122 2207.29 823.413 2229.03 822.965C2250.76 822.542 2272.5 823.408 2294.09 825.556C2302.42 826.353 2309.04 827.217 2313.67 827.948C2316.08 828.164 2318.44 828.678 2320.68 829.476Z" fill="#DADADA"/>
<path d="M4216.92 709.551L4212.99 711.212L4201.2 715.863C4186.17 721.732 4170.72 726.77 4154.95 730.945C4129.72 737.458 4103.95 742.3 4077.86 745.429C4043.4 749.595 4008.67 751.814 3973.87 752.073C3935.33 752.538 3892.85 751.276 3847.53 749.681C3802.2 748.087 3753.71 746.093 3702.76 746.957C3592.06 748.846 3482.23 764.35 3376.61 793C3322.02 807.931 3268.7 826.113 3217.04 847.414C3166.78 867.346 3117.52 887.278 3067.26 896.646C3019.82 905.041 2971.35 908.366 2922.96 906.546C2877.48 905.416 2835.31 903.091 2796.77 900.234C2735.84 896.389 2675.49 887.49 2616.54 873.658C2595.81 868.542 2579.93 863.692 2569.29 860.37L2557.26 856.251C2554.56 855.321 2553.25 854.723 2553.25 854.723C2553.25 854.723 2554.72 855.055 2557.42 855.919L2569.6 859.706C2580.31 862.961 2596.19 867.612 2617 872.529C2675.96 885.791 2736.22 894.288 2797 897.909C2835.54 900.566 2877.71 902.825 2923.04 903.822C2971.23 905.466 3019.48 902.076 3066.72 893.723C3116.44 884.089 3165.39 864.755 3215.65 844.491C3267.44 823.073 3320.92 804.823 3375.68 789.877C3481.52 761.129 3591.59 745.623 3702.53 743.834C3753.64 743.104 3802.2 745.163 3847.53 746.891C3892.85 748.618 3935.1 749.947 3973.72 749.681C4008.39 749.547 4043.02 747.506 4077.4 743.569C4103.46 740.659 4129.24 736.04 4154.48 729.749C4170.37 725.704 4185.97 720.868 4201.2 715.265L4213.15 711.013C4215.54 709.95 4216.92 709.551 4216.92 709.551Z" fill="#E0E0E0"/>
<path d="M3742.61 790.342C3738.51 790.614 3734.38 790.614 3730.28 790.342L3696.75 790.01C3668.46 790.01 3629.37 790.542 3586.36 793.598C3543.35 796.654 3504.57 801.504 3476.67 805.623L3443.67 810.739C3439.66 811.515 3435.59 812.048 3431.49 812.334C3435.34 811.047 3439.31 810.069 3443.37 809.411C3451.07 807.75 3462.25 805.557 3476.13 803.232C3512.42 797.217 3549.06 792.914 3585.9 790.342C3622.76 787.709 3659.77 786.844 3696.75 787.751C3710.93 788.083 3722.42 788.615 3730.28 789.213C3734.42 789.251 3738.55 789.629 3742.61 790.342Z" fill="#DADADA"/>
<path d="M4293.95 467.253C4295.39 467.478 4296.79 467.881 4298.11 468.448C4300.88 469.312 4304.81 470.774 4309.83 472.634C4319.92 476.488 4334.34 482.401 4351.53 490.706C4371.64 500.525 4391 511.444 4409.5 523.395C4420.82 530.177 4431.17 538.095 4440.33 546.981C4445.06 551.963 4448.55 557.73 4450.58 563.923C4452.6 570.279 4453.28 576.894 4452.59 583.456C4451.07 596.183 4446.94 608.577 4440.41 620.065C4434.65 630.838 4427.43 640.986 4418.9 650.295C4404.63 666.264 4387 679.786 4366.95 690.159C4353.55 697.126 4339.1 702.47 4324.01 706.038C4319.96 707.062 4315.84 707.861 4311.68 708.43C4310.24 708.767 4308.77 708.946 4307.28 708.961C4307.28 708.563 4313.14 707.632 4323.62 704.709C4338.34 700.708 4352.41 695.105 4365.48 688.033C4384.94 677.673 4402.05 664.344 4415.97 648.7C4424.26 639.527 4431.25 629.535 4436.79 618.935C4443.11 607.801 4447.11 595.789 4448.58 583.456C4450.21 571.207 4446.14 558.9 4437.25 549.24C4428.34 540.567 4418.27 532.829 4407.26 526.185C4389.01 514.141 4369.93 503.048 4350.14 492.965C4333.18 484.461 4319.31 478.215 4309.21 474.029L4297.8 469.179C4296.43 468.676 4295.13 468.029 4293.95 467.253Z" fill="#E0E0E0"/>
<path d="M4413.95 510.253C4416.72 511.284 4419.32 512.649 4421.65 514.306C4428.32 518.52 4434.39 523.38 4439.77 528.789C4458.15 546.578 4468.93 569.242 4470.33 593.031C4471.73 616.819 4463.67 640.308 4447.48 659.61C4442.71 665.416 4437.2 670.742 4431.06 675.489C4428.95 677.365 4426.5 678.935 4423.81 680.14C4431.57 673.315 4438.71 665.985 4445.17 658.215C4460.26 639.121 4467.72 616.309 4466.43 593.231C4465.14 570.154 4455.15 548.069 4438 530.318C4430.58 523.116 4422.54 516.408 4413.95 510.253Z" fill="#DADADA"/>
<path d="M1119.14 846.418C1119.14 846.949 1107.81 843.561 1089.54 838.91C1041.96 826.778 992.692 820.252 943.079 819.51C924.115 819.177 912.244 819.51 912.244 819.045C914.929 818.392 917.703 818.057 920.492 818.048C925.811 817.583 933.52 817.251 943.079 817.118C993.193 816.549 1043.06 823.218 1090.62 836.85C1099.72 839.442 1106.96 841.767 1111.82 843.494C1114.37 844.251 1116.82 845.231 1119.14 846.418Z" fill="#E0E0E0"/>
<path d="M1943.97 571.954C1940.71 567.797 1937.99 563.34 1935.87 558.666L1917.99 526.642L1899.87 494.817C1897 490.631 1894.7 486.172 1893.01 481.529C1896.68 485.313 1899.81 489.462 1902.34 493.887C1907.66 501.794 1914.6 512.889 1921.61 525.446C1928.63 538.003 1934.56 549.498 1938.49 557.935C1941.02 562.382 1942.86 567.095 1943.97 571.954Z" fill="url(#paint0_linear_187_7648)"/>
<path d="M1924.15 437.812C1926.4 443.724 1928.05 449.793 1929.09 455.95C1931.94 468.308 1935.41 483.323 1939.26 499.867C1943.12 516.411 1946.97 531.426 1949.75 543.784C1951.59 549.793 1952.83 555.928 1953.45 562.121C1950.62 556.388 1948.48 550.422 1947.05 544.315C1943.66 533.22 1939.34 517.739 1935.33 500.598C1931.32 483.456 1928.16 467.71 1926.31 456.349C1924.87 450.248 1924.15 444.038 1924.15 437.812Z" fill="url(#paint1_linear_187_7648)"/>
<path d="M1976.57 453.757C1976.56 459.087 1975.97 464.403 1974.8 469.637C1973.41 479.403 1971.79 492.891 1971.1 507.906C1970.4 522.921 1971.1 536.409 1971.1 546.242C1971.76 551.56 1971.89 556.917 1971.48 562.254C1969.6 557.129 1968.51 551.812 1968.25 546.441C1965.16 520.72 1966.3 494.751 1971.64 469.304C1972.54 463.969 1974.2 458.748 1976.57 453.757Z" fill="url(#paint2_linear_187_7648)"/>
<path d="M2766.32 503.72C2758.53 491.835 2751.51 479.592 2745.27 467.045C2737.8 455.04 2731.11 442.685 2725.23 430.038C2742.94 452.782 2756.77 477.595 2766.32 503.72Z" fill="url(#paint3_linear_187_7648)"/>
<path d="M2760 402.134C2761.31 402.134 2759 425.986 2762.54 455.286C2766.09 484.586 2773.64 507.308 2772.41 507.574C2769.68 502.9 2767.66 497.943 2766.4 492.824C2762.71 480.613 2760.13 468.173 2758.69 455.618C2757.2 443.081 2756.89 430.46 2757.76 417.88C2757.71 412.57 2758.46 407.276 2760 402.134Z" fill="url(#paint4_linear_187_7648)"/>
<path d="M2799.16 408.578C2800.31 408.578 2796.31 429.573 2795.3 455.086C2794.3 480.599 2796.46 501.993 2795.3 502.059C2793.6 497.664 2792.66 493.073 2792.53 488.439C2791.23 477.403 2790.82 466.304 2791.3 455.219C2791.75 444.083 2793.07 432.985 2795.23 421.999C2795.8 417.388 2797.12 412.87 2799.16 408.578Z" fill="url(#paint5_linear_187_7648)"/>
<path d="M3221.67 458.608C3225.67 463.319 3229.01 468.426 3231.61 473.822C3238.64 486.551 3244.54 499.722 3249.26 513.221C3253.97 526.707 3257.5 540.476 3259.82 554.414C3261.15 560.164 3261.67 566.031 3261.37 571.888C3259.42 566.3 3257.98 560.591 3257.05 554.813C3254.66 544.315 3250.88 529.898 3245.41 514.218C3239.94 498.538 3233.77 484.719 3228.99 474.819C3226.08 469.582 3223.63 464.163 3221.67 458.608Z" fill="url(#paint6_linear_187_7648)"/>
<path d="M3274.39 442.396C3274.36 449.059 3273.87 455.715 3272.93 462.328C3270.27 494.413 3272.22 526.658 3278.71 558.334C3280.36 564.918 3281.62 571.571 3282.49 578.266C3279.45 572.077 3277.22 565.614 3275.86 558.998C3271.73 543.156 3269.15 527.043 3268.15 510.829C3267.14 494.648 3267.73 478.422 3269.92 462.328C3270.52 455.558 3272.02 448.87 3274.39 442.396Z" fill="url(#paint7_linear_187_7648)"/>
<path d="M3316.71 479.669C3317.95 480.001 3308.39 501.86 3304.3 530.097C3300.22 558.334 3302.84 581.588 3301.6 581.654C3299.85 576.77 3298.97 571.685 3298.98 566.573C3297.07 541.839 3300.74 517.021 3309.78 493.489C3311.32 488.622 3313.65 483.968 3316.71 479.669Z" fill="url(#paint8_linear_187_7648)"/>
<path d="M3353.02 499.468C3346.13 507.589 3340 516.164 3334.67 525.114C3330.66 534.554 3327.57 544.266 3325.42 554.148C3324.28 543.766 3326.22 533.304 3331.04 523.742C3335.87 514.179 3343.43 505.827 3353.02 499.468Z" fill="url(#paint9_linear_187_7648)"/>
<path d="M3239.01 578.332C3234.56 558.411 3223.65 539.983 3207.56 525.18C3217.58 531.035 3225.71 538.979 3231.21 548.272C3236.71 557.565 3239.39 567.906 3239.01 578.332Z" fill="url(#paint10_linear_187_7648)"/>
<path d="M3754.25 495.88C3770.18 512.434 3779.96 532.738 3782.31 554.148C3781.16 554.148 3777.46 540.528 3769.67 524.516C3761.89 508.504 3753.25 496.478 3754.25 495.88Z" fill="url(#paint11_linear_187_7648)"/>
<path d="M3781.16 489.502C3782.31 489.502 3783.62 504.584 3788.25 522.722C3792.87 540.86 3798.65 555.278 3797.58 555.61C3790.89 545.687 3786.4 534.785 3784.32 523.453C3780.9 512.393 3779.82 500.891 3781.16 489.502Z" fill="url(#paint12_linear_187_7648)"/>
<path d="M3819.78 497.542C3820.93 497.874 3815.92 511.494 3813.46 528.901C3810.99 546.309 3811.76 560.527 3810.6 560.593C3807.6 550.063 3807.21 539.106 3809.45 528.436C3810.42 517.64 3813.94 507.128 3819.78 497.542Z" fill="url(#paint13_linear_187_7648)"/>
<path d="M3525.54 646.367C3576.35 643.105 3626.32 633.412 3673.85 617.598C3698.21 609.493 3723.03 599.66 3749.01 601.454C3781 603.646 3808.91 623.312 3840.98 624.84C3889.69 627.166 3930.01 587.435 3978.81 586.571C4016.35 585.906 4050.34 608.496 4087.88 608.23C4116.87 608.23 4143 594.278 4170.29 585.907C4197.58 577.535 4232.42 575.808 4251.3 594.676C4235.89 616.203 4202.82 621.253 4173.76 623.711C3957.56 642.89 3740.64 653.277 3523 654.871" fill="#DBAC7D"/>
<path d="M1533.71 670.285C1624.06 680.952 1716.04 673.099 1802.2 647.364C1841.52 635.604 1880.52 619.99 1922.15 619.791C1973.87 619.791 2021.98 643.244 2073.47 647.43C2182.16 656.333 2284.07 578.067 2391.53 594.278C2434.15 600.922 2473.7 622.116 2516.95 620.854C2557.8 619.658 2596.96 598.132 2637.28 604.178C2668.73 608.895 2694.47 629.691 2725.93 634.607C2765.24 640.653 2803.94 620.721 2843.87 620.19C2876.24 619.725 2907 631.95 2939.07 635.205C2980.23 639.324 3021.55 628.561 3062.95 630.089C3099.41 631.551 3134.4 642.514 3168.63 653.41L2746.28 665.834L1622.98 699.054" fill="#DBAC7D"/>
<path d="M2251.85 867.944C2240.29 864.567 2228.12 863.058 2215.93 863.493H2216.47C2182.72 862.108 2148.92 865.177 2116.25 872.595C2106.47 874.163 2097.14 877.392 2088.81 882.096C2084.69 884.506 2081.41 887.841 2079.33 891.741C2077.25 895.641 2076.45 899.957 2077.02 904.221C2079.48 915.715 2093.9 921.827 2106.85 925.482C2142.81 935.544 2180.66 939.669 2218.39 937.64C2232.53 937.437 2246.45 934.58 2259.17 929.269C2265.46 926.505 2270.83 922.398 2274.76 917.338C2278.69 912.278 2281.04 906.435 2281.6 900.367C2281.6 885.75 2267.73 873.193 2251.85 867.944Z" fill="#EBEBEB"/>
<defs>
<linearGradient id="paint0_linear_187_7648" x1="1918.49" y1="481.529" x2="1918.49" y2="571.954" gradientUnits="userSpaceOnUse">
<stop stop-color="#47854D"/>
<stop offset="1" stop-color="#5CB063"/>
</linearGradient>
<linearGradient id="paint1_linear_187_7648" x1="1938.8" y1="437.812" x2="1938.8" y2="562.121" gradientUnits="userSpaceOnUse">
<stop stop-color="#47854D"/>
<stop offset="1" stop-color="#5CB063"/>
</linearGradient>
<linearGradient id="paint2_linear_187_7648" x1="1971.56" y1="453.757" x2="1971.56" y2="562.254" gradientUnits="userSpaceOnUse">
<stop stop-color="#47854D"/>
<stop offset="1" stop-color="#5CB063"/>
</linearGradient>
<linearGradient id="paint3_linear_187_7648" x1="2745.78" y1="430.038" x2="2745.78" y2="503.72" gradientUnits="userSpaceOnUse">
<stop stop-color="#47854D"/>
<stop offset="1" stop-color="#5CB063"/>
</linearGradient>
<linearGradient id="paint4_linear_187_7648" x1="2764.91" y1="402.134" x2="2764.91" y2="507.574" gradientUnits="userSpaceOnUse">
<stop stop-color="#47854D"/>
<stop offset="1" stop-color="#5CB063"/>
</linearGradient>
<linearGradient id="paint5_linear_187_7648" x1="2795.23" y1="408.578" x2="2795.23" y2="502.059" gradientUnits="userSpaceOnUse">
<stop stop-color="#47854D"/>
<stop offset="1" stop-color="#5CB063"/>
</linearGradient>
<linearGradient id="paint6_linear_187_7648" x1="3241.56" y1="458.608" x2="3241.56" y2="571.888" gradientUnits="userSpaceOnUse">
<stop stop-color="#47854D"/>
<stop offset="1" stop-color="#5CB063"/>
</linearGradient>
<linearGradient id="paint7_linear_187_7648" x1="3275.08" y1="442.396" x2="3275.08" y2="578.266" gradientUnits="userSpaceOnUse">
<stop stop-color="#47854D"/>
<stop offset="1" stop-color="#5CB063"/>
</linearGradient>
<linearGradient id="paint8_linear_187_7648" x1="3307.66" y1="479.669" x2="3307.66" y2="581.654" gradientUnits="userSpaceOnUse">
<stop stop-color="#47854D"/>
<stop offset="1" stop-color="#5CB063"/>
</linearGradient>
<linearGradient id="paint9_linear_187_7648" x1="3339.06" y1="499.468" x2="3339.06" y2="554.148" gradientUnits="userSpaceOnUse">
<stop stop-color="#47854D"/>
<stop offset="1" stop-color="#5CB063"/>
</linearGradient>
<linearGradient id="paint10_linear_187_7648" x1="3223.3" y1="525.18" x2="3223.3" y2="578.332" gradientUnits="userSpaceOnUse">
<stop stop-color="#47854D"/>
<stop offset="1" stop-color="#5CB063"/>
</linearGradient>
<linearGradient id="paint11_linear_187_7648" x1="3768.24" y1="495.88" x2="3768.24" y2="554.148" gradientUnits="userSpaceOnUse">
<stop stop-color="#47854D"/>
<stop offset="1" stop-color="#5CB063"/>
</linearGradient>
<linearGradient id="paint12_linear_187_7648" x1="3789.15" y1="489.502" x2="3789.15" y2="555.61" gradientUnits="userSpaceOnUse">
<stop stop-color="#47854D"/>
<stop offset="1" stop-color="#5CB063"/>
</linearGradient>
<linearGradient id="paint13_linear_187_7648" x1="3813.98" y1="497.542" x2="3813.98" y2="560.593" gradientUnits="userSpaceOnUse">
<stop stop-color="#47854D"/>
<stop offset="1" stop-color="#5CB063"/>
</linearGradient>
</defs>
</svg>
