<svg width="2296" height="3799" viewBox="0 0 2296 3799" fill="none" xmlns="http://www.w3.org/2000/svg">
<path d="M1909.43 215.586C1875.96 190.386 1841.26 166.527 1805.86 144.076C1681.52 65.1359 1538.78 2.69094 1386.07 0.0727012C1234.41 -2.51281 1100.86 64.1213 992.188 158.836C981.38 168.262 970.817 177.916 960.429 187.768C771.937 366.822 520.591 527.156 246.44 674.138C116.045 744.045 35.1079 871.716 26.6784 1011.53C6.32171 1348.96 448.608 1494.07 743.396 1438.4C1054.69 1379.62 1043.29 1371.6 1371.73 1430.38C1700.16 1489.16 2091.45 1382.27 2222.83 1152.46C2301.21 1015.36 2299.01 851 2262.91 702.906C2213.98 502.25 2076.76 341.556 1909.46 215.554L1909.43 215.586Z" fill="#90CAF9"/>
<path opacity="0.7" d="M1909.43 215.586C1875.96 190.386 1841.26 166.527 1805.86 144.076C1681.52 65.1359 1538.78 2.69094 1386.07 0.0727012C1234.41 -2.51281 1100.86 64.1213 992.188 158.836C981.38 168.262 970.817 177.916 960.429 187.768C771.937 366.822 520.591 527.156 246.44 674.138C116.045 744.045 35.1079 871.716 26.6784 1011.53C6.32171 1348.96 448.608 1494.07 743.396 1438.4C1054.69 1379.62 1043.29 1371.6 1371.73 1430.38C1700.16 1489.16 2091.45 1382.27 2222.83 1152.46C2301.21 1015.36 2299.01 851 2262.91 702.906C2213.98 502.25 2076.76 341.556 1909.46 215.554L1909.43 215.586Z" fill="white"/>
<path d="M1894.85 308.099V308.165H1894.94L1894.85 308.099Z" fill="#263238"/>
<path d="M1306.79 248.445V248.511H1306.7L1306.79 248.445Z" fill="#263238"/>
<path d="M881.128 246V246.066H881.219L881.128 246Z" fill="#263238"/>
<path d="M720.164 342.732V342.798H720.256L720.164 342.732Z" fill="#263238"/>
<path d="M967.091 284.418V284.484H967L967.091 284.418Z" fill="#263238"/>
<path d="M1482 893.337C1482 893.337 1553.6 836.809 1616.87 834.196C1680.19 831.554 1679.31 856.463 1736.02 857.888C1792.73 859.313 1823.85 822.053 1906.42 838.857C1988.98 855.661 1995.55 896.662 2000.5 912.367C2005.44 928.102 2046.7 928.993 2095.45 930.952C2144.16 932.912 2144.44 954.644 2149.94 968.776C2155.44 982.908 2180.47 978.158 2221.22 980.622C2261.97 983.116 2287.54 1006.78 2286.99 1023.4L2286.43 1040L1927.32 958.652L1992.82 994.695C1992.82 994.695 1845.32 970.29 1788.33 962.126C1731.35 953.991 1610.81 941.759 1610.81 941.759L1677.97 927.984L1482.04 893.307L1482 893.337Z" fill="#5C8A60"/>
<path d="M25.998 1032C25.998 1032 53.8475 961.861 109.546 942.482C165.245 923.103 180.835 945.785 233.204 931.834C285.572 917.882 289.365 875.938 375.273 868.918C461.18 861.897 494.072 897.057 508.876 909.888C523.68 922.719 561.707 912.454 607.182 901.128C652.657 889.801 667.137 909.328 681.432 920.566C695.68 931.834 715.295 920.802 753.877 912.1C792.459 903.399 831.18 917.852 841.589 932.984L851.998 948.086L472.838 971.211L555.878 986.107C555.878 986.107 406.037 1003.72 349.042 1011.68C292.002 1019.64 174.636 1041 174.636 1041L226.542 1010.56L26.0443 1031.94L25.998 1032Z" fill="#5C8A60"/>
<path d="M2287 1023L2218.84 1007.07C2218.84 1007.07 1806 910.909 1712.68 900.526C1619.35 890.143 1115.23 830.221 606.978 905.718C490.708 923.001 366.017 943.834 294.673 960.28C256.41 969.122 147.496 994.076 107.984 1004.46C76.8462 1012.67 66.7486 1015.24 52.5908 1018.29L294.673 1406L1208 1450H1929.5L2287 1023.82V1023Z" fill="#DDBD8D"/>
<path d="M2286.99 1022.11L2218.84 1007.11C2218.84 1007.11 2205.05 1003.89 2182.06 998.597C2157.12 998.062 2185.67 1007.47 2145.65 1010.39C2101.28 1013.6 2085.78 1012 2054.73 1008.78C2023.69 1005.56 1994.86 997.526 1970.48 1000.74C1946.1 1003.96 1981.58 1011.96 1941.65 1013.57C1901.72 1015.18 1855.18 1007.14 1788.65 1000.74C1722.11 994.31 1697.73 983.09 1704.39 1005.56C1711.06 1028.04 1602.37 997.526 1542.5 991.128C1482.63 984.697 1507.02 1002.38 1498.13 1008.78C1489.25 1015.18 1402.78 1008.78 1331.8 1003.96C1260.83 999.133 1234.22 1012 1129.98 1013.6C1025.74 1015.21 983.641 1003.96 965.874 1003.96C948.107 1003.96 919.283 1002.35 919.283 1002.35L857.192 1010.39C857.192 1010.39 801.764 1010.39 757.393 1003.96C713.023 997.526 686.419 1016.78 606.608 1016.78C526.796 1016.78 526.796 1002.35 513.471 995.918C500.146 989.487 480.205 1000.74 451.381 1008.75C422.556 1016.78 413.673 1008.75 395.952 1002.32C378.232 995.884 327.199 1010.35 280.654 1013.54C234.063 1016.75 260.713 1013.54 267.329 1000.71C273.991 987.879 256.225 991.061 189.692 1003.92C123.16 1016.75 25.998 1023.82 25.998 1023.82V1147.5L562.498 1376.5L1162.5 1513L1739 1376.5L2286.99 1124C2286.58 1123.4 2287.41 1022.65 2286.95 1022.08L2286.99 1022.11Z" fill="#F4D6B1"/>
<path d="M2284 1280.03L2227.85 1246.99C2227.85 1246.99 2214.06 1225.24 2191.06 1189.44C2166.13 1185.81 2194.67 1249.49 2154.65 1269.2C2110.28 1290.95 2094.78 1280.08 2063.74 1258.32C2032.69 1236.57 2003.87 1182.19 1979.48 1203.94C1955.1 1225.69 1990.59 1279.85 1950.66 1290.73C1910.73 1301.6 1864.18 1247.22 1797.65 1203.94C1731.12 1160.43 1706.74 1084.52 1713.4 1236.57C1720.06 1388.62 1611.38 1182.19 1551.51 1138.91C1491.64 1095.4 1516.02 1215.04 1507.14 1258.32C1498.25 1301.6 1411.78 1258.32 1340.81 1225.69C1269.83 1193.06 1243.23 1280.08 1138.99 1290.95C1034.75 1301.83 992.643 1225.69 974.876 1225.69C957.109 1225.69 928.285 1214.82 928.285 1214.82L866.194 1269.2C866.194 1269.2 810.765 1269.2 766.395 1225.69C722.024 1182.19 695.421 1312.48 615.609 1312.48C535.798 1312.48 535.797 1214.82 522.472 1171.31C509.147 1127.8 489.206 1203.94 460.381 1258.1C431.557 1312.48 422.673 1258.1 404.953 1214.59C387.233 1171.08 336.2 1268.97 289.654 1290.5C243.063 1312.25 269.713 1290.5 276.329 1203.71C282.992 1116.92 265.225 1138.45 198.692 1225.47C132.16 1312.25 34.9981 1312.48 34.9981 1312.48V2196.81L0.396484 3798.03H1138.99H2295.95L2296 2037.82C2295.58 2033.75 2295.95 1348.28 2295.95 1348.28L2284 1280.03Z" fill="url(#paint0_linear_185_6979)"/>
<path d="M2286.9 1120.45L2218.75 1101.23C2218.75 1101.23 2204.96 1097.11 2181.97 1090.34C2157.03 1089.65 2185.58 1101.7 2145.56 1105.43C2101.19 1109.55 2085.69 1107.49 2054.65 1103.38C2023.6 1099.26 1994.78 1088.97 1970.4 1093.08C1946.02 1097.2 1981.5 1107.45 1941.57 1109.51C1901.65 1111.57 1855.1 1101.27 1788.57 1093.08C1722.04 1084.85 1697.66 1070.48 1704.32 1099.26C1710.99 1128.04 1602.31 1088.97 1542.44 1080.77C1482.57 1072.54 1506.96 1095.18 1498.07 1103.38C1489.19 1111.57 1402.72 1103.38 1331.75 1097.2C1260.78 1091.02 1234.17 1107.49 1129.94 1109.55C1025.7 1111.61 983.601 1097.2 965.835 1097.2C948.069 1097.2 919.246 1095.14 919.246 1095.14L857.157 1105.43C857.157 1105.43 801.731 1105.43 757.363 1097.2C712.994 1088.97 686.392 1113.63 606.584 1113.63C526.776 1113.63 526.776 1095.14 513.451 1086.91C500.127 1078.67 480.186 1093.08 451.363 1103.33C422.54 1113.63 413.657 1103.33 395.937 1095.1C378.217 1086.86 327.186 1105.39 280.643 1109.47C234.054 1113.58 260.703 1109.47 267.319 1093.04C273.981 1076.61 256.215 1080.69 189.685 1097.16C123.156 1113.58 25.998 1122.63 25.998 1122.63V1281L562.476 1574.22L1162.45 1749L1738.93 1574.22L2286.9 1250.91C2286.48 1250.14 2286.85 1120.4 2286.85 1120.4L2286.9 1120.45Z" fill="#FFE4C2"/>
<path d="M922.998 879.719C922.998 879.719 973.746 824.435 1034.67 814.76C1095.6 805.084 1103.18 825.821 1159.02 820.278C1214.85 814.76 1232.62 780.188 1318.89 784.346C1405.17 788.504 1425.48 821.664 1435.66 834.111C1445.79 846.559 1486.4 842.401 1534.65 838.269C1582.86 834.111 1590.49 852.102 1600.62 863.139C1610.75 874.201 1633.6 867.297 1674.22 864.525C1714.84 861.753 1747.82 878.358 1752.91 892.167L1758 906L1379.87 881.13L1456.01 903.253C1456.01 903.253 1303.72 900.482 1245.39 900.482C1187.05 900.482 1065.2 904.639 1065.2 904.639L1126.13 885.288L923.091 879.769L922.998 879.719Z" fill="#71A576"/>
<path d="M1069.61 885.651C1069.61 885.651 1027.5 831.959 981.098 824.055C934.692 816.15 930.482 837.05 888.193 833.131C845.905 829.213 830.082 795.249 765.631 801.848C701.181 808.446 688.365 842.108 681.656 854.802C674.947 867.497 644.179 864.516 607.674 861.769C571.216 859.023 566.774 877.143 559.973 888.464C553.171 899.785 535.497 893.555 504.868 891.948C474.193 890.34 450.643 907.824 447.82 921.757L444.998 935.691L726.952 900.053L671.431 924.303C671.431 924.303 785.48 917.202 829.295 915.528C873.11 913.853 964.812 914.523 964.812 914.523L917.712 896.972L1069.65 885.651H1069.61Z" fill="#71A576"/>
<defs>
<linearGradient id="paint0_linear_185_6979" x1="1148.2" y1="1079" x2="1148.2" y2="3747.5" gradientUnits="userSpaceOnUse">
<stop stop-color="#52C5D9" stop-opacity="0.3"/>
<stop offset="1" stop-color="#6487FA"/>
</linearGradient>
</defs>
</svg>
