<svg width="2276" height="558" viewBox="0 0 2276 558" fill="none" xmlns="http://www.w3.org/2000/svg">
<path d="M1312.9 82.942C1312.9 82.942 1384.52 19.1687 1447.81 16.2212C1511.15 13.2402 1510.28 41.342 1567 42.9497C1623.72 44.5575 1654.86 2.52208 1737.45 21.4799C1820.04 40.4377 1826.61 86.6933 1831.56 104.412C1836.51 122.164 1877.78 123.169 1926.54 125.379C1975.26 127.59 1975.54 152.108 1981.05 168.051C1986.55 183.994 2011.58 178.635 2052.34 181.415C2093.11 184.229 2118.69 210.924 2118.14 229.681L2117.58 248.404L1758.36 156.63L1823.88 197.292C1823.88 197.292 1676.33 169.759 1619.33 160.548C1562.33 151.371 1441.75 137.571 1441.75 137.571L1508.93 122.03L1312.94 82.9085L1312.9 82.942Z" fill="#5C8A60"/>
<path d="M1474.73 100.185L1455.53 44.3835" stroke="#263238" stroke-miterlimit="10"/>
<path d="M1466.5 76.2701L1485.51 56.7429" stroke="#263238" stroke-miterlimit="10"/>
<path d="M1658.37 154.245L1649.02 100.051" stroke="#263238" stroke-miterlimit="10"/>
<path d="M1676.28 104.439L1657.54 131.536L1605.25 115.592" stroke="#263238" stroke-miterlimit="10"/>
<path d="M1852.18 132.775L1794.9 149.924L1788.06 79.1506" stroke="#263238" stroke-miterlimit="10"/>
<path d="M1816.65 142.756L1813.41 120.014" stroke="#263238" stroke-miterlimit="10"/>
<path d="M2019.9 209.779L2061.08 192.328" stroke="#263238" stroke-miterlimit="10"/>
<path d="M2030.87 203.214L2087.08 207.635" stroke="#263238" stroke-miterlimit="10"/>
<path d="M1896.42 178.763L1933.24 142.12" stroke="#263238" stroke-miterlimit="10"/>
<path d="M1953.69 154.68L1914.27 162.217L1893.73 137.598" stroke="#263238" stroke-miterlimit="10"/>
<path d="M1791.25 109.027L1733 82.0645" stroke="#263238" stroke-miterlimit="10"/>
<path d="M1470.85 86.1174L1412.74 62.8723" stroke="#263238" stroke-miterlimit="10"/>
<path d="M196.972 214.356C196.972 214.356 224.825 134.707 280.531 112.701C336.237 90.695 351.829 116.452 404.203 100.609C456.578 84.7666 460.372 37.1376 546.291 29.1659C632.209 21.1943 665.105 61.1196 679.911 75.6896C694.716 90.2596 732.748 78.6036 778.229 65.7418C823.71 52.88 838.192 75.0532 852.488 87.8145C866.739 100.609 886.356 88.0825 924.943 78.2017C963.53 68.3209 1002.26 84.733 1012.67 101.916L1023.08 119.065L643.869 145.324L726.919 162.239C726.919 162.239 577.058 182.235 520.057 191.279C463.009 200.322 345.629 224.572 345.629 224.572L397.541 190.006L197.018 214.289L196.972 214.356Z" fill="#5C8A60"/>
<path d="M350.39 156.221L300.468 111.472" stroke="#263238" stroke-miterlimit="10"/>
<path d="M328.968 137.062L334.89 113.549" stroke="#263238" stroke-miterlimit="10"/>
<path d="M548.369 149.287L508.348 102.965" stroke="#263238" stroke-miterlimit="10"/>
<path d="M535.645 98.644L534.396 128.923L477.672 130.397" stroke="#263238" stroke-miterlimit="10"/>
<path d="M711.692 70.7433L669.681 103.735L622.304 41.6367" stroke="#263238" stroke-miterlimit="10"/>
<path d="M685.273 90.6054L669.079 70.9778" stroke="#263238" stroke-miterlimit="10"/>
<path d="M908.56 89.4332L935.765 61.0635" stroke="#263238" stroke-miterlimit="10"/>
<path d="M914.714 80.1217L968.245 67.0254" stroke="#263238" stroke-miterlimit="10"/>
<path d="M778.549 98.9456L790.625 54.4651" stroke="#263238" stroke-miterlimit="10"/>
<path d="M816.488 59.6233L785.118 78.4806L752.13 62.4368" stroke="#263238" stroke-miterlimit="10"/>
<path d="M642.568 67.7623L574.046 61.0635" stroke="#263238" stroke-miterlimit="10"/>
<path d="M338.638 144.632L272.43 141.282" stroke="#263238" stroke-miterlimit="10"/>
<path d="M2273.95 271.852L2197.84 255.071C2197.84 255.071 1785 158.909 1691.68 148.526C1598.36 138.143 1094.23 78.2215 585.98 153.718C469.71 171.001 345.019 191.834 273.675 208.28C235.412 217.122 126.498 242.076 86.9861 252.459C55.8481 260.665 19.2506 268.771 5.09277 271.819H2274L2273.95 271.852Z" fill="#DDBD8D"/>
<path d="M2266 270.111L2197.84 255.105C2197.84 255.105 2184.06 251.89 2161.06 246.597C2136.12 246.062 2164.67 255.473 2124.65 258.387C2080.28 261.603 2064.78 259.995 2033.73 256.78C2002.69 253.564 1973.86 245.526 1949.48 248.741C1925.1 251.957 1960.58 259.962 1920.66 261.569C1880.73 263.177 1834.18 255.139 1767.65 248.741C1701.12 242.31 1676.73 231.09 1683.4 253.564C1690.06 276.039 1581.38 245.526 1521.51 239.128C1461.64 232.697 1486.02 250.382 1477.14 256.78C1468.25 263.177 1381.78 256.78 1310.8 251.957C1239.83 247.133 1213.23 259.995 1108.99 261.603C1004.75 263.211 962.643 251.957 944.876 251.957C927.109 251.957 898.285 250.349 898.285 250.349L836.194 258.387C836.194 258.387 780.766 258.387 736.395 251.957C692.025 245.526 665.421 264.785 585.61 264.785C505.798 264.785 505.798 250.349 492.473 243.918C479.148 237.487 459.207 248.741 430.382 256.746C401.558 264.785 392.675 256.746 374.954 250.315C357.234 243.884 306.201 258.354 259.656 261.536C213.065 264.751 239.715 261.536 246.331 248.708C252.993 235.879 235.227 239.061 168.694 251.923C102.162 264.751 5 271.819 5 271.819H2267.24C2266.83 271.216 2266.41 270.646 2265.95 270.077L2266 270.111Z" fill="#F4D6B1"/>
<path d="M2273.95 271.852L2197.84 255.071C2197.84 255.071 1785 158.909 1691.68 148.526C1598.36 138.143 1094.23 78.2215 585.98 153.718C469.71 171.001 345.019 191.834 273.675 208.28C235.412 217.122 126.498 242.076 86.9861 252.459C55.8481 260.665 19.2506 268.771 5.09277 271.819H2274L2273.95 271.852Z" stroke="#263238" stroke-miterlimit="10"/>
<path d="M967.625 127.236C967.625 127.236 1018.38 53.7495 1079.31 40.8877C1140.25 28.0258 1147.84 55.5917 1203.68 48.2229C1259.53 40.8877 1277.29 -5.06658 1363.58 0.459985C1449.87 5.98655 1470.18 50.0651 1480.36 66.6113C1490.49 83.1575 1531.12 77.6309 1579.37 72.1378C1627.58 66.6113 1635.22 90.5262 1645.35 105.197C1655.48 119.901 1678.34 110.723 1718.96 107.039C1759.58 103.355 1792.57 125.427 1797.66 143.782L1802.75 162.171L1424.56 129.112L1500.72 158.52C1500.72 158.52 1348.41 154.835 1290.06 154.835C1231.72 154.835 1109.85 160.362 1109.85 160.362L1170.79 134.638L967.718 127.303L967.625 127.236Z" fill="#5C8A60"/>
<path d="M1133.84 118.238L1098.3 66.791" stroke="#263238" stroke-miterlimit="10"/>
<path d="M1118.61 96.1657L1131.29 74.1265" stroke="#263238" stroke-miterlimit="10"/>
<path d="M1329.27 142.12L1303.87 90.6724" stroke="#263238" stroke-miterlimit="10"/>
<path d="M1331.81 90.6724L1321.64 120.08L1265.79 112.712" stroke="#263238" stroke-miterlimit="10"/>
<path d="M1512.03 90.6724L1461.27 116.396L1433.33 48.4026" stroke="#263238" stroke-miterlimit="10"/>
<path d="M1480.33 105.979L1470.34 84.3086" stroke="#263238" stroke-miterlimit="10"/>
<path d="M1698.81 139.44L1733.79 115.927" stroke="#263238" stroke-miterlimit="10"/>
<path d="M1707.55 131.301L1763.77 126.78" stroke="#263238" stroke-miterlimit="10"/>
<path d="M1568.98 128.588L1593.96 87.0215" stroke="#263238" stroke-miterlimit="10"/>
<path d="M1617.65 96.0651L1581.47 109.597L1553.99 88.8303" stroke="#263238" stroke-miterlimit="10"/>
<path d="M1445.4 77.0739L1380.44 59.8914" stroke="#263238" stroke-miterlimit="10"/>
<path d="M1125.79 105.075L1062.08 91.5435" stroke="#263238" stroke-miterlimit="10"/>
<path d="M1050.23 140.512C1050.23 140.512 1008.13 86.8205 961.721 78.9159C915.314 71.0112 911.104 91.9116 868.816 87.9928C826.527 84.0739 810.704 50.1107 746.253 56.7091C681.803 63.3075 668.987 96.9693 662.278 109.664C655.569 122.358 624.801 119.377 588.296 116.63C551.838 113.884 547.396 132.004 540.595 143.325C533.793 154.646 516.119 148.417 485.49 146.809C454.815 145.201 431.265 162.685 428.442 176.619L425.62 190.552L707.574 154.915L652.053 179.164C652.053 179.164 766.102 172.064 809.917 170.389C853.732 168.714 945.434 169.384 945.434 169.384L898.334 151.833L1050.28 140.512H1050.23Z" fill="#5C8A60"/>
<path d="M926.559 146.608L950.386 106.984" stroke="#263238" stroke-miterlimit="10"/>
<path d="M936.782 129.626L926.048 113.448" stroke="#263238" stroke-miterlimit="10"/>
<path d="M781.231 170.121L797.471 130.799" stroke="#263238" stroke-miterlimit="10"/>
<path d="M776.513 131.603L785.72 153.374L827.222 146.24" stroke="#263238" stroke-miterlimit="10"/>
<path d="M641.318 136.761L680.784 154.58L698.042 102.797" stroke="#263238" stroke-miterlimit="10"/>
<path d="M665.887 147.345L672.225 130.765" stroke="#263238" stroke-miterlimit="10"/>
<path d="M503.811 178.662L476.282 162.049" stroke="#263238" stroke-miterlimit="10"/>
<path d="M496.825 172.834L454.397 171.025" stroke="#263238" stroke-miterlimit="10"/>
<path d="M600.65 166.839L579.645 136.359" stroke="#263238" stroke-miterlimit="10"/>
<path d="M562.342 143.794L590.241 152.938L609.72 136.56" stroke="#263238" stroke-miterlimit="10"/>
<path d="M690.547 124.636L738.341 109.898" stroke="#263238" stroke-miterlimit="10"/>
<path d="M931.879 136.526L978.887 124.535" stroke="#263238" stroke-miterlimit="10"/>
<path d="M29 272.547H2274" stroke="#263238" stroke-miterlimit="10"/>
<path d="M165.079 326.641H307.322" stroke="#263238" stroke-miterlimit="10"/>
<path d="M507.018 337.593H364.775" stroke="#263238" stroke-miterlimit="10"/>
<path d="M271.778 362.212H386.651" stroke="#263238" stroke-miterlimit="10"/>
<path d="M545.31 340.34H597.269" stroke="#263238" stroke-miterlimit="10"/>
<path d="M668.39 326.641H810.633" stroke="#263238" stroke-miterlimit="10"/>
<path d="M1010.33 337.593H868.086" stroke="#263238" stroke-miterlimit="10"/>
<path d="M775.089 362.212H889.962" stroke="#263238" stroke-miterlimit="10"/>
<path d="M1048.62 340.34H1100.58" stroke="#263238" stroke-miterlimit="10"/>
<path d="M1171.7 326.641H1313.94" stroke="#263238" stroke-miterlimit="10"/>
<path d="M1513.64 337.593H1371.4" stroke="#263238" stroke-miterlimit="10"/>
<path d="M1278.4 362.212H1393.27" stroke="#263238" stroke-miterlimit="10"/>
<path d="M1551.93 340.34H1603.92" stroke="#263238" stroke-miterlimit="10"/>
<path d="M1675.04 326.641H1817.25" stroke="#263238" stroke-miterlimit="10"/>
<path d="M2016.95 337.593H1874.71" stroke="#263238" stroke-miterlimit="10"/>
<path d="M1781.71 362.212H1896.58" stroke="#263238" stroke-miterlimit="10"/>
<path d="M2055.24 340.34H2107.23" stroke="#263238" stroke-miterlimit="10"/>
<path d="M1937.62 451.508H1820.24" stroke="#263238" stroke-miterlimit="10"/>
<path d="M1655.41 434.425H1772.83" stroke="#263238" stroke-miterlimit="10"/>
<path d="M1849.58 395.974H1754.74" stroke="#263238" stroke-miterlimit="10"/>
<path d="M1623.82 430.138H1580.91" stroke="#263238" stroke-miterlimit="10"/>
<path d="M1522.22 451.508H1404.83" stroke="#263238" stroke-miterlimit="10"/>
<path d="M1240.01 434.425H1357.39" stroke="#263238" stroke-miterlimit="10"/>
<path d="M1434.18 395.974H1339.34" stroke="#263238" stroke-miterlimit="10"/>
<path d="M1208.38 430.138H1165.5" stroke="#263238" stroke-miterlimit="10"/>
<path d="M1106.81 451.508H989.392" stroke="#263238" stroke-miterlimit="10"/>
<path d="M824.603 434.425H941.988" stroke="#263238" stroke-miterlimit="10"/>
<path d="M1018.77 395.974H923.932" stroke="#263238" stroke-miterlimit="10"/>
<path d="M792.978 430.138H750.098" stroke="#263238" stroke-miterlimit="10"/>
<path d="M691.404 451.508H573.985" stroke="#263238" stroke-miterlimit="10"/>
<path d="M409.196 434.425H526.582" stroke="#263238" stroke-miterlimit="10"/>
<path d="M603.332 395.974H508.525" stroke="#263238" stroke-miterlimit="10"/>
<path d="M377.572 430.138H334.691" stroke="#263238" stroke-miterlimit="10"/>
<path d="M2219.36 557.015H2060.7" stroke="#263238" stroke-miterlimit="10"/>
<path d="M1837.96 533.904H1996.62" stroke="#263238" stroke-miterlimit="10"/>
<path d="M2100.37 481.92H1972.23" stroke="#263238" stroke-miterlimit="10"/>
<path d="M1795.25 528.109H1737.26" stroke="#263238" stroke-miterlimit="10"/>
<path d="M1657.93 557.015H1499.27" stroke="#263238" stroke-miterlimit="10"/>
<path d="M1276.52 533.904H1435.18" stroke="#263238" stroke-miterlimit="10"/>
<path d="M1538.93 481.92H1410.76" stroke="#263238" stroke-miterlimit="10"/>
<path d="M1233.81 528.109H1175.82" stroke="#263238" stroke-miterlimit="10"/>
<path d="M1096.49 557.015H937.834" stroke="#263238" stroke-miterlimit="10"/>
<path d="M715.056 533.904H873.747" stroke="#263238" stroke-miterlimit="10"/>
<path d="M977.498 481.92H849.325" stroke="#263238" stroke-miterlimit="10"/>
<path d="M672.342 528.109H614.387" stroke="#263238" stroke-miterlimit="10"/>
<path d="M535.058 557.015H376.366" stroke="#263238" stroke-miterlimit="10"/>
<path d="M153.621 533.904H312.279" stroke="#263238" stroke-miterlimit="10"/>
<path d="M416.031 481.92H287.892" stroke="#263238" stroke-miterlimit="10"/>
<path d="M110.908 528.109H52.9189" stroke="#263238" stroke-miterlimit="10"/>
</svg>
