<svg width="2276" height="1198" viewBox="0 0 2276 1198" fill="none" xmlns="http://www.w3.org/2000/svg">
<path d="M1312.9 722.942C1312.9 722.942 1384.52 659.169 1447.81 656.221C1511.15 653.24 1510.28 681.342 1567 682.95C1623.72 684.557 1654.86 642.522 1737.45 661.48C1820.04 680.438 1826.61 726.693 1831.56 744.412C1836.51 762.164 1877.78 763.169 1926.54 765.379C1975.26 767.59 1975.54 792.108 1981.05 808.051C1986.55 823.994 2011.58 818.635 2052.34 821.415C2093.11 824.229 2118.69 850.924 2118.14 869.681L2117.58 888.404L1758.36 796.63L1823.88 837.292C1823.88 837.292 1676.33 809.759 1619.33 800.548C1562.33 791.371 1441.75 777.571 1441.75 777.571L1508.93 762.03L1312.94 722.908L1312.9 722.942Z" fill="#5C8A60"/>
<path d="M1474.73 740.185L1455.53 684.384" stroke="#263238" stroke-miterlimit="10"/>
<path d="M1466.5 716.27L1485.51 696.743" stroke="#263238" stroke-miterlimit="10"/>
<path d="M1658.37 794.245L1649.02 740.051" stroke="#263238" stroke-miterlimit="10"/>
<path d="M1676.28 744.439L1657.54 771.536L1605.25 755.592" stroke="#263238" stroke-miterlimit="10"/>
<path d="M1852.18 772.775L1794.9 789.924L1788.06 719.151" stroke="#263238" stroke-miterlimit="10"/>
<path d="M1816.65 782.756L1813.41 760.014" stroke="#263238" stroke-miterlimit="10"/>
<path d="M2019.9 849.779L2061.08 832.328" stroke="#263238" stroke-miterlimit="10"/>
<path d="M2030.87 843.214L2087.08 847.635" stroke="#263238" stroke-miterlimit="10"/>
<path d="M1896.42 818.763L1933.24 782.12" stroke="#263238" stroke-miterlimit="10"/>
<path d="M1953.69 794.68L1914.27 802.217L1893.73 777.598" stroke="#263238" stroke-miterlimit="10"/>
<path d="M1791.25 749.027L1733 722.064" stroke="#263238" stroke-miterlimit="10"/>
<path d="M1470.85 726.117L1412.74 702.872" stroke="#263238" stroke-miterlimit="10"/>
<path d="M196.972 854.356C196.972 854.356 224.825 774.707 280.531 752.701C336.237 730.695 351.829 756.452 404.203 740.609C456.578 724.767 460.372 677.138 546.291 669.166C632.209 661.194 665.105 701.12 679.911 715.69C694.716 730.26 732.748 718.604 778.229 705.742C823.71 692.88 838.192 715.053 852.488 727.815C866.739 740.609 886.356 728.083 924.943 718.202C963.53 708.321 1002.26 724.733 1012.67 741.916L1023.08 759.065L643.869 785.324L726.919 802.239C726.919 802.239 577.058 822.235 520.057 831.279C463.009 840.322 345.629 864.572 345.629 864.572L397.541 830.006L197.018 854.289L196.972 854.356Z" fill="#5C8A60"/>
<path d="M350.39 796.221L300.468 751.472" stroke="#263238" stroke-miterlimit="10"/>
<path d="M328.968 777.062L334.89 753.549" stroke="#263238" stroke-miterlimit="10"/>
<path d="M548.369 789.287L508.348 742.965" stroke="#263238" stroke-miterlimit="10"/>
<path d="M535.645 738.644L534.396 768.923L477.672 770.397" stroke="#263238" stroke-miterlimit="10"/>
<path d="M711.692 710.743L669.681 743.735L622.304 681.637" stroke="#263238" stroke-miterlimit="10"/>
<path d="M685.273 730.605L669.079 710.978" stroke="#263238" stroke-miterlimit="10"/>
<path d="M908.56 729.433L935.765 701.063" stroke="#263238" stroke-miterlimit="10"/>
<path d="M914.714 720.122L968.245 707.025" stroke="#263238" stroke-miterlimit="10"/>
<path d="M778.549 738.946L790.625 694.465" stroke="#263238" stroke-miterlimit="10"/>
<path d="M816.488 699.623L785.118 718.481L752.13 702.437" stroke="#263238" stroke-miterlimit="10"/>
<path d="M642.568 707.762L574.046 701.063" stroke="#263238" stroke-miterlimit="10"/>
<path d="M338.638 784.632L272.43 781.282" stroke="#263238" stroke-miterlimit="10"/>
<path d="M2273.95 911.852L2197.84 895.071C2197.84 895.071 1785 798.909 1691.68 788.526C1598.36 778.143 1094.23 718.221 585.98 793.718C469.71 811.001 345.019 831.834 273.675 848.28C235.412 857.122 126.498 882.076 86.9861 892.459C55.8481 900.665 19.2506 908.771 5.09277 911.819H2274L2273.95 911.852Z" fill="#DDBD8D"/>
<path d="M2266 910.111L2197.84 895.105C2197.84 895.105 2184.06 891.89 2161.06 886.597C2136.12 886.062 2164.67 895.473 2124.65 898.387C2080.28 901.603 2064.78 899.995 2033.73 896.78C2002.69 893.564 1973.86 885.526 1949.48 888.741C1925.1 891.957 1960.58 899.962 1920.66 901.569C1880.73 903.177 1834.18 895.139 1767.65 888.741C1701.12 882.31 1676.73 871.09 1683.4 893.564C1690.06 916.039 1581.38 885.526 1521.51 879.128C1461.64 872.697 1486.02 890.382 1477.14 896.78C1468.25 903.177 1381.78 896.78 1310.8 891.957C1239.83 887.133 1213.23 899.995 1108.99 901.603C1004.75 903.211 962.643 891.957 944.876 891.957C927.109 891.957 898.285 890.349 898.285 890.349L836.194 898.387C836.194 898.387 780.766 898.387 736.395 891.957C692.025 885.526 665.421 904.785 585.61 904.785C505.798 904.785 505.798 890.349 492.473 883.918C479.148 877.487 459.207 888.741 430.382 896.746C401.558 904.785 392.675 896.746 374.954 890.315C357.234 883.884 306.201 898.354 259.656 901.536C213.065 904.751 239.715 901.536 246.331 888.708C252.993 875.879 235.227 879.061 168.694 891.923C102.162 904.751 5 911.819 5 911.819H2267.24C2266.83 911.216 2266.41 910.646 2265.95 910.077L2266 910.111Z" fill="#F4D6B1"/>
<path d="M2273.95 911.852L2197.84 895.071C2197.84 895.071 1785 798.909 1691.68 788.526C1598.36 778.143 1094.23 718.221 585.98 793.718C469.71 811.001 345.019 831.834 273.675 848.28C235.412 857.122 126.498 882.076 86.9861 892.459C55.8481 900.665 19.2506 908.771 5.09277 911.819H2274L2273.95 911.852Z" stroke="#263238" stroke-miterlimit="10"/>
<path d="M1876.85 62.0986V62.165H1876.94L1876.85 62.0986Z" fill="#263238"/>
<path d="M1288.79 2.44507V2.51148H1288.7L1288.79 2.44507Z" fill="#263238"/>
<path d="M863.128 0V0.0663654H863.219L863.128 0Z" fill="#263238"/>
<path d="M702.164 96.7317V96.7982H702.256L702.164 96.7317Z" fill="#263238"/>
<path d="M949.091 38.418V38.4843H949L949.091 38.418Z" fill="#263238"/>
<path d="M967.625 767.236C967.625 767.236 1018.38 693.749 1079.31 680.888C1140.25 668.026 1147.84 695.592 1203.68 688.223C1259.53 680.888 1277.29 634.933 1363.58 640.46C1449.87 645.987 1470.18 690.065 1480.36 706.611C1490.49 723.158 1531.12 717.631 1579.37 712.138C1627.58 706.611 1635.22 730.526 1645.35 745.197C1655.48 759.901 1678.34 750.723 1718.96 747.039C1759.58 743.355 1792.57 765.427 1797.66 783.782L1802.75 802.171L1424.56 769.112L1500.72 798.52C1500.72 798.52 1348.41 794.835 1290.06 794.835C1231.72 794.835 1109.85 800.362 1109.85 800.362L1170.79 774.638L967.718 767.303L967.625 767.236Z" fill="#5C8A60"/>
<path d="M1133.84 758.238L1098.3 706.791" stroke="#263238" stroke-miterlimit="10"/>
<path d="M1118.61 736.166L1131.29 714.126" stroke="#263238" stroke-miterlimit="10"/>
<path d="M1329.27 782.12L1303.87 730.672" stroke="#263238" stroke-miterlimit="10"/>
<path d="M1331.81 730.672L1321.64 760.08L1265.79 752.712" stroke="#263238" stroke-miterlimit="10"/>
<path d="M1512.03 730.672L1461.27 756.396L1433.33 688.403" stroke="#263238" stroke-miterlimit="10"/>
<path d="M1480.33 745.979L1470.34 724.309" stroke="#263238" stroke-miterlimit="10"/>
<path d="M1698.81 779.44L1733.79 755.927" stroke="#263238" stroke-miterlimit="10"/>
<path d="M1707.55 771.301L1763.77 766.78" stroke="#263238" stroke-miterlimit="10"/>
<path d="M1568.98 768.588L1593.96 727.021" stroke="#263238" stroke-miterlimit="10"/>
<path d="M1617.65 736.065L1581.47 749.597L1553.99 728.83" stroke="#263238" stroke-miterlimit="10"/>
<path d="M1445.4 717.074L1380.44 699.891" stroke="#263238" stroke-miterlimit="10"/>
<path d="M1125.79 745.075L1062.08 731.543" stroke="#263238" stroke-miterlimit="10"/>
<path d="M1050.23 780.512C1050.23 780.512 1008.13 726.821 961.721 718.916C915.314 711.011 911.104 731.912 868.816 727.993C826.527 724.074 810.704 690.111 746.253 696.709C681.803 703.307 668.987 736.969 662.278 749.664C655.569 762.358 624.801 759.377 588.296 756.63C551.838 753.884 547.396 772.004 540.595 783.325C533.793 794.646 516.119 788.417 485.49 786.809C454.815 785.201 431.265 802.685 428.442 816.619L425.62 830.552L707.574 794.915L652.053 819.164C652.053 819.164 766.102 812.064 809.917 810.389C853.732 808.714 945.434 809.384 945.434 809.384L898.334 791.833L1050.28 780.512H1050.23Z" fill="#5C8A60"/>
<path d="M926.559 786.608L950.386 746.984" stroke="#263238" stroke-miterlimit="10"/>
<path d="M936.782 769.626L926.048 753.448" stroke="#263238" stroke-miterlimit="10"/>
<path d="M781.231 810.121L797.471 770.799" stroke="#263238" stroke-miterlimit="10"/>
<path d="M776.513 771.603L785.72 793.374L827.222 786.24" stroke="#263238" stroke-miterlimit="10"/>
<path d="M641.318 776.761L680.784 794.58L698.042 742.797" stroke="#263238" stroke-miterlimit="10"/>
<path d="M665.887 787.345L672.225 770.765" stroke="#263238" stroke-miterlimit="10"/>
<path d="M503.811 818.662L476.282 802.049" stroke="#263238" stroke-miterlimit="10"/>
<path d="M496.825 812.834L454.397 811.025" stroke="#263238" stroke-miterlimit="10"/>
<path d="M600.65 806.839L579.645 776.359" stroke="#263238" stroke-miterlimit="10"/>
<path d="M562.342 783.794L590.241 792.938L609.72 776.56" stroke="#263238" stroke-miterlimit="10"/>
<path d="M690.547 764.636L738.341 749.898" stroke="#263238" stroke-miterlimit="10"/>
<path d="M931.879 776.526L978.887 764.535" stroke="#263238" stroke-miterlimit="10"/>
<path d="M29 912.547H2274" stroke="#263238" stroke-miterlimit="10"/>
<path d="M165.079 966.641H307.322" stroke="#263238" stroke-miterlimit="10"/>
<path d="M507.018 977.593H364.775" stroke="#263238" stroke-miterlimit="10"/>
<path d="M271.778 1002.21H386.651" stroke="#263238" stroke-miterlimit="10"/>
<path d="M545.31 980.34H597.269" stroke="#263238" stroke-miterlimit="10"/>
<path d="M668.39 966.641H810.633" stroke="#263238" stroke-miterlimit="10"/>
<path d="M1010.33 977.593H868.086" stroke="#263238" stroke-miterlimit="10"/>
<path d="M775.089 1002.21H889.962" stroke="#263238" stroke-miterlimit="10"/>
<path d="M1048.62 980.34H1100.58" stroke="#263238" stroke-miterlimit="10"/>
<path d="M1171.7 966.641H1313.94" stroke="#263238" stroke-miterlimit="10"/>
<path d="M1513.64 977.593H1371.4" stroke="#263238" stroke-miterlimit="10"/>
<path d="M1278.4 1002.21H1393.27" stroke="#263238" stroke-miterlimit="10"/>
<path d="M1551.93 980.34H1603.92" stroke="#263238" stroke-miterlimit="10"/>
<path d="M1675.04 966.641H1817.25" stroke="#263238" stroke-miterlimit="10"/>
<path d="M2016.95 977.593H1874.71" stroke="#263238" stroke-miterlimit="10"/>
<path d="M1781.71 1002.21H1896.58" stroke="#263238" stroke-miterlimit="10"/>
<path d="M2055.24 980.34H2107.23" stroke="#263238" stroke-miterlimit="10"/>
<path d="M1937.62 1091.51H1820.24" stroke="#263238" stroke-miterlimit="10"/>
<path d="M1655.41 1074.43H1772.83" stroke="#263238" stroke-miterlimit="10"/>
<path d="M1849.58 1035.97H1754.74" stroke="#263238" stroke-miterlimit="10"/>
<path d="M1623.82 1070.14H1580.91" stroke="#263238" stroke-miterlimit="10"/>
<path d="M1522.22 1091.51H1404.83" stroke="#263238" stroke-miterlimit="10"/>
<path d="M1240.01 1074.43H1357.39" stroke="#263238" stroke-miterlimit="10"/>
<path d="M1434.18 1035.97H1339.34" stroke="#263238" stroke-miterlimit="10"/>
<path d="M1208.38 1070.14H1165.5" stroke="#263238" stroke-miterlimit="10"/>
<path d="M1106.81 1091.51H989.392" stroke="#263238" stroke-miterlimit="10"/>
<path d="M824.603 1074.43H941.988" stroke="#263238" stroke-miterlimit="10"/>
<path d="M1018.77 1035.97H923.932" stroke="#263238" stroke-miterlimit="10"/>
<path d="M792.978 1070.14H750.098" stroke="#263238" stroke-miterlimit="10"/>
<path d="M691.404 1091.51H573.985" stroke="#263238" stroke-miterlimit="10"/>
<path d="M409.196 1074.43H526.582" stroke="#263238" stroke-miterlimit="10"/>
<path d="M603.332 1035.97H508.525" stroke="#263238" stroke-miterlimit="10"/>
<path d="M377.572 1070.14H334.691" stroke="#263238" stroke-miterlimit="10"/>
<path d="M2219.36 1197.01H2060.7" stroke="#263238" stroke-miterlimit="10"/>
<path d="M1837.96 1173.9H1996.62" stroke="#263238" stroke-miterlimit="10"/>
<path d="M2100.37 1121.92H1972.23" stroke="#263238" stroke-miterlimit="10"/>
<path d="M1795.25 1168.11H1737.26" stroke="#263238" stroke-miterlimit="10"/>
<path d="M1657.93 1197.01H1499.27" stroke="#263238" stroke-miterlimit="10"/>
<path d="M1276.52 1173.9H1435.18" stroke="#263238" stroke-miterlimit="10"/>
<path d="M1538.93 1121.92H1410.76" stroke="#263238" stroke-miterlimit="10"/>
<path d="M1233.81 1168.11H1175.82" stroke="#263238" stroke-miterlimit="10"/>
<path d="M1096.49 1197.01H937.834" stroke="#263238" stroke-miterlimit="10"/>
<path d="M715.056 1173.9H873.747" stroke="#263238" stroke-miterlimit="10"/>
<path d="M977.498 1121.92H849.325" stroke="#263238" stroke-miterlimit="10"/>
<path d="M672.342 1168.11H614.387" stroke="#263238" stroke-miterlimit="10"/>
<path d="M535.058 1197.01H376.366" stroke="#263238" stroke-miterlimit="10"/>
<path d="M153.621 1173.9H312.279" stroke="#263238" stroke-miterlimit="10"/>
<path d="M416.031 1121.92H287.892" stroke="#263238" stroke-miterlimit="10"/>
<path d="M110.908 1168.11H52.9189" stroke="#263238" stroke-miterlimit="10"/>
</svg>
