<svg width="1119" height="1081" viewBox="0 0 1119 1081" fill="none" xmlns="http://www.w3.org/2000/svg">
<path d="M966.458 459.879C985.212 473.24 1071.15 471.403 1090.51 459.879C1092.21 452.658 1091.34 436.529 1088.65 415.342L1065.6 427.319L1086.46 399.105C1083.42 378.566 1079.16 354.871 1074.2 330.591L1059.92 338.267L1072.11 320.581C1071.14 316.012 1070.17 311.458 1069.18 306.918L1052.89 314.636L1066.88 296.583C1062.71 278.228 1058.31 260.24 1053.87 243.744L1040.89 247.398C1040.89 247.398 1045.77 240.328 1050.92 232.999C1046.44 216.741 1041.83 202.32 1037.49 190.883C1036.82 189.079 1035.59 187.519 1033.96 186.417C1032.34 185.314 1030.4 184.722 1028.42 184.722C1026.43 184.722 1024.5 185.314 1022.87 186.417C1021.25 187.519 1020.01 189.079 1019.34 190.883C1013.59 206.255 1007.32 227.14 1001.19 250.554L1012.67 269.191L999.245 257.797C996.469 268.607 993.739 279.893 991.121 291.308L1009.54 323.133L987.361 308.128C983.668 324.927 980.266 341.791 977.267 357.854L995.283 375.15L975.276 368.945C974.917 370.913 974.582 372.859 974.246 374.761L992.71 398.781L972.075 387.971C966.682 422.325 964.086 449.804 966.458 459.879Z" fill="#6CA271"/>
<path d="M1023.93 382.782L997.768 335.218L1024.38 366.74L1028.47 219.075L1031.72 308.885L1050.36 282.941L1032.3 325.186L1035.55 416.207L1071.04 384.577L1035.97 429.373L1038.95 593.491C1038.95 598.788 1020.3 598.788 1020.3 593.491L1023.93 382.782Z" fill="#F0F0F0"/>
<path d="M528.168 326.83C544.572 338.526 619.702 336.905 636.621 326.83C638.098 320.517 637.338 306.42 635.01 287.914L614.868 298.378L633.108 273.709C630.445 255.743 626.729 235.031 622.365 213.8L609.967 220.524L620.642 205.044C619.792 201.066 618.934 197.088 618.068 193.11L603.835 199.855L616.054 184.073C612.429 168.031 608.557 152.313 604.685 137.892L593.338 141.071C593.338 141.071 597.546 134.887 602.022 128.488C598.038 114.283 594.077 101.679 590.317 91.7338C589.727 90.1585 588.649 88.7972 587.229 87.835C585.81 86.8729 584.118 86.3567 582.383 86.3567C580.649 86.3567 578.957 86.8729 577.538 87.835C576.118 88.7972 575.04 90.1585 574.45 91.7338C569.437 105.181 563.976 123.45 558.582 143.903L568.653 160.204L556.971 150.237C554.554 159.685 552.159 169.544 549.877 179.533L565.99 207.336L546.587 194.256C543.364 208.936 540.387 223.659 537.635 237.777L553.301 252.911L535.822 247.484C535.509 249.214 535.218 250.9 534.927 252.565L551.063 273.558L533.024 264.024C528.459 294.032 526.176 318.03 528.168 326.83Z" fill="#6CA271"/>
<path d="M708.148 321.468C725.783 334.007 806.62 332.278 824.748 321.468C826.023 316.171 825.8 305.772 824.457 292L803.442 299.329L822.957 279.071C820.719 261.364 817.206 239.96 812.886 217.368L801.025 222.146L811.342 209.498C810.917 207.336 810.447 205.044 809.999 202.817L781.801 216.676L806.195 184.592C802.413 166.971 798.317 149.329 794.132 132.812L775.803 147.578L791.648 123.364C790.506 119.04 789.41 114.716 788.179 110.392L772.11 118.91L785.381 100.101C781.868 88.0583 778.376 77.3348 775.087 68.5355C774.454 66.8407 773.296 65.3756 771.77 64.34C770.244 63.3045 768.425 62.7488 766.56 62.7488C764.695 62.7488 762.876 63.3045 761.35 64.34C759.824 65.3756 758.665 66.8407 758.033 68.5355C753.087 81.7453 747.783 99.2142 742.367 118.91C746.977 129.244 750.625 137.309 750.625 137.309L738.943 132.098C737.645 137.114 736.392 142.238 735.138 147.448C740.778 163.88 747.492 184.44 747.492 184.873C747.134 184.224 738.965 170.106 732.386 158.734C716.563 227.01 703.896 303.502 708.148 321.468Z" fill="#6CA271"/>
<path d="M762.173 248.976L737.555 204.223L762.576 233.864L766.448 95.1281L769.447 179.446L786.97 155.015L769.984 194.71L773.027 280.26L806.418 250.533L773.475 292.713L776.273 469.522C776.273 474.516 758.771 474.516 758.771 469.522L762.173 248.998V248.976Z" fill="#F0F0F0"/>
<path d="M154.825 322.873C170.827 334.289 244.143 332.689 260.682 322.873C261.624 316.425 261.729 309.889 260.996 303.415L235.997 314.485L259.899 291.611C258.489 278.639 256.139 263.137 253.185 246.209L244.054 250.965L252.379 241.668C250.656 232.134 248.754 222.21 246.695 212.2L231.812 223.767L245.083 204.525C244.658 202.363 244.211 200.353 243.763 198.277L223.42 214.514L240.652 184.246C237.474 170.214 234.117 156.421 230.76 143.535L217.466 153.286C217.802 152.745 223.084 144.011 228.41 134.93C223.934 118.845 219.637 104.662 215.519 93.5931C214.943 92.0559 213.891 90.7277 212.505 89.7889C211.12 88.8502 209.468 88.3466 207.776 88.3466C206.084 88.3466 204.432 88.8502 203.047 89.7889C201.661 90.7277 200.609 92.0559 200.032 93.5931C196.116 104.057 191.931 117.375 187.746 132.509L195.87 149.805L186.179 138.368C183.583 148.054 180.987 158.345 178.481 168.896L195.87 205.909L175.28 182.278C174.967 183.727 174.609 185.197 174.318 186.602L182.688 205.714L172.953 192.742C169.417 208.871 166.239 225.172 163.374 240.436L187.477 268.542L161.382 251.7C160.778 255.246 160.218 258.727 159.659 262.121L171.901 275.201L158.227 271.396C154.579 296.043 153.034 315.263 154.825 322.873Z" fill="#6CA271"/>
<path opacity="0.15" d="M154.825 322.873C170.827 334.289 244.143 332.689 260.682 322.873C261.624 316.425 261.729 309.889 260.996 303.415L235.997 314.485L259.899 291.611C258.489 278.639 256.139 263.137 253.185 246.209L244.054 250.965L252.379 241.668C250.656 232.134 248.754 222.21 246.695 212.2L231.812 223.767L245.083 204.525C244.658 202.363 244.211 200.353 243.763 198.277L223.42 214.514L240.652 184.246C237.474 170.214 234.117 156.421 230.76 143.535L217.466 153.286C217.802 152.745 223.084 144.011 228.41 134.93C223.934 118.845 219.637 104.662 215.519 93.5931C214.943 92.0559 213.891 90.7277 212.505 89.7889C211.12 88.8502 209.468 88.3466 207.776 88.3466C206.084 88.3466 204.432 88.8502 203.047 89.7889C201.661 90.7277 200.609 92.0559 200.032 93.5931C196.116 104.057 191.931 117.375 187.746 132.509L195.87 149.805L186.179 138.368C183.583 148.054 180.987 158.345 178.481 168.896L195.87 205.909L175.28 182.278C174.967 183.727 174.609 185.197 174.318 186.602L182.688 205.714L172.953 192.742C169.417 208.871 166.239 225.172 163.374 240.436L187.477 268.542L161.382 251.7C160.778 255.246 160.218 258.727 159.659 262.121L171.901 275.201L158.227 271.396C154.579 296.043 153.034 315.263 154.825 322.873Z" fill="black"/>
<path d="M203.882 257.105L181.502 216.503L204.218 243.398L207.709 117.44L210.439 194.083L226.329 171.901L210.976 207.92L213.729 285.557L243.942 258.597L214.042 296.864L216.594 516.091C216.594 520.61 200.704 520.61 200.704 516.091L203.882 257.105Z" fill="#6CA271"/>
<path d="M39.8365 444.421C58.2776 455.404 140.233 457.133 158.115 444.421C159.749 437.502 158.898 422.001 156.347 401.656L133.161 411.213L154.534 388.274C152.475 374.329 149.834 358.762 146.768 342.504L132.557 348.514L145.828 337.704C145.112 333.928 144.366 330.123 143.59 326.289L119.89 339.434L141.196 314.485C138.555 301.837 135.735 289.124 132.803 276.693L120.561 283.049L130.565 266.423C127.521 254.316 121.613 232.61 118.636 221.973L106.171 231.529L116.712 215.4C113.623 205.023 110.535 195.748 107.626 187.921C106.982 186.203 105.807 184.719 104.259 183.67C102.711 182.62 100.867 182.057 98.9757 182.057C97.0848 182.057 95.2399 182.62 93.6921 183.67C92.1443 184.719 90.9689 186.203 90.3258 187.921C85.8498 199.834 81.0829 215.206 76.3383 232.502L86.0065 253.732L73.138 244.306C69.8033 257.062 66.424 270.596 63.2908 284.433L79.5163 323.933L60.068 298.81C58.9267 304.085 57.83 309.382 56.6887 314.658L68.2367 336.58L55.0102 322.852C51.8322 338.504 48.9676 353.833 46.5505 368.145L73.0261 408.294L44.3797 381.831C43.6859 386.155 43.0816 390.349 42.5221 394.371L62.4851 418.044L40.9555 406.91C38.8966 424.747 38.3371 438.129 39.8365 444.421Z" fill="#6CA271"/>
<path d="M68.2368 346.504L93.0786 380.512L95.6747 307.242L82.2467 263.44L96.2342 293.297L99.0317 214.773L102.187 328.062L116.13 311.977L102.702 342.937L104.492 407.234L133.318 379.539L104.85 426.065L106.753 585.902C106.753 590.961 89.0055 590.961 89.0055 585.902L92.2953 402.413L68.2368 346.504Z" fill="#F0F0F0"/>
<path d="M380.46 302.853C396.372 312.301 466.936 313.814 482.334 302.853C483.721 296.929 483.028 283.784 480.879 266.488L460.849 277.882L478.977 252.651C476.918 238.771 474.187 223.118 470.987 206.925L457.313 215.984L469.286 198.299C468.906 196.461 468.548 194.645 468.145 192.807L451.405 203.228L465.996 182.797C462.997 168.852 459.775 154.907 456.44 141.719L437.977 153.502L454.314 133.114C453.374 129.547 452.456 126.066 451.516 122.65L438.088 132.487L449.278 114.651C445.72 102.068 442.184 90.8689 438.849 81.9614C438.296 80.4804 437.284 79.2002 435.95 78.2953C434.617 77.3903 433.027 76.9048 431.397 76.9048C429.767 76.9048 428.177 77.3903 426.843 78.2953C425.51 79.2002 424.497 80.4804 423.944 81.9614C421.124 89.4636 418.17 98.544 415.171 108.727L421.751 125.396L413.605 114.586L413.493 114.435C409.017 130.001 404.541 147.686 400.445 165.89L411.121 202.644L396.865 182.04C394.157 194.58 391.65 207.228 389.412 219.292L404.899 269.45L385.652 240.587C380.773 270.25 378.401 294.27 380.46 302.853Z" fill="#6CA271"/>
<path opacity="0.15" d="M380.46 302.853C396.372 312.301 466.936 313.814 482.334 302.853C483.721 296.929 483.028 283.784 480.879 266.488L460.849 277.882L478.977 252.651C476.918 238.771 474.187 223.118 470.987 206.925L457.313 215.984L469.286 198.299C468.906 196.461 468.548 194.645 468.145 192.807L451.405 203.228L465.996 182.797C462.997 168.852 459.775 154.907 456.44 141.719L437.977 153.502L454.314 133.114C453.374 129.547 452.456 126.066 451.516 122.65L438.088 132.487L449.278 114.651C445.72 102.068 442.184 90.8689 438.849 81.9614C438.296 80.4804 437.284 79.2002 435.95 78.2953C434.617 77.3903 433.027 76.9048 431.397 76.9048C429.767 76.9048 428.177 77.3903 426.843 78.2953C425.51 79.2002 424.497 80.4804 423.944 81.9614C421.124 89.4636 418.17 98.544 415.171 108.727L421.751 125.396L413.605 114.586L413.493 114.435C409.017 130.001 404.541 147.686 400.445 165.89L411.121 202.644L396.865 182.04C394.157 194.58 391.65 207.228 389.412 219.292L404.899 269.45L385.652 240.587C380.773 270.25 378.401 294.27 380.46 302.853Z" fill="black"/>
<path d="M404.899 218.513L426.272 247.765L428.51 184.656L416.984 147.016L428.957 172.787L431.352 105.16L434.172 202.644L446.19 188.786L434.53 215.443L436.074 270.834L460.916 247.052L436.41 287.049L438.066 453.35C438.066 457.674 422.781 457.674 422.781 453.35L425.623 266.596L404.899 218.513Z" fill="#6CA271"/>
<path d="M865.457 342.05C883.025 352.492 960.975 354.157 977.984 342.05C979.506 335.564 978.767 320.992 976.372 301.902L954.239 314.485L974.269 286.595C972.031 271.266 968.987 253.992 965.451 236.09L950.345 246.1L963.571 226.642C963.146 224.61 962.743 222.599 962.318 220.567L943.877 232.156L960.102 209.519C956.79 194.126 953.232 178.733 949.561 164.117L929.151 177.089L947.055 154.54C946.025 150.605 944.996 146.749 943.966 142.973L929.061 153.783L941.527 134.087C937.588 120.186 933.671 107.841 929.979 97.9818C929.375 96.3408 928.261 94.9206 926.788 93.9162C925.315 92.9118 923.557 92.3726 921.754 92.3726C919.951 92.3726 918.193 92.9118 916.72 93.9162C915.248 94.9206 914.133 96.3408 913.529 97.9818C910.419 106.262 907.151 116.294 903.861 127.536L911.135 146L902.183 134.152L901.914 134.044C897.035 151.34 892.089 170.798 887.501 190.883L899.273 231.42L883.607 208.655C880.631 222.491 877.856 236.371 875.372 249.733L892.492 305.145L871.231 273.255C865.86 306.118 863.242 332.559 865.457 342.05Z" fill="#6CA271"/>
<path opacity="0.15" d="M865.457 342.05C883.025 352.492 960.975 354.157 977.984 342.05C979.506 335.564 978.767 320.992 976.372 301.902L954.239 314.485L974.269 286.595C972.031 271.266 968.987 253.992 965.451 236.09L950.345 246.1L963.571 226.642C963.146 224.61 962.743 222.599 962.318 220.567L943.877 232.156L960.102 209.519C956.79 194.126 953.232 178.733 949.561 164.117L929.151 177.089L947.055 154.54C946.025 150.605 944.996 146.749 943.966 142.973L929.061 153.783L941.527 134.087C937.588 120.186 933.671 107.841 929.979 97.9818C929.375 96.3408 928.261 94.9206 926.788 93.9162C925.315 92.9118 923.557 92.3726 921.754 92.3726C919.951 92.3726 918.193 92.9118 916.72 93.9162C915.248 94.9206 914.133 96.3408 913.529 97.9818C910.419 106.262 907.151 116.294 903.861 127.536L911.135 146L902.183 134.152L901.914 134.044C897.035 151.34 892.089 170.798 887.501 190.883L899.273 231.42L883.607 208.655C880.631 222.491 877.856 236.371 875.372 249.733L892.492 305.145L871.231 273.255C865.86 306.118 863.242 332.559 865.457 342.05Z" fill="black"/>
<path d="M892.515 248.911L916.126 281.211L918.61 211.508L905.853 169.847L919.08 198.299L921.721 123.623L924.72 231.334L937.991 216.027L925.122 245.473L926.823 306.636L954.239 280.282L927.383 324.538L929.195 508.308C929.195 513.107 912.321 513.107 912.321 508.308L915.454 302.031L892.515 248.911Z" fill="#6CA271"/>
<path d="M631.116 329.878C646.29 338.872 713.564 340.32 728.245 329.878C728.918 325.972 729.114 322.002 728.827 318.052L713.161 324.797L727.731 303.177C726.813 294.227 725.358 283.719 723.501 272.239L708.238 279.936L721.666 261.191C721.352 259.375 721.017 257.516 720.681 255.657L696.063 269.515L717.615 238.728C714.303 221.735 710.453 204.136 706.425 187.272L692.079 197.672L703.516 175.36C702.956 173.198 702.419 171.036 701.882 169.025L687.738 179.835L698.57 156.572C694.631 142.087 690.647 129.223 686.932 119.278C686.404 117.863 685.438 116.64 684.164 115.775C682.891 114.91 681.372 114.446 679.815 114.446C678.258 114.446 676.74 114.91 675.466 115.775C674.192 116.64 673.226 117.863 672.698 119.278C669.14 128.812 665.335 141.027 661.508 154.799L665.76 179.835L657.614 169.371C654.011 183.359 650.453 198.364 647.207 213.433L657.927 245.863L644.141 228.199C640.986 243.333 638.211 258.467 636.017 272.001L642.217 286.66L634.451 282.098C633.891 285.73 633.399 289.232 632.996 292.562L646.424 314.312L631.72 302.68C630.333 315.522 630.042 325.165 631.116 329.878Z" fill="#6CA271"/>
<path opacity="0.15" d="M631.116 329.878C646.29 338.872 713.564 340.32 728.245 329.878C728.918 325.972 729.114 322.002 728.827 318.052L713.161 324.797L727.731 303.177C726.813 294.227 725.358 283.719 723.501 272.239L708.238 279.936L721.666 261.191C721.352 259.375 721.017 257.516 720.681 255.657L696.063 269.515L717.615 238.728C714.303 221.735 710.453 204.136 706.425 187.272L692.079 197.672L703.516 175.36C702.956 173.198 702.419 171.036 701.882 169.025L687.738 179.835L698.57 156.572C694.631 142.087 690.647 129.223 686.932 119.278C686.404 117.863 685.438 116.64 684.164 115.775C682.891 114.91 681.372 114.446 679.815 114.446C678.258 114.446 676.74 114.91 675.466 115.775C674.192 116.64 673.226 117.863 672.698 119.278C669.14 128.812 665.335 141.027 661.508 154.799L665.76 179.835L657.614 169.371C654.011 183.359 650.453 198.364 647.207 213.433L657.927 245.863L644.141 228.199C640.986 243.333 638.211 258.467 636.017 272.001L642.217 286.66L634.451 282.098C633.891 285.73 633.399 289.232 632.996 292.562L646.424 314.312L631.72 302.68C630.333 315.522 630.042 325.165 631.116 329.878Z" fill="black"/>
<path d="M683.284 269.515L703.762 232.264L682.926 256.954L679.726 141.373L677.219 211.703L662.627 191.337L676.772 224.394L674.243 295.74L646.447 270.985L673.862 306.096L671.624 456.009C671.624 460.16 686.194 460.16 686.194 456.009L683.374 269.623L683.284 269.515Z" fill="#6CA271"/>
<path d="M300.026 331.283C314.529 339.931 378.938 341.293 392.993 331.283C394.067 326.743 393.776 317.468 392.478 305.166L378.066 307.826L391.494 296.605C390.867 291.827 390.151 286.725 389.256 281.471L362.556 291.697L388.002 273.471C385.294 257.062 381.781 238.879 377.819 220.567L357.163 236.523L375.984 211.876C374.35 204.59 372.65 197.347 370.926 190.256L354.141 200.396L368.935 182.149C367.323 175.836 365.712 169.717 364.1 163.88L354.141 174.409L360.855 152.14C358.326 143.665 355.842 136.055 353.47 129.72C352.961 128.369 352.034 127.201 350.815 126.376C349.596 125.551 348.144 125.109 346.655 125.109C345.167 125.109 343.714 125.551 342.495 126.376C341.276 127.201 340.349 128.369 339.841 129.72C335.879 140.292 331.605 154.324 327.375 170.128L334.917 185.759L325.025 179.143C321.869 191.467 318.781 204.525 315.894 217.692L331.068 247.96L313.32 229.367C312 235.701 310.724 241.993 309.56 248.176L319.363 262.402L308.061 255.916C305.621 269.191 303.585 281.86 302.063 292.8L317.729 316.928L300.206 307.804C299.198 318.852 299.042 327.089 300.026 331.283Z" fill="#6CA271"/>
<path d="M349.912 273.515L369.539 237.842L349.598 261.472L346.51 150.821L344.115 218.146L330.15 198.688L343.578 230.34L341.139 298.529L314.529 274.747L340.803 308.366L338.565 471.208C338.565 475.186 352.53 475.186 352.53 471.208L349.8 273.45L349.912 273.515Z" fill="#F0F0F0"/>
<path d="M1068.09 628.104C1082.88 617.921 1082.77 591.502 1063.97 585.837C1076.95 573.276 1072.92 546.229 1054.21 544.543C1058.8 533.452 1056.45 518.253 1041.79 515.442C1046.47 501.843 1033.42 492.396 1020.35 497.282C1019.79 482.948 998.752 482.148 994.008 492.223C994.276 486.666 985.66 476.375 980.132 476.353C989.666 469.154 987.047 454.733 978.856 452.788C990.046 444.615 984.026 426.022 970.732 426.195C979.684 412.618 960.639 398.457 948.822 402.629C955.536 387.366 924.204 375.237 917.49 391.408C917.759 390.76 914.872 388.101 914.402 387.668C913.176 386.556 911.816 385.591 910.351 384.793C907.327 383.21 903.998 382.246 900.571 381.961C893.411 381.308 886.228 382.957 880.138 386.652C876.925 388.567 874.22 391.18 872.238 394.284C871.295 395.79 870.586 397.422 870.134 399.127C869.485 401.527 870.134 403.84 869.463 406.175C865.446 405.162 861.179 405.708 857.573 407.696C853.968 409.684 851.311 412.956 850.171 416.812C849.184 413.149 847.678 409.635 845.695 406.37C843.988 403.63 841.544 401.388 838.623 399.884C835.49 398.284 832.782 396.338 829 396.576C840.347 382.501 817.317 366.135 805.098 377.312C799.413 364.34 779.092 367.108 780.48 382.263C776.004 374.372 767.052 374.912 759.846 379.128C749.819 384.966 751.162 395.343 756.69 403.732C752.505 398.932 739.816 396.273 737.868 404.229C737.057 403.188 736.035 402.318 734.864 401.672C733.693 401.025 732.398 400.615 731.058 400.468C729.718 400.32 728.361 400.437 727.069 400.813C725.778 401.188 724.579 401.813 723.545 402.651C718.554 385.355 693.265 398.954 697.629 405.483C696.266 403.653 694.521 402.118 692.506 400.98C690.491 399.841 688.251 399.124 685.931 398.873C683.612 398.622 681.263 398.844 679.038 399.525C676.812 400.206 674.759 401.329 673.011 402.824C676.391 393.895 668.267 382.89 658.419 383.085C658.842 379.683 658.358 376.234 657.015 373.064C655.672 369.893 653.513 367.106 650.743 364.967C644.991 360.989 635.995 361.422 631.608 366.783C629.833 363.497 626.851 360.97 623.247 359.697C619.643 358.424 615.677 358.496 612.126 359.901C608.575 361.305 605.694 363.939 604.049 367.288C602.403 370.637 602.111 374.458 603.23 378.004C602.332 376.379 601.067 374.971 599.528 373.883C597.989 372.796 596.216 372.057 594.341 371.723C592.465 371.389 590.536 371.467 588.697 371.951C586.857 372.436 585.155 373.315 583.715 374.523C580.985 368.405 576.083 362.805 569.481 360.838C562.879 358.87 554.643 361.53 551.958 367.691C550.839 361.357 541.573 358.092 536.493 362.221C537.702 355.108 532.017 347.866 524.945 345.985C521.294 345.206 517.493 345.398 513.947 346.54C510.4 347.682 507.24 349.732 504.803 352.471C499.953 358.035 497.402 365.134 497.642 372.405C496.718 371.073 495.519 369.94 494.12 369.077C492.722 368.214 491.154 367.64 489.515 367.39C487.876 367.14 486.201 367.221 484.595 367.626C482.99 368.031 481.488 368.753 480.185 369.745C482.983 367.389 473.896 361.097 472.24 360.557C469.555 360.053 466.783 360.182 464.161 360.935C461.538 361.688 459.143 363.042 457.178 364.881C455.121 366.811 453.588 369.203 452.717 371.843C451.847 374.483 451.665 377.29 452.188 380.015C449.935 379.255 447.545 378.951 445.166 379.123C442.787 379.295 440.47 379.938 438.359 381.013C436.249 382.088 434.391 383.572 432.9 385.372C431.409 387.171 430.319 389.248 429.696 391.473C427.629 389.42 425.086 387.872 422.278 386.956C419.469 386.04 416.475 385.782 413.543 386.205C410.611 386.627 407.825 387.717 405.415 389.385C403.005 391.053 401.041 393.251 399.684 395.797C400.893 393.527 391.739 391.3 390.531 391.365C388.676 391.457 386.868 391.969 385.255 392.859C383.642 393.749 382.268 394.992 381.243 396.489C380.978 394.398 380.16 392.408 378.868 390.71C377.576 389.012 375.853 387.664 373.866 386.796C371.879 385.927 369.694 385.567 367.521 385.75C365.348 385.933 363.261 386.653 361.459 387.841C361.743 386.047 361.535 384.213 360.855 382.521C360.176 380.829 359.049 379.339 357.587 378.199C351.992 373.875 344.316 376.556 341.071 382.22C342.414 367.086 322.093 364.34 316.453 377.269C304.211 366.091 281.205 382.458 292.551 396.532C288.747 396.295 286.061 398.24 282.905 399.84C279.991 401.345 277.554 403.587 275.856 406.326C273.873 409.591 272.367 413.105 271.38 416.769C270.24 412.913 267.583 409.641 263.978 407.653C260.372 405.665 256.105 405.119 252.088 406.132C251.417 403.797 252.088 401.483 251.439 399.084C250.968 397.385 250.26 395.756 249.335 394.241C247.347 391.142 244.643 388.529 241.435 386.609C235.335 382.917 228.147 381.268 220.98 381.917C217.546 382.224 214.215 383.218 211.2 384.836C209.728 385.623 208.367 386.59 207.149 387.711C206.679 388.144 203.77 390.803 204.038 391.452C197.324 375.28 165.992 387.409 172.706 402.673C160.912 398.5 141.889 412.661 150.796 426.238C137.525 426.065 131.549 444.659 142.672 452.831C134.504 454.733 131.863 469.197 141.397 476.397C135.891 476.397 127.275 486.709 127.521 492.266C122.799 482.126 101.762 482.948 101.202 497.26C88.1099 492.374 75.0848 501.822 79.7622 515.421C64.9914 518.231 62.731 533.43 67.3413 544.521C48.5197 546.208 44.6032 573.254 57.5836 585.816C38.7844 591.48 38.6725 617.9 53.4657 628.083C43.6632 632.601 42.7009 654.567 58.6578 660.621C58.2479 660.974 57.8593 661.349 57.4941 661.745C48.0945 671.452 55.9499 687.516 69.6912 687.516H1051.86C1065.6 687.516 1073.46 671.539 1064.06 661.853C1063.68 661.457 1063.29 661.081 1062.87 660.729C1078.85 654.589 1077.87 632.623 1068.09 628.104Z" fill="#7CC16C"/>
<path d="M191.729 434.562C193.273 432.848 195.214 431.511 197.395 430.66C199.575 429.809 201.933 429.467 204.276 429.663C206.619 429.859 208.881 430.587 210.878 431.788C212.874 432.989 214.549 434.628 215.765 436.573C217.772 434.962 220.177 433.883 222.746 433.441C225.314 432.999 227.957 433.208 230.417 434.05C232.876 434.891 235.067 436.335 236.775 438.24C238.482 440.145 239.649 442.446 240.159 444.918C238.245 442.712 235.791 441.002 233.019 439.944C230.248 438.886 227.247 438.513 224.289 438.859C221.33 439.204 218.508 440.258 216.078 441.924C213.648 443.59 211.686 445.815 210.371 448.399C210.283 447.572 210.283 446.739 210.371 445.912C210.658 443.927 211.351 442.016 212.408 440.291C211.932 439.731 211.408 439.21 210.841 438.735C208.045 436.377 204.56 434.917 200.867 434.557C197.174 434.197 193.457 434.954 190.229 436.724C190.644 435.952 191.147 435.226 191.729 434.562Z" fill="#6CA271"/>
<path d="M348.389 409.526C347.375 408.424 346.147 407.526 344.774 406.882C343.401 406.239 341.91 405.864 340.386 405.777C338.863 405.691 337.337 405.895 335.895 406.379C334.453 406.863 333.125 407.616 331.984 408.596C331.111 409.31 330.357 410.148 329.746 411.083C328.198 409.837 326.339 409.003 324.355 408.663C322.371 408.323 320.329 408.489 318.431 409.144C316.533 409.798 314.845 410.92 313.532 412.397C312.22 413.875 311.329 415.657 310.947 417.569C313.183 415.007 316.327 413.342 319.765 412.899C322.621 412.534 325.523 413.043 328.063 414.354C330.604 415.665 332.656 417.711 333.932 420.206C333.998 419.574 333.998 418.936 333.932 418.304C333.71 416.777 333.178 415.307 332.365 413.98C332.737 413.555 333.133 413.151 333.551 412.769C335.705 410.919 338.405 409.768 341.271 409.477C344.137 409.186 347.026 409.77 349.53 411.148C349.209 410.57 348.827 410.027 348.389 409.526Z" fill="#6CA271"/>
<path d="M170.692 491.055C168.969 488.893 161.359 489.693 158.898 490.147C156.574 490.573 154.373 491.476 152.442 492.795C150.511 494.113 148.896 495.817 147.706 497.791C146.515 499.765 145.778 501.963 145.542 504.236C145.307 506.509 145.58 508.805 146.343 510.967C143.862 510.455 141.281 510.633 138.9 511.479C136.52 512.326 134.436 513.806 132.89 515.75C131.344 517.693 130.4 520.02 130.167 522.46C129.934 524.9 130.421 527.355 131.572 529.539C121.881 527.377 106.954 529.063 99.3893 536.154C95.2266 540.046 93.6376 546.748 96.7932 551.44C96.2113 550.575 88.5573 550.488 82.2686 554.25C80.3626 555.478 78.7821 557.122 77.6547 559.048C76.5273 560.975 75.8846 563.131 75.7784 565.341C75.6617 570.343 77.2328 575.245 80.2544 579.308C79.7396 578.378 73.8761 582.335 73.339 582.81C71.4233 584.504 69.9965 586.65 69.1987 589.037C68.9052 590.13 68.8607 591.271 69.0681 592.382C69.2756 593.493 69.7301 594.548 70.4003 595.472C71.0705 596.397 71.9404 597.171 72.95 597.739C73.9597 598.308 75.085 598.658 76.2483 598.766C72.3477 600.276 68.9769 602.834 66.5354 606.138C65.3414 607.802 64.6147 609.736 64.4264 611.752C64.2381 613.768 64.5947 615.797 65.4612 617.64C67.9901 622.375 73.9432 624.126 79.292 625.402C77.6311 627.113 76.4189 629.184 75.757 631.441C75.095 633.698 75.0026 636.075 75.4874 638.374C76.0773 640.663 77.475 642.682 79.4399 644.083C81.4048 645.484 83.8139 646.179 86.2522 646.049C83.6275 647.619 81.5898 649.957 80.4357 652.723C79.2815 655.489 79.0712 658.538 79.8351 661.428C80.5991 664.317 82.2976 666.896 84.6834 668.788C87.0693 670.68 90.018 671.788 93.1005 671.95C90.4149 671.777 88.3783 677.225 87.6845 678.933C86.4536 682.046 84.7528 684.273 83.2085 687.43H69.7805C56.0392 687.43 48.1838 671.452 57.5834 661.767C57.9487 661.371 58.3372 660.995 58.7472 660.642C42.7902 654.589 43.7526 632.536 53.555 628.104C38.7618 617.921 38.8737 591.502 57.673 585.837C44.6925 573.276 48.609 546.229 67.4306 544.543C62.6637 533.452 64.9017 518.253 79.762 515.442C75.0846 501.843 88.1098 492.396 101.202 497.282C101.762 482.948 122.799 482.148 127.521 492.223C127.275 486.666 135.891 476.375 141.397 476.354C131.863 469.154 134.503 454.733 142.672 452.788C131.482 444.615 137.525 426.022 150.796 426.195C143.724 415.385 154.265 404.272 164.806 402.219C160.979 406.348 157.488 411.839 160.33 417.504C162.814 422.585 169.595 423.471 174.071 425.611C163.418 429.092 158.405 439.427 166.44 448.485C155.585 449.804 154.198 463.749 158.54 469.392C161.203 467.23 166.753 466.668 170.804 467.403C176.242 468.397 179.174 471.057 184.075 476.354C174.362 469.154 164.56 482.948 170.692 491.055Z" fill="#6CA271"/>
<path d="M679.703 425.265C678.159 423.552 676.217 422.215 674.037 421.363C671.856 420.512 669.499 420.17 667.155 420.366C664.812 420.562 662.55 421.29 660.554 422.491C658.557 423.692 656.883 425.331 655.667 427.276C653.66 425.666 651.254 424.587 648.686 424.144C646.118 423.702 643.474 423.912 641.015 424.753C638.556 425.594 636.365 427.038 634.657 428.944C632.949 430.849 631.783 433.15 631.272 435.621C633.184 433.414 635.635 431.702 638.404 430.64C641.173 429.579 644.172 429.202 647.131 429.543C650.089 429.884 652.912 430.933 655.344 432.595C657.776 434.257 659.741 436.478 661.06 439.059C661.159 438.233 661.159 437.399 661.06 436.573C660.798 434.585 660.112 432.671 659.046 430.951C659.525 430.394 660.041 429.867 660.59 429.373C663.379 426.968 666.876 425.466 670.593 425.078C674.309 424.691 678.058 425.436 681.314 427.211C680.856 426.505 680.316 425.852 679.703 425.265Z" fill="#6CA271"/>
<path d="M773.161 409.526C774.175 408.424 775.404 407.526 776.777 406.882C778.15 406.239 779.641 405.864 781.164 405.777C782.688 405.691 784.214 405.895 785.656 406.379C787.097 406.863 788.426 407.616 789.566 408.596C790.401 409.316 791.118 410.155 791.692 411.083C793.243 409.838 795.103 409.005 797.088 408.666C799.074 408.326 801.116 408.492 803.015 409.146C804.914 409.801 806.604 410.921 807.919 412.398C809.234 413.875 810.128 415.657 810.514 417.569C808.278 415.007 805.134 413.342 801.696 412.899C798.84 412.534 795.938 413.043 793.398 414.354C790.857 415.665 788.805 417.711 787.529 420.206C787.452 419.574 787.452 418.936 787.529 418.304C787.731 416.772 788.264 415.298 789.096 413.98C788.722 413.55 788.319 413.145 787.887 412.769C785.734 410.919 783.034 409.768 780.168 409.477C777.301 409.186 774.413 409.77 771.908 411.148C772.257 410.561 772.678 410.016 773.161 409.526Z" fill="#6CA271"/>
<path d="M384.466 418.931C385.88 417.848 387.538 417.1 389.306 416.749C391.074 416.398 392.902 416.453 394.644 416.909C396.386 417.366 397.993 418.211 399.335 419.377C400.676 420.543 401.716 421.997 402.37 423.622C404.118 422.662 406.095 422.157 408.106 422.158C410.117 422.159 412.093 422.665 413.84 423.627C415.587 424.588 417.046 425.973 418.072 427.644C419.098 429.314 419.656 431.214 419.692 433.157C418.553 431.229 416.935 429.606 414.983 428.436C413.031 427.265 410.807 426.583 408.514 426.452C406.22 426.321 403.929 426.745 401.848 427.686C399.767 428.626 397.962 430.053 396.596 431.838C396.665 431.205 396.807 430.581 397.021 429.979C397.465 428.507 398.228 427.144 399.259 425.979C398.967 425.493 398.646 425.023 398.297 424.574C396.512 422.386 394.064 420.792 391.294 420.017C388.525 419.241 385.574 419.323 382.854 420.25C383.345 419.759 383.885 419.317 384.466 418.931Z" fill="#6CA271"/>
<path d="M582.081 396.705C581.07 395.604 579.843 394.706 578.472 394.063C577.101 393.42 575.612 393.045 574.09 392.958C572.568 392.872 571.044 393.077 569.604 393.56C568.164 394.043 566.838 394.796 565.699 395.776C564.819 396.482 564.064 397.322 563.461 398.262C561.912 397.017 560.054 396.183 558.07 395.843C556.086 395.503 554.044 395.668 552.146 396.323C550.248 396.978 548.56 398.099 547.247 399.577C545.935 401.054 545.044 402.836 544.662 404.748C546.135 403.047 548.024 401.728 550.158 400.91C552.292 400.092 554.603 399.801 556.882 400.063C559.162 400.325 561.337 401.131 563.213 402.41C565.089 403.689 566.605 405.399 567.624 407.386C567.702 406.754 567.702 406.115 567.624 405.483C567.423 403.951 566.889 402.478 566.057 401.159C566.437 400.734 566.84 400.33 567.266 399.948C569.42 398.099 572.12 396.947 574.986 396.656C577.852 396.365 580.74 396.95 583.245 398.327C582.924 397.744 582.533 397.2 582.081 396.705Z" fill="#6CA271"/>
<path d="M950.836 491.055C952.56 488.893 960.191 489.693 962.631 490.147C964.956 490.57 967.159 491.47 969.092 492.788C971.025 494.106 972.642 495.811 973.833 497.786C975.024 499.76 975.761 501.96 975.994 504.234C976.228 506.508 975.952 508.805 975.186 510.967C977.667 510.455 980.247 510.633 982.628 511.479C985.009 512.326 987.093 513.806 988.638 515.75C990.184 517.693 991.128 520.02 991.361 522.46C991.595 524.9 991.108 527.355 989.957 529.539C999.67 527.377 1014.57 529.063 1022.16 536.154C1026.3 540.046 1027.91 546.748 1024.76 551.44C1025.34 550.575 1032.97 550.488 1039.26 554.25C1041.17 555.47 1042.76 557.112 1043.89 559.041C1045.02 560.969 1045.65 563.128 1045.75 565.341C1045.88 570.344 1044.31 575.25 1041.27 579.308C1041.77 578.378 1047.65 582.335 1048.17 582.81C1050.09 584.498 1051.52 586.646 1052.31 589.037C1052.6 590.128 1052.65 591.269 1052.45 592.38C1052.24 593.491 1051.79 594.546 1051.12 595.472C1050.45 596.397 1049.59 597.171 1048.58 597.74C1047.57 598.309 1046.44 598.659 1045.28 598.766C1049.18 600.282 1052.55 602.839 1054.99 606.138C1056.18 607.806 1056.9 609.74 1057.09 611.754C1057.27 613.768 1056.92 615.795 1056.07 617.64C1053.54 622.375 1047.56 624.126 1042.24 625.402C1043.89 627.116 1045.1 629.187 1045.76 631.443C1046.42 633.699 1046.52 636.075 1046.04 638.374C1045.45 640.665 1044.04 642.684 1042.08 644.085C1040.11 645.486 1037.69 646.18 1035.25 646.049C1037.85 647.629 1039.86 649.965 1041 652.719C1042.13 655.473 1042.33 658.504 1041.57 661.376C1040.81 664.248 1039.12 666.813 1036.76 668.701C1034.39 670.589 1031.47 671.704 1028.41 671.885C1031.11 671.712 1033.15 677.16 1033.82 678.868C1035.07 681.981 1036.75 684.208 1038.3 687.365H1051.73C1065.47 687.365 1073.32 671.387 1063.92 661.702C1063.55 661.305 1063.15 660.93 1062.74 660.577C1078.72 654.524 1077.73 632.471 1067.95 628.039C1082.74 617.856 1082.63 591.437 1063.83 585.772C1076.81 573.211 1072.78 546.164 1054.08 544.478C1058.66 533.387 1056.31 518.188 1041.65 515.378C1046.33 501.779 1033.28 492.331 1020.21 497.217C1019.65 482.883 998.618 482.083 993.873 492.158C994.142 486.601 985.525 476.31 979.998 476.289C989.531 469.089 986.913 454.669 978.722 452.723C989.912 444.55 983.892 425.957 970.598 426.13C977.67 415.32 967.151 404.207 956.61 402.154C960.437 406.283 963.906 411.774 961.086 417.439C958.58 422.52 951.821 423.406 947.345 425.546C957.998 429.027 962.877 439.362 954.954 448.42C965.809 449.739 967.218 463.684 962.877 469.327C960.191 467.165 954.663 466.603 950.613 467.338C945.152 468.332 942.22 470.992 937.319 476.289C947.166 469.154 956.991 482.948 950.836 491.055Z" fill="#6CA271"/>
<path d="M195.4 538.165C-4.87882 649.854 -4.85645 830.943 195.4 942.632C395.656 1054.32 720.367 1054.32 920.624 942.632C1120.88 830.943 1120.88 649.832 920.624 538.143C720.367 426.454 395.656 426.476 195.4 538.165Z" fill="#23B851"/>
<path opacity="0.7" d="M195.4 538.165C-4.87882 649.854 -4.85645 830.943 195.4 942.632C395.656 1054.32 720.367 1054.32 920.624 942.632C1120.88 830.943 1120.88 649.832 920.624 538.143C720.367 426.454 395.656 426.476 195.4 538.165Z" fill="white"/>
<g opacity="0.4">
<path d="M311.977 913.056C311.416 911.215 310.531 909.482 309.359 907.932C308.605 907.016 307.766 906.17 306.852 905.402C306.27 904.927 305.375 904.105 304.614 904.321C304.368 904.321 304.368 904.84 304.502 904.992C305.04 905.705 305.868 906.181 306.36 906.937C306.735 907.623 307.028 908.349 307.233 909.099C307.981 910.94 308.58 912.833 309.023 914.764C309.392 916.541 309.638 918.339 309.762 920.147C309.762 921.034 309.896 921.898 310.008 922.806C310.116 923.635 310.326 924.448 310.635 925.228C310.635 925.509 311.216 926.006 311.53 925.66C312.931 923.787 313.532 921.464 313.208 919.174C313.1 917.089 312.686 915.029 311.977 913.056Z" fill="#23B851"/>
<path d="M318.826 885.577C314.865 890.29 314.842 897.122 314.797 902.873C314.797 906.375 314.797 909.878 314.909 913.38C314.707 917.139 315.038 920.907 315.894 924.579C316.028 924.968 316.856 925.768 317.147 925.033C318.289 921.963 317.863 917.899 317.931 914.656C317.998 911.413 317.931 907.781 317.931 904.343C317.908 901.231 318.065 898.12 318.401 895.025C318.759 892.106 319.43 889.231 319.81 886.377C319.833 886.031 319.229 885.101 318.826 885.577Z" fill="#23B851"/>
<path d="M328.046 904.17C326.009 904.538 324.532 906.808 323.57 908.494C322.769 910.01 322.16 911.615 321.757 913.272C321.31 915.142 321.018 917.043 320.884 918.958C320.353 921.014 320.657 923.188 321.735 925.033C321.914 925.228 322.384 925.487 322.652 925.271C324.174 924.039 323.794 921.596 323.928 919.844C324.069 917.919 324.346 916.005 324.756 914.115C325.152 912.5 325.699 910.922 326.39 909.402C327.257 908.002 327.949 906.507 328.449 904.948C328.516 904.667 328.427 904.105 328.046 904.17Z" fill="#23B851"/>
<path d="M784.979 912.213C784.479 910.577 783.684 909.04 782.629 907.672C781.96 906.881 781.211 906.156 780.391 905.51C779.876 905.078 779.07 904.365 778.332 904.559C778.108 904.559 778.131 905.013 778.332 905.143C778.824 905.77 779.54 906.202 779.966 906.872C780.298 907.457 780.568 908.073 780.771 908.71C781.428 910.347 781.952 912.032 782.338 913.748C782.663 915.325 782.888 916.921 783.009 918.526C783.009 919.326 783.121 920.082 783.211 920.882C783.328 921.618 783.516 922.342 783.77 923.044C783.77 923.282 784.285 923.714 784.576 923.433C785.831 921.77 786.361 919.698 786.053 917.661C785.966 915.805 785.604 913.97 784.979 912.213Z" fill="#23B851"/>
<path d="M791.044 887.825C787.53 891.998 787.508 898.073 787.463 903.24C787.463 906.332 787.463 909.445 787.575 912.559C787.391 915.897 787.685 919.243 788.448 922.504C788.56 922.85 789.298 923.563 789.544 922.915C790.27 919.898 790.504 916.791 790.238 913.704C790.238 910.656 790.238 907.586 790.238 904.538C790.23 901.772 790.38 899.007 790.686 896.257C790.977 893.663 791.603 891.112 791.917 888.539C791.939 888.214 791.402 887.393 791.044 887.825Z" fill="#23B851"/>
<path d="M799.235 904.321C797.422 904.667 796.101 906.656 795.296 908.126C794.585 909.5 794.051 910.952 793.707 912.45C793.302 914.113 793.04 915.805 792.923 917.51C792.435 919.328 792.7 921.26 793.662 922.893C793.819 923.066 794.244 923.304 794.49 923.109C795.833 922.007 795.497 919.866 795.609 918.309C795.73 916.594 795.976 914.889 796.348 913.207C796.705 911.775 797.2 910.378 797.825 909.034C798.581 907.788 799.182 906.46 799.615 905.078C799.66 904.775 799.57 904.256 799.235 904.321Z" fill="#23B851"/>
<path d="M587.274 961.96C587.79 960.3 588.592 958.736 589.646 957.334C590.322 956.516 591.071 955.756 591.884 955.063C592.421 954.609 593.227 953.874 593.988 954.069C594.211 954.069 594.189 954.545 593.988 954.674C593.495 955.323 592.757 955.755 592.309 956.447C591.981 957.041 591.711 957.664 591.503 958.306C590.839 959.98 590.308 961.7 589.914 963.452C589.571 965.049 589.339 966.667 589.221 968.295C589.221 969.116 589.109 969.895 589.019 970.716C588.903 971.454 588.708 972.179 588.437 972.878C588.437 973.138 587.923 973.57 587.632 973.268C586.359 971.579 585.821 969.476 586.132 967.408C586.244 965.549 586.628 963.715 587.274 961.96Z" fill="#23B851"/>
<path d="M581.097 937.14C584.677 941.464 584.7 947.561 584.745 952.815C584.745 955.993 584.745 959.15 584.745 962.306C584.922 965.71 584.621 969.121 583.849 972.446C583.738 972.813 582.977 973.527 582.73 972.857C581.987 969.792 581.745 966.633 582.014 963.495C582.014 960.382 582.014 957.269 582.014 954.155C582.034 951.339 581.884 948.523 581.567 945.724C581.253 943.086 580.649 940.492 580.313 937.854C580.179 937.551 580.739 936.708 581.097 937.14Z" fill="#23B851"/>
<path d="M572.749 953.939C574.584 954.285 575.927 956.317 576.755 957.809C577.474 959.183 578.022 960.635 578.389 962.133C578.795 963.825 579.057 965.546 579.172 967.279C579.676 969.128 579.402 971.094 578.411 972.749C578.254 972.943 577.829 973.181 577.583 972.986C576.218 971.862 576.554 969.657 576.442 968.079C576.312 966.334 576.058 964.6 575.681 962.89C575.331 961.407 574.837 959.959 574.204 958.566C573.417 957.304 572.793 955.953 572.346 954.545C572.324 954.393 572.391 953.874 572.749 953.939Z" fill="#23B851"/>
<path d="M108.208 702.866C108.697 701.314 109.454 699.852 110.446 698.542C111.083 697.759 111.795 697.035 112.572 696.38C113.086 695.969 113.847 695.277 114.541 695.45C114.765 695.45 114.743 695.904 114.541 696.034C114.071 696.64 113.4 697.029 112.975 697.677C112.653 698.239 112.397 698.833 112.214 699.45C111.575 701.016 111.066 702.628 110.692 704.271C110.383 705.778 110.173 707.301 110.065 708.833C110.065 709.611 110.065 710.347 109.864 710.995C109.771 711.733 109.591 712.459 109.327 713.157C109.327 713.395 108.834 713.806 108.566 713.525C107.366 711.928 106.852 709.944 107.133 707.99C107.241 706.242 107.602 704.517 108.208 702.866Z" fill="#23B851"/>
<path d="M102.389 679.473C105.746 683.495 105.768 689.31 105.813 694.261C105.813 697.223 105.813 700.207 105.813 703.19C105.97 706.391 105.684 709.598 104.962 712.725C104.962 713.071 104.157 713.741 103.911 713.114C103.215 710.225 102.989 707.249 103.239 704.293C103.239 701.353 103.239 698.434 103.239 695.494C103.25 692.844 103.116 690.195 102.836 687.559C102.523 685.073 101.941 682.651 101.628 680.165C101.516 679.862 102.053 679.062 102.389 679.473Z" fill="#23B851"/>
<path d="M94.5333 695.299C96.2565 695.623 97.5322 697.461 98.3155 698.953C98.9873 700.245 99.4981 701.609 99.8373 703.017C100.229 704.608 100.476 706.228 100.576 707.86C101.046 709.607 100.789 711.462 99.8597 713.027C99.7254 713.179 99.3226 713.417 99.0988 713.222C97.8008 712.163 98.1141 710.109 98.0022 708.617C97.8875 706.974 97.6482 705.34 97.286 703.731C96.9622 702.356 96.4974 701.017 95.8985 699.731C95.1708 698.53 94.5853 697.254 94.1528 695.926C94.1304 695.732 94.1976 695.234 94.5333 695.299Z" fill="#23B851"/>
<path d="M456.395 851.568C455.925 850.009 455.166 848.544 454.157 847.244C453.529 846.461 452.825 845.737 452.054 845.082C451.584 844.672 450.823 843.98 450.129 844.174C449.928 844.174 449.95 844.607 450.129 844.737C450.673 845.243 451.188 845.777 451.673 846.336C451.989 846.883 452.237 847.463 452.412 848.066C453.036 849.603 453.53 851.187 453.889 852.801C454.209 854.269 454.418 855.757 454.516 857.255C454.516 858.011 454.516 858.746 454.717 859.417C454.819 860.111 454.999 860.792 455.254 861.449C455.254 861.665 455.724 862.076 455.993 861.795C457.167 860.237 457.665 858.297 457.38 856.39C457.281 854.747 456.95 853.125 456.395 851.568Z" fill="#23B851"/>
<path d="M462.103 828.694C458.79 832.629 458.79 838.315 458.79 843.18C458.79 846.099 458.79 849.017 458.79 851.828C458.626 854.956 458.905 858.091 459.618 861.146C459.73 861.47 460.424 862.141 460.648 861.535C461.326 858.702 461.545 855.785 461.297 852.887C461.297 850.012 461.297 847.136 461.297 844.239C461.278 841.647 461.405 839.056 461.677 836.478C461.968 834.056 462.55 831.656 462.863 829.235C462.931 829.084 462.438 828.305 462.103 828.694Z" fill="#23B851"/>
<path d="M469.779 844.174C468.078 844.477 466.847 846.336 466.086 847.742C465.428 849.007 464.925 850.342 464.586 851.72C464.206 853.276 463.959 854.86 463.848 856.455C463.397 858.16 463.654 859.968 464.564 861.492C464.698 861.665 465.101 861.881 465.325 861.708C466.601 860.671 466.265 858.66 466.377 857.19C466.497 855.584 466.728 853.987 467.071 852.412C467.401 851.07 467.858 849.76 468.436 848.498C469.162 847.333 469.733 846.083 470.137 844.78C470.181 844.585 470.092 844.11 469.779 844.174Z" fill="#23B851"/>
<path d="M1013.21 703.277C1012.69 701.578 1011.87 699.982 1010.77 698.564C1010.11 697.717 1009.36 696.935 1008.53 696.229C1007.97 695.775 1007.17 695.018 1006.29 695.213C1006.07 695.213 1006.09 695.688 1006.29 695.84C1006.79 696.488 1007.55 696.921 1008 697.634C1008.34 698.246 1008.62 698.891 1008.82 699.558C1009.51 701.257 1010.06 703.007 1010.46 704.79C1010.81 706.43 1011.04 708.091 1011.15 709.763C1011.15 710.584 1011.29 711.406 1011.37 712.228C1011.49 712.965 1011.69 713.689 1011.96 714.39C1011.96 714.649 1012.49 715.103 1012.78 714.779C1014.1 713.05 1014.65 710.89 1014.33 708.768C1014.22 706.897 1013.84 705.05 1013.21 703.277Z" fill="#23B851"/>
<path d="M1019.52 677.895C1015.87 682.219 1015.85 688.554 1015.81 693.937C1015.81 697.158 1015.81 700.423 1015.92 703.644C1015.72 707.12 1016.02 710.605 1016.81 714C1016.95 714.368 1017.71 715.103 1017.98 714.433C1018.73 711.289 1018.97 708.05 1018.69 704.834C1018.69 701.655 1018.69 698.477 1018.69 695.278C1018.68 692.389 1018.83 689.502 1019.14 686.63C1019.48 683.927 1020.1 681.268 1020.44 678.587C1020.53 678.306 1019.9 677.441 1019.52 677.895Z" fill="#23B851"/>
<path d="M1028.07 695.061C1026.17 695.429 1024.8 697.504 1023.95 699.039C1023.23 700.414 1022.67 701.865 1022.3 703.363C1021.87 705.096 1021.6 706.861 1021.49 708.639C1020.98 710.532 1021.27 712.542 1022.27 714.238C1022.43 714.411 1022.88 714.671 1023.1 714.454C1024.51 713.309 1024.18 711.06 1024.29 709.46C1024.41 707.671 1024.68 705.894 1025.07 704.142C1025.42 702.656 1025.93 701.208 1026.57 699.818C1027.37 698.517 1028.01 697.131 1028.47 695.688C1028.5 695.537 1028.43 694.996 1028.07 695.061Z" fill="#23B851"/>
</g>
<path d="M966.457 459.879C985.212 473.24 1071.15 471.403 1090.51 459.879C1092.21 452.658 1091.34 436.529 1088.65 415.342L1065.6 427.319L1086.46 399.105C1083.42 378.566 1079.16 354.871 1074.19 330.591L1059.92 338.267L1072.11 320.581C1071.14 316.012 1070.17 311.458 1069.18 306.918L1052.89 314.636L1066.88 296.583C1062.71 278.228 1058.3 260.24 1053.87 243.744L1040.89 247.398C1040.89 247.398 1045.77 240.328 1050.92 232.999C1046.44 216.741 1041.83 202.32 1037.49 190.883C1036.82 189.079 1035.59 187.519 1033.96 186.417C1032.34 185.314 1030.4 184.722 1028.42 184.722C1026.43 184.722 1024.49 185.314 1022.87 186.417C1021.25 187.519 1020.01 189.079 1019.34 190.883C1013.59 206.255 1007.32 227.14 1001.19 250.554L1012.67 269.191L999.244 257.797C996.469 268.607 993.739 279.893 991.12 291.308L1009.54 323.133L987.36 308.128C983.668 324.927 980.266 341.791 977.267 357.854L995.283 375.15L975.275 368.945C974.917 370.913 974.581 372.859 974.246 374.761L992.709 398.781L972.075 387.971C966.681 422.325 964.085 449.804 966.457 459.879Z" fill="#6CA271"/>
<path d="M1023.93 382.782L997.767 335.218L1024.38 366.74L1028.47 219.075L1031.72 308.885L1050.36 282.941L1032.3 325.186L1035.54 416.207L1071.04 384.577L1035.97 429.373L1038.95 593.491C1038.95 598.788 1020.3 598.788 1020.3 593.491L1023.93 382.782Z" fill="#F0F0F0"/>
<path d="M528.167 326.83C544.572 338.526 619.702 336.905 636.621 326.83C638.098 320.517 637.337 306.42 635.01 287.914L614.868 298.378L633.107 273.709C630.444 255.743 626.729 235.031 622.365 213.8L609.966 220.524L620.642 205.044C619.791 201.066 618.933 197.088 618.068 193.11L603.834 199.855L616.054 184.073C612.428 168.031 608.556 152.313 604.685 137.892L593.338 141.071C593.338 141.071 597.545 134.887 602.021 128.488C598.038 114.283 594.077 101.679 590.317 91.7338C589.727 90.1585 588.648 88.7972 587.229 87.835C585.809 86.8729 584.117 86.3567 582.383 86.3567C580.649 86.3567 578.957 86.8729 577.537 87.835C576.118 88.7972 575.039 90.1585 574.449 91.7338C569.436 105.181 563.975 123.45 558.582 143.903L568.653 160.204L556.97 150.237C554.553 159.685 552.159 169.544 549.876 179.533L565.99 207.336L546.586 194.256C543.363 208.936 540.387 223.659 537.634 237.777L553.3 252.911L535.821 247.484C535.508 249.214 535.217 250.9 534.926 252.565L551.062 273.558L533.024 264.024C528.458 294.032 526.176 318.03 528.167 326.83Z" fill="#6CA271"/>
<path d="M708.148 321.468C725.783 334.007 806.62 332.278 824.747 321.468C826.023 316.171 825.799 305.772 824.456 292L803.442 299.329L822.957 279.071C820.719 261.364 817.205 239.96 812.886 217.368L801.025 222.146L811.342 209.498C810.916 207.336 810.446 205.044 809.999 202.817L781.8 216.676L806.194 184.592C802.412 166.971 798.317 149.329 794.131 132.812L775.802 147.578L791.647 123.364C790.506 119.04 789.409 114.716 788.178 110.392L772.11 118.91L785.381 100.101C781.867 88.0583 778.376 77.3348 775.086 68.5355C774.454 66.8407 773.296 65.3756 771.77 64.34C770.244 63.3045 768.424 62.7488 766.559 62.7488C764.694 62.7488 762.875 63.3045 761.349 64.34C759.823 65.3756 758.665 66.8407 758.033 68.5355C753.087 81.7453 747.782 99.2142 742.367 118.91C746.977 129.244 750.625 137.309 750.625 137.309L738.942 132.098C737.644 137.114 736.391 142.238 735.138 147.448C740.778 163.88 747.492 184.44 747.492 184.873C747.133 184.224 738.965 170.106 732.385 158.734C716.562 227.01 703.895 303.502 708.148 321.468Z" fill="#6CA271"/>
<path d="M762.173 248.976L737.555 204.223L762.576 233.864L766.447 95.1281L769.446 179.446L786.97 155.015L769.983 194.71L773.027 280.26L806.418 250.533L773.475 292.713L776.272 469.522C776.272 474.516 758.771 474.516 758.771 469.522L762.173 248.998V248.976Z" fill="#F0F0F0"/>
<path d="M154.824 322.873C170.826 334.289 244.143 332.689 260.682 322.873C261.623 316.425 261.728 309.889 260.995 303.415L235.997 314.485L259.898 291.611C258.489 278.639 256.139 263.137 253.184 246.209L244.053 250.965L252.379 241.668C250.656 232.134 248.753 222.21 246.694 212.2L231.812 223.767L245.083 204.525C244.658 202.363 244.21 200.353 243.762 198.277L223.419 214.514L240.652 184.246C237.474 170.214 234.117 156.421 230.76 143.535L217.466 153.286C217.802 152.745 223.083 144.011 228.41 134.93C223.934 118.845 219.637 104.662 215.519 93.5931C214.943 92.0559 213.89 90.7277 212.505 89.7889C211.119 88.8502 209.468 88.3466 207.775 88.3466C206.083 88.3466 204.432 88.8502 203.046 89.7889C201.661 90.7277 200.608 92.0559 200.032 93.5931C196.115 104.057 191.93 117.375 187.745 132.509L195.869 149.805L186.179 138.368C183.583 148.054 180.987 158.345 178.48 168.896L195.869 205.909L175.28 182.278C174.966 183.727 174.608 185.197 174.317 186.602L182.687 205.714L172.952 192.742C169.416 208.871 166.238 225.172 163.374 240.436L187.477 268.542L161.382 251.7C160.777 255.246 160.218 258.727 159.658 262.121L171.9 275.201L158.226 271.396C154.578 296.043 153.034 315.263 154.824 322.873Z" fill="#6CA271"/>
<path opacity="0.15" d="M154.824 322.873C170.826 334.289 244.143 332.689 260.682 322.873C261.623 316.425 261.728 309.889 260.995 303.415L235.997 314.485L259.898 291.611C258.489 278.639 256.139 263.137 253.184 246.209L244.053 250.965L252.379 241.668C250.656 232.134 248.753 222.21 246.694 212.2L231.812 223.767L245.083 204.525C244.658 202.363 244.21 200.353 243.762 198.277L223.419 214.514L240.652 184.246C237.474 170.214 234.117 156.421 230.76 143.535L217.466 153.286C217.802 152.745 223.083 144.011 228.41 134.93C223.934 118.845 219.637 104.662 215.519 93.5931C214.943 92.0559 213.89 90.7277 212.505 89.7889C211.119 88.8502 209.468 88.3466 207.775 88.3466C206.083 88.3466 204.432 88.8502 203.046 89.7889C201.661 90.7277 200.608 92.0559 200.032 93.5931C196.115 104.057 191.93 117.375 187.745 132.509L195.869 149.805L186.179 138.368C183.583 148.054 180.987 158.345 178.48 168.896L195.869 205.909L175.28 182.278C174.966 183.727 174.608 185.197 174.317 186.602L182.687 205.714L172.952 192.742C169.416 208.871 166.238 225.172 163.374 240.436L187.477 268.542L161.382 251.7C160.777 255.246 160.218 258.727 159.658 262.121L171.9 275.201L158.226 271.396C154.578 296.043 153.034 315.263 154.824 322.873Z" fill="black"/>
<path d="M203.881 257.105L181.501 216.503L204.217 243.398L207.708 117.44L210.439 194.083L226.329 171.901L210.976 207.92L213.729 285.557L243.942 258.597L214.042 296.864L216.593 516.091C216.593 520.61 200.704 520.61 200.704 516.091L203.881 257.105Z" fill="#6CA271"/>
<path d="M39.836 444.421C58.2772 455.404 140.233 457.133 158.114 444.421C159.748 437.502 158.898 422.001 156.346 401.656L133.161 411.213L154.534 388.274C152.475 374.329 149.834 358.762 146.768 342.504L132.556 348.514L145.828 337.704C145.112 333.928 144.366 330.123 143.59 326.289L119.889 339.434L141.195 314.485C138.554 301.837 135.734 289.124 132.803 276.693L120.561 283.049L130.565 266.423C127.521 254.316 121.613 232.61 118.636 221.973L106.17 231.529L116.711 215.4C113.623 205.023 110.534 195.748 107.625 187.921C106.982 186.203 105.807 184.719 104.259 183.67C102.711 182.62 100.866 182.057 98.9752 182.057C97.0843 182.057 95.2394 182.62 93.6916 183.67C92.1438 184.719 90.9684 186.203 90.3253 187.921C85.8493 199.834 81.0824 215.206 76.3378 232.502L86.006 253.732L73.1375 244.306C69.8029 257.062 66.4235 270.596 63.2903 284.433L79.5158 323.933L60.0676 298.81C58.9262 304.085 57.8296 309.382 56.6882 314.658L68.2363 336.58L55.0097 322.852C51.8317 338.504 48.9671 353.833 46.55 368.145L73.0256 408.294L44.3792 381.831C43.6854 386.155 43.0811 390.349 42.5216 394.371L62.4846 418.044L40.955 406.91C38.8961 424.747 38.3366 438.129 39.836 444.421Z" fill="#6CA271"/>
<path d="M68.2363 346.504L93.0781 380.512L95.6742 307.242L82.2462 263.44L96.2337 293.297L99.0312 214.773L102.187 328.062L116.13 311.977L102.702 342.937L104.492 407.234L133.317 379.539L104.85 426.065L106.752 585.902C106.752 590.961 89.005 590.961 89.005 585.902L92.2948 402.413L68.2363 346.504Z" fill="#F0F0F0"/>
<path d="M380.46 302.853C396.372 312.301 466.936 313.814 482.333 302.853C483.721 296.929 483.027 283.784 480.879 266.488L460.848 277.882L478.976 252.651C476.917 238.771 474.187 223.118 470.987 206.925L457.312 215.984L469.286 198.299C468.905 196.461 468.547 194.645 468.144 192.807L451.404 203.228L465.996 182.797C462.997 168.852 459.774 154.907 456.44 141.719L437.976 153.502L454.314 133.114C453.374 129.547 452.456 126.066 451.516 122.65L438.088 132.487L449.278 114.651C445.72 102.068 442.184 90.8689 438.849 81.9614C438.296 80.4804 437.284 79.2002 435.95 78.2953C434.616 77.3903 433.026 76.9048 431.396 76.9048C429.767 76.9048 428.176 77.3903 426.843 78.2953C425.509 79.2002 424.497 80.4804 423.944 81.9614C421.124 89.4636 418.17 98.544 415.171 108.727L421.751 125.396L413.604 114.586L413.492 114.435C409.016 130.001 404.54 147.686 400.445 165.89L411.12 202.644L396.864 182.04C394.156 194.58 391.65 207.228 389.412 219.292L404.898 269.45L385.652 240.587C380.773 270.25 378.401 294.27 380.46 302.853Z" fill="#6CA271"/>
<path opacity="0.15" d="M380.46 302.853C396.372 312.301 466.936 313.814 482.333 302.853C483.721 296.929 483.027 283.784 480.879 266.488L460.848 277.882L478.976 252.651C476.917 238.771 474.187 223.118 470.987 206.925L457.312 215.984L469.286 198.299C468.905 196.461 468.547 194.645 468.144 192.807L451.404 203.228L465.996 182.797C462.997 168.852 459.774 154.907 456.44 141.719L437.976 153.502L454.314 133.114C453.374 129.547 452.456 126.066 451.516 122.65L438.088 132.487L449.278 114.651C445.72 102.068 442.184 90.8689 438.849 81.9614C438.296 80.4804 437.284 79.2002 435.95 78.2953C434.616 77.3903 433.026 76.9048 431.396 76.9048C429.767 76.9048 428.176 77.3903 426.843 78.2953C425.509 79.2002 424.497 80.4804 423.944 81.9614C421.124 89.4636 418.17 98.544 415.171 108.727L421.751 125.396L413.604 114.586L413.492 114.435C409.016 130.001 404.54 147.686 400.445 165.89L411.12 202.644L396.864 182.04C394.156 194.58 391.65 207.228 389.412 219.292L404.898 269.45L385.652 240.587C380.773 270.25 378.401 294.27 380.46 302.853Z" fill="black"/>
<path d="M404.898 218.513L426.271 247.765L428.509 184.656L416.984 147.016L428.957 172.787L431.352 105.16L434.171 202.644L446.19 188.786L434.53 215.443L436.074 270.834L460.916 247.052L436.409 287.049L438.066 453.35C438.066 457.674 422.78 457.674 422.78 453.35L425.622 266.596L404.898 218.513Z" fill="#6CA271"/>
<path d="M865.457 342.05C883.025 352.492 960.975 354.157 977.983 342.05C979.505 335.564 978.767 320.992 976.372 301.902L954.238 314.485L974.268 286.595C972.03 271.266 968.987 253.992 965.451 236.09L950.344 246.1L963.571 226.642C963.145 224.61 962.743 222.599 962.317 220.567L943.876 232.156L960.102 209.519C956.789 194.126 953.231 178.733 949.561 164.117L929.15 177.089L947.054 154.54C946.025 150.605 944.995 146.749 943.966 142.973L929.061 153.783L941.526 134.087C937.587 120.186 933.671 107.841 929.978 97.9818C929.375 96.3408 928.26 94.9206 926.788 93.9162C925.315 92.9118 923.556 92.3726 921.754 92.3726C919.951 92.3726 918.192 92.9118 916.72 93.9162C915.247 94.9206 914.132 96.3408 913.529 97.9818C910.418 106.262 907.151 116.294 903.861 127.536L911.134 146L902.182 134.152L901.914 134.044C897.035 151.34 892.089 170.798 887.501 190.883L899.273 231.42L883.607 208.655C880.63 222.491 877.855 236.371 875.371 249.733L892.492 305.145L871.231 273.255C865.86 306.118 863.241 332.559 865.457 342.05Z" fill="#6CA271"/>
<path opacity="0.15" d="M865.457 342.05C883.025 352.492 960.975 354.157 977.983 342.05C979.505 335.564 978.767 320.992 976.372 301.902L954.238 314.485L974.268 286.595C972.03 271.266 968.987 253.992 965.451 236.09L950.344 246.1L963.571 226.642C963.145 224.61 962.743 222.599 962.317 220.567L943.876 232.156L960.102 209.519C956.789 194.126 953.231 178.733 949.561 164.117L929.15 177.089L947.054 154.54C946.025 150.605 944.995 146.749 943.966 142.973L929.061 153.783L941.526 134.087C937.587 120.186 933.671 107.841 929.978 97.9818C929.375 96.3408 928.26 94.9206 926.788 93.9162C925.315 92.9118 923.556 92.3726 921.754 92.3726C919.951 92.3726 918.192 92.9118 916.72 93.9162C915.247 94.9206 914.132 96.3408 913.529 97.9818C910.418 106.262 907.151 116.294 903.861 127.536L911.134 146L902.182 134.152L901.914 134.044C897.035 151.34 892.089 170.798 887.501 190.883L899.273 231.42L883.607 208.655C880.63 222.491 877.855 236.371 875.371 249.733L892.492 305.145L871.231 273.255C865.86 306.118 863.241 332.559 865.457 342.05Z" fill="black"/>
<path d="M892.514 248.911L916.125 281.211L918.609 211.508L905.853 169.847L919.079 198.299L921.72 123.623L924.719 231.334L937.99 216.027L925.122 245.473L926.823 306.636L954.238 280.282L927.382 324.538L929.195 508.308C929.195 513.107 912.32 513.107 912.32 508.308L915.454 302.031L892.514 248.911Z" fill="#6CA271"/>
<path d="M631.116 329.878C646.289 338.872 713.564 340.32 728.245 329.878C728.918 325.972 729.113 322.002 728.827 318.052L713.161 324.797L727.73 303.177C726.813 294.227 725.358 283.719 723.5 272.239L708.237 279.936L721.665 261.191C721.352 259.375 721.016 257.516 720.68 255.657L696.062 269.515L717.614 238.728C714.302 221.735 710.453 204.136 706.424 187.272L692.079 197.672L703.515 175.36C702.956 173.198 702.418 171.036 701.881 169.025L687.737 179.835L698.569 156.572C694.63 142.087 690.647 129.223 686.931 119.278C686.404 117.863 685.437 116.64 684.164 115.775C682.89 114.91 681.371 114.446 679.815 114.446C678.258 114.446 676.739 114.91 675.465 115.775C674.192 116.64 673.225 117.863 672.698 119.278C669.139 128.812 665.335 141.027 661.508 154.799L665.76 179.835L657.614 169.371C654.01 183.359 650.452 198.364 647.207 213.433L657.927 245.863L644.141 228.199C640.985 243.333 638.21 258.467 636.017 272.001L642.216 286.66L634.45 282.098C633.891 285.73 633.398 289.232 632.996 292.562L646.424 314.312L631.72 302.68C630.332 315.522 630.041 325.165 631.116 329.878Z" fill="#6CA271"/>
<path opacity="0.15" d="M631.116 329.878C646.289 338.872 713.564 340.32 728.245 329.878C728.918 325.972 729.113 322.002 728.827 318.052L713.161 324.797L727.73 303.177C726.813 294.227 725.358 283.719 723.5 272.239L708.237 279.936L721.665 261.191C721.352 259.375 721.016 257.516 720.68 255.657L696.062 269.515L717.614 238.728C714.302 221.735 710.453 204.136 706.424 187.272L692.079 197.672L703.515 175.36C702.956 173.198 702.418 171.036 701.881 169.025L687.737 179.835L698.569 156.572C694.63 142.087 690.647 129.223 686.931 119.278C686.404 117.863 685.437 116.64 684.164 115.775C682.89 114.91 681.371 114.446 679.815 114.446C678.258 114.446 676.739 114.91 675.465 115.775C674.192 116.64 673.225 117.863 672.698 119.278C669.139 128.812 665.335 141.027 661.508 154.799L665.76 179.835L657.614 169.371C654.01 183.359 650.452 198.364 647.207 213.433L657.927 245.863L644.141 228.199C640.985 243.333 638.21 258.467 636.017 272.001L642.216 286.66L634.45 282.098C633.891 285.73 633.398 289.232 632.996 292.562L646.424 314.312L631.72 302.68C630.332 315.522 630.041 325.165 631.116 329.878Z" fill="black"/>
<path d="M683.284 269.515L703.761 232.264L682.926 256.954L679.725 141.373L677.219 211.703L662.627 191.337L676.771 224.394L674.242 295.74L646.446 270.985L673.862 306.096L671.624 456.009C671.624 460.16 686.193 460.16 686.193 456.009L683.373 269.623L683.284 269.515Z" fill="#6CA271"/>
<path d="M300.026 331.283C314.528 339.931 378.938 341.293 392.993 331.283C394.067 326.743 393.776 317.468 392.478 305.166L378.065 307.826L391.493 296.605C390.866 291.827 390.15 286.725 389.255 281.471L362.556 291.697L388.002 273.471C385.294 257.062 381.78 238.879 377.819 220.567L357.162 236.523L375.984 211.876C374.35 204.59 372.649 197.347 370.926 190.256L354.141 200.396L368.934 182.149C367.323 175.836 365.711 169.717 364.1 163.88L354.141 174.409L360.855 152.14C358.326 143.665 355.842 136.055 353.469 129.72C352.961 128.369 352.034 127.201 350.815 126.376C349.596 125.551 348.143 125.109 346.655 125.109C345.166 125.109 343.714 125.551 342.495 126.376C341.275 127.201 340.349 128.369 339.84 129.72C335.879 140.292 331.604 154.324 327.374 170.128L334.916 185.759L325.024 179.143C321.869 191.467 318.78 204.525 315.893 217.692L331.067 247.96L313.32 229.367C311.999 235.701 310.724 241.993 309.56 248.176L319.362 262.402L308.06 255.916C305.621 269.191 303.584 281.86 302.063 292.8L317.729 316.928L300.205 307.804C299.198 318.852 299.041 327.089 300.026 331.283Z" fill="#6CA271"/>
<path d="M349.911 273.515L369.538 237.842L349.598 261.472L346.509 150.821L344.115 218.146L330.15 198.688L343.578 230.34L341.138 298.529L314.528 274.747L340.802 308.366L338.564 471.208C338.564 475.186 352.53 475.186 352.53 471.208L349.799 273.45L349.911 273.515Z" fill="#F0F0F0"/>
<path d="M195.4 538.165C-4.87882 649.854 -4.85645 830.943 195.4 942.632C395.656 1054.32 720.367 1054.32 920.624 942.632C1120.88 830.943 1120.88 649.832 920.624 538.143C720.367 426.455 395.656 426.476 195.4 538.165Z" fill="#23B851"/>
<path opacity="0.7" d="M195.4 538.165C-4.87882 649.854 -4.85645 830.943 195.4 942.632C395.656 1054.32 720.367 1054.32 920.624 942.632C1120.88 830.943 1120.88 649.832 920.624 538.143C720.367 426.455 395.656 426.476 195.4 538.165Z" fill="white"/>
<g opacity="0.4">
<path d="M311.977 913.056C311.416 911.215 310.531 909.482 309.359 907.932C308.605 907.016 307.766 906.17 306.852 905.402C306.27 904.927 305.375 904.105 304.614 904.321C304.368 904.321 304.368 904.84 304.502 904.992C305.04 905.705 305.868 906.181 306.36 906.937C306.735 907.624 307.028 908.349 307.233 909.099C307.981 910.94 308.58 912.834 309.023 914.764C309.392 916.541 309.638 918.339 309.762 920.147C309.762 921.034 309.896 921.898 310.008 922.806C310.116 923.635 310.326 924.448 310.635 925.228C310.635 925.509 311.216 926.006 311.53 925.66C312.931 923.787 313.532 921.464 313.208 919.174C313.1 917.089 312.686 915.029 311.977 913.056Z" fill="#23B851"/>
<path d="M318.826 885.577C314.865 890.29 314.842 897.122 314.797 902.873C314.797 906.375 314.797 909.878 314.909 913.38C314.707 917.139 315.038 920.907 315.894 924.579C316.028 924.969 316.856 925.768 317.147 925.033C318.289 921.963 317.863 917.899 317.931 914.656C317.998 911.413 317.931 907.781 317.931 904.343C317.908 901.231 318.065 898.12 318.401 895.025C318.759 892.106 319.43 889.231 319.81 886.377C319.833 886.031 319.229 885.101 318.826 885.577Z" fill="#23B851"/>
<path d="M328.046 904.17C326.009 904.538 324.532 906.808 323.57 908.494C322.769 910.01 322.16 911.615 321.757 913.272C321.31 915.142 321.018 917.043 320.884 918.958C320.353 921.014 320.657 923.188 321.735 925.033C321.914 925.228 322.384 925.487 322.652 925.271C324.174 924.039 323.794 921.596 323.928 919.845C324.069 917.919 324.346 916.005 324.756 914.115C325.152 912.5 325.699 910.922 326.39 909.402C327.257 908.002 327.949 906.507 328.449 904.948C328.516 904.667 328.427 904.105 328.046 904.17Z" fill="#23B851"/>
<path d="M784.979 912.213C784.479 910.577 783.684 909.04 782.629 907.673C781.96 906.881 781.211 906.156 780.391 905.511C779.876 905.078 779.07 904.365 778.332 904.559C778.108 904.559 778.131 905.013 778.332 905.143C778.824 905.77 779.54 906.202 779.966 906.873C780.298 907.457 780.568 908.073 780.771 908.71C781.428 910.348 781.952 912.032 782.338 913.748C782.663 915.326 782.888 916.921 783.009 918.526C783.009 919.326 783.121 920.082 783.211 920.882C783.328 921.618 783.516 922.342 783.77 923.044C783.77 923.282 784.285 923.715 784.576 923.434C785.831 921.77 786.361 919.698 786.053 917.661C785.966 915.805 785.604 913.97 784.979 912.213Z" fill="#23B851"/>
<path d="M791.044 887.825C787.53 891.998 787.508 898.073 787.463 903.24C787.463 906.332 787.463 909.445 787.575 912.559C787.391 915.897 787.685 919.243 788.448 922.504C788.56 922.85 789.298 923.563 789.544 922.915C790.27 919.898 790.504 916.791 790.238 913.705C790.238 910.656 790.238 907.586 790.238 904.538C790.23 901.772 790.38 899.007 790.686 896.257C790.977 893.663 791.603 891.112 791.917 888.539C791.939 888.215 791.402 887.393 791.044 887.825Z" fill="#23B851"/>
<path d="M799.235 904.321C797.422 904.667 796.101 906.656 795.296 908.127C794.585 909.5 794.051 910.952 793.707 912.451C793.302 914.113 793.04 915.805 792.923 917.51C792.435 919.329 792.7 921.26 793.662 922.893C793.819 923.066 794.244 923.304 794.49 923.109C795.833 922.007 795.497 919.866 795.609 918.31C795.73 916.594 795.976 914.889 796.348 913.207C796.705 911.775 797.2 910.378 797.825 909.035C798.581 907.789 799.182 906.461 799.615 905.078C799.66 904.776 799.57 904.257 799.235 904.321Z" fill="#23B851"/>
<path d="M587.274 961.96C587.79 960.301 588.592 958.736 589.646 957.334C590.322 956.516 591.071 955.756 591.884 955.064C592.421 954.61 593.227 953.875 593.988 954.069C594.211 954.069 594.189 954.545 593.988 954.675C593.495 955.323 592.757 955.756 592.309 956.447C591.981 957.042 591.711 957.664 591.503 958.307C590.839 959.98 590.308 961.701 589.914 963.452C589.571 965.05 589.339 966.668 589.221 968.295C589.221 969.117 589.109 969.895 589.019 970.717C588.903 971.455 588.708 972.179 588.437 972.879C588.437 973.138 587.923 973.57 587.632 973.268C586.359 971.579 585.821 969.476 586.132 967.409C586.244 965.55 586.628 963.715 587.274 961.96Z" fill="#23B851"/>
<path d="M581.097 937.141C584.677 941.465 584.7 947.561 584.745 952.815C584.745 955.993 584.745 959.15 584.745 962.306C584.922 965.71 584.621 969.121 583.849 972.446C583.738 972.814 582.977 973.527 582.73 972.857C581.987 969.792 581.745 966.633 582.014 963.495C582.014 960.382 582.014 957.269 582.014 954.156C582.034 951.339 581.884 948.524 581.567 945.724C581.253 943.086 580.649 940.492 580.313 937.854C580.179 937.551 580.739 936.708 581.097 937.141Z" fill="#23B851"/>
<path d="M572.749 953.939C574.584 954.285 575.927 956.318 576.755 957.809C577.474 959.184 578.022 960.635 578.389 962.133C578.795 963.825 579.057 965.546 579.172 967.279C579.676 969.128 579.402 971.094 578.411 972.749C578.254 972.943 577.829 973.181 577.583 972.987C576.218 971.862 576.554 969.657 576.442 968.079C576.312 966.334 576.058 964.601 575.681 962.89C575.331 961.407 574.837 959.959 574.204 958.566C573.417 957.304 572.793 955.953 572.346 954.545C572.324 954.393 572.391 953.875 572.749 953.939Z" fill="#23B851"/>
<path d="M108.208 702.866C108.697 701.314 109.454 699.852 110.446 698.542C111.083 697.759 111.795 697.035 112.572 696.38C113.086 695.969 113.847 695.278 114.541 695.451C114.765 695.451 114.743 695.905 114.541 696.034C114.071 696.64 113.4 697.029 112.975 697.677C112.653 698.239 112.397 698.833 112.214 699.45C111.575 701.016 111.066 702.628 110.692 704.271C110.383 705.778 110.173 707.301 110.065 708.833C110.065 709.612 110.065 710.347 109.864 710.995C109.771 711.733 109.591 712.459 109.327 713.157C109.327 713.395 108.834 713.806 108.566 713.525C107.366 711.928 106.852 709.945 107.133 707.99C107.241 706.242 107.602 704.517 108.208 702.866Z" fill="#23B851"/>
<path d="M102.389 679.473C105.746 683.495 105.768 689.31 105.813 694.261C105.813 697.223 105.813 700.207 105.813 703.191C105.97 706.391 105.684 709.598 104.962 712.725C104.962 713.071 104.157 713.741 103.911 713.114C103.215 710.225 102.989 707.249 103.239 704.293C103.239 701.353 103.239 698.434 103.239 695.494C103.25 692.844 103.116 690.195 102.836 687.559C102.523 685.073 101.941 682.652 101.628 680.165C101.516 679.863 102.053 679.063 102.389 679.473Z" fill="#23B851"/>
<path d="M94.5333 695.299C96.2565 695.624 97.5322 697.461 98.3155 698.953C98.9873 700.245 99.4981 701.609 99.8373 703.018C100.229 704.608 100.476 706.228 100.576 707.86C101.046 709.607 100.789 711.462 99.8597 713.028C99.7254 713.179 99.3226 713.417 99.0988 713.222C97.8008 712.163 98.1141 710.109 98.0022 708.617C97.8875 706.974 97.6482 705.341 97.286 703.731C96.9622 702.357 96.4974 701.017 95.8985 699.731C95.1708 698.53 94.5853 697.254 94.1528 695.926C94.1304 695.732 94.1976 695.234 94.5333 695.299Z" fill="#23B851"/>
<path d="M456.395 851.569C455.925 850.009 455.166 848.544 454.157 847.245C453.529 846.461 452.825 845.737 452.054 845.083C451.584 844.672 450.823 843.98 450.129 844.175C449.928 844.175 449.95 844.607 450.129 844.737C450.673 845.243 451.188 845.777 451.673 846.337C451.989 846.883 452.237 847.463 452.412 848.066C453.036 849.603 453.53 851.187 453.889 852.801C454.209 854.269 454.418 855.757 454.516 857.255C454.516 858.011 454.516 858.746 454.717 859.417C454.819 860.111 454.999 860.792 455.254 861.449C455.254 861.665 455.724 862.076 455.993 861.795C457.167 860.237 457.665 858.297 457.38 856.39C457.281 854.747 456.95 853.125 456.395 851.569Z" fill="#23B851"/>
<path d="M462.103 828.695C458.79 832.629 458.79 838.316 458.79 843.18C458.79 846.099 458.79 849.017 458.79 851.828C458.626 854.956 458.905 858.091 459.618 861.146C459.73 861.471 460.424 862.141 460.648 861.535C461.326 858.702 461.545 855.785 461.297 852.887C461.297 850.012 461.297 847.136 461.297 844.239C461.278 841.647 461.405 839.056 461.677 836.478C461.968 834.056 462.55 831.657 462.863 829.235C462.931 829.084 462.438 828.305 462.103 828.695Z" fill="#23B851"/>
<path d="M469.779 844.175C468.078 844.477 466.847 846.337 466.086 847.742C465.428 849.007 464.925 850.342 464.586 851.72C464.206 853.276 463.959 854.86 463.848 856.455C463.397 858.16 463.654 859.968 464.564 861.492C464.698 861.665 465.101 861.881 465.325 861.708C466.601 860.671 466.265 858.66 466.377 857.19C466.497 855.584 466.728 853.988 467.071 852.412C467.401 851.07 467.858 849.76 468.436 848.499C469.162 847.333 469.733 846.083 470.137 844.78C470.181 844.585 470.092 844.11 469.779 844.175Z" fill="#23B851"/>
<path d="M1013.21 703.277C1012.69 701.578 1011.87 699.982 1010.77 698.564C1010.11 697.717 1009.36 696.935 1008.53 696.229C1007.97 695.775 1007.17 695.018 1006.29 695.213C1006.07 695.213 1006.09 695.688 1006.29 695.84C1006.79 696.488 1007.55 696.921 1008 697.634C1008.34 698.246 1008.62 698.891 1008.82 699.558C1009.51 701.257 1010.06 703.007 1010.46 704.79C1010.81 706.43 1011.04 708.092 1011.15 709.763C1011.15 710.585 1011.29 711.406 1011.37 712.228C1011.49 712.965 1011.69 713.689 1011.96 714.39C1011.96 714.649 1012.49 715.103 1012.78 714.779C1014.1 713.05 1014.65 710.89 1014.33 708.768C1014.22 706.897 1013.84 705.05 1013.21 703.277Z" fill="#23B851"/>
<path d="M1019.52 677.895C1015.87 682.219 1015.85 688.554 1015.81 693.937C1015.81 697.159 1015.81 700.423 1015.92 703.645C1015.72 707.12 1016.02 710.605 1016.81 714.001C1016.95 714.368 1017.71 715.103 1017.98 714.433C1018.73 711.289 1018.97 708.05 1018.69 704.834C1018.69 701.656 1018.69 698.477 1018.69 695.278C1018.68 692.389 1018.83 689.503 1019.14 686.63C1019.48 683.927 1020.1 681.268 1020.44 678.587C1020.53 678.306 1019.9 677.441 1019.52 677.895Z" fill="#23B851"/>
<path d="M1028.07 695.061C1026.17 695.429 1024.8 697.504 1023.95 699.039C1023.23 700.414 1022.67 701.865 1022.3 703.363C1021.87 705.096 1021.6 706.861 1021.49 708.639C1020.98 710.532 1021.27 712.543 1022.27 714.238C1022.43 714.411 1022.88 714.671 1023.1 714.455C1024.51 713.309 1024.18 711.06 1024.29 709.46C1024.41 707.671 1024.68 705.894 1025.07 704.142C1025.42 702.657 1025.93 701.208 1026.57 699.818C1027.37 698.517 1028.01 697.131 1028.47 695.688C1028.5 695.537 1028.43 694.997 1028.07 695.061Z" fill="#23B851"/>
</g>
</svg>
