<svg width="4983" height="3322" viewBox="0 0 4983 3322" fill="none" xmlns="http://www.w3.org/2000/svg">
<path d="M1685.86 2893.74C1685.86 2893.74 1702.51 2906.03 1710.53 2906.23C1718.55 2906.43 1744.64 2898.79 1766.48 2898.32C1785.41 2897.86 1811.01 2909.42 1812.55 2914C1814.09 2918.59 1804.59 2922.44 1795.22 2924.7C1785.84 2926.96 1747.79 2932.34 1722.99 2924.7C1706.59 2919.72 1703.32 2915.6 1694.74 2918.45C1688.58 2920.58 1672.85 2930.35 1670.69 2926.89C1669.27 2924.63 1689.81 2910.88 1689.81 2910.88C1689.81 2910.88 1675.81 2892.61 1679.57 2891.55C1680.7 2891.27 1681.89 2891.33 1683 2891.71C1684.1 2892.1 1685.09 2892.8 1685.86 2893.74Z" fill="#E0E0E0"/>
<path d="M1526.61 2984.69C1532.67 2984.24 1538.7 2983.44 1544.68 2982.3C1550.46 2980.55 1556.5 2980.05 1562.46 2980.82C1568.42 2981.6 1574.18 2983.64 1579.4 2986.82C1603.14 3001.5 1630.06 3009.18 1657.43 3009.08C1673.02 3008.11 1688.45 3005.12 1703.38 3000.17C1714.3 2997.05 1715.16 2988.75 1705.91 2981.84C1698.95 2976.79 1691.45 2972.66 1683.58 2969.55C1658.59 2958.71 1630.97 2957.15 1605.06 2965.09C1585.08 2971.27 1564.11 2971.41 1549.55 2948.95C1547.27 2945.36 1541.84 2944.1 1537.89 2941.71C1537.03 2942.84 1536.17 2943.9 1535.24 2944.96L1545.85 2968.28L1525 2979.91C1525.56 2981.5 1526.11 2983.1 1526.61 2984.69Z" fill="#E0E0E0"/>
<path d="M3904.76 2765.38C3904.76 2765.38 3921.42 2777.67 3929.43 2777.87C3937.45 2778.07 3963.54 2770.42 3985.44 2769.96C4004.31 2769.49 4029.91 2781.06 4031.45 2785.64C4032.99 2790.22 4023.49 2794.08 4014.12 2796.4C4004.74 2798.73 3966.69 2803.98 3941.89 2796.4C3925.49 2791.42 3922.22 2787.37 3913.64 2790.22C3907.48 2792.28 3891.75 2802.05 3889.59 2798.66C3888.17 2796.34 3908.71 2782.65 3908.71 2782.65C3908.71 2782.65 3894.71 2764.31 3898.47 2763.25C3899.6 2762.96 3900.78 2763.01 3901.89 2763.39C3902.99 2763.76 3903.99 2764.45 3904.76 2765.38Z" fill="#E0E0E0"/>
<path d="M3745.45 2856.33C3751.51 2855.91 3757.54 2855.11 3763.52 2853.94C3769.3 2852.19 3775.34 2851.69 3781.3 2852.46C3787.26 2853.24 3793.02 2855.28 3798.24 2858.46C3821.98 2873.13 3848.9 2880.81 3876.27 2880.72C3891.86 2879.79 3907.3 2876.8 3922.22 2871.81C3933.13 2868.69 3934 2860.45 3924.75 2853.48C3917.79 2848.43 3910.29 2844.3 3902.42 2841.18C3877.43 2830.35 3849.81 2828.79 3823.9 2836.73C3803.92 2842.98 3782.95 2843.04 3768.39 2820.59C3766.11 2817 3760.68 2815.74 3756.73 2813.41L3754.14 2816.6C3757.64 2824.44 3761.15 2832.21 3764.69 2839.92L3743.66 2851.55C3744.46 2853.14 3745.01 2854.74 3745.45 2856.33Z" fill="#E0E0E0"/>
<path d="M2608.46 3056.58C2610.13 3060.7 2612.2 3064.62 2614.62 3068.28C2614.62 3069.94 2591.49 3076.71 2597.35 3084.09C2606.11 3083.42 2613.14 3082.56 2620.17 3082.43C2626.83 3082.02 2633.51 3082.36 2640.1 3083.42C2655.76 3086.61 2670.94 3092.53 2686.85 3093.99C2717.39 3096.34 2748.08 3093.15 2777.64 3084.55C2791.55 3081.63 2804.56 3075.03 2815.51 3065.35C2821.12 3059.9 2821.68 3056.45 2815.02 3052.4C2809.74 3049.03 2804.05 3046.48 2798.12 3044.82C2776.09 3039.22 2753.4 3037.25 2730.83 3038.98C2710.51 3039.62 2690.63 3045.5 2672.85 3056.12C2664.41 3061.19 2654.68 3063.19 2645.1 3061.8C2635.53 3060.41 2626.63 3055.71 2619.74 3048.41C2616.23 3044.62 2612.4 3039.04 2606.48 3042.3C2599.64 3046.35 2607.59 3051.53 2608.46 3056.58Z" fill="#E0E0E0"/>
<path d="M3979.83 3011.27C3981.48 3015.4 3983.55 3019.32 3985.99 3022.96C3985.99 3024.62 3962.93 3031.33 3968.72 3038.78C3977.54 3038.11 3984.58 3037.25 3991.55 3037.12C3998.2 3036.71 4004.88 3037.05 4011.47 3038.11C4027.13 3041.3 4042.31 3047.21 4058.22 3048.68C4088.76 3051.03 4119.45 3047.84 4149.01 3039.24C4162.92 3036.33 4175.94 3029.73 4186.88 3020.04C4192.5 3014.59 4193.05 3011.07 4186.39 3007.08C4181.13 3003.69 4175.43 3001.14 4169.49 2999.51C4147.48 2993.91 4124.81 2991.94 4102.26 2993.66C4081.92 2994.31 4062.02 3000.18 4044.22 3010.8C4035.8 3015.89 4026.07 3017.88 4016.5 3016.49C4006.93 3015.1 3998.05 3010.4 3991.18 3003.1C3987.66 2999.31 3983.77 2993.73 3977.91 2996.99C3970.82 3000.97 3978.72 3006.15 3979.83 3011.27Z" fill="#E0E0E0"/>
<path d="M4447.29 1824.39C4413.33 1807.28 4376.33 1798.31 4338.83 1798.09C4301.34 1797.87 4264.25 1806.41 4230.12 1823.12C4216.55 1666.46 4087.39 1530.79 3941.59 1520.36C3795.78 1509.93 3651.02 1625.6 3618.14 1778.87C3559.05 1703 3453.27 1674.3 3367.91 1710.97C3282.55 1747.65 3224.14 1846.91 3229.75 1945.7C3203.53 1923.24 3173.07 1907.23 3140.49 1898.78C3107.92 1890.34 3074.03 1889.67 3041.19 1896.82C3008.36 1903.97 2977.37 1918.78 2950.4 1940.19C2923.44 1961.6 2901.14 1989.11 2885.09 2020.78L4585.27 2005.04C4575.74 1965.98 4558.47 1929.61 4534.65 1898.43C4510.84 1867.24 4481.03 1841.98 4447.29 1824.39Z" fill="#EBEBEB"/>
<path d="M2060.38 1807.98C2026.41 1790.89 1989.41 1781.92 1951.92 1781.71C1914.43 1781.49 1877.34 1790.02 1843.2 1806.71C1829.64 1650.05 1700.42 1514.38 1554.67 1503.95C1408.92 1493.51 1264.1 1609.19 1231.16 1762.46C1172.14 1686.59 1066.3 1657.89 980.932 1694.56C895.569 1731.24 837.159 1830.5 842.833 1929.36C816.616 1906.87 786.149 1890.84 753.569 1882.38C720.988 1873.92 687.085 1873.25 654.236 1880.4C621.388 1887.56 590.391 1902.37 563.42 1923.79C536.449 1945.22 514.157 1972.75 498.109 2004.44L2198.29 1988.63C2188.78 1949.57 2171.52 1913.2 2147.71 1882.02C2123.91 1850.83 2094.11 1825.57 2060.38 1807.98Z" fill="#EBEBEB"/>
<path d="M1477.32 1043.45C1454.63 1043.45 1429.83 1049.3 1410.71 1036.14C1375.8 1012.36 1380.37 939.538 1339.47 933.558C1310.36 929.306 1286.24 967.775 1257.32 961.861C1237.76 957.875 1226.48 934.754 1224.19 913.493C1221.91 892.232 1225.12 870.174 1220.62 849.246C1211.43 806.06 1168.93 777.291 1127.79 777.69C1086.65 778.088 1048.29 802.738 1020.28 835.227C992.281 867.716 973.037 907.58 954.102 946.912C929.43 905.055 872.809 889.84 832.965 914.423C811.13 927.711 792.256 951.895 767.153 950.965C751.733 950.434 738.226 940.268 724.471 932.694C666.616 900.803 594.452 905.188 533.883 930.568C432.606 973.09 338.114 923.924 342.123 951.696C715.851 1086.82 1110.78 1140.6 1503.97 1109.89L1526.24 1082.32C1527.84 1057.6 1500.33 1043.45 1477.32 1043.45Z" fill="#EBEBEB"/>
<path d="M3686.48 1078.26C4050.94 1025.11 4325.85 982.391 4610 838.217C4587.12 791.044 4455.8 864.793 4386.91 828.782C4366.61 818.152 4347.49 804.864 4326.46 796.027C4305.43 787.191 4281.62 782.739 4260.4 791.177C4239.19 799.615 4222.1 822.869 4225.25 846.987C4184.6 797.954 4106.95 791.842 4060.13 833.699C4022.16 767.515 3967.86 714.008 3903.28 679.159C3862.82 657.367 3810.46 644.81 3774.99 674.974C3744.71 700.619 3738.91 747.327 3740.57 788.785C3742.24 830.244 3748.84 873.363 3734.9 912.032C3725.57 900.51 3712.8 892.851 3698.79 890.371C3684.78 887.892 3670.41 890.747 3658.15 898.446C3645.88 906.145 3636.49 918.207 3631.59 932.557C3626.68 946.907 3626.57 962.649 3631.28 977.076C3605.68 959.669 3570.46 968.24 3546.78 988.57C3523.09 1008.9 3508.35 1038.67 3494.23 1067.5C3553.62 1082.78 3588.04 1089.09 3686.48 1077.93" fill="#EBEBEB"/>
<path d="M3221.04 962.509C3251.43 929.764 3251.43 876.675 3221.04 843.931C3190.64 811.187 3141.35 811.186 3110.95 843.931C3080.56 876.675 3080.56 929.764 3110.95 962.509C3141.35 995.253 3190.64 995.253 3221.04 962.509Z" fill="#EBEBEB"/>
<path d="M2832.6 640.358C2847.52 644.411 2863.27 642.936 2877.32 636.173C2889.1 631.455 2902.48 623.416 2914.32 624.546C2925.3 625.609 2935.6 642.152 2946.89 647.733C2961.94 655.108 2977.05 651.321 2991.48 644.146C2997.16 641.355 3002.59 637.9 3008.2 634.777C3012.47 632.029 3017.11 630.012 3021.95 628.798C3020.9 628.798 3028.12 629.462 3025.22 628.798C3028.31 629.595 3024.79 627.735 3027.63 629.861L3029.17 631.19C3034.66 636.372 3037.8 644.478 3043.05 649.859C3048.34 655.473 3055.01 659.342 3062.28 661.013C3069.54 662.684 3077.1 662.088 3084.06 659.294C3094.67 655.374 3106.76 646.67 3115.27 643.282C3116.82 642.684 3118.3 642.152 3119.84 641.687C3124.46 640.358 3117.12 641.687 3121.69 641.687C3126.25 641.687 3120.15 641.289 3122.61 641.687L3124.71 642.352C3123.29 641.82 3123.48 642.352 3125.14 642.95C3130.26 648.464 3132.85 656.968 3137.85 662.882C3144.56 670.533 3153.21 675.909 3162.71 678.352C3172.22 680.795 3182.19 680.198 3191.39 676.635C3195.44 675.48 3198.9 672.643 3201.01 668.746C3203.13 664.849 3203.73 660.208 3202.67 655.839C3201.55 651.608 3198.93 648.02 3195.38 645.846C3191.83 643.672 3187.62 643.086 3183.68 644.212C3170.91 649.527 3162.4 643.215 3155.8 631.522C3147.65 617.038 3135.57 606.673 3119.22 608.467C3106.21 609.796 3095.04 617.437 3083.63 623.682C3079.53 626.473 3074.93 628.286 3070.12 628.997C3071.05 628.997 3072.34 628.997 3069.63 628.997C3065.13 628.997 3071.05 629.662 3068.52 628.997C3065.99 628.333 3070.86 631.455 3066.79 628.133C3065.77 627.248 3064.82 626.27 3063.96 625.21C3059.52 619.762 3056.31 613.184 3051.62 608.135C3045.81 601.704 3038.21 597.483 3029.97 596.109C3016.03 593.85 3003.2 600.162 2991.18 607.006C2981.55 612.52 2971.13 620.294 2961.94 618.633C2957.44 616.097 2953.29 612.899 2949.6 609.132C2943.47 602.801 2936.3 597.754 2928.45 594.249C2912.66 587.605 2895.7 592.987 2880.65 599.232C2867.69 604.614 2853.2 612.52 2840.62 608.334C2821.68 601.69 2813.54 633.98 2832.41 640.358H2832.6Z" fill="#EBEBEB"/>
<path d="M1890.2 1073.08C1901.78 1076.28 1914 1075.37 1925.05 1070.49C1933.93 1067.1 1945.71 1059.93 1954.23 1060.86C1957.08 1061.41 1959.73 1062.81 1961.87 1064.91C1966.6 1069.78 1971.79 1074.1 1977.36 1077.8C1983.19 1080.68 1989.56 1082.09 1995.97 1081.9C2002.39 1081.72 2008.68 1079.95 2014.36 1076.74C2022.88 1072.75 2031.08 1066.04 2039.04 1064.18C2039.53 1064.18 2041.87 1064.18 2039.71 1064.18C2041.38 1064.18 2041.13 1064.91 2040.33 1064.18C2042 1065.84 2040.33 1064.18 2042 1065.38C2046.19 1069.56 2048.66 1075.47 2052.79 1079.79C2057.13 1084.34 2062.54 1087.55 2068.43 1089.09C2074.32 1090.62 2080.49 1090.41 2086.28 1088.5C2095.16 1085.77 2105.71 1078.13 2112.37 1075.21L2114.65 1074.41C2116.32 1073.88 2117.92 1072.62 2116.57 1073.88C2118.66 1071.82 2116.57 1076.01 2116.57 1073.88C2116.57 1075.47 2115.52 1070.03 2116.57 1073.88C2117.73 1076.24 2119.11 1078.47 2120.7 1080.52C2122.69 1084.02 2125.02 1087.27 2127.67 1090.22C2133.36 1096.21 2140.5 1100.36 2148.27 1102.22C2156.04 1104.07 2164.13 1103.55 2171.64 1100.72C2175.53 1099.44 2178.8 1096.6 2180.8 1092.79C2182.8 1088.99 2183.36 1084.5 2182.38 1080.26C2181.27 1076.03 2178.66 1072.45 2175.11 1070.29C2171.57 1068.12 2167.38 1067.55 2163.44 1068.7C2153.08 1072.82 2149.26 1066.37 2144.01 1057.87C2140.93 1052.14 2136.39 1047.48 2130.92 1044.45C2125.45 1041.43 2119.29 1040.16 2113.17 1040.79C2103.14 1043 2093.56 1047.12 2084.86 1052.95C2083.68 1053.51 2082.53 1054.13 2081.41 1054.81C2080.91 1054.81 2075.24 1056.94 2077.65 1056.41C2075.36 1056.87 2074.01 1055.34 2076.35 1057C2075.18 1056.31 2074.13 1055.38 2073.27 1054.28C2069.75 1049 2065.89 1043.98 2061.73 1039.26C2056.52 1034.46 2050.06 1031.49 2043.23 1030.76C2032.69 1030.61 2022.34 1033.77 2013.44 1039.86C2009.24 1042.19 2005.17 1044.98 2000.79 1046.9C1999.2 1047.53 1997.57 1048.07 1995.92 1048.5C1993.95 1048.96 1994.13 1048.96 1993.02 1048.5C1989.51 1046.68 1986.35 1044.15 1983.71 1041.06C1978.75 1036.03 1972.93 1032.1 1966.56 1029.5C1954.23 1024.71 1940.47 1028.37 1928.51 1033.28C1923.02 1035.54 1917.65 1038 1912.1 1039.93C1907.78 1041.88 1902.97 1042.19 1898.47 1040.79C1879.47 1034.55 1871.33 1066.57 1890.27 1072.82L1890.2 1073.08Z" fill="#EBEBEB"/>
<path d="M2875.03 1234.93C2871.64 1238.12 2861.28 1231.48 2847.09 1219.18C2830.17 1203.32 2812.26 1188.71 2793.49 1175.47C2785.53 1169.4 2776.15 1165.85 2766.42 1165.23C2758.27 1165.89 2750.43 1168.82 2743.66 1173.74C2736.62 1178.26 2730.64 1182.91 2725.95 1185.63C2721.27 1188.36 2717.81 1189.35 2716.09 1187.82C2714.36 1186.3 2714.48 1182.51 2716.39 1176.86C2719.33 1168.96 2723.5 1161.65 2728.73 1155.27C2732.58 1150.42 2737.02 1146.15 2741.93 1142.58C2748.2 1138.05 2755.28 1134.99 2762.71 1133.61C2771.11 1132.11 2779.71 1132.65 2787.88 1135.2C2795.64 1137.68 2803.07 1141.26 2809.96 1145.83C2831.56 1160.34 2849.95 1179.75 2863.87 1202.71C2874.23 1219.78 2878.3 1231.87 2875.03 1234.93Z" fill="#E0E0E0"/>
<path d="M2458.39 1531.39C2454.44 1533.91 2441.37 1517.03 2419.47 1492.12C2413.98 1485.94 2407.88 1478.83 2401.34 1472.19C2399.2 1468.78 2396.4 1465.91 2393.13 1463.78C2389.87 1461.64 2386.22 1460.29 2382.43 1459.81C2378.63 1459.33 2374.79 1459.74 2371.16 1461C2367.52 1462.27 2364.19 1464.36 2361.37 1467.14C2352.2 1472.49 2343.77 1479.2 2336.33 1487.07C2332.24 1491.45 2329.22 1496.86 2327.57 1502.82L2310.92 1570.12L2296.61 1502.68C2294.96 1495.53 2291.01 1489.24 2285.44 1484.94C2279.46 1480.09 2272.51 1476.79 2265.15 1475.31C2251.53 1473.28 2237.65 1475.76 2225.37 1482.42C2215.99 1487.25 2206.85 1492.59 2197.98 1498.43C2191.32 1502.55 2187.06 1504.41 2185.65 1502.88C2184.23 1501.35 2185.65 1496.57 2190.21 1489.59C2196.98 1479.3 2205.32 1470.31 2214.88 1463.02C2221.85 1457.49 2229.48 1453.02 2237.58 1449.73C2247.57 1445.78 2258.24 1444.19 2268.85 1445.08C2281.04 1446.16 2292.79 1450.49 2303.02 1457.7C2315.24 1466.26 2324.05 1479.44 2327.69 1494.64H2296.85C2299.58 1482.77 2305.18 1471.88 2313.08 1463.08C2322.88 1452.52 2334.21 1443.75 2346.63 1437.11C2352.77 1433.54 2359.3 1430.79 2366.06 1428.93C2373.7 1426.78 2381.72 1426.62 2389.43 1428.47C2396.62 1430.43 2403.3 1434.11 2408.99 1439.23C2413.51 1443.19 2417.65 1447.64 2421.32 1452.52C2427.49 1460.96 2432.98 1468.93 2437.67 1476.57C2455.8 1507.4 2462.09 1529.06 2458.39 1531.39Z" fill="#E0E0E0"/>
<path d="M2622.89 541.363C2614.12 546.045 2606.06 552.114 2598.96 559.368C2591.43 567.387 2585.45 576.941 2581.38 587.472C2576.31 600.331 2574.42 614.386 2575.89 628.266L2576.88 636.903L2572.87 629.329L2572.13 627.868C2565.91 615.28 2558.42 603.47 2549.8 592.654C2542.72 583.929 2534.26 576.619 2524.82 571.061C2515.96 566.154 2506.31 563.109 2496.39 562.092C2496.39 562.092 2497.13 562.092 2498.48 562.092C2500.54 561.943 2502.6 561.943 2504.65 562.092C2512.05 562.972 2519.24 565.22 2525.93 568.736C2535.85 574.101 2544.72 581.452 2552.08 590.395C2561.01 601.285 2568.73 613.258 2575.09 626.074L2575.83 627.469L2572.81 628.532C2571.37 614.064 2573.49 599.443 2578.97 586.143C2583.27 575.342 2589.57 565.598 2597.48 557.508C2602.79 552.075 2608.87 547.589 2615.49 544.22C2617.29 543.3 2619.14 542.501 2621.04 541.828C2621.9 541.429 2622.89 541.23 2622.89 541.363Z" fill="#EBEBEB"/>
<path d="M2817.42 542.426C2817.42 543.024 2807.19 543.821 2791.33 548.671C2782.06 551.49 2773.04 555.203 2764.38 559.767C2753.62 564.495 2744.64 572.991 2738.91 583.884C2738.34 585.239 2737.86 586.638 2737.49 588.07L2736.75 590.661L2734.9 588.934C2726.44 581.014 2716.42 575.266 2705.6 572.124C2696.82 569.475 2687.68 568.508 2678.58 569.268C2670.19 570.235 2661.91 572.196 2653.91 575.114C2655.82 573.694 2657.89 572.554 2660.08 571.726C2665.92 569.235 2672.04 567.603 2678.28 566.876C2687.64 565.767 2697.11 566.51 2706.22 569.068C2717.62 572.122 2728.19 578.042 2737.06 586.343L2734.47 587.14C2734.91 585.563 2735.42 584.011 2736.01 582.489C2738.87 576.201 2743.1 570.753 2748.34 566.61C2753.02 562.794 2758.06 559.541 2763.39 556.91C2772.26 552.4 2781.51 548.839 2791.03 546.279C2797.43 544.561 2803.95 543.34 2810.52 542.625C2812.8 542.239 2815.12 542.172 2817.42 542.426Z" fill="#EBEBEB"/>
<path d="M2670.75 427.086C2670.13 429.433 2669.19 431.671 2667.98 433.73C2665.82 438.115 2662.12 443.962 2657.86 451.27C2652.62 459.546 2649.36 469.085 2648.36 479.042C2647.73 491.351 2648.94 503.689 2651.94 515.584C2652.49 518.109 2653.05 520.567 2653.54 522.959L2655.46 531.729L2650.64 524.354C2639.56 507.238 2626.25 491.932 2611.11 478.909C2599.64 468.943 2591.8 463.96 2592.11 463.495C2594.15 464.222 2596.08 465.251 2597.85 466.551C2602.89 469.766 2607.77 473.271 2612.47 477.049C2628.21 489.739 2641.99 505.032 2653.3 522.361L2650.4 523.756L2648.79 516.381C2645.73 504.113 2644.59 491.383 2645.4 478.71C2645.98 473.15 2647.31 467.712 2649.35 462.565C2651.19 458.15 2653.4 453.925 2655.95 449.941C2660.51 442.699 2664.46 437.185 2666.87 433.066C2668.01 430.966 2669.31 428.967 2670.75 427.086Z" fill="#EBEBEB"/>
<path d="M4250.63 1420.22C4245.95 1419.83 4241.23 1420.07 4236.61 1420.95C4229.02 1423.08 4222.4 1427.78 4217.88 1434.24C4220.23 1434.64 4222.63 1434.64 4224.99 1434.24C4234.47 1433.16 4244.02 1432.8 4253.56 1433.18C4254.01 1430.88 4253.98 1428.52 4253.48 1426.23C4252.97 1423.94 4252 1421.79 4250.63 1419.89" fill="#CDCFB4"/>
<path d="M4409.42 1458.62C4376.74 1453.66 4344.57 1445.79 4313.28 1435.1C4292.02 1455.04 4278.07 1482.74 4253.95 1499.35C4243.06 1506.86 4230.43 1511.78 4220.73 1520.55C4206.98 1532.64 4200 1550.44 4194.16 1567.65C4177.37 1614.58 4163.46 1662.48 4152.5 1711.1L4185.19 1667.98L4183.73 1694.22L4228.77 1621.14L4233.29 1644.66L4337 1553.37C4356.03 1536.26 4373.79 1517.81 4390.16 1498.16L4409.42 1458.62Z" fill="#E0E0E0"/>
<path d="M4321.19 1408.53C4334.02 1391.74 4344.28 1373.13 4351.62 1353.32C4364.91 1318.37 4369.16 1246.21 4409.42 1216.91C4449.69 1187.61 4550.01 1116.66 4550.01 1116.66L4508.29 1175.26L4558.98 1134.66C4548.51 1156.37 4533.99 1175.88 4516.19 1192.13L4556.99 1172.93C4556.99 1172.93 4551.94 1216.91 4533.47 1219.97C4530.94 1220.37 4519.25 1236.58 4519.25 1236.58L4523.7 1247.15C4523.7 1247.15 4475.2 1350.33 4462.38 1370.99C4449.55 1391.65 4416.67 1432.31 4416.67 1432.31L4321.19 1408.53Z" fill="#E0E0E0"/>
<path d="M4249.04 1423.34C4249.57 1421.95 4251.3 1403.88 4280.8 1402.95C4295.08 1401.88 4309.44 1402.87 4323.45 1405.87C4323.45 1405.87 4407.63 1428.46 4419.72 1435.1C4431.81 1441.75 4517.06 1421.82 4517.06 1421.82C4517.06 1421.82 4555.66 1489.52 4505.03 1534.03C4454.4 1578.55 4425.97 1562.07 4425.97 1562.07C4425.97 1562.07 4421.65 1508.92 4399.92 1495.63C4399.92 1495.63 4362.32 1495.17 4344.45 1486.46C4326.57 1477.76 4293.35 1446.6 4286.64 1442.08C4279.93 1437.56 4260.6 1440.42 4253.82 1435.44C4251.84 1434.2 4250.3 1432.35 4249.44 1430.18C4248.58 1428 4248.44 1425.61 4249.04 1423.34Z" fill="#E0E0E0"/>
<path d="M4274.29 1419.03C4274.29 1420.21 4273.93 1421.36 4273.28 1422.35C4272.62 1423.33 4271.69 1424.1 4270.59 1424.55C4269.5 1425 4268.3 1425.12 4267.14 1424.89C4265.98 1424.66 4264.91 1424.09 4264.08 1423.25C4263.24 1422.42 4262.67 1421.35 4262.44 1420.19C4262.21 1419.03 4262.33 1417.83 4262.78 1416.74C4263.23 1415.64 4264 1414.71 4264.98 1414.05C4265.97 1413.4 4267.12 1413.05 4268.31 1413.05C4269.09 1413.04 4269.88 1413.19 4270.6 1413.48C4271.33 1413.78 4272 1414.22 4272.55 1414.78C4273.11 1415.33 4273.55 1416 4273.85 1416.73C4274.15 1417.46 4274.29 1418.24 4274.29 1419.03Z" fill="#263238"/>
<path d="M4523.7 1247.41L4519.25 1236.85C4519.25 1236.85 4530.94 1220.64 4533.47 1220.24C4551.94 1217.18 4556.99 1173.2 4556.99 1173.2L4516.19 1192.4C4533.99 1176.14 4548.51 1156.64 4558.98 1134.93L4508.29 1175.52L4550.01 1116.92C4550.01 1116.92 4449.69 1187.88 4409.42 1217.18L4474.07 1196.45L4462.04 1226.88L4513 1204.96C4509.99 1209.35 4507.99 1214.36 4507.14 1219.62C4506.29 1224.88 4506.61 1230.26 4508.09 1235.39C4513.73 1251 4523.7 1247.41 4523.7 1247.41Z" fill="#263238"/>
<path d="M4233.29 1644.32L4228.77 1620.8L4183.73 1693.89L4184.86 1667.91L4152.5 1711.1C4163.39 1662.39 4177.23 1614.4 4193.96 1567.39L4193.03 1611.04L4218.21 1592.7V1624.33L4240.2 1604.39L4233.29 1644.32Z" fill="#263238"/>
<path d="M4472.01 1513.37C4472.01 1513.7 4468.76 1511.24 4463.11 1508.79C4457.46 1506.33 4449.16 1504.07 4440.39 1500.02C4429.59 1495.59 4419.82 1488.98 4411.68 1480.62C4412.22 1479.95 4424.37 1489.58 4441.58 1497.42C4450.09 1501.34 4458.39 1504.07 4464.04 1506.99C4469.69 1509.92 4472.28 1513.17 4472.01 1513.37Z" fill="#263238"/>
<path d="M4483.17 1494.9C4460.79 1492.15 4439.45 1483.88 4421.05 1470.85C4421.45 1470.12 4434.34 1477.49 4451.68 1484.14C4469.02 1490.78 4483.37 1493.97 4483.17 1494.9Z" fill="#263238"/>
<path d="M4403.78 1492.04C4402.31 1492.87 4400.75 1493.51 4399.13 1493.97C4394.78 1495.46 4390.34 1496.65 4385.84 1497.56C4378.41 1499.36 4370.69 1499.53 4363.19 1498.08C4355.69 1496.62 4348.6 1493.57 4342.39 1489.12C4329.49 1481.52 4317.56 1472.4 4306.84 1461.95C4303.57 1458.81 4300.47 1455.5 4297.54 1452.05C4296.32 1450.87 4295.31 1449.5 4294.55 1447.99C4294.88 1447.99 4299.73 1452.91 4308.17 1460.42C4319.16 1470.33 4331.11 1479.12 4343.85 1486.66C4350.5 1491.19 4358.01 1494.33 4365.91 1495.9C4372.39 1496.8 4378.98 1496.69 4385.44 1495.56C4396.8 1493.7 4403.64 1491.51 4403.78 1492.04Z" fill="#263238"/>
<path d="M4469.02 1211.27C4467.17 1213.65 4465.13 1215.87 4462.91 1217.91L4445.3 1235.98C4437.93 1243.62 4428.76 1252.46 4419.19 1262.56C4414.15 1267.64 4410.65 1274.04 4409.09 1281.03C4408 1288.73 4407.84 1296.54 4408.63 1304.28C4409.55 1319.66 4408.34 1335.08 4405.04 1350.13C4402.33 1362.46 4397.52 1374.24 4390.82 1384.94C4386.37 1392.15 4380.89 1398.66 4374.54 1404.28C4372.83 1405.82 4371.01 1407.24 4369.09 1408.53C4368.49 1409.07 4367.79 1409.5 4367.04 1409.79C4375.67 1402.33 4383.11 1393.6 4389.09 1383.88C4395.37 1373.26 4399.86 1361.67 4402.38 1349.6C4405.5 1334.75 4406.61 1319.56 4405.7 1304.42C4404.87 1296.45 4405.07 1288.41 4406.3 1280.5C4407.95 1272.96 4411.71 1266.05 4417.13 1260.57C4427.03 1250.4 4436.2 1241.83 4443.71 1233.99L4461.91 1216.58C4464.15 1214.64 4466.52 1212.86 4469.02 1211.27Z" fill="#263238"/>
<path d="M4516.59 1260.7C4516.59 1260.7 4515.4 1261.89 4512.94 1263.62C4509.49 1266.02 4505.92 1268.23 4502.24 1270.27C4490.14 1277.15 4477.36 1282.76 4464.1 1287.01C4450.87 1291.32 4437.22 1294.24 4423.38 1295.71C4419.19 1296.19 4414.97 1296.44 4410.75 1296.44C4409.21 1296.7 4407.64 1296.7 4406.1 1296.44C4411.72 1295.3 4417.4 1294.43 4423.11 1293.85C4436.63 1291.83 4449.96 1288.69 4462.97 1284.48C4476.07 1280.25 4488.8 1274.96 4501.04 1268.67C4506.08 1265.74 4511.27 1263.08 4516.59 1260.7Z" fill="#263238"/>
<path d="M4518.72 1219.24C4518.21 1220.8 4517.37 1222.22 4516.26 1223.43C4513.36 1226.85 4509.93 1229.79 4506.09 1232.13C4500.45 1235.45 4494.59 1238.38 4488.55 1240.9C4481.91 1243.89 4474.4 1247.01 4466.5 1250.14C4450.68 1256.38 4436.2 1261.43 4425.64 1264.88C4420.02 1267.04 4414.25 1268.75 4408.36 1270C4413.7 1267.24 4419.26 1264.9 4424.97 1263.02L4465.43 1247.48C4473.34 1244.35 4480.78 1241.3 4487.49 1238.51C4493.51 1236.11 4499.39 1233.39 4505.1 1230.34C4510.21 1227.4 4514.81 1223.65 4518.72 1219.24Z" fill="#263238"/>
<path d="M4480.85 1313.78C4478.56 1316.93 4475.32 1319.26 4471.61 1320.43C4463.06 1323.37 4454.32 1325.71 4445.44 1327.4C4436.75 1329.76 4427.84 1331.21 4418.86 1331.72C4415 1332.06 4411.14 1331.11 4407.9 1329C4411.51 1329.47 4415.15 1329.69 4418.79 1329.66C4427.63 1328.6 4436.38 1326.89 4444.97 1324.55C4455.2 1322.22 4464.9 1320.63 4471.01 1318.5C4474.39 1317.14 4477.68 1315.57 4480.85 1313.78Z" fill="#263238"/>
<path d="M4208.11 1605.06C4208.45 1602.77 4209.1 1600.53 4210.04 1598.41C4212.3 1592.36 4215.29 1586.6 4218.94 1581.27C4224.38 1573.33 4231.12 1566.37 4238.87 1560.68C4248.49 1554.01 4258.8 1548.42 4269.63 1544C4280.28 1539.66 4290.44 1534.21 4299.93 1527.72C4307.58 1522.26 4314.55 1515.93 4320.73 1508.85C4326.21 1502.13 4331.27 1495.08 4335.88 1487.72C4335.23 1490.06 4334.27 1492.29 4333.02 1494.37C4329.94 1500.03 4326.34 1505.39 4322.26 1510.38C4316.23 1517.88 4309.26 1524.58 4301.53 1530.31C4291.94 1537.02 4281.65 1542.66 4270.83 1547.12C4260.15 1551.42 4249.95 1556.83 4240.4 1563.27C4232.71 1568.77 4225.98 1575.51 4220.47 1583.2C4215.64 1590.06 4211.5 1597.38 4208.11 1605.06Z" fill="#263238"/>
<path d="M4252.82 1617.02C4254.84 1607.12 4256.28 1597.12 4257.14 1587.05C4257.05 1576.97 4256.36 1566.89 4255.08 1556.89C4259.17 1566.44 4260.85 1576.84 4260 1587.19C4260.1 1597.57 4257.64 1607.82 4252.82 1617.02Z" fill="#263238"/>
<path d="M4287.37 1588.91C4286.59 1581.61 4286.21 1574.27 4286.24 1566.92C4285.45 1554.83 4283.59 1545.13 4284.38 1544.93C4287.48 1551.78 4289.09 1559.21 4289.1 1566.72C4290.07 1574.16 4289.48 1581.72 4287.37 1588.91Z" fill="#263238"/>
<path d="M4316.14 1565.66C4314.39 1558.49 4313.01 1551.24 4312.02 1543.93C4310.13 1536.81 4308.66 1529.57 4307.64 1522.27C4311.42 1528.77 4313.88 1535.95 4314.88 1543.4C4316.8 1550.66 4317.23 1558.23 4316.14 1565.66Z" fill="#263238"/>
<path d="M4348.3 1517.49C4347.83 1518.09 4344.11 1515.7 4340.13 1512.17C4336.14 1508.65 4333.48 1505.53 4333.88 1504.67C4334.28 1503.8 4338.07 1506.46 4342.05 1509.98C4346.04 1513.5 4348.83 1516.89 4348.3 1517.49Z" fill="#263238"/>
<path d="M4424.9 1416.63C4417.87 1413.26 4411.28 1409.02 4405.3 1404.01C4398.74 1399.81 4392.73 1394.78 4387.43 1389.06C4394.55 1392.47 4401.24 1396.71 4407.36 1401.68C4413.8 1405.93 4419.69 1410.95 4424.9 1416.63Z" fill="#263238"/>
<path d="M4462.38 1368.66C4452.39 1373.71 4441.34 1376.26 4430.15 1376.11C4420.92 1376.11 4412.75 1375.31 4406.83 1374.98C4403.6 1375.02 4400.38 1374.75 4397.2 1374.18C4400.29 1373.11 4403.57 1372.7 4406.83 1372.98C4412.88 1372.98 4421.12 1373.51 4430.09 1372.98C4440.93 1372.24 4451.72 1370.8 4462.38 1368.66Z" fill="#263238"/>
<path d="M1053.54 654.833C1049.44 654.527 1045.39 653.678 1041.51 652.308C1034.21 650.315 1024.17 647.325 1013.28 643.471C1002.38 639.618 992.614 635.831 985.637 632.841C981.758 631.489 978.073 629.635 974.675 627.326C978.7 628.147 982.637 629.349 986.435 630.914L1014.21 640.747L1042.11 650.381C1046.07 651.463 1049.9 652.954 1053.54 654.833Z" fill="#263238"/>
<path d="M1063.51 644.468C1059.41 644.125 1055.37 643.277 1051.48 641.943C1044.17 639.95 1034.14 636.894 1023.24 633.107C1012.35 629.32 1002.58 625.4 995.604 622.41C991.726 621.035 988.024 619.207 984.575 616.962C988.625 617.683 992.573 618.888 996.335 620.55L1024.17 630.383L1052.08 639.95C1056.03 641.065 1059.86 642.579 1063.51 644.468Z" fill="#263238"/>
<path d="M753.562 547.133C753.562 547.133 771.834 528.065 786.783 525.474C801.732 522.883 922.187 542.815 922.187 542.815L1117.52 616.63C1117.52 616.63 1105.36 635.698 1073.27 629.918C1041.18 624.137 1005.57 613.44 1005.57 613.44C986.046 624.977 963.8 631.1 941.123 631.18C904.647 631.18 858.604 622.144 831.696 593.508C804.788 564.873 771.9 583.675 765.256 559.292C764.715 556.341 763.318 553.615 761.239 551.453C759.16 549.291 756.49 547.788 753.562 547.133Z" fill="#E0E0E0"/>
<path d="M1231.53 332.2C1219.32 349.38 1205.72 365.535 1190.87 380.502C1186.87 385.626 1181.08 389.044 1174.66 390.069C1194.65 364.896 1209.57 336.082 1218.58 305.225C1212.33 314.66 1205.75 323.762 1198.64 332.665C1193.46 339.341 1187.89 345.708 1181.97 351.733C1165.55 366.815 1147.42 379.926 1127.95 390.8C1113.75 400.44 1098.82 408.97 1083.3 416.313C1051.41 429.601 1050.08 427.674 1015.67 439.102C1005.17 442.557 985.572 446.942 977.067 454.051C972.939 457.809 969.3 462.073 966.238 466.741C939.29 503.391 904.195 533.277 863.721 554.043L926.639 585.071C954.708 588.827 983.163 581.903 1006.37 565.67C1029.24 549.407 1048.16 528.196 1061.71 503.615C1064.62 497.461 1068.91 492.069 1074.27 487.869C1079.24 485.222 1084.57 483.298 1090.08 482.155C1099.31 479.326 1107.7 474.286 1114.53 467.472C1108.35 469.793 1101.58 470.003 1095.26 468.07C1115.2 460.637 1134.66 451.983 1153.53 442.158C1171.07 433.056 1188.68 422.226 1200.04 406.015C1192.57 412.083 1183.67 416.153 1174.19 417.841C1201.29 395.533 1221.23 365.751 1231.53 332.2Z" fill="#E0E0E0"/>
<path d="M785.521 541.021C784.927 540.635 784.235 540.429 783.527 540.429C782.82 540.429 782.127 540.635 781.534 541.021C780.96 541.442 780.48 541.979 780.126 542.597C779.771 543.215 779.549 543.9 779.475 544.609C779.361 545.994 779.684 547.38 780.399 548.572C781.114 549.764 782.185 550.701 783.461 551.253C784.76 551.699 786.171 551.699 787.47 551.254C788.77 550.809 789.884 549.943 790.636 548.794C791.284 547.575 791.48 546.165 791.188 544.815C790.896 543.465 790.136 542.262 789.042 541.419C787.425 540.475 785.598 539.95 783.727 539.891" fill="#263238"/>
<path d="M758.878 542.084C758.878 542.084 740.873 540.556 731.704 548.728C722.535 556.9 719.413 565.803 720.742 566.667C720.742 566.667 724.794 561.883 739.079 560.82C748.439 560.258 757.824 560.258 767.183 560.82L758.878 542.084Z" fill="#CDCFB4"/>
<path d="M903.584 520.956L852.359 442.291C846.08 433.443 840.841 423.902 836.746 413.855C828.906 392.594 831.497 368.609 823.458 347.415L815.286 361.699C815.327 347.567 813.381 333.499 809.505 319.909C806.449 325.423 803.393 330.938 800.403 336.452C801.343 317 798.407 297.555 791.766 279.247C784.465 284.454 779.334 292.163 777.348 300.907C775.811 283.269 772.969 265.769 768.844 248.552C741.404 285.028 735.624 333.13 734.495 378.774C733.94 387.686 734.633 396.631 736.554 405.35C739.492 414.777 743.983 423.647 749.842 431.594C773.428 466.741 803.924 498.034 818.94 537.898L920.261 560.687C916.075 556.9 905.644 524.145 903.584 520.956Z" fill="#E0E0E0"/>
<path d="M921.125 560.621H920.062C920.46 560.687 920.859 560.886 921.125 560.621Z" fill="#E0E0E0"/>
<path d="M1061.71 503.615C1064.61 497.461 1068.91 492.069 1074.27 487.869C1079.24 485.222 1084.57 483.298 1090.08 482.155C1099.31 479.326 1107.7 474.286 1114.53 467.472C1108.35 469.793 1101.58 470.003 1095.26 468.07C1115.2 460.637 1134.66 451.983 1153.53 442.158C1171.07 433.056 1188.68 422.226 1200.04 406.015C1192.57 412.083 1183.67 416.153 1174.19 417.841C1201.29 395.533 1221.23 365.751 1231.53 332.2C1219.32 349.38 1205.72 365.535 1190.87 380.502C1186.87 385.626 1181.08 389.044 1174.66 390.069C1194.65 364.896 1209.56 336.082 1218.58 305.225C1212.33 314.66 1205.75 323.762 1198.64 332.665C1193.46 339.341 1187.89 345.708 1181.97 351.733C1165.55 366.815 1147.42 379.926 1127.95 390.8C1113.34 399.703 1098.65 408.606 1083.3 416.313L1149.41 404.487L1109.55 432.724L1146.42 426.545C1146.42 426.545 1080.78 456.908 1066.03 477.039C1057.49 487.722 1053.4 501.286 1054.6 514.91L1061.71 503.615Z" fill="#263238"/>
<path d="M836.746 413.855C828.906 392.594 831.497 368.609 823.458 347.415L815.286 361.699C815.327 347.567 813.381 333.499 809.505 319.909C806.449 325.423 803.393 330.938 800.403 336.452C801.343 317 798.407 297.555 791.766 279.247C784.465 284.454 779.334 292.163 777.348 300.907C775.811 283.269 772.969 265.769 768.844 248.552C741.404 285.028 735.624 333.13 734.495 378.774C733.94 387.686 734.633 396.631 736.554 405.35L749.111 370.802C749.111 370.802 763.396 325.29 771.037 346.75C778.677 368.21 795.553 404.487 795.553 404.487L798.941 371.665C798.941 371.665 809.107 403.623 818.873 410.001C821.395 411.9 824.3 413.228 827.386 413.893C830.472 414.558 833.665 414.545 836.746 413.855Z" fill="#263238"/>
<path d="M973.014 458.436C973.412 458.436 973.014 458.436 973.014 458.901L971.884 460.429C970.888 461.824 969.293 463.751 967.234 466.276C963.181 471.259 957.068 478.368 949.428 486.939C941.787 495.51 932.485 505.675 921.722 516.505C916.274 521.886 910.56 527.467 904.116 532.849C900.866 535.725 897.3 538.221 893.485 540.29C891.131 540.678 888.73 540.678 886.376 540.29L879.732 539.692C844.718 535.44 813.292 529.46 790.636 526.404C785.635 525.916 780.608 527.033 776.285 529.593C772.876 531.424 769.611 533.512 766.518 535.839C761.402 539.759 758.878 542.483 758.745 542.084C758.612 541.685 759.21 541.353 760.406 540.091C762.105 538.266 763.926 536.557 765.854 534.975C768.86 532.477 772.084 530.253 775.488 528.331C780.069 525.468 785.452 524.163 790.835 524.61C813.89 526.936 845.183 532.583 879.998 536.835L886.642 537.433C888.539 537.672 890.459 537.672 892.356 537.433C895.951 535.623 899.318 533.393 902.388 530.789C909.032 525.54 914.48 520.026 919.928 514.711C930.758 504.014 939.86 494.048 947.966 485.676L966.503 465.744L971.486 460.296L972.814 458.901C972.814 458.901 972.814 458.502 973.147 458.901L973.014 458.436Z" fill="#263238"/>
<path d="M1110.35 430C1110.35 430 1109.95 430.664 1108.95 431.794C1107.5 433.395 1105.94 434.903 1104.3 436.311C1098.18 441.478 1091.36 445.75 1084.04 449.002C1073.3 453.705 1062.19 457.483 1050.82 460.296C1044.06 461.884 1037.4 463.881 1030.88 466.276C1024.1 468.982 1017.84 472.825 1012.35 477.637C1002.04 487.54 992.715 498.421 984.509 510.126C977.365 519.601 969.162 528.228 960.059 535.839C953.924 540.829 947.366 545.275 940.459 549.127C938.067 550.522 936.074 551.585 934.745 552.183C934.073 552.553 933.359 552.843 932.619 553.047C934.959 551.289 937.399 549.669 939.928 548.196C946.519 543.878 952.802 539.104 958.73 533.912C967.515 526.216 975.445 517.595 982.383 508.2C990.563 496.193 999.959 485.061 1010.42 474.98C1016.21 470.153 1022.77 466.335 1029.82 463.685C1036.34 461.297 1043 459.3 1049.75 457.705C1061.09 455.085 1072.2 451.552 1082.97 447.141C1090.23 444.107 1097.08 440.179 1103.37 435.448C1108.02 431.86 1110.15 429.8 1110.35 430Z" fill="#263238"/>
<path d="M916.873 607.062C914.779 607.741 912.565 607.968 910.378 607.727C908.19 607.487 906.079 606.784 904.183 605.667C897.539 602.744 894.017 597.561 894.615 597.163C895.213 596.764 899.266 600.418 905.312 603.076C911.358 605.733 916.873 606.198 916.873 607.062Z" fill="#263238"/>
<path d="M944.577 610.384C937.406 611.949 929.925 611.228 923.184 608.325C916.143 606.268 909.933 602.035 905.444 596.233C906.042 595.568 913.284 601.747 924.18 605.601C935.077 609.454 944.577 609.521 944.577 610.384Z" fill="#263238"/>
<path d="M4739.24 2462.6C4735.37 2453.6 4728.99 2445.56 4720.65 2439.2C4712.31 2432.84 4702.28 2428.34 4691.45 2426.12L4005.38 2275.37L982.454 2268.73L338.709 2379.55C332.106 2380.68 326.193 2383.81 322.042 2388.38C317.892 2392.95 315.778 2398.65 316.086 2404.44C316.394 2410.24 319.102 2415.75 323.72 2419.97C328.337 2424.19 334.558 2426.85 341.252 2427.45C379.796 2431.04 432.137 2433.7 501.283 2438.08C623.195 2446.31 426.818 2537.83 549 2533.5C584.845 2532.57 736.136 2514.42 726.5 2560C725.422 2564.46 789.301 2580.9 787 2585C751.001 2653.03 978.754 2641.39 1058.08 2654.68C1131.62 2667.03 1207.24 2650.42 1282.16 2651.55C1442.35 2653.81 1586.11 2735.67 1743.37 2761.84C2019.57 2807.89 2294.84 2678.93 2575.9 2674.94C2757.36 2672.35 2935.89 2722.05 3117.35 2718.53C3227.66 2716.4 3336.04 2694.67 3444.2 2675.8C3747.09 2623.13 4054.6 2592.59 4363.45 2584.52C4487.25 2581.33 4621.99 2578.47 4717.35 2510.37C4733.08 2499.14 4748.34 2484.86 4739.24 2462.6Z" fill="#CF9C66"/>
<path d="M3075 2269.59C3075 2269.59 3127.11 2188.2 3214.76 2146.74L3267.72 2201.02L3261.93 2127.21L3297.47 2125.15L3359.14 2253.04L3346.73 2094.72L3372.63 2093.19L3396.14 2186.2L3411.56 2090.6C3411.56 2090.6 3440.85 2082.56 3565.27 2087.74C3576.45 2088.23 3587.59 2089.25 3598.65 2090.8L3695.16 2104.55L3677.12 2206.34L3748.65 2121.36C3793.72 2130.28 3836.12 2147.22 3873.13 2171.1C3910.14 2194.98 3940.95 2225.27 3963.57 2260.02L3075 2269.59Z" fill="url(#paint0_linear_187_7625)"/>
<path d="M4549.92 2448.31C3271.6 2067.88 1691.57 2094.59 400.532 2383.6L582 2466C582 2466 620.767 2628.3 1995.67 2602.32C3370.58 2576.34 4936.51 2563.39 4549.92 2448.31Z" fill="#DBAC7D"/>
<path d="M3628 2083C3628 2083 3822.43 2081.78 3970.72 2118.39C3970.72 2118.39 4006.68 2214.08 4000.26 2202.01C3993.84 2189.94 4016.74 2118.28 4016.74 2118.28C4016.74 2118.28 4134.74 2144 4204.21 2163.64V2233.75L4250.88 2190.34C4250.88 2190.34 4342.87 2207.27 4438.4 2267.29V2339.35L4484.53 2297.52C4484.53 2297.52 4674.93 2389.79 4677 2479L3809.15 2390.87L3628 2150.7V2083Z" fill="url(#paint1_linear_187_7625)"/>
<path d="M902.671 2280.95C902.671 2280.95 948.923 2169.86 1049.13 2102.56L1128.22 2161.43L1103.71 2069.87L1147.8 2061.1L1255.72 2210.72L1203.08 2014.33L1235.14 2007.68L1286.56 2120.63L1283.24 1998.12C1283.24 1998.12 1318.09 1982.9 1475.34 1967.75C1489.45 1966.42 1503.63 1965.76 1517.82 1965.76L1642.08 1966.16L1643.31 2096.91L1712.69 1977.32C1712.69 1977.32 1909.95 2013.33 2032.06 2147.81L902.671 2280.95Z" fill="url(#paint2_linear_187_7625)"/>
<path d="M4503.05 2430.71C3224.73 2050.27 1761.56 2079.24 470.526 2368.25L623 2455.5C623 2455.5 676.269 2580.2 2051.18 2554.29C3426.08 2528.37 4889.64 2545.78 4503.05 2430.71Z" fill="#F7D3A9"/>
<g opacity="0.3">
<path d="M3236.91 1975.86L3380.91 2047.61L3442.5 2019.98L3276.61 1963.83L3236.91 1975.86Z" fill="white"/>
</g>
<g opacity="0.3">
<path d="M1710.99 1986.49L1867.17 2082.63L1755.94 1963.83L1710.99 1986.49Z" fill="white"/>
</g>
<path d="M1526 2156.19C1526 2156.19 1552.44 2114.8 1597.07 2093.73L1623.98 2121.31L1621.05 2083.77L1639.16 2082.71L1670.69 2147.82L1664.37 2067.23L1677.55 2066.49L1689.5 2114L1697.21 2065.3C1697.21 2065.3 1712.09 2061.25 1775.45 2063.9C1781.13 2064.12 1786.8 2064.63 1792.41 2065.43L1841.51 2072.41L1832.34 2124.16L1868.57 2080.78C1891.5 2085.33 1913.07 2093.96 1931.9 2106.11C1950.74 2118.26 1966.42 2133.66 1977.96 2151.34L1526 2156.19Z" fill="url(#paint3_linear_187_7625)"/>
<path d="M447.325 2429.55C447.325 2429.55 468.495 2353.5 527.041 2299.79L581.533 2329.51L559.232 2273.12L586.516 2262.97L665.827 2348.1L617.986 2227.41L637.872 2219.96L678.791 2287.3L667.695 2208.89C667.695 2208.89 688.648 2195.48 787.215 2169.55C796.073 2167.25 805.027 2165.38 814.037 2163.93L892.852 2151.39L903.246 2235.37L938.446 2151.45C938.446 2151.45 1068.03 2138.49 1155.43 2212.44L447.325 2429.55Z" fill="url(#paint4_linear_187_7625)"/>
<g opacity="0.3">
<path d="M4359.64 2309.08C4359.64 2309.08 4402.09 2326.52 4400.89 2325.53C4399.68 2324.55 4402.12 2305 4402.12 2305L4359.64 2309.08Z" fill="white"/>
</g>
<path d="M712.345 2500.67C710.756 2500.8 709.155 2500.8 707.566 2500.67L693.999 2500.2C682.204 2499.74 665.091 2499.21 643.97 2498.74C601.804 2497.61 543.372 2498.01 478.929 2493.23C423.759 2489.78 369.515 2479.14 318.05 2461.67C302.555 2456.22 287.58 2449.73 273.263 2442.27C268.098 2439.74 264.398 2437.42 261.777 2435.96C260.431 2435.24 259.166 2434.42 258 2433.5C259.503 2433.95 260.929 2434.58 262.24 2435.36C264.938 2436.62 268.792 2438.75 274.034 2441.14C288.582 2448.08 303.647 2454.18 319.129 2459.41C370.57 2476.07 424.512 2486.29 479.314 2489.77C543.45 2494.56 601.881 2494.56 644.124 2496.42C665.168 2497.21 682.667 2498.14 694.076 2499.01C699.934 2499.41 704.559 2499.87 707.643 2500.14C709.228 2500.16 710.805 2500.34 712.345 2500.67Z" fill="#E0E0E0"/>
<path d="M2289.6 2745.7L2285.83 2746.56L2274.57 2748.82C2264.78 2750.82 2250.37 2754.14 2232.02 2758.99C2213.67 2763.84 2191.63 2770.68 2166.19 2778.92L2080.01 2808.22C2045.17 2820.21 2009.35 2829.98 1972.86 2837.45C1952.54 2841.56 1931.94 2844.55 1911.19 2846.42C1889.12 2848.52 1866.93 2849.43 1844.74 2849.15C1797.06 2848.75 1749.64 2843.01 1703.67 2832.07C1654.58 2819.85 1607.19 2803.01 1562.37 2781.84C1516.12 2760.98 1471.41 2739.12 1426.78 2721.12C1384.21 2703.11 1338.77 2690.66 1291.95 2684.18C1270.14 2681.89 1248.12 2681.44 1226.2 2682.85C1204.85 2684.51 1184.34 2687.7 1164.53 2690.22C1096.46 2700.35 1026.42 2692 964.108 2666.3C942.96 2657.66 922.956 2647.08 904.443 2634.74C892.745 2626.99 881.694 2618.53 871.374 2609.43L863.665 2602.12C861.892 2600.46 861.121 2599.6 861.121 2599.6L863.973 2601.86L871.682 2608.9C882.21 2617.77 893.385 2626.04 905.137 2633.68C923.712 2645.76 943.711 2656.11 964.802 2664.58C1026.88 2689.71 1096.46 2697.67 1163.99 2687.37C1183.88 2684.77 1204.46 2681.52 1225.66 2679.79C1247.83 2678.33 1270.11 2678.75 1292.19 2681.05C1339.36 2687.45 1385.14 2699.93 1428.01 2718.06C1472.88 2736.13 1517.35 2757.92 1563.84 2778.79C1608.42 2799.89 1655.54 2816.73 1704.37 2829.01C1750 2839.91 1797.08 2845.68 1844.43 2846.16C1866.47 2846.48 1888.51 2845.61 1910.42 2843.57C1931.16 2841.76 1951.76 2838.85 1972.09 2834.86C2008.42 2827.5 2044.1 2817.9 2078.85 2806.16L2165.42 2777.19C2190.93 2768.89 2213.21 2762.38 2231.56 2757.26C2250.59 2752.33 2269.98 2748.46 2289.6 2745.7Z" fill="#E0E0E0"/>
<path d="M2609.74 2723.31C2600.77 2723.21 2591.82 2722.7 2582.91 2721.78C2566.34 2720.72 2543.45 2719.79 2518.16 2720.25C2492.88 2720.72 2470.06 2722.64 2453.56 2724.37C2444.71 2725.62 2435.78 2726.47 2426.82 2726.9C2429.07 2726.09 2431.42 2725.51 2433.83 2725.17C2438.3 2724.24 2444.93 2723.11 2453.18 2721.91C2474.66 2718.96 2496.34 2717.25 2518.09 2716.8C2539.82 2716.38 2561.55 2717.24 2583.15 2719.39C2591.47 2720.19 2598.1 2721.05 2602.73 2721.78C2605.14 2722 2607.5 2722.51 2609.74 2723.31Z" fill="#DADADA"/>
<path d="M4505.98 2603.38L4502.05 2605.05L4490.25 2609.7C4475.22 2615.57 4459.78 2620.6 4444 2624.78C4418.77 2631.29 4393 2636.13 4366.92 2639.26C4332.46 2643.43 4297.72 2645.65 4262.93 2645.91C4224.39 2646.37 4181.91 2645.11 4136.58 2643.51C4091.26 2641.92 4042.77 2639.93 3991.82 2640.79C3881.11 2642.68 3771.29 2658.18 3665.67 2686.83C3611.08 2701.76 3557.76 2719.95 3506.1 2741.25C3455.84 2761.18 3406.58 2781.11 3356.32 2790.48C3308.87 2798.87 3260.4 2802.2 3212.01 2800.38C3166.53 2799.25 3124.37 2796.92 3085.82 2794.07C3024.9 2790.22 2964.54 2781.32 2905.6 2767.49C2884.86 2762.38 2868.98 2757.53 2858.34 2754.2L2846.32 2750.08C2843.62 2749.15 2842.31 2748.56 2842.31 2748.56C2842.31 2748.56 2843.77 2748.89 2846.47 2749.75L2858.65 2753.54C2869.37 2756.79 2885.25 2761.45 2906.06 2766.36C2965.01 2779.62 3025.27 2788.12 3086.06 2791.74C3124.6 2794.4 3166.76 2796.66 3212.09 2797.66C3260.28 2799.3 3308.53 2795.91 3355.78 2787.56C3405.5 2777.92 3454.45 2758.59 3504.71 2738.32C3556.5 2716.91 3609.98 2698.66 3664.74 2683.71C3770.57 2654.96 3880.64 2639.46 3991.59 2637.67C4042.69 2636.94 4091.26 2639 4136.58 2640.72C4181.91 2642.45 4224.15 2643.78 4262.77 2643.51C4297.45 2643.38 4332.08 2641.34 4366.45 2637.4C4392.52 2634.49 4418.29 2629.87 4443.54 2623.58C4459.42 2619.54 4475.02 2614.7 4490.25 2609.1L4502.2 2604.85C4504.59 2603.78 4505.98 2603.38 4505.98 2603.38Z" fill="#E0E0E0"/>
<path d="M4031.67 2684.18C4027.56 2684.45 4023.44 2684.45 4019.34 2684.18L3985.8 2683.84C3957.51 2683.84 3918.43 2684.37 3875.42 2687.43C3832.4 2690.49 3793.63 2695.34 3765.72 2699.46L3732.73 2704.57C3728.72 2705.35 3724.65 2705.88 3720.55 2706.17C3724.39 2704.88 3728.37 2703.9 3732.42 2703.24C3740.13 2701.58 3751.31 2699.39 3765.18 2697.07C3801.47 2691.05 3838.12 2686.75 3874.95 2684.18C3911.82 2681.54 3948.83 2680.68 3985.8 2681.58C3999.99 2681.92 4011.47 2682.45 4019.34 2683.05C4023.48 2683.08 4027.61 2683.46 4031.67 2684.18Z" fill="#DADADA"/>
<path d="M4653.52 2365.26C4654.97 2365.49 4656.37 2365.89 4657.68 2366.46C4660.46 2367.32 4664.39 2368.79 4669.4 2370.65C4679.5 2374.5 4693.92 2380.41 4711.11 2388.72C4731.22 2398.54 4750.58 2409.46 4769.07 2421.41C4780.4 2428.19 4790.75 2436.11 4799.91 2444.99C4804.64 2449.97 4808.13 2455.74 4810.16 2461.93C4812.18 2468.29 4812.86 2474.91 4812.17 2481.47C4810.65 2494.19 4806.52 2506.59 4799.99 2518.08C4794.23 2528.85 4787.01 2539 4778.48 2548.31C4764.2 2564.28 4746.58 2577.8 4726.52 2588.17C4713.12 2595.14 4698.68 2600.48 4683.59 2604.05C4679.54 2605.07 4675.42 2605.87 4671.25 2606.44C4669.82 2606.78 4668.34 2606.96 4666.86 2606.97C4666.86 2606.57 4672.72 2605.64 4683.2 2602.72C4697.92 2598.72 4711.99 2593.12 4725.06 2586.04C4744.52 2575.68 4761.63 2562.36 4775.55 2546.71C4783.84 2537.54 4790.82 2527.55 4796.36 2516.95C4802.69 2505.81 4806.68 2493.8 4808.16 2481.47C4809.79 2469.22 4805.72 2456.91 4796.83 2447.25C4787.91 2438.58 4777.85 2430.84 4766.84 2424.2C4748.58 2412.15 4729.51 2401.06 4709.72 2390.98C4692.76 2382.47 4678.88 2376.23 4668.79 2372.04L4657.38 2367.19C4656.01 2366.69 4654.71 2366.04 4653.52 2365.26Z" fill="#E0E0E0"/>
<path d="M4804.46 2415.82C4807.24 2416.86 4809.83 2418.22 4812.17 2419.88C4818.83 2424.09 4824.91 2428.95 4830.28 2434.36C4848.66 2452.15 4859.44 2474.81 4860.85 2498.6C4862.25 2522.39 4854.18 2545.88 4837.99 2565.18C4833.22 2570.99 4827.72 2576.31 4821.57 2581.06C4819.46 2582.94 4817.02 2584.51 4814.33 2585.71C4822.09 2578.89 4829.23 2571.56 4835.68 2563.79C4850.77 2544.69 4858.24 2521.88 4856.94 2498.8C4855.65 2475.73 4845.67 2453.64 4828.51 2435.89C4821.09 2428.69 4813.05 2421.98 4804.46 2415.82Z" fill="#DADADA"/>
<path d="M1408.2 2740.25C1408.2 2740.78 1396.87 2737.39 1378.6 2732.74C1331.02 2720.61 1281.75 2714.09 1232.14 2713.34C1213.17 2713.01 1201.3 2713.34 1201.3 2712.88C1203.99 2712.23 1206.76 2711.89 1209.55 2711.88C1214.87 2711.42 1222.58 2711.08 1232.14 2710.95C1282.25 2710.38 1332.12 2717.05 1379.68 2730.68C1388.77 2733.27 1396.02 2735.6 1400.88 2737.33C1403.43 2738.08 1405.88 2739.06 1408.2 2740.25Z" fill="#E0E0E0"/>
<path d="M1137.94 1987.22C1138.94 1986.82 1166 2037.32 1198.37 2100.17C1230.75 2163.02 1256.26 2213.85 1255.26 2214.25C1254.26 2214.64 1227.12 2164.22 1194.75 2101.3C1162.37 2038.38 1136.86 1987.62 1137.94 1987.22Z" fill="url(#paint5_linear_187_7625)"/>
<path d="M2233.02 2465.79C2229.76 2461.63 2227.05 2457.17 2224.93 2452.5L2207.04 2420.48L2188.93 2388.65C2186.05 2384.46 2183.75 2380.01 2182.07 2375.36C2185.74 2379.15 2188.87 2383.3 2191.4 2387.72C2196.71 2395.63 2203.65 2406.72 2210.67 2419.28C2217.68 2431.84 2223.62 2443.33 2227.55 2451.77C2230.08 2456.22 2231.92 2460.93 2233.02 2465.79Z" fill="url(#paint6_linear_187_7625)"/>
<path d="M2213.21 2331.65C2215.46 2337.56 2217.11 2343.63 2218.14 2349.78C2221 2362.14 2224.47 2377.16 2228.32 2393.7C2232.17 2410.24 2236.03 2425.26 2238.8 2437.62C2240.65 2443.63 2241.89 2449.76 2242.5 2455.95C2239.68 2450.22 2237.53 2444.26 2236.11 2438.15C2232.71 2427.05 2228.4 2411.57 2224.39 2394.43C2220.38 2377.29 2217.22 2361.54 2215.37 2350.18C2213.93 2344.08 2213.21 2337.87 2213.21 2331.65Z" fill="url(#paint7_linear_187_7625)"/>
<path d="M2265.63 2347.59C2265.62 2352.92 2265.02 2358.24 2263.85 2363.47C2262.47 2373.24 2260.85 2386.72 2260.15 2401.74C2259.46 2416.75 2260.15 2430.24 2260.15 2440.08C2260.82 2445.39 2260.95 2450.75 2260.54 2456.09C2258.66 2450.96 2257.57 2445.65 2257.3 2440.27C2254.21 2414.55 2255.36 2388.58 2260.69 2363.14C2261.6 2357.8 2263.26 2352.58 2265.63 2347.59Z" fill="url(#paint8_linear_187_7625)"/>
<path d="M3055.38 2397.55C3047.59 2385.67 3040.57 2373.43 3034.33 2360.88C3026.86 2348.87 3020.17 2336.52 3014.29 2323.87C3032 2346.62 3045.83 2371.43 3055.38 2397.55Z" fill="url(#paint9_linear_187_7625)"/>
<path d="M3049.05 2295.97C3050.36 2295.97 3048.05 2319.82 3051.6 2349.12C3055.14 2378.42 3062.7 2401.14 3061.47 2401.41C3058.73 2396.73 3056.71 2391.78 3055.45 2386.66C3051.77 2374.45 3049.19 2362.01 3047.74 2349.45C3046.25 2336.91 3045.94 2324.29 3046.82 2311.71C3046.77 2306.4 3047.52 2301.11 3049.05 2295.97Z" fill="url(#paint10_linear_187_7625)"/>
<path d="M3088.21 2302.41C3089.37 2302.41 3085.36 2323.41 3084.36 2348.92C3083.36 2374.43 3085.52 2395.83 3084.36 2395.89C3082.65 2391.5 3081.72 2386.91 3081.58 2382.27C3080.28 2371.24 3079.87 2360.14 3080.35 2349.05C3080.81 2337.92 3082.12 2326.82 3084.28 2315.83C3084.85 2311.22 3086.18 2306.7 3088.21 2302.41Z" fill="url(#paint11_linear_187_7625)"/>
<path d="M3510.72 2352.44C3514.73 2357.15 3518.07 2362.26 3520.67 2367.66C3527.7 2380.38 3533.6 2393.56 3538.32 2407.05C3543.02 2420.54 3546.55 2434.31 3548.88 2448.25C3550.21 2454 3550.73 2459.86 3550.42 2465.72C3548.48 2460.13 3547.03 2454.42 3546.1 2448.65C3543.71 2438.15 3539.94 2423.73 3534.46 2408.05C3528.99 2392.37 3522.82 2378.55 3518.04 2368.65C3515.13 2363.42 3512.69 2358 3510.72 2352.44Z" fill="url(#paint12_linear_187_7625)"/>
<path d="M3563.45 2336.23C3563.41 2342.89 3562.93 2349.55 3561.98 2356.16C3559.33 2388.25 3561.27 2420.49 3567.77 2452.17C3569.42 2458.75 3570.68 2465.4 3571.54 2472.1C3568.5 2465.91 3566.28 2459.45 3564.91 2452.83C3560.79 2436.99 3558.21 2420.88 3557.2 2404.66C3556.19 2388.48 3556.79 2372.26 3558.98 2356.16C3559.57 2349.39 3561.07 2342.7 3563.45 2336.23Z" fill="url(#paint13_linear_187_7625)"/>
<path d="M3605.77 2373.5C3607 2373.83 3597.44 2395.69 3593.36 2423.93C3589.27 2452.17 3591.89 2475.42 3590.66 2475.49C3588.91 2470.6 3588.02 2465.52 3588.04 2460.41C3586.13 2435.67 3589.79 2410.85 3598.83 2387.32C3600.37 2382.46 3602.71 2377.8 3605.77 2373.5Z" fill="url(#paint14_linear_187_7625)"/>
<path d="M3642.08 2393.3C3635.19 2401.42 3629.06 2410 3623.73 2418.95C3619.72 2428.39 3616.62 2438.1 3614.48 2447.98C3613.34 2437.6 3615.27 2427.14 3620.1 2417.57C3624.93 2408.01 3632.49 2399.66 3642.08 2393.3Z" fill="url(#paint15_linear_187_7625)"/>
<path d="M3528.07 2472.17C3523.62 2452.24 3512.71 2433.82 3496.62 2419.01C3506.63 2424.87 3514.77 2432.81 3520.27 2442.11C3525.77 2451.4 3528.45 2461.74 3528.07 2472.17Z" fill="url(#paint16_linear_187_7625)"/>
<path d="M4043.31 2389.71C4059.24 2406.27 4069.01 2426.57 4071.37 2447.98C4070.21 2447.98 4066.51 2434.36 4058.73 2418.35C4050.94 2402.34 4042.31 2390.31 4043.31 2389.71Z" fill="url(#paint17_linear_187_7625)"/>
<path d="M4070.21 2383.34C4071.37 2383.34 4072.68 2398.42 4077.3 2416.56C4081.93 2434.69 4087.71 2449.11 4086.63 2449.44C4079.95 2439.52 4075.45 2428.62 4073.37 2417.29C4069.95 2406.23 4068.88 2394.72 4070.21 2383.34Z" fill="url(#paint18_linear_187_7625)"/>
<path d="M4108.83 2391.38C4109.99 2391.71 4104.98 2405.33 4102.51 2422.73C4100.05 2440.14 4100.82 2454.36 4099.66 2454.43C4096.66 2443.9 4096.27 2432.94 4098.5 2422.27C4099.48 2411.47 4102.99 2400.96 4108.83 2391.38Z" fill="url(#paint19_linear_187_7625)"/>
<path d="M3814.59 2540.2C3865.4 2536.94 3915.38 2527.25 3962.91 2511.43C3987.27 2503.33 4012.09 2493.49 4038.07 2495.29C4070.06 2497.48 4097.96 2517.15 4130.03 2518.67C4178.75 2521 4219.06 2481.27 4267.86 2480.4C4305.4 2479.74 4339.4 2502.33 4376.94 2502.06C4405.92 2502.06 4432.05 2488.11 4459.34 2479.74C4486.63 2471.37 4521.47 2469.64 4540.36 2488.51C4524.94 2510.04 4491.87 2515.09 4462.81 2517.54C4246.61 2536.72 4029.69 2547.11 3812.05 2548.7" fill="#DBAC7D"/>
<path d="M1822.77 2564.12C1913.11 2574.79 2005.1 2566.93 2091.26 2541.2C2130.57 2529.44 2169.58 2513.82 2211.21 2513.62C2262.93 2513.62 2311.03 2537.08 2362.53 2541.26C2471.22 2550.17 2573.13 2471.9 2680.58 2488.11C2723.21 2494.76 2762.76 2515.95 2806 2514.69C2846.86 2513.49 2886.02 2491.97 2926.33 2498.01C2957.78 2502.73 2983.53 2523.52 3014.98 2528.44C3054.3 2534.49 3092.99 2514.55 3132.92 2514.02C3165.3 2513.56 3196.06 2525.78 3228.13 2529.04C3269.29 2533.16 3310.61 2522.39 3352 2523.92C3388.46 2525.38 3423.46 2536.35 3457.69 2547.24L3035.33 2559.67L1912.04 2592.89" fill="#DBAC7D"/>
<path d="M2540.9 2761.78C2529.35 2758.4 2517.17 2756.89 2504.98 2757.33H2505.52C2471.77 2755.94 2437.98 2759.01 2405.31 2766.43C2395.52 2768 2386.19 2771.23 2377.87 2775.93C2373.75 2778.34 2370.47 2781.67 2368.39 2785.57C2366.31 2789.47 2365.51 2793.79 2366.07 2798.05C2368.54 2809.55 2382.95 2815.66 2395.9 2819.31C2431.87 2829.38 2469.71 2833.5 2507.45 2831.47C2521.59 2831.27 2535.5 2828.41 2548.23 2823.1C2554.52 2820.34 2559.89 2816.23 2563.81 2811.17C2567.74 2806.11 2570.1 2800.27 2570.66 2794.2C2570.66 2779.58 2556.78 2767.03 2540.9 2761.78Z" fill="#EBEBEB"/>
<path d="M3973.57 370.786C3980.7 320.401 3945.63 273.78 3895.24 266.654C3844.86 259.529 3798.24 294.598 3791.11 344.984C3783.99 395.369 3819.06 441.991 3869.44 449.116C3919.83 456.241 3966.45 421.172 3973.57 370.786Z" fill="#FFBA7E"/>
<path d="M3893.85 452.257C3881.51 452.343 3869.28 449.924 3857.91 445.148C3841.19 438.088 3826.93 426.259 3816.91 411.139C3806.88 396.019 3801.54 378.28 3801.54 360.138C3801.54 341.996 3806.88 324.257 3816.91 309.137C3826.93 294.018 3841.19 282.188 3857.91 275.128C3869.29 270.359 3881.51 267.903 3893.85 267.903C3906.19 267.903 3918.41 270.359 3929.79 275.128C3940.75 279.833 3950.7 286.6 3959.09 295.06C3967.68 303.626 3974.49 313.801 3979.13 325.002C3983.78 336.203 3986.17 348.211 3986.17 360.337C3986.17 372.464 3983.78 384.472 3979.13 395.673C3974.49 406.874 3967.68 417.049 3959.09 425.615C3950.7 434.075 3940.75 440.842 3929.79 445.547C3918.39 450.181 3906.16 452.464 3893.85 452.257Z" fill="#FFBA7E"/>
<path d="M3880.69 566.135C3880.16 566.135 3879.76 549.127 3879.76 528.132C3879.76 507.137 3880.16 490.062 3880.69 490.062C3881.68 502.726 3882.01 515.433 3881.69 528.132C3882.01 540.808 3881.68 553.493 3880.69 566.135Z" fill="#FFBA7E"/>
<path d="M3880.7 566.202C3880.7 566.202 3880.23 566.202 3879.96 554.973C3879.96 547.798 3879.63 538.297 3879.63 528.397C3879.63 518.498 3879.63 508.465 3879.96 501.821C3879.96 490.593 3880.56 490.593 3880.7 490.593C3880.83 490.593 3881.23 490.593 3881.49 501.821C3881.49 508.997 3881.49 518.564 3881.49 528.397C3881.49 538.231 3881.49 548.329 3881.49 554.973C3881.23 566.202 3880.89 566.202 3880.7 566.202ZM3880.7 490.261C3880.3 491.656 3879.83 506.074 3879.83 528.132C3879.83 550.19 3880.3 564.541 3880.7 565.936C3881.16 564.541 3881.56 550.123 3881.56 528.132C3881.56 506.14 3881.16 491.656 3880.7 490.261Z" fill="#FFBA7E"/>
<path d="M3827.61 468.668C3828.07 468.668 3819.37 484.813 3808.21 504.147C3797.05 523.481 3787.68 538.895 3787.21 538.629C3786.75 538.363 3795.39 522.484 3806.55 503.15C3817.71 483.816 3826.94 468.402 3827.61 468.668Z" fill="#FFBA7E"/>
<path d="M3787.08 538.696C3787.08 538.696 3786.62 538.696 3792.33 527.999C3796.05 521.355 3801.03 512.452 3806.41 503.084C3811.8 493.716 3816.98 485.012 3820.96 478.501C3826.55 469.332 3827.61 468.535 3827.61 468.535C3827.61 468.535 3828.01 468.535 3822.29 479.298C3818.64 485.942 3813.66 494.845 3808.27 504.147C3798.71 520.757 3788.01 538.496 3787.15 538.696H3787.08ZM3827.34 468.801C3826.21 469.93 3818.17 482.952 3806.48 503.217C3794.79 523.481 3787.68 536.968 3787.08 538.164C3788.21 537.101 3796.25 524.079 3807.94 503.815C3819.64 483.55 3826.94 470.329 3827.48 468.801H3827.34Z" fill="#FFBA7E"/>
<path d="M3773.06 434.717C3766.31 441.31 3759.12 447.437 3751.54 453.054C3744.36 459.184 3736.77 464.801 3728.81 469.864C3735.57 463.362 3742.76 457.325 3750.34 451.792C3757.5 445.571 3765.09 439.865 3773.06 434.717Z" fill="#FFBA7E"/>
<path d="M3728.81 469.997C3728.81 469.997 3728.48 469.598 3734.86 464.216C3738.91 460.695 3744.43 456.244 3750.34 451.526C3757.58 445.435 3765.19 439.799 3773.13 434.651C3766.33 441.238 3759.12 447.385 3751.54 453.054C3745.62 457.772 3740.04 462.09 3735.72 465.279C3730.27 469.465 3729.14 469.997 3728.81 469.997ZM3773 434.783C3765.14 439.931 3757.59 445.545 3750.41 451.593C3742.91 457.242 3735.74 463.321 3728.95 469.797C3736.78 464.64 3744.3 459.027 3751.47 452.988C3758.97 447.32 3766.16 441.243 3773 434.783Z" fill="#FFBA7E"/>
<path d="M3972.65 528.663C3971.58 525.614 3970.78 522.48 3970.26 519.295C3968.93 513.515 3967.07 505.542 3964.67 496.772C3962.28 488.002 3959.96 480.095 3958.03 474.448C3956.92 471.422 3956.05 468.311 3955.44 465.146C3957.1 467.922 3958.42 470.889 3959.36 473.983C3961.42 479.564 3964.08 487.271 3966.4 496.24C3968.73 505.21 3970.45 513.116 3971.45 519.029C3972.24 522.181 3972.64 525.415 3972.65 528.663Z" fill="#FFBA7E"/>
<path d="M3972.65 528.73C3972.65 528.73 3971.98 527.334 3970.12 519.361C3968.93 513.913 3967 505.675 3964.61 496.772C3962.22 487.869 3959.69 479.697 3957.96 474.448C3955.64 466.874 3955.17 465.213 3955.51 465.08C3955.84 464.947 3955.51 465.08 3956.83 467.472C3958.16 469.864 3958.5 471.458 3959.49 474.116C3960.95 477.903 3963.74 485.876 3966.6 496.373C3969.46 506.871 3970.92 515.109 3971.65 519.162C3972.35 522.349 3972.71 525.6 3972.71 528.862L3972.65 528.73ZM3955.64 465.08C3956.34 468.137 3957.2 471.154 3958.23 474.116C3959.82 479.365 3962.28 487.404 3964.87 496.44C3967.47 505.476 3969.19 513.581 3970.39 519.029C3971.58 524.477 3972.38 527.667 3972.71 528.264C3972.57 525.074 3972.19 521.899 3971.58 518.764C3970.92 514.777 3969.33 506.472 3966.54 495.975C3964.55 488.461 3962.17 481.054 3959.43 473.784C3958.43 470.775 3957.16 467.862 3955.64 465.08Z" fill="#FFBA7E"/>
<path d="M4066.13 462.29C4056.6 455.342 4047.5 447.82 4038.89 439.766C4029.79 432.285 4021.14 424.277 4012.98 415.782C4022.46 422.863 4031.55 430.448 4040.22 438.504C4049.26 445.984 4057.9 453.923 4066.13 462.29Z" fill="#FFBA7E"/>
<path d="M4066.13 462.422C4056.67 455.357 4047.58 447.818 4038.89 439.833C4031.78 433.654 4025.14 427.741 4020.22 423.223C4012.58 416.114 4012.78 415.848 4012.91 415.715C4022.42 422.841 4031.55 430.448 4040.28 438.504C4047.39 444.749 4053.97 450.663 4058.89 455.18C4066.59 462.29 4066.33 462.489 4066.26 462.622L4066.13 462.422ZM4012.98 415.914C4013.64 417.044 4023.47 426.279 4038.89 439.7C4054.3 453.121 4064.67 461.692 4065.93 462.223C4065.26 461.027 4055.43 451.858 4040.02 438.438C4024.6 425.017 4014.31 416.446 4012.98 415.914Z" fill="#FFBA7E"/>
<path d="M4102.01 371.134C4098.25 370.868 4094.52 370.335 4090.84 369.539C4084.2 368.41 4074.57 366.948 4064.27 365.752C4053.97 364.556 4044.34 363.825 4037.29 363.36C4033.56 363.33 4029.82 363.019 4026.13 362.43C4029.85 361.89 4033.61 361.757 4037.36 362.032C4044.34 362.032 4053.9 362.629 4064.47 363.825C4073.4 364.824 4082.27 366.288 4091.04 368.21C4094.78 368.839 4098.45 369.818 4102.01 371.134Z" fill="#FFBA7E"/>
<path d="M4101.67 371.267C4100.81 371.267 4098.62 370.935 4093.04 370.004H4090.84C4081.54 368.41 4072.51 367.147 4064.27 366.151C4056.03 365.154 4046.79 364.423 4037.29 363.825H4035.1C4027.53 363.36 4026.07 363.227 4026.07 362.895C4029.81 362.375 4033.59 362.219 4037.36 362.43C4042.14 362.43 4052.04 362.829 4064.47 364.224C4076.89 365.619 4086.59 367.613 4091.04 368.609C4094.76 369.279 4098.4 370.28 4101.94 371.599C4101.94 371.599 4101.94 371.267 4101.67 371.267ZM4026.26 362.43C4029.17 362.823 4032.1 363.067 4035.04 363.161H4037.29C4046.73 363.759 4055.83 364.556 4064.2 365.486C4072.57 366.417 4081.61 367.745 4090.78 369.34H4092.97C4097.36 370.071 4100.68 370.669 4101.61 370.669C4098.12 369.447 4094.54 368.492 4090.91 367.812C4086.26 366.815 4076.56 364.888 4064.33 363.427C4052.11 361.965 4042.01 361.699 4037.23 361.633C4033.56 361.644 4029.9 361.91 4026.26 362.43Z" fill="#FFBA7E"/>
<path d="M4102.07 281.506C4102.07 282.038 4082.14 287.287 4057.56 293.333C4032.98 299.379 4012.64 303.83 4012.51 303.299C4012.38 302.767 4032.44 297.518 4057.09 291.472C4081.74 285.426 4102.01 280.975 4102.07 281.506Z" fill="#FFBA7E"/>
<path d="M4012.98 303.431H4012.64C4012.64 303.431 4012.64 302.9 4025.93 299.445C4034.37 297.186 4045.86 294.329 4057.56 291.406L4089.32 283.965C4102.6 281.041 4102.6 281.373 4102.6 281.506C4102.6 281.506 4102.6 282.038 4089.32 285.493C4080.88 287.752 4069.38 290.608 4057.69 293.532L4025.93 300.973C4021.67 302.047 4017.34 302.868 4012.98 303.431ZM4102.14 281.573C4100.35 281.573 4083.27 285.227 4057.36 291.539C4031.45 297.85 4014.57 302.435 4012.98 303.299C4014.77 303.299 4031.85 299.578 4057.76 293.266C4083.67 286.954 4100.28 282.37 4101.87 281.573H4102.14Z" fill="#FFBA7E"/>
<path d="M3997.96 177.063C3998.36 177.063 3988.86 192.543 3976.63 211.08C3969.54 222.427 3961.86 233.404 3953.65 243.968C3953.25 243.968 3962.75 228.487 3974.97 209.951C3982.07 198.603 3989.74 187.626 3997.96 177.063Z" fill="#FFBA7E"/>
<path d="M3953.65 244.101C3953.65 243.237 3964.48 225.896 3974.97 210.083C3980.89 201.114 3986.53 192.743 3990.85 186.564C3997.5 176.93 3997.89 176.996 3998.03 177.063C3998.03 177.063 3998.49 177.063 3992.18 187.427C3988.13 194.071 3982.68 202.31 3976.77 211.213C3970.85 220.116 3965.21 228.554 3960.89 234.733C3954.77 243.303 3953.91 244.101 3953.65 244.101ZM3997.83 177.196C3996.63 178.192 3987.86 190.484 3975.11 210.017C3962.35 229.55 3954.24 242.373 3953.78 243.835C3954.97 242.838 3963.74 230.547 3976.57 211.014C3989.39 191.48 3997.36 178.657 3997.83 177.196Z" fill="#FFBA7E"/>
<path d="M3894.58 155.204C3894.84 159.43 3894.84 163.668 3894.58 167.894C3894.58 175.667 3894.58 186.431 3894.58 198.323C3894.58 210.216 3894.58 221.046 3894.91 228.819C3895.22 233.044 3895.22 237.285 3894.91 241.509C3894.12 237.346 3893.7 233.122 3893.65 228.886C3893.18 221.112 3892.79 210.283 3892.79 198.323C3892.79 186.364 3892.79 175.601 3893.58 167.827C3893.55 163.599 3893.88 159.375 3894.58 155.204Z" fill="#FFBA7E"/>
<path d="M3894.65 241.576C3894.65 241.576 3894.65 241.576 3894.05 238.121C3893.45 234.666 3893.38 232.54 3893.38 228.886C3893.38 223.637 3892.52 212.674 3892.45 198.323C3892.39 183.972 3892.99 173.076 3893.32 167.827C3893.32 164.107 3893.78 161.183 3893.98 158.592C3893.98 155.27 3894.51 155.137 3894.65 155.137C3894.65 155.137 3895.05 156.267 3894.65 167.894C3894.65 175.202 3894.65 186.364 3894.65 198.323C3894.65 210.283 3894.65 220.581 3894.98 228.354V228.819C3894.98 240.446 3894.98 241.576 3894.98 241.576H3894.65ZM3894.65 155.204C3894.01 159.317 3893.63 163.467 3893.52 167.628C3893.52 172.877 3892.65 183.84 3892.65 198.124C3892.65 212.409 3893.25 223.438 3893.58 228.687C3893.7 232.848 3894.07 236.998 3894.71 241.111C3894.71 240.048 3894.71 233.204 3894.71 228.62V228.155C3894.71 220.382 3894.71 209.818 3894.38 198.124C3894.05 186.431 3894.38 175.003 3894.38 167.695C3894.65 163.243 3894.78 156.466 3894.58 155.403L3894.65 155.204Z" fill="#FFBA7E"/>
<path d="M3816.31 252.472C3815.85 252.472 3806.08 237.656 3794.59 218.787C3783.09 199.918 3774.12 184.437 3774.66 184.172C3775.19 183.906 3784.82 198.921 3796.32 217.79C3807.81 236.659 3816.71 252.472 3816.31 252.472Z" fill="#FFBA7E"/>
<path d="M3816.25 252.804C3816.25 252.804 3815.25 252.007 3809.6 243.104C3805.48 236.46 3800.17 228.221 3794.59 219.119C3784.69 202.974 3774.66 185.301 3774.66 184.438C3774.66 184.438 3775.05 184.437 3781.3 194.071C3785.35 200.715 3790.67 208.954 3796.25 218.056C3801.83 227.158 3807.01 235.796 3810.8 242.373C3816.71 252.605 3816.45 252.738 3816.25 252.871V252.804ZM3774.66 184.57C3775.05 186.099 3782.63 199.254 3794.59 219.053C3806.55 238.852 3814.99 251.475 3816.11 252.273C3815.72 250.811 3808.21 237.59 3796.18 217.857C3784.16 198.124 3775.79 185.633 3774.66 184.57Z" fill="#FFBA7E"/>
<path d="M3769.54 292.336C3766.22 292.158 3762.92 291.624 3759.71 290.742C3753.73 289.479 3745.49 287.486 3736.52 284.828C3727.55 282.171 3719.58 279.447 3713.86 277.254C3710.69 276.248 3707.63 274.889 3704.76 273.201C3708.03 273.815 3711.23 274.727 3714.33 275.925C3720.11 277.786 3728.15 280.377 3737.05 282.968C3745.95 285.559 3754.13 287.818 3760.04 289.612C3763.28 290.223 3766.47 291.135 3769.54 292.336Z" fill="#FFBA7E"/>
<path d="M3769.21 292.336H3767.15C3765.35 292.336 3762.9 291.605 3760.04 291.007C3755.99 290.143 3747.55 288.217 3736.85 285.094C3726.16 281.971 3717.72 279.048 3714 277.453L3707.35 274.729C3704.83 273.6 3704.89 273.467 3704.96 273.334C3705.03 273.201 3706.36 273.334 3714.59 275.992C3719.25 277.453 3727.88 280.244 3737.38 283.034C3746.88 285.825 3753.73 287.685 3760.31 289.678C3768.68 291.937 3769.94 292.336 3769.87 292.668C3769.87 292.668 3769.61 292.336 3769.21 292.336ZM3704.89 273.135C3707.78 274.641 3710.78 275.93 3713.86 276.988C3717.78 278.516 3725.82 281.44 3736.59 284.629C3747.35 287.818 3755.65 289.678 3759.71 290.542C3762.84 291.281 3766.01 291.813 3769.21 292.137C3768.54 291.738 3763.76 290.476 3759.91 289.413C3753.26 287.619 3745.49 285.493 3736.92 282.769C3728.35 280.045 3718.78 277.188 3714.13 275.726C3710.61 274.995 3705.76 273.467 3704.89 273.401V273.135Z" fill="#FFBA7E"/>
<path d="M3749.08 363.294C3739.36 365.178 3729.52 366.443 3719.64 367.081C3709.84 368.364 3699.96 368.986 3690.08 368.941C3709.6 365.78 3729.31 363.893 3749.08 363.294Z" fill="#FFBA7E"/>
<path d="M3691.74 369.207C3691.17 369.282 3690.59 369.282 3690.01 369.207C3699.73 367.292 3709.56 366.005 3719.44 365.354C3729.3 364.155 3739.22 363.534 3749.14 363.493C3739.42 365.334 3729.59 366.598 3719.71 367.28C3708.35 368.277 3696.19 369.207 3691.74 369.207ZM3690.21 369.207C3700.05 369.087 3709.88 368.421 3719.64 367.214C3729.47 366.559 3739.26 365.339 3748.94 363.56C3739.11 363.676 3729.28 364.319 3719.51 365.486C3709.69 366.093 3699.91 367.247 3690.21 368.941V369.207Z" fill="#FFBA7E"/>
<path d="M2775.97 2211.94C2773.7 2208.55 2770.44 2205.94 2766.63 2204.47C2760.05 2201.95 2752.8 2202.34 2745.78 2202.79C2747.54 2182.95 2727.54 2169.8 2709.63 2169.8C2704.31 2170 2699.19 2171.89 2695.02 2175.2C2689.44 2169.33 2682.67 2164.72 2675.16 2161.69C2664.29 2156.82 2652.26 2155.17 2640.49 2156.93C2634.05 2158.08 2627.91 2160.51 2622.42 2164.08C2616.94 2167.65 2612.24 2172.29 2608.59 2177.72C2602.57 2171.31 2593.51 2168.74 2584.75 2167.87C2577.12 2166.75 2569.34 2167.91 2562.37 2171.2C2555.59 2174.87 2550.47 2182.39 2551.48 2189.97C2542.64 2190.67 2533.21 2192.63 2527.11 2199.1C2521.01 2205.56 2520.51 2217.73 2528.15 2222.29C2520.06 2223.02 2515.97 2233.49 2519 2241.15C2522.41 2249.55 2530.75 2254.22 2538.95 2256.29C2543.99 2257.69 2549.22 2258.27 2554.45 2258C2559.35 2257.67 2564.14 2256.42 2568.58 2254.3C2570.17 2256.7 2572.23 2258.75 2574.65 2260.32C2577.06 2261.88 2579.77 2262.94 2582.6 2263.43C2585.44 2263.91 2588.34 2263.8 2591.14 2263.12C2593.93 2262.44 2596.56 2261.19 2598.85 2259.45C2600.87 2264.18 2604.05 2268.33 2608.08 2271.52C2612.12 2274.71 2616.89 2276.84 2621.97 2277.7C2627.04 2278.57 2632.24 2278.16 2637.11 2276.49C2641.98 2274.83 2646.36 2271.97 2649.83 2268.18C2653.35 2272.75 2657.99 2276.32 2663.3 2278.54C2668.62 2280.77 2674.42 2281.57 2680.14 2280.87C2685.86 2280.16 2691.29 2277.98 2695.91 2274.53C2700.53 2271.09 2704.17 2266.5 2706.47 2261.21C2716.32 2268.91 2728.41 2268.83 2739.35 2263.76C2744.61 2261.28 2748.97 2257.23 2751.85 2252.18C2752.5 2251.03 2756.41 2237.32 2755.24 2237.6C2760.3 2236.66 2765.18 2234.94 2769.71 2232.51C2771.94 2231.25 2773.86 2229.5 2775.32 2227.38C2776.78 2225.27 2777.73 2222.85 2778.1 2220.31C2778.34 2217.36 2777.59 2214.41 2775.97 2211.94Z" fill="#CF9C66"/>
<path d="M2607.75 2212C2605.68 2209.14 2602.65 2207.15 2599.21 2206.38C2595.77 2205.61 2592.17 2206.13 2589.09 2207.83C2586.75 2205.03 2583.72 2202.9 2580.3 2201.64C2576.88 2200.39 2573.19 2200.06 2569.6 2200.68C2566.01 2201.31 2562.65 2202.86 2559.85 2205.2C2557.05 2207.53 2554.92 2210.56 2553.66 2213.98C2555.38 2211.51 2557.62 2209.45 2560.22 2207.93C2562.82 2206.41 2565.72 2205.48 2568.72 2205.2C2571.71 2204.92 2574.73 2205.29 2577.57 2206.29C2580.41 2207.3 2582.99 2208.91 2585.14 2211.02C2585.86 2211.71 2586.53 2212.46 2587.13 2213.25C2587.44 2212.97 2587.76 2212.71 2588.11 2212.47C2589.04 2211.78 2590.05 2211.22 2591.13 2210.79C2594.12 2209.57 2597.44 2209.39 2600.55 2210.28C2603.66 2211.16 2606.39 2213.07 2608.28 2215.69C2609.28 2217.05 2610.01 2218.57 2610.47 2220.19C2610.45 2217.24 2609.5 2214.37 2607.75 2212Z" fill="#DBAC7D"/>
<path d="M2674.63 2198.29C2676.55 2195.64 2679.37 2193.79 2682.55 2193.08C2685.74 2192.37 2689.08 2192.85 2691.95 2194.42C2694.12 2191.84 2696.94 2189.87 2700.11 2188.72C2703.28 2187.56 2706.71 2187.26 2710.03 2187.84C2713.36 2188.42 2716.48 2189.86 2719.07 2192.02C2721.67 2194.19 2723.65 2196.99 2724.82 2200.16C2723.23 2197.87 2721.15 2195.95 2718.74 2194.54C2716.33 2193.14 2713.64 2192.27 2710.86 2192C2708.09 2191.74 2705.28 2192.08 2702.65 2193C2700.01 2193.93 2697.61 2195.42 2695.61 2197.36C2694.94 2198.01 2694.32 2198.7 2693.74 2199.43L2692.87 2198.73C2689.99 2196.65 2686.4 2195.79 2682.88 2196.35C2679.37 2196.9 2676.22 2198.83 2674.12 2201.7C2673.21 2202.96 2672.52 2204.37 2672.08 2205.87C2672.13 2203.14 2673.02 2200.49 2674.63 2198.29Z" fill="#DBAC7D"/>
<path d="M2631.53 2236.95C2633.45 2234.31 2636.27 2232.46 2639.46 2231.75C2642.65 2231.04 2645.99 2231.51 2648.85 2233.09C2651.03 2230.51 2653.84 2228.54 2657.02 2227.39C2660.19 2226.23 2663.61 2225.93 2666.94 2226.51C2670.27 2227.09 2673.39 2228.53 2675.98 2230.69C2678.58 2232.86 2680.56 2235.66 2681.73 2238.83C2680.13 2236.54 2678.06 2234.62 2675.64 2233.21C2673.23 2231.8 2670.54 2230.94 2667.76 2230.67C2664.98 2230.41 2662.17 2230.75 2659.54 2231.67C2656.9 2232.6 2654.5 2234.09 2652.49 2236.03C2651.84 2236.69 2651.22 2237.38 2650.64 2238.1C2650.36 2237.85 2650.06 2237.61 2649.75 2237.4C2648.89 2236.76 2647.95 2236.24 2646.95 2235.84C2644.18 2234.7 2641.1 2234.53 2638.22 2235.35C2635.34 2236.18 2632.82 2237.94 2631.06 2240.37C2630.13 2241.63 2629.44 2243.04 2629.02 2244.54C2629.05 2241.81 2629.93 2239.16 2631.53 2236.95Z" fill="#DBAC7D"/>
<path d="M2694.88 1760.13C2702.92 1741.13 2687.41 1716.73 2688.95 1700C2663.43 1715.19 2646.37 1739.65 2648.94 1761.19C2650.35 1770.73 2654.21 1779.75 2660.13 1787.36C2674.63 1786.6 2688.56 1775.1 2694.88 1760.13Z" fill="#70B184"/>
<path d="M2541.55 1968.98C2529.77 1958.85 2532.04 1937.19 2525.4 1926.42C2547.79 1928.16 2567.38 1938.93 2572.97 1954.4C2575.18 1961.32 2575.57 1968.69 2574.12 1975.81C2564.07 1980.03 2550.81 1976.96 2541.55 1968.98Z" fill="#70B184"/>
<path d="M2755.07 1942.65C2768.19 1934.26 2769.06 1912.57 2777.15 1902.86C2754.76 1901.35 2733.78 1909.19 2726.17 1923.62C2722.97 1930.15 2721.52 1937.39 2721.94 1944.64C2731.17 1950.26 2744.75 1949.2 2755.07 1942.65Z" fill="#70B184"/>
<path d="M2620.26 1961.12C2621.35 1951.66 2611.3 1942.87 2609.79 1935.26C2600.48 1945.31 2596.08 1958.38 2600.03 1967.58C2601.92 1971.61 2604.81 1975.09 2608.42 1977.68C2611.7 1976.24 2614.53 1973.94 2616.62 1971.03C2618.7 1968.11 2619.96 1964.69 2620.26 1961.12Z" fill="#70B184"/>
<path d="M2676.75 1725.1C2668.77 1745.15 2662.51 1765.85 2658.06 1786.96C2653.27 1808.34 2649.64 1829.97 2647.2 1851.74C2642.14 1893.71 2641.3 1936.36 2641.61 1978.69C2641.61 1990.39 2641.77 2002.1 2642.08 2013.83C2642.31 2025.87 2638.84 2129.65 2637.89 2191.99C2637.89 2197.59 2652.6 2198.09 2652.49 2191.99C2651.37 2130.43 2649.44 2006.98 2649.22 1985.88C2648.99 1964.78 2649.08 1944.16 2649.61 1923.32C2650.35 1880.84 2654.16 1838.47 2661 1796.53C2663.01 1784.87 2665.22 1773.23 2667.97 1761.7C2670.76 1749.55 2674.32 1737.61 2677.51 1725.57C2677.59 1725.1 2677.03 1724.46 2676.75 1725.1Z" fill="#37474F"/>
<path d="M2601.68 2000.07C2588.75 1985.8 2552.29 1948.81 2543.14 1941.81C2548.94 1948.55 2565.08 1967.81 2575.99 1981.54C2587.44 1995.95 2644.04 2062.05 2644.04 2062.05L2644.74 2048.98C2644.74 2048.98 2613.01 2012.58 2601.68 2000.07Z" fill="#37474F"/>
<path d="M2646.56 2006.45V2018.51C2662.68 2004.01 2708.12 1963.22 2718.81 1952.75C2731.43 1940.58 2749.98 1923.6 2756.58 1917.66C2746.62 1923.4 2705.6 1955.3 2690.94 1967.75C2680.92 1976.26 2656.8 1997.44 2646.56 2006.45Z" fill="#37474F"/>
<path d="M2623.92 2027.21L2620.29 2033.62C2613.93 2014.75 2609.68 1995.24 2607.61 1975.44C2607.15 1968.4 2607.19 1961.33 2607.75 1954.29C2607.75 1954.12 2608.06 1954.29 2608.06 1954.43C2608.31 1960.22 2608.53 1965.99 2609.18 1971.75C2609.88 1977.72 2610.89 1983.65 2612.2 1989.52C2614.63 2000.82 2617.94 2011.92 2622.11 2022.7C2622.69 2024.22 2623.31 2025.81 2623.92 2027.21Z" fill="#37474F"/>
<path d="M2725.86 1845.72C2734.65 1838.14 2732.94 1821.97 2737.89 1813.91C2721.1 1815.2 2706.5 1823.26 2702.41 1834.76C2700.76 1839.94 2700.46 1845.46 2701.54 1850.79C2709.02 1854.01 2718.92 1851.68 2725.86 1845.72Z" fill="#70B184"/>
<path d="M2715.79 1882.66C2722.89 1882.32 2728.18 1873.87 2733.61 1871.86C2725.22 1866.26 2714.92 1864.5 2708.59 1868.53C2705.84 1870.4 2703.61 1872.96 2702.13 1875.94C2703.59 1878.19 2705.63 1880 2708.03 1881.18C2710.44 1882.36 2713.12 1882.88 2715.79 1882.66Z" fill="#70B184"/>
<path d="M2680.87 1868.95C2690.55 1858.32 2717.83 1830.64 2724.66 1825.41C2720.32 1830.45 2708.26 1845 2700.09 1855.13C2691.53 1865.9 2649.19 1915.31 2649.19 1915.31L2648.69 1905.52C2648.69 1905.52 2672.39 1878.32 2680.87 1868.95Z" fill="#37474F"/>
<path d="M2667.46 1893.32L2662.29 1891.42C2675.44 1884.45 2689.33 1878.96 2703.7 1875.05C2708.83 1873.86 2714.05 1873.06 2719.31 1872.64C2719.31 1872.64 2719.31 1872.84 2719.31 1872.87C2715.09 1873.76 2710.92 1874.6 2706.66 1875.66C2702.41 1876.73 2698.1 1878.46 2693.9 1880.03C2685.85 1883.15 2678.06 1886.89 2670.6 1891.22C2669.5 1892.06 2668.47 1892.68 2667.46 1893.32Z" fill="#37474F"/>
<path d="M2601.26 1759.66C2595.5 1749.58 2602.52 1734.89 2600.56 1725.63C2615.84 1732.43 2627.03 1744.97 2627.03 1757.17C2626.86 1762.6 2625.29 1767.9 2622.47 1772.55C2614.35 1773.09 2605.74 1767.6 2601.26 1759.66Z" fill="#70B184"/>
<path d="M2598.38 1797.82C2591.77 1795.02 2589.65 1785.4 2585.2 1781.68C2595.16 1779.19 2605.26 1781 2609.88 1786.91C2611.85 1789.6 2613.09 1792.75 2613.49 1796.06C2611.36 1797.69 2608.84 1798.71 2606.18 1799.03C2603.52 1799.34 2600.82 1798.92 2598.38 1797.82Z" fill="#70B184"/>
<path d="M2635.87 1796.62C2630.28 1783.33 2613.88 1748.13 2609.21 1740.91C2611.59 1747.12 2618.13 1764.72 2622.39 1777.14C2626.86 1790.15 2650.2 1850.87 2650.2 1850.87L2653.95 1841.84C2653.95 1841.84 2640.71 1808.26 2635.87 1796.62Z" fill="#37474F"/>
<path d="M2640.35 1824.07H2645.94C2635.86 1813.11 2624.6 1803.29 2612.37 1794.8C2607.9 1791.95 2603.22 1789.43 2598.38 1787.27C2598.38 1787.27 2598.38 1787.47 2598.38 1787.52C2602.07 1789.79 2605.79 1791.97 2609.32 1794.49C2612.84 1797.01 2616.51 1799.92 2619.89 1802.89C2626.42 1808.55 2632.5 1814.73 2638.05 1821.35C2638.84 1822.16 2639.59 1823.12 2640.35 1824.07Z" fill="#37474F"/>
<path d="M2699.08 1949.7C2702.52 1940.83 2695.05 1929.78 2695.53 1922.03C2683.94 1929.39 2676.42 1940.92 2677.9 1950.82C2678.7 1955.21 2680.63 1959.32 2683.5 1962.74C2687.02 1962.17 2690.33 1960.65 2693.08 1958.36C2695.82 1956.06 2697.89 1953.07 2699.08 1949.7Z" fill="#70B184"/>
<path d="M2684.08 1979.11C2684.08 1977.8 2684.08 1976.45 2684.08 1975.14C2684.36 1969.12 2684.84 1963.13 2685.71 1957.17C2686.57 1951.21 2687.81 1945.81 2689.01 1940.13C2689.01 1940.13 2688.81 1939.77 2688.76 1939.94C2686.4 1946.6 2684.53 1953.43 2683.16 1960.36C2682.07 1966.57 2681.34 1972.95 2680.87 1979.11H2684.08Z" fill="#37474F"/>
<path d="M2698.21 1983.42C2707.36 1980.82 2717.8 1989.27 2725.44 1989.49C2717.04 2000.35 2704.9 2006.81 2695.16 2004.43C2690.88 2003.24 2686.97 2000.96 2683.8 1997.83C2684.68 1994.35 2686.49 1991.18 2689.02 1988.64C2691.56 1986.1 2694.73 1984.3 2698.21 1983.42Z" fill="#70B184"/>
<path d="M2667.55 1995.79L2671.52 1996.07C2677.51 1996.35 2683.55 1996.4 2689.54 1996.07C2695.53 1995.73 2701.07 1995.03 2706.8 1994.33C2706.8 1994.33 2707.17 1994.56 2707 1994.61C2700.15 1996.32 2693.18 1997.53 2686.15 1998.25C2679.86 1998.75 2673.45 1998.89 2667.27 1998.81L2667.55 1995.79Z" fill="#37474F"/>
<path d="M2560.72 1855.32C2550.47 1846.73 2552.32 1828.04 2546.39 1818.95C2565.61 1820.21 2582.76 1829.27 2587.58 1842.48C2589.57 1848.42 2589.98 1854.77 2588.78 1860.92C2580.25 1864.64 2568.8 1862.09 2560.72 1855.32Z" fill="#70B184"/>
<path d="M2646.14 1922.28L2644.77 1932.55C2632.65 1918.36 2598.57 1878.35 2590.54 1868.19C2581.14 1856.33 2567.23 1839.74 2562.28 1833.92C2570.14 1839.93 2601.46 1871.86 2612.65 1884.28C2620.23 1892.48 2638.42 1913.33 2646.14 1922.28Z" fill="#37474F"/>
<path d="M2614.8 1873.54C2612.87 1865.56 2620.4 1856.97 2620.99 1850.31C2630.02 1857.92 2635.17 1868.61 2632.77 1876.9C2631.59 1880.55 2629.49 1883.84 2626.67 1886.44C2623.71 1885.55 2621.05 1883.89 2618.96 1881.62C2616.87 1879.35 2615.44 1876.56 2614.8 1873.54Z" fill="#70B184"/>
<path d="M2624.37 1900.37C2624.37 1899.25 2624.62 1898.11 2624.74 1896.96C2625.18 1891.81 2625.46 1886.63 2625.41 1881.46C2625.35 1876.28 2624.9 1871.5 2624.51 1866.51C2624.51 1866.51 2624.74 1866.23 2624.76 1866.51C2626 1872.47 2626.79 1878.52 2627.14 1884.59C2627.37 1890.02 2627.14 1895.56 2626.98 1900.88L2624.37 1900.37Z" fill="#37474F"/>
<path d="M2590.35 1886.44C2582.37 1884.53 2573.78 1892.2 2567.12 1892.68C2574.76 1901.71 2585.45 1906.84 2593.73 1904.4C2597.39 1903.21 2600.67 1901.1 2603.27 1898.27C2602.38 1895.32 2600.71 1892.66 2598.44 1890.58C2596.16 1888.5 2593.37 1887.07 2590.35 1886.44Z" fill="#70B184"/>
<path d="M2617.21 1895.95L2613.8 1896.31C2608.65 1896.79 2603.44 1897.07 2598.27 1897.04C2593.09 1897.01 2588.3 1896.57 2583.35 1896.17C2583.35 1896.17 2583.04 1896.4 2583.21 1896.43C2589.17 1897.64 2595.21 1898.42 2601.29 1898.78C2606.72 1898.97 2612.23 1898.78 2617.54 1898.55L2617.21 1895.95Z" fill="#37474F"/>
<defs>
<linearGradient id="paint0_linear_187_7625" x1="3519.29" y1="2086" x2="3519.29" y2="2269.59" gradientUnits="userSpaceOnUse">
<stop stop-color="#47854D"/>
<stop offset="1" stop-color="#5CB063"/>
</linearGradient>
<linearGradient id="paint1_linear_187_7625" x1="4152.5" y1="2083" x2="4152.5" y2="2479" gradientUnits="userSpaceOnUse">
<stop stop-color="#47854D"/>
<stop offset="1" stop-color="#5CB063"/>
</linearGradient>
<linearGradient id="paint2_linear_187_7625" x1="1467.36" y1="1965.76" x2="1467.36" y2="2280.95" gradientUnits="userSpaceOnUse">
<stop stop-color="#47854D"/>
<stop offset="1" stop-color="#5CB063"/>
</linearGradient>
<linearGradient id="paint3_linear_187_7625" x1="1751.98" y1="2063" x2="1751.98" y2="2156.19" gradientUnits="userSpaceOnUse">
<stop stop-color="#47854D"/>
<stop offset="1" stop-color="#5CB063"/>
</linearGradient>
<linearGradient id="paint4_linear_187_7625" x1="757.109" y1="2177.35" x2="801.534" y2="2321.5" gradientUnits="userSpaceOnUse">
<stop stop-color="#47854D"/>
<stop offset="1" stop-color="#5CB063"/>
</linearGradient>
<linearGradient id="paint5_linear_187_7625" x1="1196.6" y1="1987.22" x2="1196.6" y2="2214.25" gradientUnits="userSpaceOnUse">
<stop stop-color="#47854D"/>
<stop offset="1" stop-color="#5CB063"/>
</linearGradient>
<linearGradient id="paint6_linear_187_7625" x1="2207.55" y1="2375.36" x2="2207.55" y2="2465.79" gradientUnits="userSpaceOnUse">
<stop stop-color="#47854D"/>
<stop offset="1" stop-color="#5CB063"/>
</linearGradient>
<linearGradient id="paint7_linear_187_7625" x1="2227.86" y1="2331.65" x2="2227.86" y2="2455.95" gradientUnits="userSpaceOnUse">
<stop stop-color="#47854D"/>
<stop offset="1" stop-color="#5CB063"/>
</linearGradient>
<linearGradient id="paint8_linear_187_7625" x1="2260.62" y1="2347.59" x2="2260.62" y2="2456.09" gradientUnits="userSpaceOnUse">
<stop stop-color="#47854D"/>
<stop offset="1" stop-color="#5CB063"/>
</linearGradient>
<linearGradient id="paint9_linear_187_7625" x1="3034.83" y1="2323.87" x2="3034.83" y2="2397.55" gradientUnits="userSpaceOnUse">
<stop stop-color="#47854D"/>
<stop offset="1" stop-color="#5CB063"/>
</linearGradient>
<linearGradient id="paint10_linear_187_7625" x1="3053.97" y1="2295.97" x2="3053.97" y2="2401.41" gradientUnits="userSpaceOnUse">
<stop stop-color="#47854D"/>
<stop offset="1" stop-color="#5CB063"/>
</linearGradient>
<linearGradient id="paint11_linear_187_7625" x1="3084.29" y1="2302.41" x2="3084.29" y2="2395.89" gradientUnits="userSpaceOnUse">
<stop stop-color="#47854D"/>
<stop offset="1" stop-color="#5CB063"/>
</linearGradient>
<linearGradient id="paint12_linear_187_7625" x1="3530.61" y1="2352.44" x2="3530.61" y2="2465.72" gradientUnits="userSpaceOnUse">
<stop stop-color="#47854D"/>
<stop offset="1" stop-color="#5CB063"/>
</linearGradient>
<linearGradient id="paint13_linear_187_7625" x1="3564.13" y1="2336.23" x2="3564.13" y2="2472.1" gradientUnits="userSpaceOnUse">
<stop stop-color="#47854D"/>
<stop offset="1" stop-color="#5CB063"/>
</linearGradient>
<linearGradient id="paint14_linear_187_7625" x1="3596.71" y1="2373.5" x2="3596.71" y2="2475.49" gradientUnits="userSpaceOnUse">
<stop stop-color="#47854D"/>
<stop offset="1" stop-color="#5CB063"/>
</linearGradient>
<linearGradient id="paint15_linear_187_7625" x1="3628.12" y1="2393.3" x2="3628.12" y2="2447.98" gradientUnits="userSpaceOnUse">
<stop stop-color="#47854D"/>
<stop offset="1" stop-color="#5CB063"/>
</linearGradient>
<linearGradient id="paint16_linear_187_7625" x1="3512.36" y1="2419.01" x2="3512.36" y2="2472.17" gradientUnits="userSpaceOnUse">
<stop stop-color="#47854D"/>
<stop offset="1" stop-color="#5CB063"/>
</linearGradient>
<linearGradient id="paint17_linear_187_7625" x1="4057.3" y1="2389.71" x2="4057.3" y2="2447.98" gradientUnits="userSpaceOnUse">
<stop stop-color="#47854D"/>
<stop offset="1" stop-color="#5CB063"/>
</linearGradient>
<linearGradient id="paint18_linear_187_7625" x1="4078.21" y1="2383.34" x2="4078.21" y2="2449.44" gradientUnits="userSpaceOnUse">
<stop stop-color="#47854D"/>
<stop offset="1" stop-color="#5CB063"/>
</linearGradient>
<linearGradient id="paint19_linear_187_7625" x1="4103.04" y1="2391.38" x2="4103.04" y2="2454.43" gradientUnits="userSpaceOnUse">
<stop stop-color="#47854D"/>
<stop offset="1" stop-color="#5CB063"/>
</linearGradient>
</defs>
</svg>
