<svg width="4448" height="887" viewBox="0 0 4448 887" fill="none" xmlns="http://www.w3.org/2000/svg">
<path d="M44.1126 478.933C44.1126 478.933 65.2832 402.885 123.829 349.177L178.321 378.895L156.02 322.501L183.304 312.355L262.615 397.482L214.774 276.793L234.66 269.344L275.58 336.685L264.483 258.276C264.483 258.276 285.436 244.866 384.003 218.939C392.861 216.639 401.815 214.761 410.825 213.315L489.64 200.775L500.034 284.755L535.235 200.837C535.235 200.837 716.889 210.811 804.289 284.755L44.1126 478.933Z" fill="url(#paint0_linear_187_7648)"/>
<path d="M4427.24 499.512C4423.37 490.513 4416.99 482.476 4408.65 476.113C4400.31 469.75 4390.28 465.259 4379.45 463.037L3693.38 312.285L670.454 305.641L26.7087 416.462C20.1063 417.593 14.1932 420.727 10.0424 425.295C5.89162 429.862 3.77831 435.561 4.08608 441.357C4.39386 447.152 7.10231 452.661 11.7198 456.883C16.3373 461.104 22.5579 463.759 29.2525 464.366C67.7955 467.953 -21.6462 535.115 47.5 539.5C169.412 547.726 -34.1819 626.246 88 621.914C123.845 620.984 298.136 594.922 288.5 640.5C287.422 644.96 410.5 676.086 452.5 647.5C358.5 688.468 666.754 678.302 746.076 691.59C819.616 703.948 895.237 687.338 970.165 688.468C1130.35 690.727 1274.11 772.581 1431.37 798.758C1707.57 844.801 1982.84 715.841 2263.9 711.855C2445.36 709.263 2623.89 758.961 2805.35 755.439C2915.66 753.313 3024.04 731.587 3132.2 712.718C3435.09 660.041 3742.6 629.503 4051.45 621.43C4175.25 618.241 4309.99 615.384 4405.35 547.283C4421.08 536.054 4436.34 521.77 4427.24 499.512Z" fill="#CF9C66"/>
<path d="M2555 218.704C2555 218.704 2614.83 142.811 2706.12 110.138L2753.51 169.346L2754.98 95.3201L2790.55 96.7515L2839.39 230.074L2842.55 71.2938L2868.48 72.3102L2882.76 167.182L2907.47 73.5448C2907.47 73.5448 2937.41 68.4138 3060.72 85.7591C3071.8 87.3376 3082.79 89.4446 3093.64 92.0703L3188.34 115.212L3160.42 214.741L3239.94 137.181C3283.91 150.468 3324.44 171.482 3358.94 198.873C3393.43 226.264 3421.13 259.426 3440.23 296.227L2555 218.704Z" fill="url(#paint1_linear_187_7648)"/>
<path d="M1828.38 217.15C1828.38 217.15 1880.03 135.471 1967.44 93.523L2020.7 147.508L2014.51 73.7262L2050.04 71.468L2112.42 199.018L2099.12 40.7637L2125.01 39.0908L2149.05 131.974L2163.93 36.2819C2163.93 36.2819 2193.18 28.0791 2317.62 32.566C2328.8 32.9888 2339.95 33.9468 2351.01 35.4355L2447.6 48.649L2430.13 150.534L2501.19 65.159C2546.3 73.8229 2588.8 90.5279 2625.94 114.201C2663.09 137.873 2694.06 167.99 2716.88 202.616L1828.38 217.15Z" fill="url(#paint2_linear_187_7648)"/>
<path d="M4237.92 485.228C2959.6 104.793 1379.57 131.501 88.5312 420.515L269.999 502.914C269.999 502.914 308.766 665.214 1683.67 639.236C3058.58 613.258 4624.5 600.302 4237.92 485.228Z" fill="#DBAC7D"/>
<path d="M3316 119.919C3316 119.919 3510.43 118.694 3658.72 155.299C3658.72 155.299 3694.68 250.992 3688.26 238.923C3681.84 226.853 3704.74 155.191 3704.74 155.191C3704.74 155.191 3822.74 180.916 3892.21 200.552V270.664L3938.88 227.249C3938.88 227.249 4030.87 244.183 4126.4 304.207V376.265L4172.53 334.436C4172.53 334.436 4362.93 426.706 4365 515.914L3497.15 427.787L3316 187.617V119.919Z" fill="url(#paint3_linear_187_7648)"/>
<path d="M565 358.191C565 358.191 611.252 247.104 711.463 179.8L790.554 238.666L766.04 147.112L810.134 138.341L918.054 287.964L865.404 91.5676L897.472 84.9236L948.888 197.872L945.574 75.3563C945.574 75.3563 980.417 60.1416 1137.67 44.9933C1151.78 43.6634 1165.96 42.9979 1180.15 43L1304.41 43.3986L1305.64 174.152L1375.02 54.5605C1375.02 54.5605 1572.28 90.571 1694.39 225.046L565 358.191Z" fill="url(#paint4_linear_187_7648)"/>
<path d="M1444 216C1444 216 1479.69 157.813 1539.93 128.205L1576.24 166.966L1572.28 114.196L1596.73 112.701L1639.29 204.232L1630.76 90.9397L1648.55 89.9125L1664.67 156.692L1675.08 88.2311C1675.08 88.2311 1695.16 82.5339 1780.68 86.2698C1788.35 86.5695 1796 87.287 1803.57 88.4181L1869.85 98.2248L1857.46 170.982L1906.36 109.993C1937.31 116.394 1966.42 128.522 1991.84 145.602C2017.26 162.682 2038.43 184.337 2054 209.182L1444 216Z" fill="url(#paint5_linear_187_7648)"/>
<path d="M4191.05 467.621C2912.73 87.1859 1449.56 116.154 158.525 405.168L310.999 492.414C310.999 492.414 364.268 617.111 1739.17 591.2C3114.08 565.288 4577.64 582.695 4191.05 467.621Z" fill="#F7D3A9"/>
<g opacity="0.3">
<path d="M2924.91 12.7731L3068.91 84.5283L3130.5 56.8892L2964.61 0.747314L2924.91 12.7731Z" fill="white"/>
</g>
<g opacity="0.3">
<path d="M1398.99 23.4034L1555.17 119.542L1443.94 0.747314L1398.99 23.4034Z" fill="white"/>
</g>
<g opacity="0.3">
<path d="M4047.64 345.994C4047.64 345.994 4090.09 363.435 4088.89 362.449C4087.68 361.462 4090.12 341.914 4090.12 341.914L4047.64 345.994Z" fill="white"/>
</g>
<path d="M1977.6 782.613L1973.83 783.477L1962.57 785.736C1952.78 787.729 1938.37 791.051 1920.02 795.901C1901.67 800.751 1879.63 807.595 1854.19 815.833L1768.01 845.133C1733.17 857.124 1697.35 866.895 1660.86 874.367C1640.54 878.47 1619.94 881.465 1599.19 883.336C1577.12 885.432 1554.93 886.342 1532.74 886.06C1485.06 885.665 1437.64 879.926 1391.67 868.985C1342.58 856.764 1295.19 839.919 1250.37 818.757C1204.12 797.895 1159.41 776.036 1114.78 758.03C1072.21 740.02 1026.77 727.571 979.955 721.09C958.14 718.8 936.117 718.355 914.201 719.761C892.848 721.422 872.343 724.611 852.532 727.136C784.463 737.268 714.422 728.909 652.108 703.217C630.96 694.579 610.956 683.998 592.443 671.658C580.745 663.9 569.694 655.441 559.374 646.345L551.665 639.036C549.892 637.375 549.121 636.512 549.121 636.512L551.973 638.771L559.682 645.813C570.21 654.68 581.385 662.957 593.137 670.595C611.712 682.67 631.711 693.025 652.802 701.49C714.878 726.624 784.458 734.585 851.992 724.279C871.88 721.688 892.462 718.432 913.661 716.705C935.83 715.243 958.113 715.665 980.186 717.967C1027.36 724.365 1073.14 736.84 1116.01 754.974C1160.88 773.046 1205.35 794.838 1251.84 815.7C1296.42 836.801 1343.54 853.644 1392.37 865.929C1438 876.827 1485.08 882.589 1532.43 883.071C1554.47 883.394 1576.51 882.528 1598.42 880.479C1619.16 878.674 1639.76 875.767 1660.09 871.776C1696.42 864.41 1732.1 854.818 1766.85 843.074L1853.42 814.106C1878.93 805.801 1901.21 799.29 1919.56 794.174C1938.59 789.24 1957.98 785.379 1977.6 782.613Z" fill="#E0E0E0"/>
<path d="M2297.74 760.223C2288.77 760.129 2279.82 759.619 2270.91 758.695C2254.34 757.632 2231.45 756.702 2206.16 757.167C2180.88 757.632 2158.06 759.558 2141.56 761.286C2132.71 762.538 2123.78 763.381 2114.81 763.811C2117.07 763.005 2119.42 762.426 2121.83 762.083C2126.3 761.153 2132.93 760.024 2141.18 758.828C2162.66 755.87 2184.34 754.16 2206.08 753.712C2227.81 753.29 2249.55 754.155 2271.14 756.303C2279.47 757.1 2286.1 757.964 2290.72 758.695C2293.14 758.911 2295.5 759.426 2297.74 760.223Z" fill="#DADADA"/>
<path d="M4193.98 640.299L4190.05 641.96L4178.25 646.611C4163.22 652.479 4147.78 657.517 4132 661.692C4106.77 668.205 4081 673.047 4054.92 676.176C4020.46 680.342 3985.72 682.561 3950.93 682.82C3912.38 683.285 3869.91 682.023 3824.58 680.429C3779.26 678.834 3730.77 676.841 3679.82 677.704C3569.11 679.594 3459.28 695.098 3353.66 723.747C3299.08 738.678 3245.76 756.86 3194.1 778.162C3143.84 798.094 3094.58 818.026 3044.32 827.394C2996.87 835.788 2948.4 839.113 2900.01 837.293C2854.53 836.164 2812.37 833.839 2773.82 830.982C2712.9 827.137 2652.54 818.237 2593.6 804.406C2572.86 799.29 2556.98 794.44 2546.34 791.118L2534.32 786.998C2531.62 786.068 2530.31 785.47 2530.31 785.47C2530.31 785.47 2531.77 785.802 2534.47 786.666L2546.65 790.453C2557.37 793.709 2573.25 798.359 2594.06 803.276C2653.01 816.538 2713.27 825.035 2774.05 828.656C2812.6 831.314 2854.76 833.573 2900.09 834.569C2948.28 836.214 2996.53 832.823 3043.78 824.47C3093.5 814.837 3142.45 795.503 3192.71 775.238C3244.5 753.82 3297.97 735.57 3352.74 720.625C3458.57 691.876 3568.64 676.37 3679.58 674.582C3730.69 673.851 3779.26 675.911 3824.58 677.638C3869.91 679.365 3912.15 680.694 3950.77 680.429C3985.45 680.295 4020.08 678.253 4054.45 674.316C4080.52 671.407 4106.29 666.787 4131.54 660.497C4147.42 656.451 4163.02 651.615 4178.25 646.013L4190.2 641.76C4192.59 640.697 4193.98 640.299 4193.98 640.299Z" fill="#E0E0E0"/>
<path d="M3719.67 721.09C3715.56 721.362 3711.44 721.362 3707.33 721.09L3673.8 720.757C3645.51 720.757 3606.43 721.289 3563.41 724.345C3520.4 727.401 3481.63 732.251 3453.72 736.371L3420.73 741.487C3416.72 742.262 3412.65 742.795 3408.55 743.081C3412.39 741.795 3416.37 740.816 3420.42 740.158C3428.13 738.497 3439.31 736.304 3453.18 733.979C3489.47 727.964 3526.12 723.661 3562.95 721.09C3599.82 718.457 3636.83 717.592 3673.8 718.498C3687.99 718.831 3699.47 719.362 3707.33 719.96C3711.48 719.998 3715.61 720.376 3719.67 721.09Z" fill="#DADADA"/>
<path d="M4271 398C4272.45 398.226 4273.85 398.628 4275.16 399.196C4277.94 400.06 4281.87 401.521 4286.88 403.382C4296.98 407.235 4311.39 413.148 4328.58 421.453C4348.7 431.273 4368.06 442.191 4386.55 454.142C4397.88 460.925 4408.23 468.842 4417.39 477.728C4422.11 482.71 4425.6 488.477 4427.64 494.67C4429.65 501.026 4430.33 507.641 4429.64 514.203C4428.12 526.93 4424 539.325 4417.46 550.812C4411.71 561.586 4404.49 571.733 4395.96 581.042C4381.68 597.012 4364.06 610.533 4344 620.906C4330.6 627.874 4316.15 633.217 4301.06 636.785C4297.02 637.809 4292.9 638.608 4288.73 639.177C4287.3 639.514 4285.82 639.693 4284.34 639.709C4284.34 639.31 4290.19 638.38 4300.68 635.456C4315.4 631.456 4329.46 625.852 4342.54 618.78C4362 608.42 4379.11 595.092 4393.03 579.448C4401.31 570.275 4408.3 560.282 4413.84 549.682C4420.17 538.548 4424.16 526.537 4425.63 514.203C4427.27 501.954 4423.19 489.647 4414.3 479.987C4405.39 471.314 4395.33 463.576 4384.32 456.932C4366.06 444.888 4346.99 433.795 4327.2 423.712C4310.24 415.208 4296.36 408.963 4286.26 404.777L4274.85 399.927C4273.48 399.423 4272.19 398.776 4271 398Z" fill="#E0E0E0"/>
<path d="M4391 441C4393.78 442.032 4396.37 443.396 4398.71 445.053C4405.37 449.267 4411.45 454.127 4416.82 459.537C4435.2 477.326 4445.98 499.989 4447.39 523.778C4448.79 547.567 4440.73 571.055 4424.53 590.357C4419.77 596.163 4414.26 601.49 4408.11 606.236C4406 608.112 4403.56 609.682 4400.87 610.887C4408.63 604.062 4415.77 596.732 4422.22 588.962C4437.31 569.868 4444.78 547.056 4443.48 523.979C4442.19 500.902 4432.21 478.816 4415.05 461.065C4407.63 453.863 4399.59 447.156 4391 441Z" fill="#DADADA"/>
<path d="M1096.2 777.165C1096.2 777.697 1084.87 774.308 1066.6 769.657C1019.02 757.525 969.748 750.999 920.135 750.257C901.172 749.925 889.301 750.257 889.301 749.792C891.985 749.14 894.76 748.804 897.549 748.795C902.868 748.33 910.577 747.998 920.135 747.865C970.249 747.296 1020.12 753.966 1067.68 767.598C1076.77 770.189 1084.02 772.514 1088.88 774.242C1091.43 774.998 1093.88 775.978 1096.2 777.165Z" fill="#E0E0E0"/>
<path d="M825.935 24.1342C826.937 23.7355 853.995 74.2299 886.371 137.082C918.747 199.934 944.262 250.761 943.26 251.16C942.258 251.558 915.124 201.13 882.748 138.212C850.372 75.2929 824.856 24.5328 825.935 24.1342Z" fill="url(#paint6_linear_187_7648)"/>
<path d="M1921.02 502.702C1917.76 498.544 1915.05 494.087 1912.93 489.414L1895.04 457.39L1876.93 425.565C1874.05 421.379 1871.75 416.92 1870.07 412.277C1873.74 416.061 1876.87 420.21 1879.4 424.635C1884.71 432.541 1891.65 443.637 1898.67 456.194C1905.68 468.751 1911.62 480.245 1915.55 488.683C1918.08 493.129 1919.92 497.842 1921.02 502.702Z" fill="url(#paint7_linear_187_7648)"/>
<path d="M1901.21 368.559C1903.46 374.471 1905.11 380.54 1906.14 386.698C1909 399.055 1912.47 414.071 1916.32 430.614C1920.17 447.158 1924.03 462.173 1926.8 474.531C1928.65 480.54 1929.89 486.676 1930.5 492.869C1927.68 487.136 1925.53 481.17 1924.11 475.063C1920.71 463.967 1916.4 448.487 1912.39 431.345C1908.38 414.204 1905.22 398.458 1903.37 387.096C1901.93 380.996 1901.21 374.785 1901.21 368.559Z" fill="url(#paint8_linear_187_7648)"/>
<path d="M1953.63 384.505C1953.62 389.834 1953.02 395.151 1951.85 400.384C1950.47 410.151 1948.85 423.638 1948.15 438.653C1947.46 453.669 1948.15 467.156 1948.15 476.989C1948.82 482.307 1948.95 487.664 1948.54 493.001C1946.66 487.876 1945.57 482.559 1945.3 477.189C1942.21 451.467 1943.36 425.498 1948.69 400.052C1949.6 394.716 1951.26 389.495 1953.63 384.505Z" fill="url(#paint9_linear_187_7648)"/>
<path d="M2743.38 434.467C2735.59 422.582 2728.57 410.339 2722.33 397.793C2714.86 385.787 2708.17 373.432 2702.29 360.786C2720 383.53 2733.83 408.342 2743.38 434.467Z" fill="url(#paint10_linear_187_7648)"/>
<path d="M2737.05 332.881C2738.36 332.881 2736.05 356.733 2739.6 386.033C2743.14 415.333 2750.7 438.055 2749.47 438.321C2746.73 433.648 2744.71 428.69 2743.45 423.572C2739.77 411.361 2737.19 398.921 2735.74 386.365C2734.25 373.828 2733.94 361.207 2734.82 348.627C2734.77 343.317 2735.52 338.023 2737.05 332.881Z" fill="url(#paint11_linear_187_7648)"/>
<path d="M2776.21 339.326C2777.37 339.326 2773.36 360.321 2772.36 385.834C2771.36 411.347 2773.51 432.74 2772.36 432.806C2770.65 428.411 2769.72 423.82 2769.58 419.186C2768.28 408.151 2767.87 397.051 2768.35 385.966C2768.81 374.83 2770.12 363.733 2772.28 352.746C2772.85 348.135 2774.17 343.617 2776.21 339.326Z" fill="url(#paint12_linear_187_7648)"/>
<path d="M3198.72 389.355C3202.73 394.066 3206.07 399.174 3208.66 404.57C3215.7 417.299 3221.6 430.47 3226.32 443.969C3231.02 457.454 3234.55 471.223 3236.88 485.161C3238.21 490.911 3238.73 496.778 3238.42 502.635C3236.48 497.047 3235.03 491.339 3234.1 485.56C3231.71 475.063 3227.94 460.645 3222.46 444.965C3216.99 429.286 3210.82 415.466 3206.04 405.566C3203.13 400.329 3200.68 394.91 3198.72 389.355Z" fill="url(#paint13_linear_187_7648)"/>
<path d="M3251.45 373.144C3251.41 379.807 3250.92 386.462 3249.98 393.076C3247.33 425.161 3249.27 457.406 3255.76 489.081C3257.42 495.665 3258.68 502.318 3259.54 509.013C3256.5 502.825 3254.28 496.362 3252.91 489.746C3248.79 473.903 3246.21 457.791 3245.2 441.577C3244.19 425.396 3244.78 409.17 3246.98 393.076C3247.57 386.305 3249.07 379.617 3251.45 373.144Z" fill="url(#paint14_linear_187_7648)"/>
<path d="M3293.77 410.416C3295 410.749 3285.44 432.607 3281.36 460.844C3277.27 489.081 3279.89 512.335 3278.66 512.402C3276.91 507.517 3276.02 502.433 3276.04 497.32C3274.13 472.587 3277.79 447.769 3286.83 424.236C3288.37 419.369 3290.71 414.716 3293.77 410.416Z" fill="url(#paint15_linear_187_7648)"/>
<path d="M3330.08 430.215C3323.19 438.336 3317.06 446.911 3311.73 455.861C3307.72 465.301 3304.62 475.013 3302.48 484.896C3301.34 474.514 3303.27 464.052 3308.1 454.489C3312.93 444.926 3320.49 436.574 3330.08 430.215Z" fill="url(#paint16_linear_187_7648)"/>
<path d="M3216.07 509.08C3211.62 489.158 3200.71 470.73 3184.62 455.928C3194.63 461.783 3202.77 469.726 3208.27 479.019C3213.77 488.312 3216.45 498.653 3216.07 509.08Z" fill="url(#paint17_linear_187_7648)"/>
<path d="M3731.31 426.628C3747.24 443.182 3757.01 463.486 3759.37 484.896C3758.21 484.896 3754.51 471.275 3746.73 455.263C3738.94 439.251 3730.31 427.226 3731.31 426.628Z" fill="url(#paint18_linear_187_7648)"/>
<path d="M3758.21 420.249C3759.37 420.249 3760.68 435.331 3765.3 453.469C3769.93 471.608 3775.71 486.025 3774.63 486.357C3767.95 476.435 3763.45 465.532 3761.37 454.2C3757.95 443.14 3756.88 431.638 3758.21 420.249Z" fill="url(#paint19_linear_187_7648)"/>
<path d="M3796.83 428.289C3797.99 428.621 3792.98 442.241 3790.51 459.649C3788.05 477.056 3788.82 491.274 3787.66 491.341C3784.66 480.811 3784.27 469.854 3786.5 459.184C3787.48 448.388 3790.99 437.876 3796.83 428.289Z" fill="url(#paint20_linear_187_7648)"/>
<path d="M3502.59 577.114C3553.4 573.853 3603.38 564.159 3650.91 548.346C3675.27 540.24 3700.09 530.407 3726.07 532.201C3758.06 534.393 3785.96 554.06 3818.03 555.588C3866.75 557.913 3907.06 518.182 3955.86 517.318C3993.4 516.654 4027.4 539.243 4064.94 538.978C4093.92 538.978 4120.05 525.025 4147.34 516.654C4174.63 508.282 4209.47 506.555 4228.36 525.424C4212.94 546.95 4179.87 552 4150.81 554.458C3934.61 573.637 3717.69 584.024 3500.05 585.618" fill="#DBAC7D"/>
<path d="M1510.77 601.033C1601.11 611.699 1693.1 603.846 1779.26 578.111C1818.57 566.351 1857.58 550.738 1899.21 550.538C1950.93 550.538 1999.03 573.992 2050.53 578.177C2159.22 587.08 2261.13 508.814 2368.58 525.025C2411.21 531.669 2450.76 552.864 2494 551.601C2534.86 550.405 2574.02 528.879 2614.33 534.925C2645.78 539.642 2671.53 560.438 2702.98 565.354C2742.3 571.401 2780.99 551.469 2820.92 550.937C2853.3 550.472 2884.06 562.697 2916.13 565.952C2957.29 570.072 2998.61 559.308 3040 560.837C3076.46 562.298 3111.46 573.261 3145.69 584.157L2723.33 596.581L1600.04 629.801" fill="#DBAC7D"/>
<path d="M2228.9 798.692C2217.35 795.314 2205.17 793.805 2192.98 794.24H2193.52C2159.77 792.855 2125.98 795.925 2093.31 803.343C2083.52 804.91 2074.19 808.14 2065.87 812.844C2061.74 815.253 2058.47 818.588 2056.39 822.488C2054.31 826.388 2053.51 830.704 2054.07 834.968C2056.54 846.462 2070.95 852.575 2083.9 856.229C2119.87 866.291 2157.71 870.416 2195.45 868.387C2209.58 868.184 2223.5 865.327 2236.23 860.016C2242.52 857.253 2247.89 853.145 2251.81 848.085C2255.74 843.026 2258.1 837.183 2258.66 831.115C2258.66 816.498 2244.78 803.941 2228.9 798.692Z" fill="#EBEBEB"/>
<defs>
<linearGradient id="paint0_linear_187_7648" x1="353.897" y1="226.73" x2="398.322" y2="370.885" gradientUnits="userSpaceOnUse">
<stop stop-color="#47854D"/>
<stop offset="1" stop-color="#5CB063"/>
</linearGradient>
<linearGradient id="paint1_linear_187_7648" x1="3015.13" y1="79.5222" x2="2997.15" y2="262.226" gradientUnits="userSpaceOnUse">
<stop stop-color="#47854D"/>
<stop offset="1" stop-color="#5CB063"/>
</linearGradient>
<linearGradient id="paint2_linear_187_7648" x1="2271.63" y1="31.0822" x2="2272.65" y2="214.666" gradientUnits="userSpaceOnUse">
<stop stop-color="#47854D"/>
<stop offset="1" stop-color="#5CB063"/>
</linearGradient>
<linearGradient id="paint3_linear_187_7648" x1="3840.5" y1="119.914" x2="3840.5" y2="515.914" gradientUnits="userSpaceOnUse">
<stop stop-color="#47854D"/>
<stop offset="1" stop-color="#5CB063"/>
</linearGradient>
<linearGradient id="paint4_linear_187_7648" x1="1129.69" y1="43" x2="1129.69" y2="358.191" gradientUnits="userSpaceOnUse">
<stop stop-color="#47854D"/>
<stop offset="1" stop-color="#5CB063"/>
</linearGradient>
<linearGradient id="paint5_linear_187_7648" x1="1749" y1="85" x2="1749" y2="216" gradientUnits="userSpaceOnUse">
<stop stop-color="#47854D"/>
<stop offset="1" stop-color="#5CB063"/>
</linearGradient>
<linearGradient id="paint6_linear_187_7648" x1="884.596" y1="24.1318" x2="884.596" y2="251.162" gradientUnits="userSpaceOnUse">
<stop stop-color="#47854D"/>
<stop offset="1" stop-color="#5CB063"/>
</linearGradient>
<linearGradient id="paint7_linear_187_7648" x1="1895.55" y1="412.277" x2="1895.55" y2="502.702" gradientUnits="userSpaceOnUse">
<stop stop-color="#47854D"/>
<stop offset="1" stop-color="#5CB063"/>
</linearGradient>
<linearGradient id="paint8_linear_187_7648" x1="1915.86" y1="368.559" x2="1915.86" y2="492.869" gradientUnits="userSpaceOnUse">
<stop stop-color="#47854D"/>
<stop offset="1" stop-color="#5CB063"/>
</linearGradient>
<linearGradient id="paint9_linear_187_7648" x1="1948.62" y1="384.505" x2="1948.62" y2="493.001" gradientUnits="userSpaceOnUse">
<stop stop-color="#47854D"/>
<stop offset="1" stop-color="#5CB063"/>
</linearGradient>
<linearGradient id="paint10_linear_187_7648" x1="2722.83" y1="360.786" x2="2722.83" y2="434.467" gradientUnits="userSpaceOnUse">
<stop stop-color="#47854D"/>
<stop offset="1" stop-color="#5CB063"/>
</linearGradient>
<linearGradient id="paint11_linear_187_7648" x1="2741.97" y1="332.881" x2="2741.97" y2="438.321" gradientUnits="userSpaceOnUse">
<stop stop-color="#47854D"/>
<stop offset="1" stop-color="#5CB063"/>
</linearGradient>
<linearGradient id="paint12_linear_187_7648" x1="2772.29" y1="339.326" x2="2772.29" y2="432.806" gradientUnits="userSpaceOnUse">
<stop stop-color="#47854D"/>
<stop offset="1" stop-color="#5CB063"/>
</linearGradient>
<linearGradient id="paint13_linear_187_7648" x1="3218.61" y1="389.355" x2="3218.61" y2="502.635" gradientUnits="userSpaceOnUse">
<stop stop-color="#47854D"/>
<stop offset="1" stop-color="#5CB063"/>
</linearGradient>
<linearGradient id="paint14_linear_187_7648" x1="3252.13" y1="373.144" x2="3252.13" y2="509.013" gradientUnits="userSpaceOnUse">
<stop stop-color="#47854D"/>
<stop offset="1" stop-color="#5CB063"/>
</linearGradient>
<linearGradient id="paint15_linear_187_7648" x1="3284.71" y1="410.416" x2="3284.71" y2="512.402" gradientUnits="userSpaceOnUse">
<stop stop-color="#47854D"/>
<stop offset="1" stop-color="#5CB063"/>
</linearGradient>
<linearGradient id="paint16_linear_187_7648" x1="3316.12" y1="430.215" x2="3316.12" y2="484.896" gradientUnits="userSpaceOnUse">
<stop stop-color="#47854D"/>
<stop offset="1" stop-color="#5CB063"/>
</linearGradient>
<linearGradient id="paint17_linear_187_7648" x1="3200.36" y1="455.928" x2="3200.36" y2="509.08" gradientUnits="userSpaceOnUse">
<stop stop-color="#47854D"/>
<stop offset="1" stop-color="#5CB063"/>
</linearGradient>
<linearGradient id="paint18_linear_187_7648" x1="3745.3" y1="426.628" x2="3745.3" y2="484.896" gradientUnits="userSpaceOnUse">
<stop stop-color="#47854D"/>
<stop offset="1" stop-color="#5CB063"/>
</linearGradient>
<linearGradient id="paint19_linear_187_7648" x1="3766.21" y1="420.249" x2="3766.21" y2="486.357" gradientUnits="userSpaceOnUse">
<stop stop-color="#47854D"/>
<stop offset="1" stop-color="#5CB063"/>
</linearGradient>
<linearGradient id="paint20_linear_187_7648" x1="3791.04" y1="428.289" x2="3791.04" y2="491.341" gradientUnits="userSpaceOnUse">
<stop stop-color="#47854D"/>
<stop offset="1" stop-color="#5CB063"/>
</linearGradient>
</defs>
</svg>
