<svg width="2079" height="162" viewBox="0 0 2079 162" fill="none" xmlns="http://www.w3.org/2000/svg">
<path d="M304.468 23.5819C-101.512 55.0204 -101.466 105.994 304.468 137.432C710.402 168.871 1368.62 168.871 1774.55 137.432C2180.48 105.994 2180.48 55.0143 1774.55 23.5758C1368.62 -7.86266 710.402 -7.85658 304.468 23.5819Z" fill="#A15F14"/>
<path opacity="0.7" d="M304.468 23.5819C-101.512 55.0204 -101.466 105.994 304.468 137.432C710.402 168.871 1368.62 168.871 1774.55 137.432C2180.48 105.994 2180.48 55.0143 1774.55 23.5758C1368.62 -7.86266 710.402 -7.85658 304.468 23.5819Z" fill="white"/>
<g opacity="0.4">
<path d="M540.778 129.107C539.64 128.589 537.845 128.101 535.47 127.665C533.942 127.407 532.242 127.169 530.389 126.953C529.209 126.819 527.395 126.588 525.852 126.648C525.353 126.648 525.353 126.794 525.625 126.837C526.714 127.038 528.393 127.172 529.391 127.385C530.152 127.578 530.745 127.782 531.16 127.993C532.678 128.511 533.891 129.044 534.789 129.588C535.536 130.088 536.036 130.594 536.287 131.103C536.287 131.353 536.559 131.596 536.786 131.852C537.005 132.085 537.431 132.314 538.056 132.533C538.056 132.612 539.235 132.752 539.87 132.655C542.711 132.128 543.93 131.474 543.273 130.829C543.054 130.242 542.214 129.662 540.778 129.107Z" fill="#A15F14"/>
<path d="M554.66 121.372C546.63 122.699 546.585 124.622 546.494 126.241C546.494 127.227 546.494 128.213 546.721 129.198C546.311 130.257 546.983 131.317 548.717 132.351C548.989 132.46 550.668 132.686 551.258 132.479C553.571 131.614 552.709 130.47 552.845 129.558C552.981 128.645 552.845 127.622 552.845 126.655C552.799 125.779 553.118 124.903 553.798 124.032C554.524 123.21 555.885 122.401 556.656 121.597C556.701 121.5 555.477 121.238 554.66 121.372Z" fill="#A15F14"/>
<path d="M573.351 126.606C569.223 126.709 566.229 127.348 564.278 127.823C562.653 128.25 561.42 128.701 560.603 129.168C559.697 129.694 559.105 130.23 558.834 130.769C557.756 131.347 558.373 131.959 560.558 132.479C560.921 132.533 561.873 132.606 562.418 132.546C565.503 132.199 564.732 131.511 565.004 131.018C565.289 130.476 565.85 129.937 566.682 129.405C567.485 128.951 568.593 128.507 569.994 128.079C571.752 127.685 573.153 127.264 574.168 126.825C574.304 126.746 574.122 126.588 573.351 126.606Z" fill="#A15F14"/>
<path d="M1499.59 128.87C1498.57 128.409 1496.96 127.977 1494.82 127.592C1493.47 127.369 1491.95 127.165 1490.29 126.983C1489.24 126.862 1487.61 126.661 1486.11 126.716C1485.66 126.716 1485.7 126.843 1486.11 126.88C1487.11 127.056 1488.56 127.178 1489.42 127.367C1490.1 127.531 1490.65 127.705 1491.06 127.884C1492.39 128.345 1493.45 128.819 1494.23 129.302C1494.89 129.746 1495.35 130.195 1495.59 130.647C1495.59 130.872 1495.82 131.085 1496 131.31C1496.24 131.517 1496.62 131.721 1497.14 131.919C1497.14 131.986 1498.18 132.107 1498.77 132.028C1501.31 131.56 1502.39 130.977 1501.76 130.403C1501.59 129.881 1500.85 129.364 1499.59 128.87Z" fill="#A15F14"/>
<path d="M1511.88 122.005C1504.76 123.18 1504.71 124.89 1504.62 126.344C1504.62 127.214 1504.62 128.091 1504.85 128.967C1504.48 129.907 1505.07 130.849 1506.62 131.766C1506.85 131.864 1508.34 132.065 1508.84 131.882C1510.31 131.033 1510.79 130.158 1510.25 129.29C1510.25 128.432 1510.25 127.567 1510.25 126.709C1510.23 125.931 1510.53 125.153 1511.15 124.378C1511.74 123.648 1513.01 122.93 1513.65 122.206C1513.7 122.115 1512.61 121.883 1511.88 122.005Z" fill="#A15F14"/>
<path d="M1528.49 126.649C1524.81 126.746 1522.14 127.306 1520.5 127.72C1519.06 128.106 1517.98 128.515 1517.28 128.937C1516.46 129.405 1515.93 129.881 1515.69 130.361C1514.7 130.873 1515.24 131.416 1517.19 131.876C1517.51 131.925 1518.37 131.992 1518.87 131.937C1521.59 131.627 1520.91 131.024 1521.14 130.586C1521.38 130.103 1521.88 129.623 1522.63 129.15C1523.36 128.747 1524.36 128.353 1525.63 127.975C1527.16 127.624 1528.38 127.251 1529.26 126.862C1529.35 126.776 1529.17 126.63 1528.49 126.649Z" fill="#A15F14"/>
<path d="M1098.82 142.873C1099.87 142.406 1101.5 141.965 1103.63 141.571C1105 141.34 1106.52 141.127 1108.17 140.932C1109.26 140.804 1110.89 140.597 1112.43 140.652C1112.89 140.652 1112.84 140.785 1112.43 140.822C1111.44 141.005 1109.94 141.126 1109.03 141.321C1108.37 141.488 1107.82 141.663 1107.4 141.844C1106.05 142.315 1104.97 142.8 1104.18 143.293C1103.48 143.742 1103.01 144.198 1102.77 144.656C1102.77 144.887 1102.54 145.106 1102.36 145.338C1102.13 145.545 1101.73 145.749 1101.18 145.946C1101.18 146.019 1100.14 146.141 1099.55 146.056C1096.97 145.58 1095.88 144.988 1096.51 144.406C1096.74 143.883 1097.52 143.367 1098.82 142.873Z" fill="#A15F14"/>
<path d="M1086.3 135.887C1093.56 137.104 1093.61 138.82 1093.7 140.299C1093.7 141.193 1093.7 142.082 1093.7 142.97C1094.06 143.928 1093.45 144.888 1091.88 145.824C1091.66 145.928 1090.11 146.129 1089.61 145.94C1088.11 145.077 1087.62 144.188 1088.16 143.305C1088.16 142.429 1088.16 141.552 1088.16 140.676C1088.2 139.883 1087.9 139.091 1087.26 138.303C1086.62 137.56 1085.4 136.83 1084.72 136.087C1084.44 136.002 1085.58 135.765 1086.3 135.887Z" fill="#A15F14"/>
<path d="M1069.38 140.615C1073.1 140.712 1075.82 141.285 1077.5 141.704C1078.96 142.091 1080.07 142.5 1080.82 142.922C1081.64 143.398 1082.17 143.882 1082.4 144.37C1083.42 144.89 1082.87 145.444 1080.86 145.91C1080.54 145.964 1079.68 146.031 1079.18 145.977C1076.41 145.66 1077.1 145.039 1076.87 144.595C1076.61 144.104 1076.09 143.616 1075.33 143.135C1074.62 142.717 1073.61 142.31 1072.33 141.917C1070.74 141.562 1069.47 141.182 1068.57 140.785C1068.52 140.743 1068.66 140.597 1069.38 140.615Z" fill="#A15F14"/>
<path d="M127.723 69.9424C128.715 69.5055 130.249 69.094 132.259 68.7253C133.552 68.5049 134.994 68.3012 136.569 68.1168C137.612 68.0011 139.155 67.8064 140.561 67.8551C141.015 67.8551 140.969 67.9829 140.561 68.0194C139.609 68.1898 138.248 68.2993 137.386 68.4819C136.733 68.6399 136.216 68.8073 135.843 68.9809C134.548 69.4216 133.517 69.8754 132.758 70.338C132.132 70.762 131.707 71.1909 131.488 71.6221C131.488 71.8412 131.488 72.0481 131.08 72.2306C130.891 72.4384 130.526 72.6426 129.991 72.8392C129.991 72.9061 128.993 73.0218 128.448 72.9427C126.016 72.4932 124.975 71.9349 125.545 71.3847C125.763 70.8927 126.496 70.4071 127.723 69.9424Z" fill="#A15F14"/>
<path d="M115.927 63.3578C122.732 64.4897 122.778 66.1267 122.868 67.5204C122.868 68.3541 122.868 69.1939 122.868 70.0337C123.188 70.9346 122.608 71.8372 121.145 72.7175C121.145 72.8149 119.511 73.0035 119.012 72.827C117.602 72.0139 117.143 71.1762 117.651 70.3441C117.651 69.5165 117.651 68.6949 117.651 67.8672C117.674 67.1214 117.401 66.3758 116.835 65.6338C116.2 64.934 115.02 64.2524 114.385 63.5525C114.158 63.4673 115.247 63.2421 115.927 63.3578Z" fill="#A15F14"/>
<path d="M100.004 67.8124C103.497 67.9037 106.083 68.421 107.671 68.8409C109.033 69.2046 110.068 69.5886 110.756 69.985C111.55 70.4327 112.05 70.8888 112.253 71.3482C113.206 71.8398 112.685 72.362 110.801 72.8026C110.529 72.8452 109.713 72.9122 109.259 72.8574C106.628 72.5592 107.263 71.9811 107.036 71.5612C106.804 71.0986 106.318 70.6389 105.584 70.1858C104.928 69.7989 103.986 69.4218 102.772 69.06C101.297 68.7219 100.11 68.3626 99.233 67.9889C99.1876 67.9341 99.3237 67.7942 100.004 67.8124Z" fill="#A15F14"/>
<path d="M833.525 111.8C832.571 111.361 831.034 110.948 828.988 110.582C827.715 110.362 826.287 110.158 824.724 109.974C823.771 109.858 822.229 109.663 820.823 109.718C820.414 109.718 820.46 109.84 820.823 109.876C821.924 110.019 822.969 110.169 823.953 110.327C824.594 110.481 825.096 110.644 825.45 110.814C826.715 111.246 827.716 111.692 828.444 112.146C829.093 112.56 829.517 112.979 829.714 113.4C829.714 113.613 829.714 113.82 830.123 114.009C830.33 114.204 830.695 114.396 831.211 114.581C831.211 114.642 832.164 114.757 832.709 114.678C835.088 114.239 836.097 113.694 835.521 113.157C835.321 112.694 834.649 112.238 833.525 111.8Z" fill="#A15F14"/>
<path d="M845.092 105.361C838.378 106.468 838.378 108.069 838.378 109.438C838.378 110.26 838.378 111.081 838.378 111.873C838.045 112.753 838.61 113.635 840.056 114.495C840.283 114.587 841.689 114.775 842.143 114.605C843.518 113.808 843.961 112.986 843.459 112.171C843.459 111.361 843.459 110.552 843.459 109.736C843.42 109.007 843.678 108.278 844.23 107.552C844.82 106.87 845.999 106.195 846.634 105.513C846.77 105.47 845.772 105.251 845.092 105.361Z" fill="#A15F14"/>
<path d="M860.653 109.718C857.206 109.803 854.71 110.327 853.168 110.722C851.834 111.079 850.814 111.454 850.128 111.842C849.357 112.28 848.857 112.726 848.631 113.175C847.718 113.655 848.239 114.164 850.083 114.593C850.355 114.642 851.172 114.702 851.625 114.654C854.211 114.362 853.531 113.796 853.758 113.382C854 112.93 854.47 112.48 855.164 112.037C855.833 111.659 856.759 111.29 857.931 110.935C859.403 110.607 860.561 110.256 861.379 109.889C861.47 109.834 861.288 109.7 860.653 109.718Z" fill="#A15F14"/>
<path d="M1962.23 70.0581C1961.18 69.5799 1959.51 69.1305 1957.28 68.7314C1955.94 68.4929 1954.42 68.2728 1952.75 68.0741C1951.61 67.9463 1949.98 67.7334 1948.21 67.7881C1947.76 67.7881 1947.8 67.922 1948.21 67.9646C1949.21 68.1472 1950.75 68.2689 1951.66 68.4697C1952.36 68.6419 1952.92 68.8235 1953.34 69.0113C1954.73 69.4895 1955.84 69.982 1956.65 70.4841C1957.37 70.9455 1957.84 71.4133 1958.05 71.8838C1958.05 72.115 1958.33 72.3463 1958.51 72.5775C1958.75 72.7851 1959.15 72.9889 1959.69 73.1861C1959.69 73.2591 1960.78 73.3869 1961.37 73.2956C1964.03 72.8089 1965.15 72.201 1964.5 71.6038C1964.27 71.0771 1963.5 70.5571 1962.23 70.0581Z" fill="#A15F14"/>
<path d="M1975.02 62.9134C1967.63 64.1305 1967.58 65.9136 1967.49 67.4289C1967.49 68.3357 1967.49 69.2546 1967.72 70.1614C1967.31 71.1396 1967.92 72.1207 1969.53 73.0764C1969.8 73.1799 1971.35 73.3868 1971.89 73.1981C1973.42 72.3132 1973.91 71.4014 1973.34 70.4961C1973.34 69.6015 1973.34 68.7069 1973.34 67.8062C1973.32 66.9932 1973.63 66.1807 1974.25 65.372C1974.93 64.6113 1976.2 63.8627 1976.88 63.1081C1977.06 63.029 1975.79 62.7856 1975.02 62.9134Z" fill="#A15F14"/>
<path d="M1992.35 67.7454C1988.49 67.8489 1985.73 68.4331 1984 68.8652C1982.54 69.2521 1981.41 69.6605 1980.65 70.0823C1979.79 70.5701 1979.24 71.0669 1979.01 71.5672C1977.99 72.1002 1978.56 72.666 1980.6 73.1434C1980.92 73.1921 1981.83 73.2651 1982.28 73.2042C1985.14 72.8817 1984.46 72.2488 1984.68 71.7985C1984.94 71.2949 1985.47 70.7945 1986.27 70.3014C1986.99 69.8833 1988 69.4757 1989.31 69.0843C1990.93 68.7181 1992.22 68.328 1993.17 67.9219C1993.21 67.8793 1993.08 67.7272 1992.35 67.7454Z" fill="#A15F14"/>
</g>
</svg>
