<svg width="3488" height="3496" viewBox="0 0 3488 3496" fill="none" xmlns="http://www.w3.org/2000/svg">
<path d="M932.852 2728.7L1030.87 2794.08C1030.87 2794.08 1207.87 2552 1234.82 2505.02C1261.76 2458.04 1432.63 2168.58 1459.96 2137.59C1487.29 2106.6 1756.77 1715.6 1783.68 1692.23C1810.59 1668.85 1877.64 1567.94 1877.64 1567.94L1847.06 1547.54C1847.06 1547.54 1758.18 1657.52 1747.93 1666.2C1737.68 1674.87 1422.69 2034.22 1381.9 2095.37C1341.11 2156.52 1153.6 2440.99 1139.07 2462.76C1124.55 2484.54 932.852 2728.7 932.852 2728.7Z" fill="#FFC727"/>
<path opacity="0.6" d="M932.852 2728.7L1030.87 2794.08C1030.87 2794.08 1207.87 2552 1234.82 2505.02C1261.76 2458.04 1432.63 2168.58 1459.96 2137.59C1487.29 2106.6 1756.77 1715.6 1783.68 1692.23C1810.59 1668.85 1877.64 1567.94 1877.64 1567.94L1847.06 1547.54C1847.06 1547.54 1758.18 1657.52 1747.93 1666.2C1737.68 1674.87 1422.69 2034.22 1381.9 2095.37C1341.11 2156.52 1153.6 2440.99 1139.07 2462.76C1124.55 2484.54 932.852 2728.7 932.852 2728.7Z" fill="black"/>
<g opacity="0.4">
<path d="M1544.99 2020.61C1543.18 2023.32 1541.39 2025.99 1539.63 2028.63C1517.53 2013.38 1496.16 1997.12 1475.61 1979.93C1499.34 1992.36 1522.5 2005.94 1544.99 2020.61Z" fill="#FFC727"/>
<path d="M1547.64 1994.38C1527.92 1984.03 1508.92 1973.2 1490.2 1961.66C1492.13 1959.36 1494.06 1957.07 1496.04 1954.8C1513.71 1967.42 1530.91 1980.61 1547.64 1994.38Z" fill="#FFC727"/>
<path d="M1357.58 2298.14C1346.64 2289.9 1335.87 2281.31 1325.34 2272.55C1337.4 2278.88 1349.32 2285.48 1361.1 2292.37C1359.92 2294.33 1358.77 2296.25 1357.58 2298.14Z" fill="#FFC727"/>
<path d="M1179.06 2460.99C1169.44 2455.99 1159.93 2450.79 1150.54 2445.38C1151.55 2443.87 1152.58 2442.32 1153.69 2440.65C1162.24 2447.25 1170.7 2454.03 1179.06 2460.99Z" fill="#FFC727"/>
<path d="M1630.57 1899.8C1629.87 1900.85 1629.17 1901.89 1628.47 1902.94C1623.23 1898.83 1618.06 1894.6 1612.97 1890.36C1618.84 1893.43 1624.73 1896.58 1630.57 1899.8Z" fill="#FFC727"/>
<path d="M1368.55 2280.1C1353.14 2268.88 1338.09 2257.16 1323.39 2244.93C1340.23 2253.74 1356.74 2263.09 1372.9 2272.98L1368.55 2280.1Z" fill="#FFC727"/>
<path d="M1483.14 2034.79C1470.62 2028.23 1458.27 2021.37 1446.09 2014.21C1447.35 2012.31 1449.09 2010.61 1450.49 2008.92C1461.56 2017.26 1472.5 2025.9 1483.14 2034.79Z" fill="#FFC727"/>
<path d="M1264.8 2453.68C1253.35 2445.11 1242.14 2436.23 1231.18 2427.06C1243.71 2433.62 1256.15 2440.52 1268.33 2447.69C1267.11 2449.73 1265.98 2451.72 1264.8 2453.68Z" fill="#FFC727"/>
<path d="M1083.65 2721.45C1081.84 2724.16 1079.83 2726.68 1078.02 2729.28C1055.02 2713.73 1032.81 2697.04 1011.52 2679.32C1036.2 2692.16 1060.28 2706.23 1083.65 2721.45Z" fill="#FFC727"/>
<path d="M1283.9 2362.5C1264.46 2352.33 1245.41 2341.48 1226.74 2329.96L1231.8 2322.37C1249.68 2335.08 1267.05 2348.45 1283.9 2362.5Z" fill="#FFC727"/>
<path d="M1724.84 1768.16C1723.47 1770.21 1722.05 1772.35 1720.4 1774.32C1707.49 1764.74 1694.84 1754.79 1682.46 1744.48C1696.82 1751.99 1710.95 1759.85 1724.84 1768.16Z" fill="#FFC727"/>
<path d="M1723.04 1726.86C1716.26 1723.35 1709.52 1719.69 1702.8 1715.99C1703.6 1714.79 1704.77 1713.84 1705.68 1712.77C1711.51 1717.4 1717.29 1722.1 1723.04 1726.86Z" fill="#FFC727"/>
<path d="M1192.53 2546.46C1164.87 2532.11 1137.97 2516.22 1111.98 2498.89C1113.89 2496.02 1116.07 2493.56 1117.99 2491.08C1143.84 2508.2 1168.73 2526.7 1192.53 2546.46Z" fill="#FFC727"/>
<path d="M1393.09 2240.02C1376.79 2230.49 1361.46 2219.36 1347.4 2206.85C1364.3 2215 1380.42 2224.85 1395.43 2236.21C1394.69 2237.47 1393.9 2238.74 1393.09 2240.02Z" fill="#FFC727"/>
<path d="M1181.42 2484.69C1167.2 2477.78 1153.51 2469.7 1140.55 2460.55C1141.32 2459.39 1142.31 2457.92 1143.44 2456.21C1156.89 2464.64 1169.61 2474.18 1181.42 2484.69Z" fill="#FFC727"/>
<path d="M1400.98 2076.74C1425 2088.34 1447.42 2103.3 1467.35 2121.02C1443.34 2109.42 1420.91 2094.46 1400.98 2076.74Z" fill="#FFC727"/>
<path d="M1086.3 2538.99C1110.31 2550.58 1132.74 2565.54 1152.67 2583.26C1128.65 2571.67 1106.23 2556.71 1086.3 2538.99Z" fill="#FFC727"/>
</g>
<path d="M1787.5 1568.85C1785.01 1566.45 1782.11 1564.43 1778.98 1562.92C1775.85 1561.41 1772.55 1560.43 1769.27 1560.04C1762.6 1560.1 1690.42 1519.23 1639.6 1554.02C1588.78 1588.82 1592.78 1647.34 1635.91 1690.01C1679.05 1732.68 1744.27 1734.13 1784.45 1695.4C1825.59 1655.77 1794.26 1595.4 1795.15 1587.56C1795.7 1584.44 1795.28 1581.06 1793.93 1577.77C1792.59 1574.49 1790.37 1571.41 1787.5 1568.85Z" fill="#FFC727"/>
<path opacity="0.5" d="M1787.5 1568.85C1785.01 1566.45 1782.11 1564.43 1778.98 1562.92C1775.85 1561.41 1772.55 1560.43 1769.27 1560.04C1762.6 1560.1 1690.42 1519.23 1639.6 1554.02C1588.78 1588.82 1592.78 1647.34 1635.91 1690.01C1679.05 1732.68 1744.27 1734.13 1784.45 1695.4C1825.59 1655.77 1794.26 1595.4 1795.15 1587.56C1795.7 1584.44 1795.28 1581.06 1793.93 1577.77C1792.59 1574.49 1790.37 1571.41 1787.5 1568.85Z" fill="black"/>
<g opacity="0.2">
<path d="M1769.27 1560.04C1742.74 1551.92 1715.1 1539.33 1688.99 1542.51C1662.09 1541.84 1637.5 1549.2 1618.8 1563.52C1635.5 1546.54 1660.1 1537.48 1687.66 1538.18C1714.61 1535.36 1743.09 1548.51 1769.44 1560.15L1769.27 1560.04Z" fill="black"/>
<path d="M1805.55 1649.49C1802.66 1698.82 1758.81 1741.24 1699.36 1727.36C1757.12 1734.56 1795.73 1695.83 1805.55 1649.49Z" fill="black"/>
<path d="M1740.63 1559.24C1714.21 1556.75 1683.57 1554.42 1662.52 1565.57C1647.23 1575.36 1633.59 1586.95 1621.85 1600.15C1617.8 1604.47 1614.39 1609.29 1611.66 1614.52C1621.76 1592.66 1638.17 1574.57 1659.47 1561.82C1681.9 1550.43 1713.28 1553.44 1740.63 1559.24Z" fill="black"/>
<path d="M1791.36 1648.17C1782.38 1667.36 1769.82 1684.49 1754.13 1698.93C1735.79 1711.42 1711.18 1713.97 1687.28 1715.47C1708.98 1710.77 1733.61 1707.47 1750.78 1695.45C1766.08 1681.13 1779.66 1665.31 1791.36 1648.17Z" fill="black"/>
<path d="M1771.75 1572.23C1737.86 1582.01 1700.99 1590.66 1673.52 1609.61C1657.26 1623.95 1643.63 1640.62 1632.96 1659.2C1629.41 1666.15 1627.75 1674.07 1628.1 1682.4C1624.33 1651.91 1647.62 1630.37 1665.64 1610.77C1668.26 1607.72 1671.27 1604.97 1674.6 1602.57C1703.9 1587.42 1736.67 1577.2 1771.7 1572.3L1771.75 1572.23Z" fill="black"/>
<path d="M1788.3 1616.62C1779.49 1653.86 1749.41 1678.53 1713.89 1693.83C1728.7 1682.83 1744.3 1672.64 1757.74 1660.62C1770.17 1647.57 1780.43 1632.79 1788.3 1616.62Z" fill="black"/>
<path d="M1748.97 1606.19C1723.86 1640.15 1690.75 1667.95 1651.42 1688.09L1677.28 1669.03C1703.96 1650.71 1724.35 1626.65 1748.97 1606.19Z" fill="black"/>
<path d="M1722.42 1616.17C1692.59 1636.88 1664.68 1659.64 1638.87 1684.32C1659.55 1655.11 1688.07 1631.85 1722.42 1616.17Z" fill="black"/>
<path d="M1790.45 1585.57C1776.2 1613.43 1763.88 1642.58 1738.83 1662.95C1727.57 1674.01 1714.99 1683.86 1701.23 1692.39C1685.89 1698.7 1669.57 1703.44 1652.5 1706.54C1660.51 1703.93 1668.09 1701.23 1676.32 1698.66C1701.12 1691.83 1718.07 1675.83 1735.06 1659.57C1760.39 1639.68 1772.7 1611.1 1790.37 1585.52L1790.45 1585.57Z" fill="black"/>
<path d="M1729.48 1596.92C1697.97 1616.15 1663.9 1632.89 1646.06 1664.87C1657.84 1629.14 1694.21 1610.76 1729.48 1596.92Z" fill="black"/>
<path d="M1681.93 1576.04C1668.41 1583.4 1657.04 1593.32 1648.42 1605.32C1640.61 1617.93 1632.75 1630.8 1623.51 1642.65C1635.63 1615.09 1648.53 1585.09 1681.85 1576.17L1681.93 1576.04Z" fill="black"/>
<path d="M1777.49 1595.42C1767.44 1611.75 1755.87 1627.1 1742.89 1641.32C1727.89 1653.79 1711.49 1664.83 1693.86 1674.34C1708.67 1661.9 1724.77 1650.6 1739.42 1637.67C1754.08 1624.74 1763.78 1608.21 1777.71 1595.09L1777.49 1595.42Z" fill="black"/>
<path d="M1797.19 1596.97C1805.8 1616.41 1808.34 1637.17 1816.48 1656.59C1802.41 1638.48 1799.64 1616.61 1797.19 1596.97Z" fill="black"/>
<path d="M1615.67 1577.25C1609.16 1588.73 1605.4 1601.73 1604.58 1615.55C1604.8 1629.5 1611.61 1644.96 1609.33 1658.67C1609.3 1655.08 1608.62 1651.4 1607.33 1647.76L1604.09 1636.88C1600.34 1625.82 1599.42 1614.65 1601.41 1604.3C1603.41 1593.95 1608.25 1584.74 1615.54 1577.45L1615.67 1577.25Z" fill="black"/>
<path d="M1743.51 1572.27C1711.43 1584.22 1669.9 1587.93 1653.5 1618.29C1664.31 1584.02 1708.24 1578.16 1743.51 1572.27Z" fill="black"/>
<path d="M1780.11 1651.3C1771.9 1664.15 1762.44 1676.17 1751.81 1687.23C1739.74 1697.23 1724.74 1704.09 1707.92 1707.29L1729.31 1696.74C1751.32 1686.51 1762.56 1666.23 1780.11 1651.3Z" fill="black"/>
<path d="M1797.35 1625.82C1800.03 1649.27 1794.28 1671.26 1780.96 1688.45C1767.65 1705.63 1747.51 1717.07 1723.6 1721.01C1745.58 1714.47 1763.98 1702.22 1776.94 1685.49C1789.89 1668.77 1796.94 1648.18 1797.35 1625.82Z" fill="black"/>
</g>
<path d="M1506.97 538.74C1506.97 538.74 1511.31 565.113 1515.63 586.104C1516.8 591.767 1517.8 597.131 1518.88 601.298C1519.49 604.139 1520.29 606.979 1521.28 609.801C1521.92 611.187 1525.21 619.992 1529.65 633.396L1653.98 666.031L1544.96 676.949C1547.24 683.458 1549.69 690.266 1552.09 697.329L1708.26 720.544L1560.46 721.113L1564.38 733.308L1569.1 747.001L1577.29 770.862L1813.25 847.398L1599.7 836.112C1601.35 841.046 1602.97 845.858 1604.63 850.415L1610.25 867.29L1617.76 889.454L1624.12 908.646L1837.34 997.224L1631.65 924.109C1638.13 934.316 1645.15 944.306 1652.67 954.037L1887.25 1072.2L1675.93 984.403C1687.21 998.926 1699.44 1014.94 1711.84 1031.93L1906.47 1133.02L1740.69 1072.54C1746.44 1081.08 1752.03 1089.69 1757.39 1098.63C1772.52 1123.06 1785.32 1148.28 1795.62 1173.96C1797.81 1179.35 1799.7 1184.83 1801.51 1190.25C1857.26 1359.66 1841.93 1513.27 1841.93 1513.27C1841.93 1513.27 1919.96 1397.94 1950.59 1276.67C1967.42 1209.71 1948.54 1022.25 1929.72 960.834C1910.9 899.416 1787.91 734.493 1769.48 712.803C1751.04 691.113 1578.47 552.807 1578.47 552.807L1506.97 538.74Z" fill="#283826"/>
<path d="M1915.05 1259.47C1872.97 1234.49 1833.01 1205.96 1795.82 1174.38C1837.9 1199.36 1877.87 1227.89 1915.05 1259.47Z" fill="#384F37"/>
<path d="M1931.12 1192.01C1871.66 1164.72 1813.65 1133.65 1757.6 1099.05C1817.1 1126.23 1875.12 1157.31 1931.12 1192.01Z" fill="#384F37"/>
<path d="M1893.02 971.037C1800.83 948.118 1709.01 920.987 1617.92 889.754C1710.11 912.664 1801.93 939.795 1893.02 971.037Z" fill="#384F37"/>
<path d="M1610.67 867.192C1694.51 878.425 1778.59 893.983 1862.5 913.789C1778.66 902.539 1694.58 886.981 1610.67 867.192Z" fill="#384F37"/>
<path d="M1841.76 895.547C1762.81 884.721 1683.63 869.565 1604.68 850.161C1683.55 860.997 1762.63 876.097 1841.51 895.38L1841.76 895.547Z" fill="#384F37"/>
<path d="M1569.4 746.914C1643.01 760.423 1716.57 778.229 1789.64 800.219C1716.03 786.786 1642.46 768.978 1569.4 746.914Z" fill="#384F37"/>
<path d="M1750.14 767.263C1688.51 760.18 1626.56 748.71 1564.85 732.956C1626.54 739.978 1688.54 751.359 1750.32 766.998L1750.14 767.263Z" fill="#384F37"/>
<path d="M1636.97 635.331C1597.13 628.202 1557.38 616.74 1518.58 601.198C1558.42 608.289 1598.18 619.752 1636.97 635.331Z" fill="#384F37"/>
<path d="M1610.87 614.092C1578.76 609.029 1546.65 599.592 1515.63 586.104C1547.84 591.215 1580.03 600.708 1611.12 614.259L1610.87 614.092Z" fill="#384F37"/>
<path d="M2061.01 1313.53C2056.39 1321.68 2051.19 1329.48 2045.44 1336.87C2007.53 1382.68 1869.09 1536.18 1869.09 1536.18C1869.09 1536.18 1900.26 1328.27 1906.36 1268.53C1912.46 1208.78 1968.41 1008.01 2089.3 877.384C2210.19 746.761 2466.26 707.849 2466.26 707.849C2466.26 707.849 2420.78 774.761 2394.19 805.219C2389.86 810.089 2375.22 824.084 2356.35 842.252L2166.78 875.799L2305.52 891.703C2295.97 901.329 2286.41 910.955 2277.71 920.197L2176.52 927.331L2267.47 931.759C2255.59 943.903 2245.05 957.16 2235.97 971.394C2231.6 979.21 2222.66 997.299 2210.68 1021.59L2023.64 1115.66L2195.11 1052.7C2177.02 1089.39 2155.49 1133.77 2133.96 1176.7L1975.81 1227.48L2109.2 1226.29C2095.45 1253.05 2082.44 1277.43 2071.39 1296.89L1966.41 1326.5L2061.01 1313.53Z" fill="#384F37"/>
<path d="M2153.96 842.244C2228.24 829.752 2304.23 821.608 2381.54 817.859C2307.2 830.389 2231.14 838.62 2153.79 842.51L2153.96 842.244Z" fill="#4A6445"/>
<path d="M2230.78 805.15C2288.12 795.334 2347.17 789.88 2407.41 788.838C2350.09 798.684 2291.03 804.138 2230.78 805.15Z" fill="#4A6445"/>
<path d="M2437.89 743.153C2363.54 763.206 2287.07 779.019 2208.84 790.514C2283.19 770.454 2359.66 754.64 2437.89 743.153Z" fill="#4A6445"/>
<path d="M2221.15 1001.37C2145.13 1040.53 2066.29 1075.64 1984.65 1106.71C2060.65 1067.59 2139.48 1032.48 2221.15 1001.37Z" fill="#4A6445"/>
<path d="M2242.15 960.671C2167.45 988.907 2090.26 1013.05 2010.91 1033.01C2085.59 1004.73 2162.78 980.583 2242.15 960.671Z" fill="#4A6445"/>
<path d="M2170.59 1102.64C2104.79 1140.56 2035.93 1174.59 1964.32 1204.58C2030.15 1166.7 2099.01 1132.67 2170.59 1102.64Z" fill="#4A6445"/>
<path d="M1943.36 1293.11C1988.14 1282.82 2034.87 1276.87 2082.88 1275.33C2038.11 1285.65 1991.38 1291.6 1943.36 1293.11Z" fill="#4A6445"/>
<path d="M2091.69 1258.5C2041.12 1263.02 1989.2 1263.12 1936.59 1258.8C1987.16 1254.25 2039.07 1254.14 2091.69 1258.5Z" fill="#4A6445"/>
<path d="M1871.73 1532.39C1871.73 1532.39 1887.8 1725.15 1891.53 1761.65C1893.34 1781.35 1891.88 1826.18 1891.29 1870.43L2038.05 1829.69L1891.08 1892.62C1890.41 1916.98 1891.52 1941.69 1894.4 1966.6C1894.72 1968.41 1895.01 1970.32 1895.27 1972.35L2012.09 1952.07L1896.26 1981.16L1898.14 1995.15C1935.99 1992.62 2102.02 1969.24 2102.02 1969.24L1902.97 2031.63C1908.18 2073.85 1910.67 2115.79 1910.43 2157.23L2105.35 2152.35L1884.61 2210.04C1866.27 2235.37 1841.13 2267.27 1820.97 2293.68L1931.7 2299.9L1813.45 2303.7C1807.15 2312.06 1801.72 2319.84 1797.35 2326.21L1930.03 2333.67L1793.24 2354.42C1806.38 2370.85 1835.55 2396.15 1839.28 2396.34C1843.01 2396.53 2018.89 2303.46 2032.94 2284.56C2046.99 2265.67 2154.02 2131.26 2157.46 2069.17C2160.91 2007.08 2095.87 1759.81 2054.97 1701.86C2014.07 1643.92 1871.73 1532.39 1871.73 1532.39Z" fill="#283826"/>
<path d="M2057.02 2246.49C1983.91 2261.59 1908.9 2272.35 1832.41 2278.7C1905.55 2263.66 1980.55 2252.9 2057.02 2246.49Z" fill="#384F37"/>
<path d="M2097.84 2179.15C2024.75 2199.15 1949.52 2214.9 1872.54 2226.33C1945.65 2206.39 2020.87 2190.64 2097.84 2179.15Z" fill="#384F37"/>
<path d="M1910.45 2131.37C1986.69 2110.83 2065.07 2094.57 2145.22 2082.65C2068.95 2103.13 1990.57 2119.4 1910.45 2131.37Z" fill="#384F37"/>
<path d="M1893.43 1960.1C1954.58 1942.52 2017.92 1929.2 2083 1920.23C2021.89 1937.88 1958.54 1951.21 1893.43 1960.1Z" fill="#384F37"/>
<path d="M2090.95 1880.31C2026.5 1899.12 1959.79 1913.58 1891.27 1923.59C1955.77 1904.9 2022.48 1890.44 2090.95 1880.31Z" fill="#384F37"/>
<path d="M1888.93 1909.39C1941.09 1891.82 1995.73 1878.69 2052.29 1870.14C1999.92 1887.33 1945.31 1900.45 1888.93 1909.39Z" fill="#384F37"/>
<path d="M1891.48 1855.33C1944.13 1832.65 1999.48 1814.13 2057.06 1799.93C2004.37 1822.54 1949.02 1841.06 1891.48 1855.33Z" fill="#384F37"/>
<path d="M2044.06 1763.57C1996.4 1791.99 1945.58 1816.45 1892.06 1836.75C1939.75 1808.36 1990.56 1783.9 2044.06 1763.57Z" fill="#384F37"/>
<path d="M1892.12 1820.59C1929.68 1797.01 1970.42 1777.31 2013.8 1761.78C1976.24 1785.36 1935.49 1805.05 1892.12 1820.59Z" fill="#384F37"/>
<path d="M2043.56 1717.53C1996.36 1750.66 1945.83 1780.03 1892.35 1805.41C1939.55 1772.29 1990.08 1742.91 2043.56 1717.53Z" fill="#384F37"/>
<path d="M2716.7 2273.12C2716.7 2273.12 2691.25 2256.15 2671.15 2242.74C2665.64 2239.06 2660.56 2235.67 2656.78 2232.48C2654.01 2230.57 2651.38 2228.46 2648.92 2226.18C2647.59 2225.29 2640.22 2218.27 2628.27 2207.81L2659.34 2105.03L2590.5 2174.08L2572.79 2158.53L2630.2 2039.22L2552 2140.36L2541.51 2131.15L2529.48 2120.64L2508.57 2102.47L2551.73 1900.45L2451.4 2052.83L2438.99 2041.97L2424.14 2029.19L2404.67 2012.47L2387.78 1998.04L2406.15 1805.16L2375.32 1984.74C2367.96 1974.92 2361.12 1964.85 2354.81 1954.58L2353.23 1731.62L2334.99 1922.67C2325.47 1907.31 2315.22 1890.33 2303.63 1873.01L2298.61 1686.47L2275.56 1832.15C2269.21 1823.6 2263.23 1815.4 2256.33 1806.77C2238.46 1783.6 2218.55 1761.59 2196.87 1741.04C2192.27 1736.73 2187.59 1732.55 2182.73 1728.45C2033.22 1601.12 1862.94 1531.12 1862.94 1531.12C1862.94 1531.12 2025.69 1538.13 2169.83 1580.82C2249.31 1604.43 2437.33 1715.77 2492.29 1760.96C2547.25 1806.15 2657.16 1977.49 2670.31 2001.5C2683.47 2025.51 2738.97 2216.6 2738.97 2216.6L2716.7 2273.12Z" fill="#384F37"/>
<path d="M2169.78 1614.51C2183.6 1656.62 2192.73 1699.03 2197 1741.03C2183.15 1698.92 2174.03 1656.51 2169.78 1614.51Z" fill="#4A6445"/>
<path d="M2249.49 1639.04C2256.71 1695.59 2259.1 1751.65 2256.63 1806.68C2249.43 1750.13 2247.04 1694.08 2249.49 1639.04Z" fill="#4A6445"/>
<path d="M2463.18 1781.11C2448.32 1859.99 2428.78 1937.23 2404.63 2012.53C2419.43 1933.63 2438.97 1856.38 2463.18 1781.11Z" fill="#4A6445"/>
<path d="M2424.05 2029.32C2447.32 1961.41 2475.12 1895.6 2507.32 1832.21C2484.08 1900.14 2456.28 1965.94 2424.05 2029.32Z" fill="#4A6445"/>
<path d="M2515.57 1855.82C2494.53 1920.07 2468.95 1982.25 2438.95 2042.04C2459.95 1977.77 2485.53 1915.58 2515.57 1855.82Z" fill="#4A6445"/>
<path d="M2529.1 2120.67C2544.13 2058.92 2563.93 1999.06 2588.37 1941.47C2573.29 2003.19 2553.49 2063.06 2529.1 2120.67Z" fill="#4A6445"/>
<path d="M2602.8 1986.16C2586.88 2036.89 2566.28 2085.52 2541.2 2131.62C2557.05 2080.97 2577.59 2032.42 2602.62 1986.42L2602.8 1986.16Z" fill="#4A6445"/>
<path d="M2682.71 2133.08C2678.79 2167.85 2670.02 2201.13 2656.62 2232.18C2660.5 2197.39 2669.26 2164.11 2682.71 2133.08Z" fill="#4A6445"/>
<path d="M2691.44 2162.09C2689.41 2190.55 2682.51 2217.65 2670.99 2242.44C2672.98 2213.96 2679.87 2186.86 2691.44 2162.09Z" fill="#4A6445"/>
<path d="M3169.24 1865.8C3169.24 1865.8 2884.09 1676.34 2813.03 1647.34C2741.98 1618.33 2569.08 1566.71 2430.27 1545.3C2291.46 1523.89 1869.26 1532.85 1869.26 1532.85C1869.26 1532.85 2116.46 1443.27 2140.85 1436.16L2107.14 1486.69L2156.32 1432.49C2175.5 1428.13 2207.59 1421.95 2241.15 1416.45L2180.87 1473.21L2265.49 1412.67C2293.55 1407.93 2322.33 1405.05 2351.65 1404.04L2259.7 1457.67L2394.02 1410.64L2420.3 1416.96L2354.61 1452.19L2442.39 1422.69C2459.89 1427.18 2479.24 1432.33 2499.55 1437.83L2423.1 1476.9L2518.9 1443.17C2569.85 1457.13 2625.71 1473.32 2673.98 1487.7L2585.87 1500.88L2693.98 1494.04C2729.13 1503.78 2764.02 1515.6 2798.4 1529.4C2820.07 1542.87 2840.98 1557.52 2861 1573.27L2735.08 1550.97L2876.81 1585.35C2893.49 1598.1 2911.08 1611.85 2928.5 1625.67L2842.7 1601.78L2938.43 1633.55C2951.44 1644.05 2964.24 1654.31 2976.16 1664.08L2888.36 1626.4L3045.59 1723.91C3099.99 1777.34 3169.24 1865.8 3169.24 1865.8Z" fill="#384F37"/>
<path d="M3095.9 1851.94L2994.31 1755.42L3060.37 1845.58C3023.2 1838.42 2981.13 1830.28 2941.7 1821.99L2906.31 1716.75L2921.61 1817.78C2906.74 1814.77 2892.64 1811.69 2879.39 1808.79L2857.92 1672.2L2790.84 1784.5C2746.18 1769.83 2701.17 1757.36 2656.03 1747.16L2588.27 1572.81L2630.47 1740.84C2608.78 1735.96 2584.76 1730.76 2557.27 1725.17L2488.87 1538.59L2532.23 1720.06C2504.53 1714.42 2473.79 1708.28 2439.16 1701.66L2214.72 1510.64L2341.25 1660.68C2311.27 1646.71 2276.03 1630.68 2236.89 1614.73L2169.13 1535.61L2210.51 1604.41C2113.56 1567.05 1995 1533.18 1868.67 1532.64C1879.68 1530.41 2228.79 1465.7 2344.07 1476.11C2460.87 1486.96 2750.93 1561.36 2815.51 1594.28C2880.1 1627.21 3169.24 1865.8 3169.24 1865.8C3169.24 1865.8 3138.9 1860.13 3095.9 1851.94Z" fill="#4A6445"/>
<path d="M2181.59 1593.55C2157.96 1571.53 2137.58 1546.88 2121.22 1520.51C2144.86 1542.52 2165.24 1567.18 2181.59 1593.55Z" fill="#384F37"/>
<path d="M2296.5 1511.64C2359.76 1575.01 2419.75 1640.91 2476.19 1709.02C2412.96 1645.63 2352.97 1579.73 2296.5 1511.64Z" fill="#384F37"/>
<path d="M2329.27 1516.73C2389.9 1580.08 2447.22 1645.82 2500.95 1713.65C2440.31 1650.31 2382.99 1584.57 2329.27 1516.73Z" fill="#384F37"/>
<path d="M2566.72 1551.82C2586.26 1613.25 2601.12 1674.97 2611.19 1736.51C2591.65 1675.08 2576.79 1613.35 2566.72 1551.82Z" fill="#384F37"/>
<path d="M2660.37 1602.6C2674.95 1653.38 2684.82 1704.3 2689.88 1754.79C2675.29 1704.02 2665.42 1653.09 2660.37 1602.6Z" fill="#384F37"/>
<path d="M2713.45 1760.84C2713.1 1709.11 2717.55 1658.37 2726.77 1609.14C2727.21 1660.89 2722.75 1711.64 2713.45 1760.84Z" fill="#384F37"/>
<path d="M2769.1 1776.98C2787.33 1733.52 2810.09 1692.44 2837.13 1654.22C2818.86 1697.65 2796.09 1738.73 2769.1 1776.98Z" fill="#384F37"/>
<path d="M2748.89 1770.78C2770.04 1720.47 2795.74 1672.52 2825.75 1627.37C2804.6 1677.68 2778.9 1725.62 2748.89 1770.78Z" fill="#384F37"/>
<path d="M2971.06 1827.68C2949.54 1784.58 2932.43 1740.49 2919.99 1696.07C2941.51 1739.17 2958.62 1783.26 2971.06 1827.68Z" fill="#384F37"/>
<path d="M3003.19 1834.08C2985.07 1801.1 2971.37 1766.96 2962.44 1732.54C2980.5 1765.53 2994.2 1799.66 3003.19 1834.08Z" fill="#384F37"/>
<path d="M721.681 1382.71C721.681 1382.71 971.488 1311.45 1033.24 1309.24C1094.98 1307.03 1247.14 1319.62 1368.98 1347.14C1490.81 1374.66 1861.85 1522.63 1861.85 1522.63C1861.85 1522.63 1643.92 1361.44 1622.86 1347.3L1652.65 1402.91L1609.2 1338.86C1592.03 1328.46 1564.13 1312.63 1534.59 1296.56L1587.78 1366.44L1513.29 1285.13C1488.61 1271.64 1463.31 1259.52 1437.54 1248.87L1518.29 1326.6L1399.56 1240.4L1376.46 1237.26L1434.36 1289.96L1357.08 1234.87C1341.72 1232.96 1324.79 1231.05 1306.93 1229.1L1374.23 1288.85L1289.99 1227.38C1244.95 1222.63 1196.37 1218.29 1153.79 1214.71L1231.24 1255.64L1137.42 1214.32C1106.57 1211.2 1075.96 1209.99 1045.81 1210.7C1026.76 1215.28 1008.37 1221.17 990.783 1228.32L1100.99 1250.67L976.67 1233.76C962.085 1239.36 946.719 1245.59 931.476 1251.99L1006.68 1259.43L923.019 1255.45C911.68 1260.34 900.473 1265.04 889.571 1269.45L966.563 1265.53L828.963 1298.87C790.764 1324.27 754.93 1352.28 721.681 1382.71Z" fill="#384F37"/>
<path d="M785.625 1395.09L874.527 1344.4L816.673 1400.95C848.908 1406.84 886.166 1413.87 920.822 1419.75L951.338 1339.31L938.356 1422.91C951.33 1425.15 963.798 1427.24 975.216 1428.92L993.261 1316.4L1052.72 1437.41C1091.9 1439.3 1131.4 1443.26 1171.03 1449.26L1229.8 1318.69L1193.69 1452.69C1212.55 1455.69 1233.81 1459.04 1257.9 1463.23L1317.04 1322.17L1279.74 1467.17C1304.04 1471.4 1331.17 1476.27 1361.45 1482.01L1558.69 1388.9L1448.38 1478.2C1474.67 1476 1505.56 1473.61 1540.07 1472.29L1598.98 1425.36L1562.71 1471.78C1647.64 1470.95 1751.65 1480.93 1862.53 1522.51C1853 1517.11 1545.93 1343.89 1444.94 1314.94C1342.39 1285.62 1087.69 1254.16 1031.36 1261.81C975.032 1269.46 722.166 1381.98 722.166 1381.98C722.166 1381.98 747.946 1387.97 785.625 1395.09Z" fill="#283826"/>
<path d="M1587.4 1472.35C1601.21 1454.25 1619.05 1439.32 1640.08 1428.26C1626.36 1446.42 1608.5 1461.36 1587.4 1472.35Z" fill="#384F37"/>
<path d="M1486.47 1362.19C1437.71 1403.7 1385.31 1441.63 1329.61 1475.72C1378.39 1434.22 1430.78 1396.29 1486.47 1362.19Z" fill="#384F37"/>
<path d="M1457.3 1355.86C1411.02 1398.09 1361.02 1436.82 1307.64 1471.79C1353.93 1429.56 1403.93 1390.84 1457.3 1355.86Z" fill="#384F37"/>
<path d="M1248.94 1307.89C1241.06 1358.7 1228.38 1407.92 1211.04 1455.06C1218.95 1404.26 1231.63 1355.03 1248.94 1307.89Z" fill="#384F37"/>
<path d="M1167.04 1320.99C1163.4 1363.85 1154.96 1405.37 1141.85 1444.93C1145.47 1402.06 1153.91 1360.54 1167.04 1320.99Z" fill="#384F37"/>
<path d="M1121.11 1442.41C1112.16 1396.02 1107.98 1349.89 1108.63 1304.64C1117.62 1351.01 1121.77 1397.13 1121.03 1442.35L1121.11 1442.41Z" fill="#384F37"/>
<path d="M1072.36 1437.96C1047.89 1395.56 1027.69 1351.88 1012.05 1307.57C1036.51 1349.97 1056.72 1393.65 1072.36 1437.96Z" fill="#384F37"/>
<path d="M1090.12 1439.36C1063.15 1389.91 1040.46 1339.29 1022.3 1288.05C1049.25 1337.51 1071.93 1388.13 1090.12 1439.36Z" fill="#384F37"/>
<path d="M895.213 1415.31C905.371 1380.18 920.231 1347.11 939.504 1316.75C929.295 1351.86 914.437 1384.93 895.213 1415.31Z" fill="#384F37"/>
<path d="M866.988 1410.28C874.084 1382.77 885.957 1357.3 902.214 1334.71C895.068 1362.19 883.198 1387.65 866.988 1410.28Z" fill="#384F37"/>
<path d="M1872.96 1534.35L1602.18 1353.72C1578.99 1338.25 1523.09 1305.85 1468.51 1273.65L1597.09 1220.4L1441.3 1257.7C1404.69 1235.78 1371.24 1215.09 1352.25 1201.27C1350.08 1199.82 1347.83 1198.32 1345.5 1196.76L1432.93 1145.38L1335.08 1189.24C1329.99 1185.85 1324.79 1181.9 1318.66 1177.71C1342.11 1158.29 1459.61 1081.17 1459.61 1081.17L1276.15 1148.2C1222.87 1111.89 1159.86 1070.63 1125.91 1051.24L1236.32 944.28L1047.77 1026.89C1006.8 1018.73 954.367 1009.33 911.067 1001.24L962.675 933.817L894.766 998.03C881.036 995.482 868.666 992.883 858.451 990.668L920.354 909.8L821.63 972.141C808.56 952.883 792.999 917.303 794.758 915.027C796.517 912.751 1005 881.758 1035.62 887.717C1066.24 893.676 1288.82 932.07 1366.74 976.094C1444.65 1020.12 1714.01 1239.57 1762.98 1305.48C1811.94 1371.39 1872.96 1534.35 1872.96 1534.35Z" fill="#4A6445"/>
<path d="M1095.3 902.144C1045.45 940.426 992.15 975.058 935.739 1005.82C985.56 967.501 1038.87 932.868 1095.3 902.144Z" fill="#384F37"/>
<path d="M1199.84 928.667C1143.37 963.66 1083.72 994.782 1021.24 1021.84C1077.64 986.851 1137.27 955.772 1199.75 928.799L1199.84 928.667Z" fill="#384F37"/>
<path d="M1158.26 1070.33C1216.99 1033.97 1278.91 1001.49 1343.68 973.072C1284.88 1009.35 1222.97 1041.82 1158.26 1070.33Z" fill="#384F37"/>
<path d="M1359.38 1206.31C1406.46 1176.33 1456.76 1150.22 1509.85 1128.19C1462.79 1158.19 1412.48 1184.3 1359.38 1206.31Z" fill="#384F37"/>
<path d="M1563.01 1153.31C1512.69 1184.35 1459.19 1211.51 1402.94 1234.61C1453.25 1203.55 1506.74 1176.38 1563.01 1153.31Z" fill="#384F37"/>
<path d="M1419.35 1246.32C1461.72 1221.3 1507.05 1200 1554.88 1182.66C1512.82 1208.09 1467.46 1229.4 1419.35 1246.32Z" fill="#384F37"/>
<path d="M1487.14 1284.74C1536.82 1262.9 1589.2 1245.17 1643.78 1231.72C1594.11 1253.57 1541.73 1271.3 1487.14 1284.74Z" fill="#384F37"/>
<path d="M1681.41 1266.21C1626.4 1281.33 1569.25 1292.15 1510.46 1298.57C1565.51 1283.46 1622.73 1272.67 1681.58 1266.32L1681.41 1266.21Z" fill="#384F37"/>
<path d="M1530.02 1310.09C1573.88 1297.22 1619.95 1288.67 1667.58 1284.58C1623.7 1297.39 1577.63 1305.93 1530.02 1310.09Z" fill="#384F37"/>
<path d="M1737.64 1300.27C1676.31 1311.61 1613.2 1318.59 1548.79 1321.17C1610.1 1309.77 1673.22 1302.79 1737.64 1300.27Z" fill="#384F37"/>
<path d="M2705.95 1360.81C2700.27 1361.75 2694.29 1361.89 2688.2 1361.22C2673.21 1332.73 2636.96 1266.01 2608.52 1227.68C2585.69 1196.78 2560.39 1167.18 2532.9 1139.2C2532.9 1139.2 2591.2 1216.42 2618.04 1276.48C2635.91 1316 2648.11 1343.97 2654.4 1358.22L2630.51 1356.08C2614.77 1325.47 2577.43 1254.95 2553.71 1226C2523.98 1189.97 2472.71 1134.21 2468.5 1129.68C2472.7 1136.03 2527.03 1219.02 2553.12 1270.25C2566.91 1297.26 2579.19 1324.64 2589.9 1352.27L2535.96 1346.57C2520.72 1321.36 2484.89 1262.68 2466.82 1238.26C2444.25 1207.59 2383.14 1135.3 2379.72 1131.2C2381.48 1135.44 2410.95 1203.29 2428.97 1246.93C2440.36 1277.06 2448.04 1307.59 2451.84 1337.88C2406.53 1333.52 2368.41 1330.13 2352.22 1330.54C2347.34 1330.75 2342.58 1331.35 2337.99 1332.36C2320.37 1311.79 2276.57 1260.72 2266.34 1244.61C2254.7 1225.92 2230.85 1184.52 2227.23 1178.37C2230.82 1187.09 2261.57 1259.53 2280.97 1288.28L2315.27 1338.95C2303.78 1342.98 2291.16 1348.35 2278.22 1354.38L2161.27 1234.78L2258.04 1364.2C2241.52 1372.34 2224.76 1381.57 2209.03 1390.33L2043.46 1342.55L2194.93 1398.27C2169.03 1412.9 2147.15 1425.99 2135.18 1432.19C2098.59 1450.9 1871.6 1534.22 1871.6 1534.22C1871.6 1534.22 1985.19 1341.71 2028.47 1281C2071.74 1220.28 2254.43 1122.07 2317.34 1108.17C2380.25 1094.28 2546.37 1102.39 2643.1 1136.64C2707.23 1159.4 2794.27 1219.56 2794.27 1219.56C2794.27 1219.56 2787 1232.63 2776.54 1250.66L2696.4 1186.47L2769.06 1263.68C2763.85 1272.57 2758.2 1282.12 2752.55 1291.67L2609.85 1154.32C2609.85 1154.32 2700.68 1301.14 2723.58 1338.55C2718.95 1346.85 2713.03 1354.33 2705.95 1360.81Z" fill="#4A6445"/>
<path d="M1963.83 1381.31C2029.98 1388.73 2096.47 1400.55 2162.77 1416.67C2096.62 1409.22 2030.13 1397.4 1963.83 1381.31Z" fill="#384F37"/>
<path d="M1984.33 1402.46C2036.45 1406.83 2089.04 1415.65 2141.43 1428.79C2089.3 1424.39 2036.71 1415.58 1984.33 1402.46Z" fill="#384F37"/>
<path d="M2135.42 1240.82C2175.07 1282.14 2211.26 1325.91 2243.58 1371.61C2204 1330.25 2167.81 1286.49 2135.42 1240.82Z" fill="#384F37"/>
<path d="M2171.7 1221.33C2215.93 1260.58 2257.08 1302.65 2294.68 1347.06C2250.47 1307.78 2209.32 1265.71 2171.7 1221.33Z" fill="#384F37"/>
<path d="M2360.36 1140.9C2384.3 1205.16 2403.71 1269.93 2418.47 1334.78C2394.46 1270.52 2375.05 1205.75 2360.36 1140.9Z" fill="#384F37"/>
<path d="M2382.92 1331.86C2360.93 1292.1 2343.27 1251.15 2330.24 1209.72C2352.26 1249.47 2369.93 1290.43 2382.92 1331.86Z" fill="#384F37"/>
<path d="M2458.21 1166.79C2501.45 1226.41 2540.77 1287.86 2575.89 1350.69C2532.69 1291.04 2493.38 1229.6 2458.21 1166.79Z" fill="#384F37"/>
<path d="M2616.33 1200.8C2650.38 1252.73 2680.35 1306.23 2705.96 1360.8C2671.92 1308.87 2641.95 1255.37 2616.33 1200.8Z" fill="#384F37"/>
<path d="M1871.6 1534.22C1842.69 1468.74 1809.18 1404.26 1771.31 1341.22C1732.29 1277.4 1688.6 1215.39 1640.6 1155.72L1755.88 1220.17L1626.98 1139.64C1615.29 1125.31 1602.4 1111.74 1588.45 1099.09C1584.17 1095.56 1579.49 1091.38 1574.39 1086.93L1715.13 1124.76L1545.5 1060.66C1524.32 1041.45 1499.23 1019.07 1470.85 996.015L1585.36 997.475L1391.04 937.31C1382.7 931.746 1374.36 926.181 1365.57 921.279C1335.97 904.24 1305.01 890.018 1273.31 878.892L1412.79 868.561L1250.8 871.254C1226.82 863.76 1203.12 854.709 1179.9 844.176L1174.37 841.256L1345.61 837.541L1145.92 825.912C1073.77 786.792 1002.44 747.541 1002.44 747.541C1002.44 747.541 1317.03 771.428 1390.08 813.166C1463.13 854.903 1655.22 1017.25 1722.71 1109.61C1789.68 1200.94 1868.99 1524.04 1871.6 1534.22Z" fill="#384F37"/>
<path d="M1871.51 1534.35C1871.51 1534.35 1772.02 1169.23 1723.09 1109.57C1674.17 1049.92 1449.38 843.717 1390.46 813.134C1331.55 782.551 1002.82 747.509 1002.82 747.509C1002.82 747.509 1028.22 739.252 1065.61 728.366L1153.95 746.286L1085.29 722.715C1111.27 715.225 1141.25 706.961 1171.77 699.342L1341.14 752.635L1211.51 689.637C1237.05 683.873 1261.85 678.859 1283.98 675.509C1314.45 699.576 1359.39 735.396 1370.55 746.485C1386.93 762.587 1423.01 807.349 1427.27 813.066L1336.52 671.373L1344.11 671.741C1368.74 675.547 1393.37 683.217 1416.87 694.406L1519.57 860.459L1478.92 723.537C1549.41 760.804 1617.81 802.396 1683.53 847.96C1694.76 886.782 1722.57 984.766 1722.14 1002.4C1721.55 1022.98 1719.4 1047.9 1719.19 1050.92L1753.3 942.504C1797.92 1020.18 1846.18 1124.91 1855.39 1160.08C1869.86 1214.28 1871.51 1534.35 1871.51 1534.35Z" fill="#4A6445"/>
<path d="M1384.32 681.031C1416.42 728.412 1444.46 777.442 1468.11 827.564C1436.11 780.144 1408.08 731.124 1384.32 681.031Z" fill="#384F37"/>
<path d="M1519.05 745.42C1539.16 792.842 1554.71 840.97 1565.51 889.184C1545.43 841.759 1529.88 793.633 1519.05 745.42Z" fill="#384F37"/>
<path d="M1563.87 771.294C1586.82 835.494 1605.18 900.151 1618.84 964.813C1595.83 900.618 1577.46 835.958 1563.87 771.294Z" fill="#384F37"/>
<path d="M1593.15 790.827C1609.33 838.401 1620.9 886.336 1627.69 934.02C1611.49 886.445 1599.93 838.51 1593.15 790.827Z" fill="#384F37"/>
<path d="M1648.26 824.044C1670.26 893.253 1687.63 962.762 1700.25 1032.15C1678.31 962.958 1660.97 893.469 1648.34 824.1L1648.26 824.044Z" fill="#384F37"/>
<path d="M1788.65 1008.05C1788.05 1059.56 1782.62 1110.01 1772.42 1158.86C1772.93 1107.41 1778.32 1057.03 1788.52 1008.25L1788.65 1008.05Z" fill="#384F37"/>
<path d="M1826 1086.14C1821.08 1132.39 1811.35 1177.22 1796.94 1220.06C1801.88 1173.82 1811.61 1128.99 1826 1086.14Z" fill="#384F37"/>
<path d="M1855.72 1160.49C1844 1214.17 1827.52 1266.06 1806.43 1315.69C1818.15 1262.01 1834.63 1210.12 1855.72 1160.49Z" fill="#384F37"/>
<path d="M1814.51 1340.25C1825.02 1288.52 1840.3 1238.54 1860.21 1190.79C1849.66 1242.51 1834.38 1292.48 1814.51 1340.25Z" fill="#384F37"/>
<path d="M1135.69 708.616C1194 723.344 1251.89 742.345 1308.74 765.421C1250.43 750.666 1192.54 731.666 1135.69 708.616Z" fill="#384F37"/>
<path d="M1114 806.349C1144.69 794.939 1177.85 787.79 1212.56 785.097C1181.87 796.506 1148.72 803.655 1114 806.349Z" fill="#4A6445"/>
<path d="M1510.28 906.38C1449.02 908.562 1386.66 906.296 1323.74 899.601C1385 897.419 1447.36 899.686 1510.28 906.38Z" fill="#4A6445"/>
<path d="M1358.76 917.214C1399.44 917.172 1440.99 921.582 1482.59 930.355C1441.92 930.41 1400.36 925.999 1358.76 917.214Z" fill="#4A6445"/>
<path d="M1503.47 1022.66C1548.3 1023.49 1593.93 1028.81 1639.58 1038.53C1594.74 1037.64 1549.11 1032.32 1503.47 1022.66Z" fill="#4A6445"/>
<path d="M1528.91 1045.77C1555.85 1043.37 1584.06 1045.49 1612.26 1052.02C1585.27 1054.48 1557.01 1052.45 1528.74 1046.03L1528.91 1045.77Z" fill="#4A6445"/>
<path d="M1621.13 1132.68C1654.04 1142.37 1686.21 1156.25 1716.62 1173.86C1683.7 1164.2 1651.52 1150.32 1621.13 1132.68Z" fill="#4A6445"/>
<path d="M1673.15 1197.27C1699.84 1211.53 1724.57 1229.46 1746.28 1250.27C1719.62 1235.98 1694.88 1218.06 1673.15 1197.27Z" fill="#4A6445"/>
<path d="M1882.65 1536.99C1879.6 1535.35 1876.34 1534.23 1873.08 1533.69C1869.81 1533.16 1866.6 1533.22 1863.63 1533.88C1857.88 1535.99 1779.7 1517.85 1749.02 1569.43C1718.34 1621.02 1744.17 1678.97 1797.86 1708.36C1851.54 1737.76 1908.62 1718.15 1928.57 1666.02C1948.93 1612.54 1898.8 1561.56 1896.48 1553.3C1895.7 1549.99 1894.02 1546.74 1891.59 1543.88C1889.17 1541.02 1886.08 1538.64 1882.65 1536.99Z" fill="#FFC727"/>
<path opacity="0.4" d="M1882.65 1536.99C1879.6 1535.35 1876.34 1534.23 1873.08 1533.69C1869.81 1533.16 1866.6 1533.22 1863.63 1533.88C1857.88 1535.99 1779.7 1517.85 1749.02 1569.43C1718.34 1621.02 1744.17 1678.97 1797.86 1708.36C1851.54 1737.76 1908.62 1718.15 1928.57 1666.02C1948.93 1612.54 1898.8 1561.56 1896.48 1553.3C1895.7 1549.99 1894.02 1546.74 1891.59 1543.88C1889.17 1541.02 1886.08 1538.64 1882.65 1536.99Z" fill="black"/>
<g opacity="0.2">
<path d="M1863.54 1534.01C1850.12 1534.07 1836.52 1533.14 1823.42 1533.79C1803.87 1535.03 1785.78 1540.33 1770.43 1549.33C1755.08 1558.32 1742.84 1570.79 1734.57 1585.85C1740.96 1569.22 1752.44 1555.36 1767.87 1545.66C1783.31 1535.96 1802.17 1530.75 1822.58 1530.54C1836.1 1530.83 1849.79 1531.99 1863.54 1534.01Z" fill="black"/>
<path d="M1929.18 1612.87C1945.53 1663.73 1923.83 1720.83 1867.06 1725.88C1919.79 1714.59 1938.41 1663.01 1929.18 1612.87Z" fill="black"/>
<path d="M1838.35 1542.31C1814.59 1548.31 1787.12 1556.05 1773.14 1573.93C1763.67 1588.74 1756.34 1604.88 1751.3 1622.02C1749.38 1627.68 1748.22 1633.66 1747.86 1639.84C1748.28 1614.48 1755.54 1590.89 1769.02 1571.08C1784.12 1552.41 1812.21 1545.19 1838.35 1542.31Z" fill="black"/>
<path d="M1916.4 1616.13C1915.96 1638.43 1911.64 1659.79 1903.58 1679.44C1892.51 1698.02 1872.15 1708.48 1852.03 1717.68C1869.04 1705.74 1889.17 1694.54 1899.27 1677.04C1907.08 1657.63 1912.81 1637.25 1916.4 1616.13Z" fill="black"/>
<path d="M1870.37 1545.46C1844.33 1566.42 1816.06 1586.94 1799.81 1615.1C1791.19 1634.82 1785.79 1656.09 1783.76 1678.36C1783.3 1686.53 1784.88 1695.08 1788.4 1703.39C1775.15 1678.08 1783.15 1651.99 1789.31 1629.75C1791.48 1621.97 1794.27 1614.45 1797.68 1607.26C1817.26 1582.48 1841.73 1561.59 1870.2 1545.35L1870.37 1545.46Z" fill="black"/>
<path d="M1901.57 1585.06C1908.25 1625.64 1891.61 1660.34 1866.78 1687.27C1875.36 1671.34 1884.98 1656.01 1892.05 1639.45C1897.84 1622.25 1901.04 1603.98 1901.57 1585.06Z" fill="black"/>
<path d="M1863.6 1587.23C1854.84 1629.72 1836.8 1668.54 1810.44 1701.62L1825.53 1673.93C1841.89 1646.52 1850.14 1615.9 1863.56 1587.29L1863.6 1587.23Z" fill="black"/>
<path d="M1844.42 1605.86C1826.51 1636.42 1811.06 1668.46 1798.16 1701.76C1804.92 1665.54 1820.7 1632.81 1844.42 1605.86Z" fill="black"/>
<path d="M1891.6 1553.02C1890 1585.78 1890.42 1619.3 1876.54 1647.88C1871.07 1662.74 1863.92 1676.78 1855.21 1689.8C1844.38 1701.16 1832.07 1711.21 1818.44 1719.79C1824.62 1714.33 1830.43 1709.59 1836.1 1704.17C1854.92 1689.32 1863.48 1667.63 1872.05 1645.75C1886.27 1617.39 1886.09 1584.6 1891.34 1553.23L1891.6 1553.02Z" fill="black"/>
<path d="M1843.18 1584.05C1823.36 1613.75 1800.12 1641.55 1797.01 1679.82C1793.5 1639.73 1817.62 1609.35 1843.18 1584.05Z" fill="black"/>
<path d="M1794 1578.26C1785.09 1590.06 1779.05 1603.77 1776.19 1618.69C1774.29 1634.01 1772.43 1649.63 1768.94 1664.44C1768.85 1632.77 1768.55 1598.17 1794 1578.26Z" fill="black"/>
<path d="M1884.13 1567.1C1881.66 1586.88 1877.51 1606.15 1871.72 1624.74C1863.55 1642.18 1853.62 1658.63 1842.04 1673.93C1849.98 1656.61 1859.64 1639.97 1867.28 1622.55C1874.92 1605.13 1877.08 1584.91 1884.31 1566.84L1884.13 1567.1Z" fill="black"/>
<path d="M1901.8 1562.12C1916.72 1578.97 1926.83 1599.23 1941.36 1616.3C1922.25 1602.49 1911.44 1581.29 1901.8 1562.12Z" fill="black"/>
<path d="M1737.1 1600.86C1735.87 1614.55 1737.59 1628.9 1742.16 1643.14C1747.69 1657.26 1759.8 1670.9 1762.26 1685.29C1760.83 1681.71 1758.83 1678.24 1756.34 1675.01L1749.39 1665.01C1741.82 1654.99 1736.71 1643.92 1734.47 1632.74C1732.24 1621.57 1732.97 1610.64 1736.59 1600.9L1737.1 1600.86Z" fill="black"/>
<path d="M1845.92 1554.64C1822.3 1577.21 1788.18 1594.21 1785.65 1630.18C1781.49 1591.95 1817.74 1571.77 1845.92 1554.64Z" fill="black"/>
<path d="M1907.82 1622.86C1905.61 1638.49 1902.03 1653.7 1897.13 1668.33C1890.49 1682.35 1880.12 1694.12 1866.78 1702.8L1881.18 1685.19C1896.38 1667.83 1898.3 1643.63 1907.82 1622.86Z" fill="black"/>
<path d="M1913.03 1591.37C1924.38 1614.26 1927.85 1638.4 1922.94 1660.12C1918.03 1681.84 1905 1699.94 1885.82 1711.66C1892.91 1703.75 1900.76 1696.14 1907.27 1687.65C1923.41 1660.18 1925.64 1625.61 1913.46 1591.27L1913.03 1591.37Z" fill="black"/>
</g>
<path opacity="0.4" d="M1809.36 1708.66C1808.43 1710.05 1804.03 1709.41 1798.63 1706.67C1793.22 1703.93 1790.28 1701.11 1790.59 1699.2C1790.9 1697.3 1795.92 1698.44 1801.32 1701.19C1806.72 1703.93 1809.95 1707.04 1809.36 1708.66Z" fill="black"/>
<path d="M2038.73 1591.77C2038.73 1591.77 2172.14 1697.53 2245.09 1803.2C2318.04 1908.87 2341.82 2187.46 2345.88 2221.5C2349.93 2255.53 2302.44 2362.49 2302.44 2362.49C2302.44 2362.49 2296.27 2202.97 2287.75 2139.13C2279.23 2075.28 2230.31 1860.41 2195.85 1798.23C2161.38 1736.06 2038.73 1591.77 2038.73 1591.77Z" fill="#384F37"/>
<path d="M2240.09 2453.98C2240.09 2453.98 2228.88 2409.52 2219.26 2381.84C2218.16 2378.61 2214.11 2369.68 2208.06 2356.35L2262.37 2208.62L2197.92 2333.78L2178.84 2293.36L2260.21 2126.21L2165.9 2267.58L2148.91 2231.62L2242.02 2069.63L2138.5 2209.82L2131.04 2193.35L2123.12 2176.85C2115.48 2161.02 2108.18 2145.04 2100.05 2128.5L2205.28 1915.1L2080.27 2087.14C2077.74 2081.71 2075.38 2076.4 2072.51 2070.94L2056.88 2038L2120.81 1889.03L2052.17 2028.06C2049.12 2021.62 2046.18 2015.54 2043.3 2009.2L2138.49 1720.5L2020.79 1961.99L2008.26 1935.24L2092.71 1744.86L2001.5 1921.15L1993.11 1903.19C1982.31 1879.99 1974.46 1862.68 1970.78 1853.9C1968.87 1849.18 1966.9 1843.65 1964.98 1837.48C1960.88 1824.3 1956.65 1807.87 1952.59 1789.74L1997.86 1626.3L1947.02 1764.85C1944.52 1753.6 1942.2 1741.89 1939.97 1730.06L1949.24 1579.01L1927.05 1662.51C1918.69 1618.13 1911.36 1581.05 1906.16 1569.15C1893.8 1540.88 1862.18 1532.43 1857.54 1531.26C1866.22 1532.16 1966.56 1542.75 2038.6 1591.96C2073.46 1615.67 2105.06 1643.64 2132.2 1674.81C2167.39 1714.77 2201.91 1765.1 2241.88 1832.77C2315.27 1956.75 2312.42 2294.42 2309.2 2337.01C2308.54 2344.47 2306.78 2351.6 2303.96 2358.24C2303.25 2359.3 2302.92 2360.7 2302.33 2361.94C2284.65 2403.99 2240.09 2453.98 2240.09 2453.98Z" fill="#4A6445"/>
<path d="M2028.12 1631.35C2011.67 1701.94 1990.57 1770.75 1964.9 1837.43C1981.36 1766.83 2002.46 1698.03 2028.12 1631.35Z" fill="#384F37"/>
<path d="M2080.77 1675.67C2056.1 1753.64 2026.82 1829.56 1993.03 1903.14C2017.69 1825.17 2046.97 1749.25 2080.77 1675.67Z" fill="#384F37"/>
<path d="M2185.48 1860.4C2152.16 1932.95 2114.39 2003.08 2072.31 2070.52C2105.62 1997.97 2143.39 1927.83 2185.48 1860.4Z" fill="#384F37"/>
<path d="M2131.04 2193.35C2153.21 2150.76 2179.85 2110.83 2210.66 2074C2188.44 2116.56 2161.81 2156.49 2131.04 2193.35Z" fill="#384F37"/>
<path d="M2234.89 1969.73C2201.97 2041.15 2164.6 2110.14 2122.92 2176.43C2155.88 2105.04 2193.26 2036.04 2234.89 1969.73Z" fill="#384F37"/>
<path d="M1817.42 1467.99C1817.42 1467.99 1703.41 1400.55 1635.12 1402.81C1534.97 1406.04 1313.24 1478.21 1209.28 1591.77C1174.86 1629.45 1099.91 1763.13 1099.91 1763.13C1099.91 1763.13 1098 1704.37 1098.17 1650.45C1106 1643.21 1114.61 1636.71 1123.91 1631.02C1138.35 1623.11 1168.76 1609.86 1170.65 1609.02C1151.1 1613.47 1132.39 1619.62 1114.75 1627.4C1109.28 1630.55 1103.5 1633.97 1098.28 1636.91C1098.2 1627.28 1098.79 1618.09 1099.04 1608.67C1112.6 1604.1 1125.55 1598.52 1137.78 1591.98C1154.56 1583.93 1172.18 1577.08 1190.51 1571.48C1173.37 1570.79 1156.39 1570.91 1139.64 1571.85C1126.13 1573.94 1113.07 1577.08 1100.58 1581.24C1100.88 1567.42 1106.45 1555.12 1116.37 1546.37C1128.38 1543.55 1148.5 1539.05 1159.09 1536.54C1174.54 1533.43 1258.23 1522 1263.43 1521.25C1257.78 1521.41 1167.49 1524.32 1153.05 1525.9C1147.22 1526.51 1138.82 1527.9 1130.84 1529.38C1134.86 1525.16 1139.1 1520.61 1143.72 1516.03C1157.15 1513.97 1176.55 1510.72 1190.63 1509.86C1212.19 1508.62 1255.36 1508.97 1261.21 1509.04C1253.94 1508.02 1187.35 1499.05 1171.96 1501.53C1167.1 1502.31 1161.43 1503.22 1156.02 1503.92C1173.63 1486.92 1193.94 1468.76 1212.78 1453.35C1235.66 1447.33 1259.25 1442.75 1283.41 1439.63C1302.11 1439.07 1401.5 1435.72 1407.7 1435.45C1401.69 1434.89 1304.71 1425.95 1288.18 1424.7C1272.98 1425.01 1258.15 1426.66 1243.9 1429.65C1252.91 1422.63 1263.15 1416.93 1274.37 1412.71C1286.26 1409.33 1324.45 1403.58 1372.3 1397.46C1394.51 1400.3 1421.7 1404.35 1427.78 1405.72C1436.9 1407.59 1461.03 1414.59 1469.46 1416.96C1460.47 1413.45 1431.51 1402.65 1417.18 1397.03C1413.56 1395.65 1409.89 1394.45 1406.2 1393.43C1500.23 1382.58 1613.33 1372.95 1641.81 1378.15C1689.18 1388.09 1780.01 1444.56 1817.42 1467.99Z" fill="#384F37"/>
<path d="M1872.03 1535.75C1872.03 1535.75 1802.93 1595.05 1791.11 1595.78C1785.28 1596.21 1722.94 1606.17 1655.81 1617.91C1661.57 1600.97 1703.71 1511.04 1716.1 1495.73C1688.31 1535.52 1663.27 1577.16 1641.09 1620.46L1615.41 1624.98L1635.93 1546.88C1639.83 1532.72 1669.31 1457.81 1669.31 1457.81C1669.31 1457.81 1624.14 1544.67 1620.9 1554.77C1618.4 1562.68 1597.14 1611.35 1589.26 1629.48C1574.51 1632.09 1560.47 1634.7 1547.83 1637.39C1547.19 1623.96 1548.93 1610.98 1552.98 1598.95C1561.41 1575.83 1573.75 1516.13 1573.75 1516.13C1573.75 1516.13 1555.22 1569.21 1549.63 1582.82C1543.5 1594.38 1535.59 1604.85 1526.08 1613.97L1581.11 1447.27C1581.11 1447.27 1500.84 1630.66 1501.6 1646.88C1495.83 1648.3 1491.08 1649.45 1487.28 1650.27C1480.69 1652.19 1470.45 1655.62 1457.73 1660.06C1461.69 1648.52 1461.71 1579.46 1461.58 1557.24C1461.19 1570.3 1460.24 1599.55 1457.8 1614.41C1452.82 1633.03 1445.78 1650.79 1436.77 1667.45C1429.95 1669.89 1422.58 1672.45 1415.08 1675.2C1420.06 1660.32 1434.49 1492.51 1435.4 1475.96C1433.65 1493.95 1399.82 1663.02 1391.32 1683.89C1378.12 1688.68 1364.35 1693.78 1350.67 1698.93C1348.23 1679.09 1376.62 1537.16 1381.36 1510.53C1379.41 1521.75 1376.62 1532.7 1373.01 1543.28C1367.09 1558.49 1332.56 1692.11 1334.68 1704.65C1323.49 1708.77 1312.47 1713.01 1302.16 1717.25C1307.43 1680.62 1308.95 1608.24 1309.09 1585.44C1308.46 1599.39 1307.09 1630 1305.66 1640.64C1303.95 1653.86 1293.76 1704.56 1292.87 1709.33C1293.17 1705.98 1295.2 1680.89 1295.05 1661.24C1294.89 1641.6 1292.14 1555.92 1291.87 1545.3C1291.62 1554.71 1290.69 1619.34 1283.81 1643.21C1278.22 1663.53 1267.66 1712.06 1263.35 1731.89L1238.17 1741.44C1236.59 1724.48 1233.71 1693.92 1233.93 1690.7L1229.76 1603.89C1229.25 1607.19 1220.41 1659.84 1216.14 1670.02C1212.61 1678.21 1214.67 1728.06 1215.83 1749.82C1213.52 1750.58 1211.54 1751.37 1210.04 1751.99C1201.44 1755.13 1192.32 1757.36 1182.82 1758.65C1177.17 1746.91 1172.6 1734.95 1169.17 1722.91C1164.8 1705.43 1179.59 1649.47 1181.83 1640.33C1179.05 1647.2 1165.2 1682.42 1161.23 1697.59C1158.14 1709.99 1162.19 1744.03 1164.63 1760.79C1143.46 1762.53 1121.96 1763.15 1100.22 1762.67C1100.22 1762.67 1157.94 1625.54 1242.2 1549.82C1326.47 1474.1 1501.74 1405.43 1626.29 1397.98C1699.9 1393.52 1795.39 1450.42 1817.73 1467.52C1840.07 1484.63 1872.03 1535.75 1872.03 1535.75Z" fill="#4A6445"/>
<path d="M1275.73 1567.87C1274.15 1624.7 1267.73 1680.41 1256.53 1734.53C1258.08 1677.72 1264.49 1622.03 1275.68 1567.94L1275.73 1567.87Z" fill="#384F37"/>
<path d="M1367.89 1485.92C1357.65 1562.02 1342.64 1636.64 1322.92 1709.45C1333.19 1633.36 1348.21 1558.74 1367.89 1485.92Z" fill="#384F37"/>
<path d="M1762.38 1463.94C1739.05 1516.51 1711.21 1566.65 1679.05 1613.97C1702.33 1561.49 1730.12 1511.45 1762.2 1464.21L1762.38 1463.94Z" fill="#384F37"/>
<path d="M1546.24 1416.24C1531.35 1496.07 1511.71 1574.24 1487.4 1650.44C1502.36 1570.64 1521.99 1492.47 1546.24 1416.24Z" fill="#384F37"/>
<path d="M1499.05 1499.64C1495.18 1552.81 1486.5 1604.69 1473.07 1654.77C1476.96 1601.61 1485.65 1549.74 1499.05 1499.64Z" fill="#384F37"/>
</svg>
