<svg width="2503" height="2533" viewBox="0 0 2503 2533" fill="none" xmlns="http://www.w3.org/2000/svg">
<path d="M1121.37 2532.08H1239.19C1239.19 2532.08 1252.09 2232.46 1248.44 2178.43C1244.78 2124.39 1226.29 1788.77 1231.83 1747.82C1237.37 1706.88 1244.56 1232.07 1253.98 1197.69C1263.39 1163.31 1263.17 1042.15 1263.17 1042.15H1226.4C1226.4 1042.15 1213.5 1182.97 1209.79 1195.87C1206.08 1208.77 1143.46 1682.51 1143.46 1756.02C1143.46 1829.53 1145.34 2170.23 1145.34 2196.41C1145.34 2222.59 1121.37 2532.08 1121.37 2532.08Z" fill="#FFC727"/>
<path opacity="0.6" d="M1121.37 2532.08H1239.19C1239.19 2532.08 1252.09 2232.46 1248.44 2178.43C1244.78 2124.39 1226.29 1788.77 1231.83 1747.82C1237.37 1706.88 1244.56 1232.07 1253.98 1197.69C1263.39 1163.31 1263.17 1042.15 1263.17 1042.15H1226.4C1226.4 1042.15 1213.5 1182.97 1209.79 1195.87C1206.08 1208.77 1143.46 1682.51 1143.46 1756.02C1143.46 1829.53 1145.34 2170.23 1145.34 2196.41C1145.34 2222.59 1121.37 2532.08 1121.37 2532.08Z" fill="black"/>
<g opacity="0.4">
<path d="M1237.64 1603.32C1237.64 1606.58 1237.64 1609.8 1237.64 1612.97C1210.79 1612.54 1183.99 1610.88 1157.36 1607.98C1183.99 1605.15 1210.8 1603.6 1237.64 1603.32Z" fill="#FFC727"/>
<path d="M1225.29 1580.03C1203.15 1582.36 1181.33 1583.9 1159.35 1584.69C1159.68 1581.71 1160.02 1578.73 1160.4 1575.75C1182.11 1576.43 1203.74 1577.86 1225.29 1580.03Z" fill="#FFC727"/>
<path d="M1235.76 1938.2C1222.08 1937.41 1208.35 1936.25 1194.73 1934.8C1208.28 1933.37 1221.86 1932.25 1235.48 1931.45C1235.59 1933.73 1235.7 1935.97 1235.76 1938.2Z" fill="#FFC727"/>
<path d="M1177.62 2172.74C1166.84 2173.92 1156.05 2174.87 1145.23 2175.58C1145.23 2173.77 1145.23 2171.9 1145.23 2169.9C1156.01 2170.65 1166.81 2171.59 1177.62 2172.74Z" fill="#FFC727"/>
<path d="M1241.79 1455.33C1241.79 1456.59 1241.79 1457.85 1241.79 1459.11C1235.15 1458.59 1228.51 1457.94 1221.92 1457.24C1228.51 1456.54 1235.15 1455.89 1241.79 1455.33Z" fill="#FFC727"/>
<path d="M1234.87 1917.1C1215.83 1916.32 1196.8 1914.93 1177.79 1912.91C1196.69 1910.89 1215.61 1909.51 1234.54 1908.76L1234.87 1917.1Z" fill="#FFC727"/>
<path d="M1194.07 1649.44C1180 1650.93 1165.92 1652.08 1151.82 1652.89C1151.82 1650.6 1152.32 1648.23 1152.54 1646.04C1166.38 1646.83 1180.28 1647.95 1194.07 1649.44Z" fill="#FFC727"/>
<path d="M1244.89 2119.08C1230.61 2118.3 1216.36 2117.14 1202.15 2115.59C1216.21 2114.1 1230.39 2112.93 1244.51 2112.14C1244.62 2114.51 1244.78 2116.8 1244.89 2119.08Z" fill="#FFC727"/>
<path d="M1242.79 2442.36C1242.79 2445.62 1242.51 2448.83 1242.46 2452C1214.69 2451.82 1186.96 2450.27 1159.41 2447.34C1187.06 2444.33 1214.91 2442.67 1242.79 2442.36Z" fill="#FFC727"/>
<path d="M1210.18 2032.62C1188.36 2034.95 1166.49 2036.51 1144.57 2037.28V2028.15C1166.49 2028.8 1188.36 2030.29 1210.18 2032.62Z" fill="#FFC727"/>
<path d="M1247.17 1293.51C1247.17 1295.98 1247.17 1298.54 1246.89 1301.1C1230.83 1300.29 1214.79 1299.03 1198.77 1297.33C1214.89 1295.6 1231 1294.3 1247.17 1293.51Z" fill="#FFC727"/>
<path d="M1222.75 1260.15C1215.16 1260.99 1207.52 1261.69 1199.88 1262.34C1199.88 1260.9 1200.32 1259.46 1200.49 1258.06C1207.91 1258.68 1215.33 1259.38 1222.75 1260.15Z" fill="#FFC727"/>
<path d="M1236.26 2236.37C1205.29 2239.78 1174.09 2241.49 1142.85 2241.5C1142.85 2238.05 1143.29 2234.79 1143.52 2231.67C1174.52 2231.56 1205.5 2233.13 1236.26 2236.37Z" fill="#FFC727"/>
<path d="M1233.05 1870.15C1214.2 1871.26 1195.26 1870.51 1176.63 1867.91C1195.21 1865.31 1214.09 1864.55 1232.88 1865.67C1232.95 1867.13 1233.01 1868.62 1233.05 1870.15Z" fill="#FFC727"/>
<path d="M1192.74 2191.14C1177.08 2193.29 1161.2 2194.16 1145.34 2193.75C1145.34 2192.35 1145.34 2190.58 1145.34 2188.53C1161.21 2188.08 1177.08 2188.95 1192.74 2191.14Z" fill="#FFC727"/>
<path d="M1149 1729.93C1175.41 1726.25 1202.37 1726.25 1228.78 1729.93C1202.37 1733.61 1175.41 1733.61 1149 1729.93Z" fill="#FFC727"/>
<path d="M1143.74 2289.1C1170.15 2285.42 1197.11 2285.42 1223.52 2289.1C1197.11 2292.78 1170.15 2292.78 1143.74 2289.1Z" fill="#FFC727"/>
</g>
<path d="M1188.69 1092.93C1185.28 1092.31 1181.75 1092.24 1178.31 1092.72C1174.86 1093.2 1171.57 1094.22 1168.63 1095.72C1163.12 1099.46 1080.39 1105.52 1057.42 1162.67C1034.46 1219.82 1070.26 1266.29 1129.82 1277.85C1189.39 1289.4 1244.44 1254.41 1256.37 1199.89C1268.61 1144.1 1209.04 1111.26 1205.43 1104.25C1204.16 1101.35 1201.93 1098.77 1198.99 1096.78C1196.05 1094.79 1192.49 1093.46 1188.69 1092.93Z" fill="#FFC727"/>
<path opacity="0.5" d="M1188.69 1092.93C1185.28 1092.31 1181.75 1092.24 1178.31 1092.72C1174.86 1093.2 1171.57 1094.22 1168.63 1095.72C1163.12 1099.46 1080.39 1105.52 1057.42 1162.67C1034.46 1219.82 1070.26 1266.29 1129.82 1277.85C1189.39 1289.4 1244.44 1254.41 1256.37 1199.89C1268.61 1144.1 1209.04 1111.26 1205.43 1104.25C1204.16 1101.35 1201.93 1098.77 1198.99 1096.78C1196.05 1094.79 1192.49 1093.46 1188.69 1092.93Z" fill="black"/>
<g opacity="0.2">
<path d="M1168.63 1095.72C1142.06 1103.69 1112.08 1108.55 1092.12 1125.69C1069.37 1140.05 1052.99 1159.83 1045.39 1182.12C1049.85 1158.72 1065.3 1137.53 1088.61 1122.82C1109.47 1105.52 1140.45 1100.66 1168.83 1095.72H1168.63Z" fill="black"/>
<path d="M1248.45 1150C1273.42 1192.64 1260.49 1252.26 1203.33 1273.7C1255.37 1247.64 1266 1193.99 1248.45 1150Z" fill="black"/>
<path d="M1144.36 1110.94C1121 1123.54 1094.22 1138.6 1082.89 1159.56C1075.61 1176.18 1070.7 1193.4 1068.25 1210.89C1067.28 1216.73 1067.12 1222.64 1067.75 1228.51C1064.02 1204.72 1067.63 1180.56 1078.28 1158.13C1090.61 1136.21 1118.39 1121.3 1144.36 1110.94Z" fill="black"/>
<path d="M1235.92 1156.77C1239.1 1177.72 1238.15 1198.94 1233.11 1219.66C1224.79 1240.22 1205.73 1256.01 1186.68 1270.51C1202.12 1254.57 1220.78 1238.15 1228.4 1218.62C1233.17 1198.22 1235.69 1177.52 1235.92 1156.77Z" fill="black"/>
<path d="M1177.46 1104.49C1154.69 1131.43 1128.82 1159.08 1116.49 1190.09C1110.92 1211.04 1108.83 1232.47 1110.27 1253.85C1111.17 1261.61 1114.18 1269.12 1119.1 1275.85C1099.04 1252.58 1106.46 1221.73 1110.57 1195.43C1111.07 1191.43 1112.04 1187.48 1113.48 1183.63C1129.45 1154.77 1151.04 1128.09 1177.46 1104.57V1104.49Z" fill="black"/>
<path d="M1215.86 1132.22C1229.2 1168.09 1217.87 1205.31 1196.81 1237.75C1203.03 1220.38 1210.35 1203.24 1214.86 1185.79C1217.95 1168.03 1218.29 1150.04 1215.86 1132.22Z" fill="black"/>
<path d="M1177.36 1145.38C1175.31 1187.56 1163.2 1229.05 1141.66 1267.64L1152.59 1237.44C1164.62 1207.39 1168.23 1176.06 1177.36 1145.38Z" fill="black"/>
<path d="M1160.81 1168.41C1147.48 1202.19 1136.9 1236.61 1129.12 1271.47C1130.12 1235.69 1140.94 1200.52 1160.81 1168.41Z" fill="black"/>
<path d="M1200.42 1105.2C1204.03 1136.29 1209.95 1167.37 1200.42 1198.22C1197.19 1213.67 1192.19 1228.85 1185.48 1243.57C1176.22 1257.33 1165.27 1270.34 1152.79 1282.39C1158 1275.77 1162.82 1269.32 1168.23 1262.62C1185.08 1243.17 1190.29 1220.46 1195.41 1197.5C1205.44 1166.89 1199.82 1136.29 1200.32 1105.2H1200.42Z" fill="black"/>
<path d="M1156 1148.48C1140.45 1181.96 1121.4 1214.8 1124.31 1251.3C1114.28 1215.04 1134.34 1179.57 1156 1148.48Z" fill="black"/>
<path d="M1104.85 1157.49C1097.69 1171.12 1093.74 1185.69 1093.22 1200.45C1093.72 1215.28 1094.33 1230.34 1093.22 1245.33C1088.01 1215.68 1082.09 1183.56 1104.85 1157.65V1157.49Z" fill="black"/>
<path d="M1195.11 1120.59C1195.81 1139.75 1194.7 1158.94 1191.8 1177.97C1186.24 1196.67 1178.72 1214.96 1169.33 1232.65C1174.75 1214.08 1181.87 1195.75 1186.88 1176.86C1191.9 1157.97 1190.79 1138.84 1195.11 1120.19V1120.59Z" fill="black"/>
<path d="M1212.35 1110.94C1230.3 1122.34 1243.94 1138.2 1261.49 1149.84C1239.73 1142.59 1225.29 1125.93 1212.35 1110.94Z" fill="black"/>
<path d="M1050.4 1195.27C1051.36 1208.44 1055.44 1221.34 1062.44 1233.29C1070.36 1244.77 1084.6 1253.86 1090.31 1266.53C1088.3 1263.56 1085.69 1260.87 1082.59 1258.56L1073.87 1251.31C1064.61 1244.19 1057.64 1235.4 1053.56 1225.69C1049.47 1215.98 1048.39 1205.63 1050.4 1195.51V1195.27Z" fill="black"/>
<path d="M1153.99 1120.19C1133.94 1147.93 1101.45 1174.07 1104.65 1208.42C1094.63 1173.91 1127.92 1144.66 1153.99 1120.19Z" fill="black"/>
<path d="M1228.3 1165.62C1228.6 1180.87 1227.39 1196.11 1224.69 1211.21C1220.2 1226.23 1211.53 1240.26 1199.32 1252.26L1211.25 1231.62C1223.88 1210.89 1221.98 1187.78 1228.3 1165.62Z" fill="black"/>
<path d="M1228.5 1134.85C1243.74 1152.88 1251.16 1174.37 1249.62 1196.05C1248.08 1217.73 1237.67 1238.42 1219.97 1254.97C1234.62 1237.33 1243.13 1216.93 1244.63 1195.83C1246.13 1174.73 1240.56 1153.69 1228.5 1134.85Z" fill="black"/>
</g>
<path d="M383.66 391.676C383.66 391.676 401.911 411.203 417.153 426.268C421.264 430.333 425.075 434.238 428.284 437.108C430.37 439.13 432.614 441.047 435.002 442.847C436.306 443.644 443.927 449.143 455.058 457.831L576.594 415.986L491.96 485.569C497.475 489.714 503.291 494.018 509.208 498.561L652.003 431.21L529.363 513.705L539.391 521.676L550.923 530.444L570.978 545.747L809.739 478.475L625.83 587.593C629.942 590.781 633.953 593.889 637.863 596.759L651.902 607.679L670.454 621.946L686.398 634.38L912.924 589.745L701.239 643.068C712.298 647.96 723.679 652.377 735.333 656.299L996.054 624.417L771.533 668.654C788.981 674.472 808.034 681.008 827.789 688.261L1045.79 664.35L874.317 706.036C883.844 709.941 893.27 714.006 902.696 718.47C928.835 730.391 953.482 744.27 976.299 759.917C981.113 763.185 985.726 766.692 990.238 770.199C1130.63 880.193 1203.13 1016.49 1203.13 1016.49C1203.13 1016.49 1204.03 877.244 1162.21 759.359C1139.05 694.319 1019.32 548.856 969.581 508.206C919.843 467.556 726.007 398.61 698.632 390.799C671.256 382.988 450.946 363.699 450.946 363.699L383.66 391.676Z" fill="#283826"/>
<path d="M1123.11 764.779C1074.23 767.347 1025.16 765.797 976.7 760.156C1025.57 757.587 1074.65 759.137 1123.11 764.779Z" fill="#384F37"/>
<path d="M1099.04 699.739C1034.43 710.037 968.926 716.379 903.097 718.709C967.681 708.293 1033.2 701.95 1099.04 699.739Z" fill="#384F37"/>
<path d="M944.711 537.06C855.302 569.154 763.86 597.54 670.753 622.106C760.158 590.005 851.6 561.618 944.711 537.06Z" fill="#384F37"/>
<path d="M652.204 607.359C728.183 570.178 806.76 536.461 887.555 506.372C811.566 543.54 732.99 577.256 652.204 607.359Z" fill="#384F37"/>
<path d="M860.178 502.707C788.489 537.516 714.215 568.845 637.763 596.52C709.388 561.766 783.558 530.439 859.877 502.707H860.178Z" fill="#384F37"/>
<path d="M551.125 530.203C619.85 500.597 690.93 474.584 763.913 452.331C695.229 482.002 624.144 508.016 551.125 530.203Z" fill="#384F37"/>
<path d="M712.77 446.833C657.567 475.144 599.664 499.982 539.591 521.119C594.803 492.728 652.703 467.785 712.77 446.514V446.833Z" fill="#384F37"/>
<path d="M545.406 399.887C508.314 416.061 468.882 428.587 427.982 437.189C465.055 420.981 504.491 408.453 545.406 399.887Z" fill="#384F37"/>
<path d="M511.914 396.697C482.39 410.307 450.439 420.277 417.152 426.268C446.778 412.65 478.83 402.679 512.215 396.697H511.914Z" fill="#384F37"/>
<path d="M1274.53 728.751C1275.21 738.096 1275.21 747.464 1274.53 756.808C1268.41 815.95 1238.43 1020.48 1238.43 1020.48C1238.43 1020.48 1148.98 830.217 1120.9 777.133C1092.82 724.049 1027.94 525.979 1056.02 350.228C1084.1 174.476 1275.53 0 1275.53 0C1275.53 0 1274.83 80.9015 1269.61 120.994C1268.71 127.45 1264.3 147.217 1258.68 172.802L1119.6 305.911L1243.84 242.147C1241.23 255.458 1238.63 268.768 1236.52 281.282L1156.3 343.373L1234.41 296.586C1231.27 313.283 1229.86 330.158 1230.2 347.04C1230.9 355.967 1233.51 375.973 1237.02 402.834L1133.64 584.882L1241.33 437.346C1246.65 477.917 1253.37 526.777 1259.28 574.441L1155.9 704.441L1266.2 629.438C1269.61 659.327 1272.32 686.826 1273.92 709.144L1203.03 792.038L1274.53 728.751Z" fill="#384F37"/>
<path d="M1090.32 285.109C1145.17 233.498 1203.87 184.55 1266.1 138.529C1211.21 190.211 1152.51 239.263 1090.32 285.427V285.109Z" fill="#4A6445"/>
<path d="M1133.63 211.621C1175.88 171.637 1221.98 134.328 1271.52 100.032C1229.29 140.034 1183.19 177.345 1133.63 211.621Z" fill="#4A6445"/>
<path d="M1271.52 45.1138C1220.8 103.055 1165.96 158.647 1107.26 211.619C1157.98 153.674 1212.82 98.0814 1271.52 45.1138Z" fill="#4A6445"/>
<path d="M1234.51 380.197C1193 454.961 1146.9 527.919 1096.23 599.07C1137.75 524.359 1183.84 451.401 1234.51 380.197Z" fill="#4A6445"/>
<path d="M1229.4 334.687C1182.92 399.633 1132.11 462.557 1077.18 523.191C1123.61 458.223 1174.42 395.296 1229.4 334.687Z" fill="#4A6445"/>
<path d="M1248.65 492.504C1214.96 560.558 1176.56 627.081 1133.63 691.769C1167.37 623.73 1205.77 557.208 1248.65 492.504Z" fill="#4A6445"/>
<path d="M1165.32 777.052C1196.87 743.643 1232.43 712.757 1271.52 684.833C1240 718.26 1204.43 749.149 1165.32 777.052Z" fill="#4A6445"/>
<path d="M1269.51 665.944C1229.95 697.771 1186.82 726.665 1140.65 752.266C1180.19 720.417 1223.32 691.522 1269.51 665.944Z" fill="#4A6445"/>
<path d="M1238.52 1015.85C1238.52 1015.85 1358.86 1167.29 1382.22 1195.59C1394.66 1210.97 1418.32 1249.07 1442.39 1286.22L1541.86 1170.88L1454.52 1304.79C1467.49 1325.42 1482.13 1345.36 1498.34 1364.49C1499.61 1365.81 1500.92 1367.25 1502.25 1368.79L1588.19 1287.09L1507.97 1375.57L1517.3 1386.17C1547.38 1363.05 1672.52 1251.46 1672.52 1251.46L1541.56 1413.82C1569.32 1446.06 1594.67 1479.57 1617.47 1514.17L1776.91 1401.95L1625.29 1572.44C1624.09 1603.68 1620.88 1644.17 1618.78 1677.33L1714.34 1621.06L1618.07 1689.85C1617.47 1700.29 1617.27 1709.77 1617.17 1717.5L1731.69 1650.07L1629.41 1743.25C1649.46 1749.63 1687.77 1754.49 1690.98 1752.57C1694.18 1750.66 1788.85 1575.63 1790.05 1552.11C1791.25 1528.6 1805.69 1357.39 1774.11 1303.83C1742.52 1250.27 1551.19 1080.65 1485.01 1055.15C1418.82 1029.64 1238.52 1015.85 1238.52 1015.85Z" fill="#283826"/>
<path d="M1788.95 1507.08C1736.51 1560.21 1680.08 1610.79 1619.98 1658.52C1672.47 1605.42 1728.89 1554.85 1788.95 1507.08Z" fill="#384F37"/>
<path d="M1785.54 1428.41C1735.83 1485.61 1681.99 1540.46 1624.29 1592.69C1674.05 1535.53 1727.89 1480.68 1785.54 1428.41Z" fill="#384F37"/>
<path d="M1603.13 1492.65C1655.16 1433.26 1711.33 1376.23 1771.4 1321.84C1719.32 1381.2 1663.14 1438.23 1603.13 1492.65Z" fill="#384F37"/>
<path d="M1493.93 1359.62C1535.04 1311.06 1580.34 1264.83 1629.51 1221.25C1588.46 1269.85 1543.16 1316.09 1493.93 1359.62Z" fill="#384F37"/>
<path d="M1613.97 1183.63C1570.79 1235.04 1523.32 1284.09 1471.87 1330.45C1515.16 1279.1 1562.62 1230.06 1613.97 1183.63Z" fill="#384F37"/>
<path d="M1462.04 1319.93C1495.69 1276.37 1533.86 1235.12 1576.16 1196.63C1542.14 1239.98 1503.99 1281.2 1462.04 1319.93Z" fill="#384F37"/>
<path d="M1434.17 1273.54C1465.37 1225.46 1501.14 1179.33 1541.16 1135.57C1509.88 1183.62 1474.12 1229.74 1434.17 1273.54Z" fill="#384F37"/>
<path d="M1510.18 1112.54C1486.3 1162.62 1457.6 1211.18 1424.34 1257.76C1448.26 1207.69 1476.95 1159.14 1510.18 1112.54Z" fill="#384F37"/>
<path d="M1415.41 1244.29C1433.57 1203.83 1456.54 1164.84 1484 1127.84C1465.85 1168.3 1442.88 1207.29 1415.41 1244.29Z" fill="#384F37"/>
<path d="M1484.2 1074.52C1463.33 1128.26 1437.59 1180.74 1407.19 1231.54C1428.07 1177.79 1453.8 1125.31 1484.2 1074.52Z" fill="#384F37"/>
<path d="M2352.51 1163.15C2352.51 1163.15 2321.92 1163.15 2297.75 1163.15C2291.14 1163.15 2285.02 1163.15 2280.1 1162.59C2276.74 1162.54 2273.38 1162.24 2270.08 1161.71C2268.47 1161.71 2258.44 1159.96 2242.7 1157.89L2211.52 1055.15L2192.56 1150.79L2169.2 1147.69L2150.75 1016.57L2141.82 1144.1L2127.98 1142.27L2112.14 1140.19L2084.66 1136.69L2008.45 944.675L2009.56 1127.12L1993.21 1124.97L1973.76 1122.58L1948.29 1119.47L1926.23 1116.84L1834.47 946.19L1908.48 1112.7C1896.91 1108.61 1885.63 1104.03 1874.68 1098.99L1749.64 914.387L1840.49 1083.44C1824.04 1075.95 1806.09 1067.5 1786.84 1059.53L1679.14 907.134L1740.81 1041.12C1730.79 1037.53 1721.26 1034.03 1710.73 1030.68C1683.01 1021.32 1654.23 1014.06 1624.79 1009C1618.58 1007.96 1612.36 1007.09 1606.04 1006.37C1411 983.412 1230.5 1019.68 1230.5 1019.68C1230.5 1019.68 1369.79 935.19 1513.38 890.714C1592.6 866.245 1810.81 854.528 1881.6 861.622C1952.4 868.716 2138.91 950.255 2163.18 962.928C2187.45 975.601 2339.67 1103.77 2339.67 1103.77L2352.51 1163.15Z" fill="#384F37"/>
<path d="M1532.04 918.771C1566.91 946.13 1598.03 976.347 1624.89 1008.92C1590.01 981.573 1558.88 951.353 1532.04 918.771Z" fill="#4A6445"/>
<path d="M1611.96 894.938C1649.35 937.979 1682.45 983.285 1710.93 1030.44C1673.56 987.385 1640.47 942.081 1611.96 894.938Z" fill="#4A6445"/>
<path d="M1868.57 894.541C1899.98 968.406 1926.59 1043.51 1948.29 1119.55C1916.81 1045.7 1890.2 970.594 1868.57 894.541Z" fill="#4A6445"/>
<path d="M1973.76 1122.74C1955.43 1053.33 1942.04 983.159 1933.65 912.554C1952.01 981.956 1965.4 1052.13 1973.76 1122.74Z" fill="#4A6445"/>
<path d="M1953.6 927.617C1971.76 992.739 1984.99 1058.67 1993.21 1125.05C1975.02 1059.93 1961.79 994.002 1953.6 927.617Z" fill="#4A6445"/>
<path d="M2111.84 1140.43C2090.08 1080.73 2073.33 1019.94 2061.7 958.465C2083.41 1018.18 2100.16 1078.97 2111.84 1140.43Z" fill="#4A6445"/>
<path d="M2098.51 987.636C2113.41 1038.67 2123.27 1090.56 2127.99 1142.82C2113.06 1091.89 2103.21 1040.11 2098.51 987.955V987.636Z" fill="#4A6445"/>
<path d="M2246.52 1065.51C2262.55 1096.62 2273.73 1129.16 2279.81 1162.43C2263.73 1131.34 2252.55 1098.78 2246.52 1065.51Z" fill="#4A6445"/>
<path d="M2269.88 1084.8C2283.98 1109.61 2293.28 1135.97 2297.45 1162.99C2283.3 1138.2 2274 1111.83 2269.88 1084.8Z" fill="#4A6445"/>
<path d="M2502.92 573.165C2502.92 573.165 2160.58 573.803 2085.37 589.106C2010.16 604.41 1837.68 657.414 1710.33 716.636C1582.98 775.857 1236.72 1017.61 1236.72 1017.61C1236.72 1017.61 1392.65 805.907 1409 786.458V847.194L1419.83 774.821C1433.36 760.554 1456.63 737.599 1481.5 714.404L1462.85 795.067L1499.65 697.746C1520.36 678.238 1542.71 659.864 1566.53 642.749L1519.8 738.396L1605.44 624.735L1630.81 615.409L1595.71 681.167L1652.37 607.917C1669.42 601.939 1688.37 595.483 1708.33 588.788L1666.41 663.711L1727.38 582.491C1777.52 565.832 1832.97 548.297 1881.1 533.472L1815.12 593.331L1901.26 527.653C1935.91 516.245 1971.49 506.712 2007.75 499.118C2033.24 498.295 2058.78 498.881 2084.16 500.872L1967.04 552.203L2104.02 502.147C2124.98 503.502 2147.24 505.176 2169.4 507.009L2084.77 534.747L2182.04 508.046C2198.68 509.56 2215.03 510.995 2230.37 512.509L2136.41 529.885L2321.32 523.748C2396.23 538.015 2502.92 573.165 2502.92 573.165Z" fill="#384F37"/>
<path d="M2434.23 602.338L2296.15 578.427L2401.14 616.765C2366.24 631.431 2326.73 648.01 2289.33 662.995L2201.49 595.085L2270.28 670.646C2256.24 676.385 2242.8 681.646 2230.17 686.588L2136.51 584.883L2143.03 715.521C2097.73 728.1 2053.37 742.71 2010.16 759.279L1857.03 651.836L1985.39 768.207C1964.63 776.177 1941.77 785.184 1915.8 795.785L1755.35 678.537L1892.13 805.429C1865.96 816.11 1836.98 828.066 1804.49 841.775L1511.78 807.422L1700.3 862.02C1667.61 867.042 1629.4 873.259 1587.99 881.708L1487.71 853.492L1560.31 887.765C1458.93 910.482 1341.51 948.103 1236.12 1017.77C1244.04 1009.8 1498.54 762.229 1600.22 706.913C1703.41 651.118 1985.99 552.044 2057.99 543.595C2129.99 535.146 2502.92 573.166 2502.92 573.166C2502.92 573.166 2474.54 585.281 2434.23 602.338Z" fill="#4A6445"/>
<path d="M1530.23 894.78C1498.35 889.573 1467.72 880.372 1439.48 867.521C1471.36 872.714 1502 881.916 1530.23 894.78Z" fill="#384F37"/>
<path d="M1580.37 762.866C1668.16 780.482 1754.64 802.01 1839.39 827.348C1751.6 809.708 1665.13 788.18 1580.37 762.866Z" fill="#384F37"/>
<path d="M1610.45 748.917C1696.05 767.967 1780.21 790.853 1862.55 817.464C1776.96 798.425 1692.79 775.539 1610.45 748.917Z" fill="#384F37"/>
<path d="M1827.45 646.336C1877.8 686.596 1924.41 729.697 1966.94 775.3C1916.59 735.04 1869.98 691.939 1827.45 646.336Z" fill="#384F37"/>
<path d="M1933.55 636.61C1973.85 670.762 2010.32 707.646 2042.55 746.844C2002.24 712.697 1965.77 675.811 1933.55 636.61Z" fill="#384F37"/>
<path d="M2065.51 738.793C2036.52 695.957 2012.06 651.273 1992.41 605.206C2021.49 648.01 2045.95 692.7 2065.51 738.793Z" fill="#384F37"/>
<path d="M2120.76 721.34C2111.81 675.068 2107.95 628.262 2109.23 581.457C2118.14 627.734 2121.99 674.536 2120.76 721.34Z" fill="#384F37"/>
<path d="M2100.51 727.397C2090.19 673.798 2084.96 619.657 2084.87 565.434C2095.19 619.033 2100.42 673.173 2100.51 727.397Z" fill="#384F37"/>
<path d="M2316.91 651.438C2275.09 627.527 2236.39 600.344 2201.39 570.297C2243.21 594.208 2281.91 621.391 2316.91 651.438Z" fill="#384F37"/>
<path d="M2347.19 638.925C2313.82 621.551 2283.47 600.755 2256.94 577.073C2290.27 594.494 2320.61 615.286 2347.19 638.925Z" fill="#384F37"/>
<path d="M198.75 1529.56C198.75 1529.56 367.015 1331.65 417.154 1295.54C467.293 1259.43 600.862 1185.47 717.484 1140.75C834.107 1096.04 1224.89 1013.22 1224.89 1013.22C1224.89 1013.22 954.139 1000.07 928.769 999.991L984.423 1029.72L912.725 1000.55C892.669 1001.43 860.681 1003.74 827.188 1006.77L910.218 1035.38L803.121 1009.08C775.107 1011.55 747.335 1015.52 719.991 1020.95L830.297 1040.8L683.691 1034.98L662.733 1045.18L740.147 1056.9L645.285 1053.95C631.447 1060.89 616.305 1068.7 600.361 1076.99L689.507 1089.34L585.319 1084.96C545.208 1106 502.39 1129.35 464.986 1150L552.127 1141.07L451.148 1158.76C423.75 1173.29 397.618 1189.26 372.931 1206.59C359.627 1220.97 347.598 1236.07 336.932 1251.78L441.02 1209.22L328.208 1264.14C319.183 1276.89 309.857 1290.6 300.732 1304.39L367.416 1268.84L295.618 1311.96C288.899 1322.32 282.18 1332.44 275.562 1342.17L337.433 1296.18L241.468 1400.27C223.786 1442.6 209.518 1485.78 198.75 1529.56Z" fill="#384F37"/>
<path d="M258.814 1504.37L304.641 1412.87L287.895 1492.02C317.978 1479.02 352.874 1464.2 384.963 1449.85L365.71 1366L401.308 1442.76C413.342 1437.42 424.873 1432.24 435.302 1427.29L387.871 1323.68L504.494 1391.35C538.133 1371.18 573.186 1352.56 609.484 1335.55L585.919 1194.31L630.242 1325.83C647.589 1317.86 667.144 1308.85 689.505 1298.97L660.425 1148.8L709.862 1290.12C732.424 1280.16 757.694 1269.16 786.072 1257.12L898.483 1070.21L856.267 1205.71C876.924 1189.29 901.291 1170.16 929.269 1149.92L952.232 1078.18L947.82 1136.93C1018.01 1089.1 1110.07 1039.68 1225.39 1012.74C1214.46 1013.54 862.885 1039.84 762.808 1071.81C661.227 1104.33 431.893 1219.5 389.275 1257.12C346.657 1294.74 198.748 1528.68 198.748 1528.68C198.748 1528.68 223.517 1519.36 258.814 1504.37Z" fill="#283826"/>
<path d="M968.678 1123.7C970.114 1100.98 976.669 1078.65 988.031 1057.78C986.692 1080.51 980.133 1102.85 968.678 1123.7Z" fill="#384F37"/>
<path d="M823.576 1088.07C806.051 1149.66 783.508 1210.29 756.09 1269.56C773.634 1207.97 796.177 1147.34 823.576 1088.07Z" fill="#384F37"/>
<path d="M795.8 1098.99C780.736 1159.81 760.637 1219.77 735.634 1278.48C750.711 1217.67 770.81 1157.7 795.8 1098.99Z" fill="#384F37"/>
<path d="M595.847 1174.71C617.485 1221.36 634.254 1269.34 645.986 1318.18C624.374 1271.52 607.605 1223.54 595.847 1174.71Z" fill="#384F37"/>
<path d="M534.979 1231.06C555.74 1268.74 571.762 1307.96 582.811 1348.15C562.033 1310.47 546.01 1271.25 534.979 1231.06Z" fill="#384F37"/>
<path d="M564.159 1357.55C530.966 1323.94 501.887 1287.88 477.318 1249.87C510.533 1283.46 539.582 1319.52 564.058 1357.55H564.159Z" fill="#384F37"/>
<path d="M521.139 1380.91C477.25 1359.21 436.2 1334.09 398.6 1305.9C442.484 1327.6 483.534 1352.73 521.139 1380.91Z" fill="#384F37"/>
<path d="M536.685 1372.22C486.803 1346.05 439.834 1316.53 396.296 1283.98C446.16 1310.17 493.126 1339.69 536.685 1372.22Z" fill="#384F37"/>
<path d="M361.198 1460.37C350.151 1425.51 344.162 1389.75 343.349 1353.81C354.341 1388.68 360.329 1424.43 361.198 1460.37Z" fill="#384F37"/>
<path d="M334.926 1471.85C325.566 1445.03 321.307 1417.25 322.291 1389.43C331.597 1416.26 335.855 1444.03 334.926 1471.85Z" fill="#384F37"/>
<path d="M1240.63 1016.81H915.132C887.255 1016.81 822.776 1020.87 759.501 1024.38L836.915 908.727L728.014 1026.21C685.396 1028.29 646.088 1029.64 622.623 1028.68C620.015 1028.68 617.308 1028.68 614.5 1028.68L658.723 937.421L601.665 1028.21C595.548 1028.21 589.03 1027.81 581.609 1027.73C590.333 998.556 645.285 869.193 645.285 869.193L529.866 1026.77C465.388 1026.13 390.08 1026.77 351.072 1029.48L383.562 879.236L272.555 1052.6C233.948 1068.54 185.113 1089.82 144.601 1107.12L150.116 1022.39L129.258 1113.49C116.423 1118.99 104.69 1123.69 94.9633 1127.52L101.582 1025.89L54.0502 1132.54C32.4905 1123.77 -0.19988 1102.81 0.000674282 1099.94C0.201229 1097.07 156.433 955.594 185.213 943.559C213.993 931.523 420.464 839.941 509.71 833.325C598.957 826.71 944.814 859.788 1022.13 887.446C1099.44 915.104 1240.63 1016.81 1240.63 1016.81Z" fill="#4A6445"/>
<path d="M242.872 922.437C222.646 981.948 197.522 1040.34 167.664 1097.23C187.846 1037.71 212.971 979.317 242.872 922.437Z" fill="#384F37"/>
<path d="M344.552 886.49C316.997 946.936 284.643 1005.93 247.684 1063.12C275.185 1002.71 307.541 943.763 344.552 886.65V886.49Z" fill="#384F37"/>
<path d="M388.575 1027.41C417.252 964.573 450.74 903.191 488.852 843.607C460.071 906.41 426.585 967.787 388.575 1027.41Z" fill="#384F37"/>
<path d="M631.346 1028.92C653.873 977.857 681.226 928.218 713.172 880.431C690.665 931.503 663.311 981.144 631.346 1028.92Z" fill="#384F37"/>
<path d="M771.334 871.824C746.693 925.573 717.271 977.859 683.29 1028.29C707.907 974.531 737.33 922.243 771.334 871.824Z" fill="#384F37"/>
<path d="M703.444 1028.93C724.801 984.594 750.692 941.728 780.858 900.758C759.978 945.252 734.068 988.15 703.444 1028.93Z" fill="#384F37"/>
<path d="M781.159 1023.27C810.361 977.53 844.094 933.713 882.038 892.229C852.844 937.969 819.111 981.787 781.159 1023.27Z" fill="#384F37"/>
<path d="M932.479 900.04C895.112 943.143 853.571 983.864 808.235 1021.83C845.641 978.707 887.25 937.985 932.68 900.04H932.479Z" fill="#384F37"/>
<path d="M830.896 1020.56C860.232 985.511 893.819 952.835 931.173 922.997C901.777 958.007 868.196 990.679 830.896 1020.56Z" fill="#384F37"/>
<path d="M998.16 897.17C953.432 940.637 904.804 981.473 852.658 1019.36C897.333 975.855 945.964 935.016 998.16 897.17Z" fill="#384F37"/>
<path d="M1837.28 410.168C1833.08 414.109 1828.18 417.545 1822.74 420.37C1794.46 404.987 1727.28 369.597 1682.35 353.497C1646.21 340.458 1608.74 329.872 1570.34 321.853C1570.34 321.853 1661.7 353.736 1717.35 388.806C1754.15 411.762 1779.82 428.261 1792.96 436.63L1771.9 448.108C1741.82 431.369 1671.62 393.429 1635.82 382.51C1591.1 369.039 1517.5 351.106 1511.48 349.671C1518.5 352.62 1609.75 391.516 1659.89 419.653C1686.35 434.469 1711.76 450.434 1736 467.476L1687.97 492.663C1661.29 480.149 1598.92 451.216 1570.34 440.934C1534.54 427.942 1443.59 401.719 1438.48 400.204C1442.29 402.755 1504.46 442.847 1543.67 469.15C1569.87 487.893 1593.19 509.029 1613.16 532.118C1573.05 553.638 1539.46 571.971 1526.22 581.296C1522.27 584.173 1518.65 587.321 1515.39 590.702C1489.32 583.369 1424.54 565.196 1407.09 557.464C1387.04 548.378 1344.22 527.176 1337.8 524.067C1345.62 529.328 1411.4 572.529 1443.49 585.68L1500.15 608.795C1492.83 618.519 1485.31 629.997 1477.89 642.192L1314.23 607.599L1466.56 661.56C1457.33 677.501 1448.51 694.479 1440.28 710.5L1276.03 762.627L1432.96 724.926C1419.53 751.468 1408.6 774.503 1402.08 786.3C1382.02 822.168 1239.43 1017.45 1239.43 1017.45C1239.43 1017.45 1227.09 794.271 1229.4 719.745C1231.71 645.22 1329.18 462.136 1373.8 415.667C1418.42 369.199 1561.12 283.754 1660.59 258.567C1726.58 241.908 1832.37 243.662 1832.37 243.662C1832.37 243.662 1833.57 258.567 1834.87 279.37L1732.59 270.443L1835.88 294.355C1836.48 304.637 1837.08 315.716 1837.68 326.795L1642.74 291.725C1642.74 291.725 1799.78 363.46 1839.59 381.872C1840.35 391.343 1839.57 400.854 1837.28 410.168Z" fill="#4A6445"/>
<path d="M1231.3 839.065C1290.45 808.53 1352.32 781.464 1416.42 758.084C1357.25 788.59 1295.38 815.654 1231.3 839.065Z" fill="#384F37"/>
<path d="M1260.09 845.281C1305.88 819.996 1354.52 798.143 1405.39 780.002C1359.59 805.274 1310.95 827.127 1260.09 845.281Z" fill="#384F37"/>
<path d="M1296.08 626.968C1351.99 639.338 1406.39 655.663 1458.63 675.748C1402.75 663.308 1348.36 646.985 1296.08 626.968Z" fill="#384F37"/>
<path d="M1315.44 590.621C1374.02 598.733 1431.6 610.895 1487.51 626.966C1428.94 618.826 1371.37 606.666 1315.44 590.621Z" fill="#384F37"/>
<path d="M1427.75 419.014C1483.32 459.188 1535.42 502.3 1583.68 548.058C1528.06 507.925 1475.96 464.809 1427.75 419.014Z" fill="#384F37"/>
<path d="M1552.49 565.354C1512.13 544.483 1474.71 520.219 1440.89 492.981C1481.27 513.832 1518.69 538.098 1552.49 565.354Z" fill="#384F37"/>
<path d="M1523.51 386.255C1592.58 411.857 1659.38 441.15 1723.47 473.931C1654.43 448.281 1587.63 418.99 1523.51 386.255Z" fill="#384F37"/>
<path d="M1673.93 326.793C1731.08 351.099 1785.7 378.977 1837.28 410.166C1780.14 385.852 1725.52 357.974 1673.93 326.793Z" fill="#384F37"/>
<path d="M1239.43 1017.45C1179.05 979.023 1115.38 943.975 1048.9 912.553C981.019 881.112 910.258 853.775 837.215 830.775L968.879 820.413L816.959 824.956C799.289 819.521 781.029 815.385 762.408 812.602C756.893 812.044 750.676 811.167 743.957 810.291L882.039 763.663L705.35 804.472C677.072 800.248 643.78 795.545 607.379 792.118L703.445 729.788L508.406 787.574C498.378 787.574 488.35 787.574 478.323 788.371C444.241 790.625 410.596 795.974 378.045 804.313L488.35 718.31L355.082 810.45C330.978 817.521 306.24 823.143 281.077 827.268L274.86 827.906L415.248 729.788L242.671 830.934C160.945 838.427 79.8203 845.361 79.8203 845.361C79.8203 845.361 354.781 690.652 438.713 684.833C522.645 679.015 772.536 707.47 879.933 746.845C986.328 785.661 1231.61 1010.43 1239.43 1017.45Z" fill="#384F37"/>
<path d="M1239.43 1017.61C1239.43 1017.61 954.036 769.084 880.232 746.607C806.428 724.13 504.995 677.343 439.012 684.596C373.03 691.849 80.1194 845.123 80.1194 845.123C80.1194 845.123 96.6652 824.161 121.735 794.351L205.165 760.237L134.971 778.728C152.419 758.085 172.776 734.571 193.934 711.297L364.406 661.64L221.611 681.168C239.661 662.198 257.51 644.265 274.056 629.2C312.763 632.309 370.021 637.171 385.464 640.2C408.026 644.504 462.878 661.72 469.597 664.111L315.47 596.6L321.988 592.695C344.592 582.191 369.332 574.908 395.091 571.174L572.682 652.315L462.878 560.972C542.202 552.853 622.182 549.496 702.14 550.929C733.025 576.993 810.54 643.069 819.966 657.974C830.896 675.43 842.929 697.349 844.433 699.979L812.646 590.862C892.867 630.715 991.139 691.052 1018.31 715.203C1060.43 752.266 1239.43 1017.61 1239.43 1017.61Z" fill="#4A6445"/>
<path d="M360.595 578.108C413.593 599.71 464.123 624.94 511.613 653.51C458.679 631.82 408.158 606.595 360.595 578.108Z" fill="#384F37"/>
<path d="M508.406 556.905C551.449 585.196 591.095 616.602 626.834 650.719C583.813 622.409 544.169 591.004 508.406 556.905Z" fill="#384F37"/>
<path d="M560.049 553.558C614.767 594.23 665.927 637.824 713.172 684.037C658.407 643.402 607.244 599.805 560.049 553.558Z" fill="#384F37"/>
<path d="M595.245 553.559C635.113 584.151 671.334 617.611 703.444 653.51C663.572 622.92 627.351 589.46 595.245 553.559Z" fill="#384F37"/>
<path d="M659.524 550.609C716.237 595.97 769.258 644.157 818.263 694.877C761.612 649.493 708.626 601.307 659.624 550.609H659.524Z" fill="#384F37"/>
<path d="M878.429 625.771C906.513 668.955 929.993 713.934 948.623 760.235C920.495 717.151 897.013 672.249 878.429 626.011V625.771Z" fill="#384F37"/>
<path d="M952.835 670.009C974.411 711.213 991.194 753.901 1002.97 797.538C981.43 756.325 964.648 713.639 952.835 670.009Z" fill="#384F37"/>
<path d="M1018.82 715.361C1038.86 766.525 1053.94 818.832 1063.94 871.824C1043.9 820.661 1028.82 768.354 1018.82 715.361Z" fill="#384F37"/>
<path d="M1084.3 887.766C1064.33 838.901 1049.31 788.846 1039.37 738.078C1059.29 786.954 1074.31 837.006 1084.3 887.766Z" fill="#384F37"/>
<path d="M169.068 739.033C225.755 718.923 284.453 702.606 344.553 690.253C287.855 710.34 229.158 726.656 169.068 739.033Z" fill="#384F37"/>
<path d="M205.267 832.369C224.466 805.846 248.077 781.503 275.461 759.996C256.263 786.519 232.652 810.863 205.267 832.369Z" fill="#4A6445"/>
<path d="M590.434 695.673C540.683 731.484 487.547 764.207 431.494 793.552C481.245 757.741 534.381 725.019 590.434 695.673Z" fill="#4A6445"/>
<path d="M470.401 788.77C504.215 766.162 541.234 746.768 580.706 730.983C546.9 753.6 509.88 772.995 470.401 788.77Z" fill="#4A6445"/>
<path d="M649.295 796.184C687.052 771.998 727.966 751.101 771.332 733.854C733.534 757.995 692.627 778.888 649.295 796.184Z" fill="#4A6445"/>
<path d="M683.289 801.285C704.369 784.342 729.005 770.451 756.09 760.236C735.004 777.258 710.374 791.253 683.289 801.604V801.285Z" fill="#4A6445"/>
<path d="M808.235 822.407C840.99 812.211 875.453 805.9 910.518 803.676C877.778 813.908 843.308 820.22 808.235 822.407Z" fill="#4A6445"/>
<path d="M887.354 847.274C917.468 844.328 947.994 845.515 977.603 850.781C947.487 853.691 916.968 852.505 887.354 847.274Z" fill="#4A6445"/>
<path d="M1250.16 1013.62C1246.71 1013.95 1243.38 1014.83 1240.37 1016.19C1237.35 1017.56 1234.71 1019.4 1232.61 1021.59C1229 1026.53 1153.89 1054.83 1157 1114.77C1160.11 1174.71 1213.76 1208.58 1274.72 1203.24C1335.69 1197.9 1372.29 1149.92 1359.96 1095.48C1347.23 1039.69 1277.23 1025.1 1270.71 1019.52C1268.23 1017.2 1265.03 1015.43 1261.42 1014.39C1257.82 1013.36 1253.93 1013.09 1250.16 1013.62Z" fill="#FFC727"/>
<path opacity="0.4" d="M1250.16 1013.62C1246.71 1013.95 1243.38 1014.83 1240.37 1016.19C1237.35 1017.56 1234.71 1019.4 1232.61 1021.59C1229 1026.53 1153.89 1054.83 1157 1114.77C1160.11 1174.71 1213.76 1208.58 1274.72 1203.24C1335.69 1197.9 1372.29 1149.92 1359.96 1095.48C1347.23 1039.69 1277.23 1025.1 1270.71 1019.52C1268.23 1017.2 1265.03 1015.43 1261.42 1014.39C1257.82 1013.36 1253.93 1013.09 1250.16 1013.62Z" fill="black"/>
<g opacity="0.2">
<path d="M1232.61 1021.75C1221.48 1029.24 1209.65 1036.02 1199.12 1043.83C1183.54 1055.71 1171.43 1070.16 1163.65 1086.16C1155.87 1102.16 1152.61 1119.33 1154.09 1136.45C1150.17 1119.06 1152.03 1101.17 1159.49 1084.53C1166.95 1067.89 1179.74 1053.09 1196.61 1041.6C1208.02 1034.33 1220.05 1027.7 1232.61 1021.75Z" fill="black"/>
<path d="M1330.98 1050.92C1372.8 1084.16 1386.43 1143.7 1342.01 1179.41C1379.61 1140.75 1366.48 1087.51 1330.98 1050.92Z" fill="black"/>
<path d="M1216.26 1042.63C1199.82 1060.81 1181.27 1082.49 1179.56 1105.12C1179.9 1122.7 1182.76 1140.19 1188.08 1157.25C1189.62 1163.02 1191.97 1168.64 1195.1 1173.99C1181.38 1152.65 1174.33 1129 1174.55 1105.04C1176.75 1081.13 1196.11 1059.53 1216.26 1042.63Z" fill="black"/>
<path d="M1322.16 1060.73C1334.17 1079.52 1342.42 1099.69 1346.62 1120.51C1347.73 1142.11 1336.6 1162.11 1324.96 1180.92C1332.48 1161.56 1343.01 1141.07 1341.71 1120.91C1337.43 1100.43 1330.89 1080.29 1322.16 1060.73Z" fill="black"/>
<path d="M1244.64 1027.49C1234.62 1059.37 1222.48 1092.13 1224.59 1124.57C1228.36 1145.76 1235.68 1166.45 1246.35 1186.1C1250.49 1193.16 1256.55 1199.39 1264.1 1204.36C1239.03 1190.65 1231.21 1164.5 1223.99 1142.58C1221.47 1134.91 1219.63 1127.11 1218.47 1119.23C1221.01 1087.76 1229.78 1056.79 1244.44 1027.49H1244.64Z" fill="black"/>
<path d="M1292.58 1043.11C1320.65 1073.16 1326.07 1111.26 1320.35 1147.45C1318.65 1129.43 1318.15 1111.34 1314.84 1093.64C1310.11 1076.13 1302.63 1059.15 1292.58 1043.11Z" fill="black"/>
<path d="M1262.19 1065.99C1278.48 1106.2 1285.02 1148.5 1281.44 1190.65L1278.64 1159.24C1277.03 1127.36 1266.9 1097.31 1262.19 1066.07V1065.99Z" fill="black"/>
<path d="M1256.58 1092.13C1258.63 1127.5 1263.56 1162.72 1271.32 1197.58C1256.83 1163.7 1251.81 1127.71 1256.58 1092.13Z" fill="black"/>
<path d="M1266.5 1021.99C1283.35 1050.12 1302.3 1077.78 1306.61 1109.27C1310.31 1124.66 1312.15 1140.3 1312.13 1155.97C1309.43 1171.43 1304.76 1186.62 1298.19 1201.33C1300.3 1193.36 1302.5 1186.18 1304.21 1178.53C1311.63 1155.74 1306.72 1132.94 1301.7 1109.98C1297.79 1078.5 1279.44 1051.32 1266.4 1022.31L1266.5 1021.99Z" fill="black"/>
<path d="M1243.44 1074.68C1243.44 1110.38 1239.53 1146.41 1258.18 1179.97C1233.01 1148.56 1236.22 1109.91 1243.44 1074.68Z" fill="black"/>
<path d="M1199.32 1097.15C1198.45 1111.91 1201.04 1126.66 1206.94 1140.67C1213.86 1154.46 1220.98 1168.49 1226.29 1182.76C1208.64 1156.45 1189.19 1127.84 1199.32 1097.15Z" fill="black"/>
<path d="M1268.11 1037.85C1277.03 1055.68 1284.27 1074.01 1289.77 1092.69C1292.64 1111.73 1293.51 1130.92 1292.37 1150.08C1289.37 1131.27 1288.16 1112.06 1284.85 1093.33C1281.54 1074.6 1272.12 1056.58 1268.11 1037.53V1037.85Z" fill="black"/>
<path d="M1280.04 1023.9C1301.8 1029.64 1321.45 1040.88 1343.01 1047.02C1319.45 1046.14 1298.69 1034.5 1280.04 1023.9Z" fill="black"/>
<path d="M1164.52 1147.53C1171.1 1159.6 1180.49 1170.58 1192.2 1179.89C1204.63 1188.57 1222.28 1193.2 1232.31 1203.8C1229.13 1201.61 1225.55 1199.84 1221.68 1198.54L1210.35 1194.07C1198.49 1189.94 1188.09 1183.56 1180.03 1175.51C1171.98 1167.45 1166.51 1157.96 1164.12 1147.85L1164.52 1147.53Z" fill="black"/>
<path d="M1229.4 1048.69C1222.28 1080.57 1203.33 1113.65 1221.18 1144.98C1196.51 1115.49 1215.46 1078.58 1229.4 1048.69Z" fill="black"/>
<path d="M1318.75 1071.09C1325.59 1085.32 1331.05 1099.95 1335.09 1114.85C1337.35 1130.19 1335.26 1145.74 1328.98 1160.36L1331.18 1137.72C1334.19 1114.85 1322.36 1093.65 1318.75 1071.09Z" fill="black"/>
<path d="M1305.61 1042C1327.75 1054.75 1344.04 1072.9 1352.01 1093.69C1359.97 1114.48 1359.17 1136.77 1349.73 1157.17C1351.24 1146.65 1353.54 1135.97 1354.25 1125.29C1352.44 1093.48 1335.1 1063.49 1305.91 1041.68L1305.61 1042Z" fill="black"/>
</g>
<path opacity="0.4" d="M1284.45 1197.1C1284.45 1198.78 1280.44 1200.69 1274.43 1201.41C1268.41 1202.13 1264.4 1201.41 1263.6 1199.65C1262.79 1197.9 1267.61 1196.07 1273.62 1195.35C1279.64 1194.63 1284.05 1195.43 1284.45 1197.1Z" fill="black"/>
<path d="M1410.4 972.572C1410.4 972.572 1580.07 986.521 1699.4 1033.95C1818.73 1081.37 1993.11 1299.92 2015.37 1325.99C2037.63 1352.05 2057.49 1467.39 2057.49 1467.39C2057.49 1467.39 1963.83 1338.1 1921.31 1289.72C1878.8 1241.34 1718.85 1089.74 1655.68 1057.14C1592.5 1024.54 1410.4 972.572 1410.4 972.572Z" fill="#384F37"/>
<path d="M2056.39 1578.1C2056.39 1578.1 2022.39 1547.33 1999.03 1529.64C1996.32 1527.56 1988 1522.38 1975.56 1514.65L1938.76 1361.62L1954.61 1501.5L1916.3 1478.47L1891.23 1294.26V1464.2L1857.14 1443.71L1844.7 1257.28L1836.38 1431.36L1821.04 1421.79L1805.29 1412.47C1790.15 1403.54 1775.21 1394.3 1759.27 1385.05L1728.38 1149.12L1719.86 1361.62C1714.74 1358.51 1709.83 1355.4 1704.41 1352.45L1673.13 1333.72L1643.65 1174.31L1663.7 1328.06C1657.58 1324.39 1651.77 1320.97 1645.85 1317.3L1564.83 1024.3L1600.93 1290.52L1575.66 1275.22L1540.26 1069.97L1562.22 1267.24L1545.27 1256.96C1523.41 1243.65 1507.27 1233.61 1499.35 1228.35C1495.14 1225.48 1490.42 1221.97 1485.41 1217.91C1474.68 1209.22 1462.04 1197.9 1448.61 1185.07L1395.56 1023.98L1430.16 1167.45C1421.83 1159.48 1413.41 1151.03 1404.99 1142.43L1328.88 1011.63L1356.75 1093.41C1325.17 1061.13 1298.49 1034.34 1287.56 1027.33C1261.59 1010.67 1230.6 1021.19 1226.09 1022.79C1233.81 1018.72 1323.16 971.854 1410.4 972.811C1452.56 973.19 1494.36 978.921 1534.24 989.788C1585.69 1003.5 1642.34 1026.21 1713.14 1060.33C1843 1122.74 2028.01 1405.22 2048.97 1442.44C2052.56 1449.01 2055.06 1455.92 2056.39 1463C2056.39 1464.28 2056.89 1465.63 2057.09 1466.99C2065.71 1511.78 2056.39 1578.1 2056.39 1578.1Z" fill="#4A6445"/>
<path d="M1423.54 1011.39C1449.03 1079.24 1469.65 1148.19 1485.31 1217.91C1459.82 1150.05 1439.2 1081.1 1423.54 1011.39Z" fill="#384F37"/>
<path d="M1491.93 1019.04C1514.68 1097.59 1532.45 1177 1545.17 1256.96C1522.42 1178.42 1504.65 1099.01 1491.93 1019.04Z" fill="#384F37"/>
<path d="M1681.55 1114.61C1694.1 1193.46 1701.6 1272.76 1704.01 1352.21C1691.46 1273.36 1683.97 1194.06 1681.55 1114.61Z" fill="#384F37"/>
<path d="M1821.03 1421.8C1815.84 1374.06 1815.84 1326.06 1821.03 1278.33C1826.18 1326.06 1826.18 1374.06 1821.03 1421.8Z" fill="#384F37"/>
<path d="M1783.33 1178.13C1795.58 1255.82 1802.78 1333.96 1804.89 1412.23C1792.69 1334.54 1785.5 1256.41 1783.33 1178.13Z" fill="#384F37"/>
<path d="M1157.6 992.42C1157.6 992.42 1025.33 999.593 969.781 1039.37C888.255 1097.63 743.856 1280.72 720.391 1432.87C712.67 1483.33 724.503 1636.13 724.503 1636.13C724.503 1636.13 690.308 1588.3 660.526 1543.35C663.02 1532.99 666.575 1522.8 671.155 1512.9C678.776 1498.31 696.726 1470.42 697.829 1468.66C684.031 1483.22 671.884 1498.71 661.528 1514.97C658.721 1520.63 655.812 1526.69 653.105 1532.03C647.69 1524.06 643.077 1516.09 638.063 1508.12C646.81 1496.79 654.486 1484.96 661.027 1472.73C670.522 1456.72 681.377 1441.25 693.517 1426.42C678.875 1435.35 664.817 1444.88 651.4 1454.95C641.329 1464.19 632.207 1474.05 624.125 1484.44C616.7 1472.78 614.506 1459.45 617.908 1446.66C626.331 1437.66 640.57 1422.75 647.991 1414.78C659.122 1403.62 722.397 1347.67 726.308 1344.16C721.695 1347.43 648.191 1399.96 637.061 1409.28C632.548 1413.03 626.331 1418.85 620.515 1424.51C621.518 1418.77 622.52 1412.63 623.824 1406.25C633.852 1397.09 648.191 1383.62 659.423 1375.09C676.67 1362.1 712.77 1338.42 717.684 1335.24C711.065 1338.42 650.698 1367.91 639.267 1378.52C635.657 1381.86 631.445 1385.77 627.334 1389.36C632.548 1365.44 639.367 1339.06 646.487 1315.79C662.185 1298.08 679.266 1281.18 697.628 1265.17C712.87 1254.33 793.694 1196.39 798.708 1192.72C793.393 1195.59 707.756 1241.98 693.316 1250.11C680.839 1258.8 669.423 1268.41 659.222 1278.8C662.819 1267.96 668.179 1257.54 675.166 1247.8C683.188 1238.39 711.767 1212.41 748.168 1180.76C768.223 1170.8 793.092 1159.08 798.908 1156.85C807.532 1153.35 831.498 1145.77 839.821 1143.06C830.395 1145.14 800.312 1152.23 785.271 1155.5C781.488 1156.36 777.771 1157.4 774.14 1158.61C846.34 1097.39 935.085 1026.61 961.658 1015.14C1006.58 997.122 1113.48 993.695 1157.6 992.42Z" fill="#384F37"/>
<path d="M1240.63 1018.48C1240.63 1018.48 1216.06 1106.16 1206.64 1113.33C1202.02 1116.92 1155.69 1159.8 1106.36 1206.83C1101.75 1189.53 1086.9 1091.33 1088.71 1071.73C1087.68 1120.25 1089.96 1168.78 1095.53 1217.11L1076.68 1235.12L1050.4 1158.77C1045.79 1144.82 1028.74 1066.15 1028.74 1066.15C1028.74 1066.15 1039.37 1163.47 1042.28 1173.67C1044.59 1181.64 1053.91 1233.93 1057.42 1253.38C1046.59 1263.74 1036.36 1273.7 1027.34 1282.95C1019.36 1272.13 1013.6 1260.37 1010.29 1248.12C1004.48 1224.2 981.613 1167.69 981.613 1167.69C981.613 1167.69 995.652 1222.13 998.56 1236.56C999.878 1249.58 999.103 1262.67 996.254 1275.54L949.525 1106.32C949.525 1106.32 984.521 1303.43 994.148 1316.5C990.137 1320.89 986.828 1324.47 984.12 1327.26C979.708 1332.52 973.09 1341.05 964.967 1351.81C961.859 1340.02 923.553 1282.55 911.118 1264.14C918.038 1275.22 933.48 1300.08 939.698 1313.79C945.886 1332.05 949.882 1350.73 951.631 1369.59C947.319 1375.41 942.606 1381.62 937.892 1388.08C933.781 1372.94 852.657 1225.32 844.233 1211.05C852.757 1226.99 918.439 1386.41 922.951 1408.48C914.628 1419.8 906.004 1431.68 897.481 1443.56C884.445 1428.41 829.292 1294.58 818.462 1269.8C823.064 1280.22 826.815 1290.87 829.693 1301.68C833.203 1317.62 878.629 1447.94 887.353 1457.18C880.333 1466.83 873.515 1476.47 867.297 1485.72C851.353 1452.32 812.446 1391.27 799.911 1372.22C807.131 1384.17 822.975 1410.4 827.688 1420.04C833.604 1432 853.258 1479.82 855.164 1484.28C853.559 1481.34 841.325 1459.34 830.295 1443.08C819.264 1426.82 769.427 1357.07 763.31 1348.39C768.324 1356.36 803.421 1410.64 810.941 1434.31C817.56 1454.32 835.71 1500.54 843.13 1519.44L827.487 1541.35C816.758 1528.12 797.404 1504.29 795.8 1501.5L744.157 1431.6C745.561 1434.63 767.421 1483.33 769.527 1494.17C771.131 1502.94 800.513 1543.27 813.549 1560.72C812.044 1562.64 810.841 1564.39 809.939 1565.74C804.53 1573.12 798.179 1580.04 790.986 1586.39C779.776 1579.76 769.338 1572.34 759.8 1564.23C746.463 1552.11 727.711 1497.36 724.502 1488.51C726.007 1495.76 734.029 1532.75 739.143 1547.57C743.455 1559.61 765.716 1585.67 777.048 1598.26C760.401 1611.45 742.86 1623.9 724.502 1635.57C724.502 1635.57 696.425 1489.47 724.502 1379.71C752.58 1269.96 860.278 1115.57 959.753 1040.24C1018.52 995.688 1129.52 990.028 1157.6 991.862C1185.68 993.695 1240.63 1018.48 1240.63 1018.48Z" fill="#4A6445"/>
<path d="M762.409 1376.12C792.631 1424.27 818.208 1474.18 838.92 1525.41C808.685 1477.29 783.108 1427.41 762.409 1376.2V1376.12Z" fill="#384F37"/>
<path d="M793.596 1256.8C827.308 1325.79 856.231 1396.2 880.236 1467.7C846.554 1398.71 817.631 1328.3 793.596 1256.8Z" fill="#384F37"/>
<path d="M1109.57 1019.6C1119.34 1076.28 1124 1133.44 1123.51 1190.65C1113.76 1134.07 1109.1 1077.02 1109.57 1019.92V1019.6Z" fill="#384F37"/>
<path d="M903.296 1099.86C935.203 1174.53 962.247 1250.46 984.321 1327.34C952.473 1252.66 925.43 1176.74 903.296 1099.86Z" fill="#384F37"/>
<path d="M910.316 1195.43C936.609 1241.8 958.171 1289.78 974.795 1338.9C948.531 1292.52 926.97 1244.54 910.316 1195.43Z" fill="#384F37"/>
</svg>
